<?xml version="1.0" encoding="utf-8"?>
<!-- Generator: Adobe Illustrator 22.1.0, SVG Export Plug-In . SVG Version: 6.00 Build 0)  -->
<svg version="1.1" id="Layer_1" xmlns="http://www.w3.org/2000/svg" xmlns:xlink="http://www.w3.org/1999/xlink" x="0px" y="0px"
	 viewBox="0 0 599 599" style="enable-background:new 0 0 599 599;" xml:space="preserve">
<style type="text/css">
	.st0{fill:#BFE036;}
	.st1{fill:#FFFFFF;}
	.st2{fill:#3B4ACC;}
	.st3{fill:url(#SVGID_1_);}
	.st4{fill:url(#SVGID_2_);}
	.st5{fill:#0AA0A0;}
</style>
<g>
	<g>
		<path class="st0" d="M141.6,447.3h-33.2v22.9h32v13.5h-32v45.2H94.1v-95.1h47.5V447.3z"/>
		<path class="st0" d="M153.7,443.9c0-2.4,0.9-4.5,2.6-6.3c1.8-1.8,3.9-2.6,6.3-2.6c2.5,0,4.6,0.9,6.4,2.6s2.6,3.8,2.6,6.3
			s-0.9,4.6-2.6,6.4c-1.7,1.8-3.8,2.6-6.3,2.6s-4.6-0.9-6.4-2.6C154.6,448.7,153.7,446.5,153.7,443.9z M169.7,468.9v60h-13.9v-60
			H169.7z"/>
		<path class="st0" d="M222.1,479.1l-11.5,6.1c-1.8-3.7-4-5.5-6.7-5.5c-1.3,0-2.4,0.4-3.3,1.3c-0.9,0.8-1.4,1.9-1.4,3.2
			c0,2.3,2.7,4.6,8,6.8c7.4,3.2,12.3,6.1,14.8,8.7c2.5,2.7,3.8,6.3,3.8,10.8c0,5.8-2.1,10.6-6.4,14.5c-4.1,3.7-9.2,5.5-15,5.5
			c-10.1,0-17.2-4.9-21.4-14.7l11.8-5.5c1.6,2.9,2.9,4.7,3.8,5.5c1.7,1.6,3.7,2.3,6,2.3c4.7,0,7-2.1,7-6.4c0-2.5-1.8-4.8-5.4-6.9
			c-1.4-0.7-2.8-1.4-4.2-2c-1.4-0.7-2.8-1.3-4.3-2c-4-2-6.9-3.9-8.5-5.9c-2.1-2.5-3.1-5.7-3.1-9.7c0-5.2,1.8-9.5,5.4-12.9
			c3.7-3.4,8.1-5.1,13.3-5.1C212.6,467.2,218.3,471.2,222.1,479.1z"/>
		<path class="st0" d="M238.4,424.8h13.9v49c4.9-4.4,10.4-6.7,16.3-6.7c6.8,0,12.2,2.2,16.3,6.6c3.4,3.8,5.2,9.9,5.2,18.3v36.9
			h-13.9v-35.5c0-4.8-0.9-8.3-2.6-10.4c-1.7-2.2-4.4-3.2-8.2-3.2c-4.8,0-8.3,1.5-10.2,4.5c-1.9,3-2.9,8.3-2.9,15.6v29h-13.9
			L238.4,424.8L238.4,424.8z"/>
		<path class="st1" d="M310.2,528.9v-95.1h14.3c6.4,0,11.4,0.5,15.2,1.5c3.8,1,7,2.6,9.7,5s4.8,5.4,6.3,9.1
			c1.6,3.7,2.4,7.4,2.4,11.1c0,6.8-2.6,12.6-7.8,17.3c5.1,1.7,9,4.7,12,9.1c3,4.3,4.4,9.2,4.4,14.9c0,7.4-2.6,13.7-7.9,18.9
			c-3.2,3.2-6.7,5.4-10.7,6.6c-4.3,1.2-9.7,1.8-16.2,1.8h-21.7V528.9z M324.6,474.6h4.5c5.3,0,9.3-1.2,11.7-3.5
			c2.5-2.4,3.7-5.8,3.7-10.4c0-4.5-1.3-7.9-3.8-10.2c-2.5-2.3-6.2-3.5-11.1-3.5h-5.1L324.6,474.6L324.6,474.6z M324.6,515.4h8.9
			c6.5,0,11.3-1.3,14.3-3.8c3.2-2.8,4.8-6.2,4.8-10.5c0-4.1-1.5-7.6-4.6-10.3c-3-2.8-8.4-4.1-16.1-4.1h-7.3L324.6,515.4L324.6,515.4
			z"/>
		<path class="st1" d="M426.4,468.9h13.9v60h-13.9v-6.3c-5.7,5.3-11.8,8-18.4,8c-8.3,0-15.2-3-20.6-9c-5.4-6.1-8.1-13.8-8.1-22.9
			c0-9,2.7-16.5,8.1-22.5s12.1-9,20.2-9c7,0,13.2,2.9,18.8,8.6V468.9z M393.5,498.7c0,5.8,1.5,10.4,4.6,14c3.2,3.7,7.1,5.5,12,5.5
			c5.1,0,9.3-1.8,12.4-5.3c3.2-3.7,4.7-8.3,4.7-13.9s-1.6-10.3-4.7-13.9c-3.2-3.6-7.3-5.4-12.3-5.4c-4.8,0-8.7,1.8-12,5.4
			C395.1,488.8,393.5,493.3,393.5,498.7z"/>
		<path class="st1" d="M492.7,479.1l-11.5,6.1c-1.8-3.7-4-5.5-6.7-5.5c-1.3,0-2.4,0.4-3.3,1.3c-0.9,0.8-1.4,1.9-1.4,3.2
			c0,2.3,2.7,4.6,8,6.8c7.4,3.2,12.3,6.1,14.8,8.7c2.5,2.7,3.8,6.3,3.8,10.8c0,5.8-2.1,10.6-6.4,14.5c-4.1,3.7-9.2,5.5-15,5.5
			c-10.1,0-17.2-4.9-21.4-14.7l11.8-5.5c1.6,2.9,2.9,4.7,3.8,5.5c1.7,1.6,3.7,2.3,6,2.3c4.7,0,7-2.1,7-6.4c0-2.5-1.8-4.8-5.4-6.9
			c-1.4-0.7-2.8-1.4-4.2-2c-1.4-0.7-2.8-1.3-4.3-2c-4-2-6.9-3.9-8.5-5.9c-2.1-2.5-3.1-5.7-3.1-9.7c0-5.2,1.8-9.5,5.4-12.9
			c3.7-3.4,8.1-5.1,13.3-5.1C483.3,467.2,489,471.2,492.7,479.1z"/>
		<path class="st1" d="M563.7,502.2h-43c0.4,4.9,2,8.9,4.8,11.8c2.8,2.9,6.5,4.3,10.9,4.3c3.4,0,6.3-0.8,8.6-2.5
			c2.2-1.6,4.7-4.7,7.6-9.1l11.7,6.5c-1.8,3.1-3.7,5.7-5.7,7.9s-4.2,4-6.5,5.4s-4.8,2.5-7.5,3.1c-2.7,0.7-5.6,1-8.7,1
			c-9,0-16.1-2.9-21.6-8.6c-5.4-5.8-8.1-13.5-8.1-23s2.6-17.2,7.9-23c5.3-5.8,12.3-8.7,21.1-8.7c8.8,0,15.8,2.8,20.9,8.4
			c5.1,5.6,7.6,13.3,7.6,23.2L563.7,502.2z M549.5,490.8c-1.9-7.4-6.6-11.1-14-11.1c-1.7,0-3.3,0.3-4.7,0.8c-1.5,0.5-2.8,1.3-4,2.2
			c-1.2,1-2.2,2.1-3.1,3.5c-0.9,1.4-1.5,2.9-2,4.6H549.5z"/>
	</g>
</g>
<g>
	<g>
		<g>
			<path class="st2" d="M526.8,254c-9.6-14.1-22.3-24.5-38-31.1c16.1-16.5,24.3-36.5,24.3-59.5c0-13.7-2.9-24.7-8.8-38
				c-5.7-13.2-13.6-24.4-23.3-33.3c-9.7-8.6-21.7-14.8-35.7-18.4c-13.5-3.5-31.9-5.3-54.5-5.3l-54.3,0.5l-163.5,0V170
				c13.9-12.9,30.7-24.8,50.7-33.9v-19.5l112.7,0v80.7h-57.4c-3,2-6.2,4-9.6,6.1c6.1,10.4,9.1,29.5,1.5,41.5h65.5v163.7l0-0.1h80.4
				c23.1,0,42.7-2.2,58.2-6.4h0.1c14.5-4.5,27.7-12.7,39.1-24.2c19.2-18.7,29-42.1,29-69.2C543.1,288,537.6,269.6,526.8,254z
				 M422.1,353.1v0.1h-27.3v-93.3h21.5c26.1,0,44.2,4.5,53.9,13.5c10.1,9.1,15,20,15,33.4c0,13.8-5.1,24.9-15.5,33.8
				C460,348.9,443.9,353.1,422.1,353.1z M457.2,164.3c0,14.9-4,26.4-11.9,33.8c-7.9,7.5-20.9,11.4-38.5,11.4l-11.9,0.1v-89.4h13.8
				c15.9,0,28.2,3.7,36.3,11.2C453,138.8,457.2,149.9,457.2,164.3z"/>
			<path class="st2" d="M220.1,265.1c-4.4,37.5-28.6,54.9-47.2,59.4V405h50.7V245h10.1c0.2-8.2,7.1-19.5,13.3-28.2
				c-7.7,4.4-16,9-25,13.8C223.8,234.1,222.6,243.6,220.1,265.1z"/>
		</g>
		<g>
			<path class="st1" d="M336.3,412.6v-3.9h-4V249h-68.7l3.9-6.1c5.1-8.1,5.7-25.1-1.6-37.4l-2-3.4l3.3-2.1c3.2-2,6.3-4,9.5-6.1
				l1-0.7h54.6v-72.7l-104.7,0v18.1l-2.3,1.1c-17.9,8.2-34.7,19.4-49.7,33.2l-6.7,6.2V64.8l167.5,0l54.3-0.5c23,0,41.7,1.8,55.6,5.5
				c14.6,3.8,27.2,10.3,37.4,19.3c10.2,9.4,18.4,21.1,24.4,34.7c6.5,14.7,9.1,26.2,9.1,39.6c0,22.2-7.3,41.7-21.6,58.1
				c14.2,7,25.8,17.1,34.7,30.2c11.3,16.3,17,35.5,17,57c0,28.3-10.2,52.6-30.2,72.1c-11.9,11.9-25.6,20.4-40.7,25.1l-0.6,0.2h-0.2
				c-15.9,4.3-35.7,6.4-58.7,6.4H336.3z M418.1,349.2v-0.1h4c20.8,0,36-3.9,45.1-11.5c9.4-8.2,14.1-18.2,14.1-30.7
				c0-12.2-4.5-22.2-13.7-30.4c-9-8.3-26.3-12.5-51.3-12.5h-17.5v85.3H418.1z M398.9,205.6l7.8-0.1c16.6,0,28.6-3.5,35.8-10.3
				c7.1-6.7,10.6-17.1,10.6-30.9c0-13.3-3.7-23.4-10.9-30c-7.4-6.7-18.7-10.1-33.6-10.1h-9.8V205.6z"/>
			<path class="st1" d="M168.8,409v-87.6l3.1-0.7c6.5-1.5,39-11.5,44.2-56l0.3-2.7c1.8-15.8,3.2-27.2,2-29.5l-1.8-3.5l3.5-1.9
				c8.7-4.7,17.1-9.3,24.9-13.8l5.2,5.8c-7.9,11-12.4,20.2-12.6,26l-0.1,3.9h-10v160H168.8z"/>
		</g>
		<g>
			
				<linearGradient id="SVGID_1_" gradientUnits="userSpaceOnUse" x1="-277.6555" y1="410.3529" x2="-277.6555" y2="70.0512" gradientTransform="matrix(1 0 0 1 635.6295 -1.6756)">
				<stop  offset="0" style="stop-color:#1FDFFF"/>
				<stop  offset="1" style="stop-color:#3B4ACC"/>
			</linearGradient>
			<path class="st3" d="M526.8,254c-9.6-14.1-22.3-24.5-38-31.1c16.1-16.5,24.3-36.5,24.3-59.5c0-13.7-2.9-24.7-8.8-38
				c-5.7-13.2-13.6-24.4-23.3-33.3c-9.7-8.6-21.7-14.8-35.7-18.4c-13.5-3.5-31.9-5.3-54.5-5.3l-54.3,0.5l-163.5,0V170
				c13.9-12.9,30.7-24.8,50.7-33.9v-19.5l112.7,0v80.7h-57.4c-3,2-6.2,4-9.6,6.1c6.1,10.4,9.1,29.5,1.5,41.5h65.5v163.7l0-0.1h80.4
				c23.1,0,42.7-2.2,58.2-6.4h0.1c14.5-4.5,27.7-12.7,39.1-24.2c19.2-18.7,29-42.1,29-69.2C543.1,288,537.6,269.6,526.8,254z
				 M422.1,353.1v0.1h-27.3v-93.3h21.5c26.1,0,44.2,4.5,53.9,13.5c10.1,9.1,15,20,15,33.4c0,13.8-5.1,24.9-15.5,33.8
				C460,348.9,443.9,353.1,422.1,353.1z M457.2,164.3c0,14.9-4,26.4-11.9,33.8c-7.9,7.5-20.9,11.4-38.5,11.4l-11.9,0.1v-89.4h13.8
				c15.9,0,28.2,3.7,36.3,11.2C453,138.8,457.2,149.9,457.2,164.3z"/>
			
				<linearGradient id="SVGID_2_" gradientUnits="userSpaceOnUse" x1="-277.6555" y1="410.3529" x2="-277.6555" y2="70.0512" gradientTransform="matrix(1 0 0 1 635.6295 -1.6756)">
				<stop  offset="0" style="stop-color:#1FDFFF"/>
				<stop  offset="1" style="stop-color:#3B4ACC"/>
			</linearGradient>
			<path class="st4" d="M220.1,265.1c-4.4,37.5-28.6,54.9-47.2,59.4V405h50.7V245h10.1c0.2-8.2,7.1-19.5,13.3-28.2
				c-7.7,4.4-16,9-25,13.8C223.8,234.1,222.6,243.6,220.1,265.1z"/>
		</g>
	</g>
	<g>
		<path class="st1" d="M142.2,385.6c-24.3,0-85.4-22.1-107.6-45.5c-5.9-6.2-8.7-12.2-8.4-17.9c0.7-12.7,12.6-24.1,35.3-34
			c16.3-7.1,35-12,46.2-14.5c0.3-2.6,0.7-5.4,1.2-8.3c-6.7,1.5-14.6,2.9-21.7,2.9c-10.6,0-17.5-3-20.7-8.9c-4.3-8-0.8-20,10.4-36.8
			c25.2-37.6,51.3-45.5,68.9-45.5c4.5,0,9,0.5,13.2,1.6c17.2-18.6,36.9-33.4,58.5-44.1c27.4-13.5,58.1-20.4,91.2-20.4
			c2.9,0,5.8,0.1,8.8,0.2l1.1,0l14,8.6l-0.7,5.9l7.5-3.7l2,2.4c0.5,0.6,3,4.1,2,10.7c-3.4,21.1-38.1,47.3-68,66.3
			c5.5,11.9,7,29.4,0.2,41.2c-3.6,6.3-11.1,13.8-26.3,13.8c0,0,0,0,0,0c-0.4,0-0.9,0-1.3,0c-8.2-0.2-13.6-2.9-16.1-7.9
			c-2.8-5.7-1.5-13.5,4-23.8c-2.8,1.5-5.6,3.1-8.5,4.6c0.7,5.1-0.3,13.7-2.3,30.2l-0.3,2.7c-5.4,46.7-40,64.1-60.5,64.1
			c-7.4,0-12.8-2.2-15.4-6.3c-3.8-6-5.4-18.8-4.9-38.2c-3.6,4.6-6.5,9.4-8.6,14.2l0,0.1c2.9,15.2,8.9,34.6,13.7,50.4
			c3,9.9,5.7,18.5,7.2,24.8c0.8,3.5-0.3,5.8-1.4,7.2C152.6,384.2,148.5,385.6,142.2,385.6z"/>
		<path class="st0" d="M338.2,130l-11.2,5.5l1.2-10.6l-10.9-6.7c-75.7-2.7-125.6,30.1-157,64.8c-13-3.8-47.1-7.6-80.1,41.6
			c-32.8,48.9,12.6,41,33.9,35.2c0,0.1-0.1,0.2-0.1,0.2c-1.5,6.6-2.3,12.2-2.6,16.8c-22,4.8-79.7,19.9-81.2,45.5
			c-1.8,31.7,127.7,76,122.1,52.8c-4.1-16.9-16.9-52.8-21.3-77.4c0.4-0.2,0.7-0.3,0.7-0.3c3.9-9,9.9-16.8,16.8-23.6
			c-0.9,14.3-1.4,38.8,3.8,47.1c7.6,11.9,61.9,1.8,68.6-56.1c2.5-21.5,3.7-31,1.9-34.5c9-4.8,17.3-9.4,25-13.8
			c-10.9,15.2-23.6,38.4,0.3,39.1c33.4,0.9,31.6-36.2,22.1-52.4C354.8,149.9,338.2,130,338.2,130z"/>
	</g>
	<path class="st5" d="M223.6,196.9v-61.2c-20,9.1-36.8,21.1-50.7,33.9v154.5c18.6-4.4,42.9-21.9,47.2-59.4c2.5-21.5,3.7-31,1.9-34.5
		c9-4.8,17.3-9.4,25-13.8c-6.2,8.7-13.1,20-13.3,28.2h37.1c7.6-12.1,4.6-31.1-1.5-41.5c3.4-2.1,6.5-4.1,9.6-6.1H223.6z"/>
	<circle class="st2" cx="283.5" cy="144.2" r="15"/>
</g>
</svg>
