<?xml version="1.0" encoding="utf-8"?>
<!-- Generator: Adobe Illustrator 22.1.0, SVG Export Plug-In . SVG Version: 6.00 Build 0)  -->
<svg version="1.1" id="Layer_1" xmlns="http://www.w3.org/2000/svg" xmlns:xlink="http://www.w3.org/1999/xlink" x="0px" y="0px"
	 viewBox="0 0 599 599" style="enable-background:new 0 0 599 599;" xml:space="preserve">
<style type="text/css">
	.st0{fill:#E74C97;}
	.st1{fill:#FFFFFF;}
</style>
<g>
	<circle class="st0" cx="299.5" cy="299.5" r="274.6"/>
	<g>
		<path class="st1" d="M153,259.7c-33.4,0-60.5-27.1-60.5-60.5s27.1-60.5,60.5-60.5s60.5,27.1,60.5,60.5S186.4,259.7,153,259.7z
			 M153,148c-28.2,0-51.2,23-51.2,51.2s23,51.2,51.2,51.2s51.2-23,51.2-51.2S181.2,148,153,148z"/>
	</g>
	<g>
		<path class="st1" d="M153,464.1c-33.4,0-60.5-27.1-60.5-60.5s27.1-60.5,60.5-60.5s60.5,27.1,60.5,60.5S186.4,464.1,153,464.1z
			 M153,352.4c-28.2,0-51.2,23-51.2,51.2s23,51.2,51.2,51.2s51.2-23,51.2-51.2S181.2,352.4,153,352.4z"/>
	</g>
	<g>
		<path class="st1" d="M443.3,470.3c-33.4,0-60.5-27.1-60.5-60.5s27.1-60.5,60.5-60.5s60.5,27.1,60.5,60.5S476.7,470.3,443.3,470.3z
			 M443.3,358.6c-28.2,0-51.2,23-51.2,51.2s23,51.2,51.2,51.2s51.2-23,51.2-51.2S471.6,358.6,443.3,358.6z"/>
	</g>
	<g>
		<path class="st1" d="M299.5,179.8c-33.4,0-60.5-27.1-60.5-60.5s27.1-60.5,60.5-60.5S360,85.9,360,119.3S332.9,179.8,299.5,179.8z
			 M299.5,68.1c-28.2,0-51.2,23-51.2,51.2s23,51.2,51.2,51.2s51.2-23,51.2-51.2S327.7,68.1,299.5,68.1z"/>
	</g>
	<circle class="st1" cx="277.1" cy="503.5" r="34.1"/>
	<circle class="st1" cx="299.5" cy="375.7" r="34.1"/>
	<circle class="st1" cx="443.3" cy="199.2" r="34.1"/>
</g>
</svg>
