<?xml version="1.0" encoding="utf-8"?>
<!-- Generator: Adobe Illustrator 22.1.0, SVG Export Plug-In . SVG Version: 6.00 Build 0)  -->
<svg version="1.1" id="Layer_1" xmlns="http://www.w3.org/2000/svg" xmlns:xlink="http://www.w3.org/1999/xlink" x="0px" y="0px"
	 viewBox="0 0 552 120" style="enable-background:new 0 0 552 120;" xml:space="preserve">
<style type="text/css">
	.st0{fill:#E74C97;}
	.st1{fill:#1FDFFF;}
	.st2{fill:#FFFFFF;}
</style>
<g>
	<g>
		<path class="st0" d="M91.9,19.1v17c-8.3-7-16.9-10.4-25.8-10.4c-9.8,0-18,3.5-24.7,10.5S31.3,51.7,31.3,61.8
			c0,10,3.4,18.4,10.1,25.2c6.7,6.8,15,10.3,24.7,10.3c5,0,9.3-0.8,12.9-2.5c2-0.8,4-1.9,6.1-3.3s4.3-3.1,6.7-5v17.3
			c-8.2,4.6-16.8,6.9-25.8,6.9c-13.6,0-25.2-4.7-34.7-14.2C21.7,86.9,17,75.4,17,61.9c0-12.1,4-22.9,12-32.4
			C38.8,18,51.5,12.1,67.1,12.1C75.7,12.1,83.9,14.5,91.9,19.1z"/>
	</g>
	<g>
		<path class="st1" d="M89,105.3V17.7h13.2c5.9,0,10.5,0.5,14,1.4s6.5,2.4,8.9,4.6c2.5,2.2,4.4,5,5.8,8.3c1.5,3.4,2.2,6.8,2.2,10.2
			c0,6.3-2.4,11.6-7.2,15.9c4.7,1.6,8.3,4.4,11,8.3s4.1,8.5,4.1,13.7c0,6.8-2.4,12.6-7.3,17.4c-2.9,2.9-6.2,4.9-9.8,6.1
			c-4,1.1-8.9,1.6-14.9,1.6H89V105.3z M102.2,55.3h4.1c4.9,0,8.5-1.1,10.8-3.3s3.4-5.4,3.4-9.6c0-4.1-1.2-7.3-3.5-9.4
			s-5.7-3.2-10.2-3.2h-4.7L102.2,55.3L102.2,55.3z M102.2,92.8h8.2c6,0,10.4-1.2,13.2-3.5c2.9-2.5,4.4-5.7,4.4-9.6
			c0-3.8-1.4-7-4.3-9.5c-2.8-2.5-7.7-3.8-14.8-3.8h-6.7C102.2,66.4,102.2,92.8,102.2,92.8z"/>
	</g>
	<circle class="st2" cx="64.4" cy="61.4" r="37.8"/>
	<g>
		<path class="st0" d="M44.2,55.9c-4.6,0-8.3-3.7-8.3-8.3s3.7-8.3,8.3-8.3s8.3,3.7,8.3,8.3S48.8,55.9,44.2,55.9z M44.2,40.6
			c-3.9,0-7,3.2-7,7s3.2,7,7,7s7-3.2,7-7S48.1,40.6,44.2,40.6z"/>
	</g>
	<g>
		<path class="st0" d="M44.2,84.1c-4.6,0-8.3-3.7-8.3-8.3c0-4.6,3.7-8.3,8.3-8.3s8.3,3.7,8.3,8.3C52.5,80.3,48.8,84.1,44.2,84.1z
			 M44.2,68.7c-3.9,0-7,3.2-7,7c0,3.9,3.2,7,7,7s7-3.2,7-7C51.2,71.9,48.1,68.7,44.2,68.7z"/>
	</g>
	<g>
		<path class="st0" d="M84.2,84.9c-4.6,0-8.3-3.7-8.3-8.3c0-4.6,3.7-8.3,8.3-8.3s8.3,3.7,8.3,8.3C92.5,81.2,88.8,84.9,84.2,84.9z
			 M84.2,69.6c-3.9,0-7,3.2-7,7c0,3.9,3.2,7,7,7c3.9,0,7-3.2,7-7C91.2,72.7,88.1,69.6,84.2,69.6z"/>
	</g>
	<g>
		<path class="st0" d="M64.4,44.9c-4.6,0-8.3-3.7-8.3-8.3s3.7-8.3,8.3-8.3s8.3,3.7,8.3,8.3S69,44.9,64.4,44.9z M64.4,29.5
			c-3.9,0-7,3.2-7,7s3.2,7,7,7c3.8,0,7-3.2,7-7S68.2,29.5,64.4,29.5z"/>
	</g>
	<circle class="st0" cx="61.3" cy="89.5" r="4.7"/>
	<circle class="st0" cx="64.4" cy="71.9" r="4.7"/>
	<circle class="st0" cx="84.2" cy="47.6" r="4.7"/>
	<g>
		<path class="st2" d="M224,35.2v9.7c-4.7-4-9.6-5.9-14.7-5.9c-5.6,0-10.3,2-14.1,6s-5.8,8.9-5.8,14.6s1.9,10.5,5.8,14.4
			c3.8,3.9,8.6,5.9,14.1,5.9c2.9,0,5.3-0.5,7.3-1.4c1.1-0.5,2.3-1.1,3.5-1.9s2.5-1.8,3.8-2.9v9.9c-4.7,2.6-9.6,4-14.8,4
			c-7.8,0-14.4-2.7-19.9-8.1c-5.5-5.5-8.2-12-8.2-19.8c0-6.9,2.3-13.1,6.9-18.5c5.6-6.6,12.9-9.9,21.8-9.9
			C214.8,31.2,219.5,32.5,224,35.2z"/>
		<path class="st2" d="M232.8,27.1h7.9v28c2.8-2.5,5.9-3.8,9.3-3.8c3.9,0,7,1.3,9.3,3.8c2,2.2,3,5.7,3,10.4v21h-7.9V66.3
			c0-2.7-0.5-4.7-1.5-6c-1-1.2-2.5-1.8-4.7-1.8c-2.8,0-4.7,0.9-5.8,2.6c-1.1,1.7-1.7,4.7-1.7,8.9v16.6h-7.9V27.1z"/>
		<path class="st2" d="M280.2,27.1v59.4h-7.9V27.1H280.2z"/>
		<path class="st2" d="M315.5,52.3h7.9v34.2h-7.9v-3.6c-3.3,3-6.8,4.6-10.5,4.6c-4.7,0-8.6-1.7-11.7-5.1c-3.1-3.5-4.6-7.9-4.6-13.1
			c0-5.1,1.5-9.4,4.6-12.8c3.1-3.4,6.9-5.1,11.5-5.1c4,0,7.6,1.6,10.7,4.9V52.3z M296.7,69.3c0,3.3,0.9,6,2.6,8
			c1.8,2.1,4.1,3.1,6.8,3.1c2.9,0,5.3-1,7.1-3c1.8-2.1,2.7-4.7,2.7-7.9c0-3.2-0.9-5.9-2.7-7.9c-1.8-2-4.1-3.1-7-3.1
			c-2.7,0-5,1-6.8,3.1C297.6,63.7,296.7,66.2,296.7,69.3z"/>
		<path class="st2" d="M333.4,52.3h7.9v3.2c1.5-1.6,2.8-2.7,3.9-3.2c1.1-0.6,2.6-0.9,4.3-0.9c3.9,0,6.9,1.7,9.2,5.1
			c2.5-3.4,5.8-5.1,10.1-5.1c7.7,0,11.6,4.7,11.6,14v21.2h-7.9v-19c0-3.3-0.4-5.6-1.2-7c-0.8-1.4-2.2-2.1-4-2.1
			c-2.2,0-3.8,0.8-4.8,2.5c-1,1.6-1.5,4.3-1.5,7.9v17.7h-8v-19c0-6.1-1.8-9.1-5.3-9.1c-2.2,0-3.8,0.8-4.9,2.5
			c-1,1.7-1.5,4.3-1.5,7.9v17.7h-7.9L333.4,52.3L333.4,52.3z"/>
		<path class="st2" d="M391.9,86.5V32.2h8.2c3.6,0,6.5,0.3,8.7,0.8c2.2,0.6,4,1.5,5.5,2.8c1.5,1.4,2.7,3.1,3.6,5.2
			c0.9,2.1,1.4,4.2,1.4,6.3c0,3.9-1.5,7.2-4.5,9.9c2.9,1,5.2,2.7,6.8,5.2c1.7,2.4,2.5,5.3,2.5,8.5c0,4.2-1.5,7.8-4.5,10.8
			c-1.8,1.8-3.8,3.1-6.1,3.8c-2.5,0.7-5.5,1-9.2,1H391.9z M400.1,55.6h2.6c3,0,5.3-0.7,6.7-2c1.4-1.3,2.1-3.3,2.1-6
			c0-2.6-0.7-4.5-2.2-5.8s-3.6-2-6.3-2h-2.9L400.1,55.6L400.1,55.6z M400.1,78.8h5.1c3.7,0,6.4-0.7,8.2-2.2c1.8-1.6,2.7-3.6,2.7-6
			c0-2.3-0.9-4.3-2.6-5.9s-4.8-2.4-9.2-2.4h-4.1v16.5H400.1z"/>
		<path class="st2" d="M458.2,52.3h7.9v34.2h-7.9v-3.6c-3.3,3-6.8,4.6-10.5,4.6c-4.7,0-8.6-1.7-11.7-5.1c-3.1-3.5-4.6-7.9-4.6-13.1
			c0-5.1,1.5-9.4,4.6-12.8c3.1-3.4,6.9-5.1,11.5-5.1c4,0,7.6,1.6,10.7,4.9V52.3z M439.4,69.3c0,3.3,0.9,6,2.6,8
			c1.8,2.1,4.1,3.1,6.8,3.1c2.9,0,5.3-1,7.1-3c1.8-2.1,2.7-4.7,2.7-7.9c0-3.2-0.9-5.9-2.7-7.9c-1.8-2-4.1-3.1-7-3.1
			c-2.7,0-5,1-6.8,3.1C440.3,63.7,439.4,66.2,439.4,69.3z"/>
		<path class="st2" d="M496,58.1l-6.5,3.5c-1-2.1-2.3-3.2-3.8-3.2c-0.7,0-1.3,0.2-1.9,0.7c-0.5,0.5-0.8,1.1-0.8,1.8
			c0,1.3,1.5,2.6,4.6,3.9c4.2,1.8,7,3.5,8.5,5s2.2,3.6,2.2,6.2c0,3.3-1.2,6.1-3.7,8.3c-2.4,2.1-5.2,3.2-8.6,3.2
			c-5.7,0-9.8-2.8-12.2-8.4l6.8-3.1c0.9,1.6,1.7,2.7,2.1,3.1c1,0.9,2.1,1.3,3.4,1.3c2.7,0,4-1.2,4-3.7c0-1.4-1-2.7-3.1-3.9
			c-0.8-0.4-1.6-0.8-2.4-1.2c-0.8-0.4-1.6-0.8-2.4-1.2c-2.3-1.1-3.9-2.2-4.9-3.4c-1.2-1.4-1.8-3.3-1.8-5.5c0-3,1-5.4,3.1-7.4
			c2.1-1.9,4.6-2.9,7.6-2.9C490.6,51.3,493.9,53.6,496,58.1z"/>
		<path class="st2" d="M536.5,71.3H512c0.2,2.8,1.1,5.1,2.7,6.7c1.6,1.6,3.7,2.5,6.2,2.5c2,0,3.6-0.5,4.9-1.4
			c1.3-0.9,2.7-2.7,4.3-5.2l6.7,3.7c-1,1.8-2.1,3.3-3.3,4.5c-1.1,1.3-2.4,2.3-3.7,3.1c-1.3,0.8-2.7,1.4-4.3,1.8
			c-1.5,0.4-3.2,0.6-5,0.6c-5.1,0-9.2-1.6-12.3-4.9c-3.1-3.3-4.6-7.7-4.6-13.1s1.5-9.8,4.5-13.1s7-5,12-5s9,1.6,12,4.8
			c2.9,3.2,4.4,7.6,4.4,13.3L536.5,71.3z M528.4,64.8c-1.1-4.2-3.8-6.3-8-6.3c-1,0-1.9,0.1-2.7,0.4c-0.8,0.3-1.6,0.7-2.3,1.3
			s-1.3,1.2-1.8,2s-0.9,1.7-1.1,2.6H528.4z"/>
	</g>
</g>
</svg>
