<?xml version="1.0" encoding="utf-8"?>
<!-- Generator: Adobe Illustrator 22.1.0, SVG Export Plug-In . SVG Version: 6.00 Build 0)  -->
<svg version="1.1" id="Layer_1" xmlns="http://www.w3.org/2000/svg" xmlns:xlink="http://www.w3.org/1999/xlink" x="0px" y="0px"
	 viewBox="0 0 599 599" style="enable-background:new 0 0 599 599;" xml:space="preserve">
<style type="text/css">
	.st0{fill:#FFFFFF;}
	.st1{fill:url(#SVGID_1_);}
	.st2{fill:#E74C97;}
</style>
<g>
	<path class="st0" d="M529.7,260.4c-9.5-14-22.2-24.3-37.8-30.9c16-16.4,24.1-36.3,24.1-59.1c0-13.6-2.9-27.2-8.7-40.4
		c-5.7-13.1-13.5-24.2-23.2-33.1c-9.6-8.5-21.6-14.7-35.5-18.3c-13.4-3.5-31.7-5.3-54.2-5.3h-51l-1.2,62.3
		c-3.9-2.8-7.7-2.9-11.6-5.3c0,1.3-1.9,4.5-1.8,4.5c2,0.8,11,4.2,14.6,6.1l-3,204.5c-4.2,3.2-8.4,6.1-12.3,8.7
		c-7.8,5.2-15.4,9.3-22.6,12.3l-0.1,0.1c-12.9,6-28.7,9-47.2,9c-35.8,0-66.5-12.7-91.1-37.8c-24.7-25.1-37.2-56.4-37.2-93
		c0-37,12.5-68.8,37.2-94.4c24.5-25.7,55-38.7,90.8-38.7c24,0,47.6,7.1,70.7,21c-0.3-11.6,1.6-66.9,0.7-67.3
		c-22.1-8.7-44.7-13.2-67.8-13.2c-60.3,0-110.2,22.8-148.2,67.6c-30.9,36.6-46.5,78.8-46.5,125.5c0,52.1,18.7,97.3,55.6,134.2
		c37,36.6,82.4,55.1,134.8,55.1c30.4,0,59.8-6.8,87.9-20.6h75.1c23,0,42.4-2.2,57.8-6.4h0.1c14.4-4.5,27.5-12.6,38.9-24
		c19.1-18.6,28.8-41.8,28.8-68.8C545.9,294.2,540.4,275.9,529.7,260.4z M398.6,127.5h13.7c15.8,0,28,3.7,36.1,11.1
		c8,7.3,12.1,18.3,12.1,32.7c0,14.8-4,26.2-11.8,33.6c-7.9,7.5-20.8,11.3-38.3,11.3l-11.8,0.1V127.5z M473.1,346.5
		c-9.8,8.2-25.8,12.4-47.4,12.4v0.1h-27.1v-92.7H420c25.9,0,43.9,4.5,53.6,13.4c10,9,14.9,19.9,14.9,33.2
		C488.5,326.6,483.4,337.6,473.1,346.5z"/>
	<linearGradient id="SVGID_1_" gradientUnits="userSpaceOnUse" x1="70.9" y1="243.5" x2="541.9" y2="243.5">
		<stop  offset="0.3651" style="stop-color:#E74C97"/>
		<stop  offset="1" style="stop-color:#1FDFFF"/>
	</linearGradient>
	<path class="st1" d="M526.4,262.8c-10.2-15.1-24.1-25.7-41.8-31.7c18.3-16.6,27.4-36.7,27.4-60.6c0-13.1-2.8-26-8.4-38.8
		c-5.5-12.7-12.9-23.2-22.2-31.7c-9.2-8.2-20.4-14.1-33.8-17.5c-13.2-3.5-30.9-5.2-53.2-5.2h-46.1l-0.7,60
		c-0.3-0.1-23.9-11.8-23.9-11.8s1-58.1,0.1-58.4c-27.2-8.4-34.6-10.8-62.3-10.8c-59.3,0-107.7,22-145.1,66.1
		c-30.4,36-45.6,76.9-45.6,122.9c0,51.3,18.1,95.1,54.5,131.4c36.4,36,80.4,54,132,54c30.2,0,59.2-6.9,87-20.6l0,0.3h75.9
		c22.7,0,41.6-2.1,56.7-6.3c13.8-4.3,26.2-12,37.3-23.1c18.4-18,27.6-40,27.6-66C541.9,295.1,536.7,277.7,526.4,262.8z M306.8,370.4
		c-13.4,6.2-29.6,9.3-48.8,9.3c-37,0-68.4-13-93.9-39s-38.3-57.9-38.3-95.8c0-38.3,12.7-70.7,38.3-97.2c25.4-26.7,56.6-40,93.7-40
		c29.8,0,58.6,10.3,86.6,30.8v209c-4.9,3.8-9.7,7.2-14.3,10.3C322,363.1,314.3,367.3,306.8,370.4z M412.3,123.4
		c17,0,29.9,4.1,38.8,12.2c8.9,8.1,13.4,20,13.4,35.7c0,16.1-4.3,28.2-13,36.5s-22.4,12.4-41.1,12.4h-15.7l-0.1-96.8H412.3z
		 M475.7,349.5c-10.6,8.9-27.3,13.4-50,13.4h-31h-0.1V262.3H420c27.1,0,45.8,4.8,56.3,14.4c10.8,9.8,16.2,21.8,16.2,36.2
		C492.5,327.7,486.9,339.9,475.7,349.5z"/>
</g>
<circle class="st0" cx="251" cy="243.5" r="143.6"/>
<g>
	<path class="st2" d="M174.4,222.6c-17.4,0-31.6-14.2-31.6-31.6s14.2-31.6,31.6-31.6S206,173.5,206,191S191.8,222.6,174.4,222.6z
		 M174.4,164.2c-14.8,0-26.8,12-26.8,26.8s12,26.8,26.8,26.8s26.8-12,26.8-26.8S189.2,164.2,174.4,164.2z"/>
</g>
<g>
	<path class="st2" d="M174.4,329.6c-17.4,0-31.6-14.2-31.6-31.6s14.2-31.6,31.6-31.6S206,280.6,206,298S191.8,329.6,174.4,329.6z
		 M174.4,271.2c-14.8,0-26.8,12-26.8,26.8s12,26.8,26.8,26.8s26.8-12,26.8-26.8S189.2,271.2,174.4,271.2z"/>
</g>
<g>
	<path class="st2" d="M326.3,332.8c-17.4,0-31.6-14.2-31.6-31.6s14.2-31.6,31.6-31.6s31.6,14.2,31.6,31.6
		C357.9,318.6,343.7,332.8,326.3,332.8z M326.3,274.4c-14.8,0-26.8,12-26.8,26.8s12,26.8,26.8,26.8s26.8-12,26.8-26.8
		C353.1,286.4,341,274.4,326.3,274.4z"/>
</g>
<g>
	<path class="st2" d="M251,180.8c-17.4,0-31.6-14.2-31.6-31.6s14.2-31.6,31.6-31.6s31.6,14.2,31.6,31.6S268.5,180.8,251,180.8z
		 M251,122.4c-14.8,0-26.8,12-26.8,26.8s12,26.8,26.8,26.8c14.8,0,26.8-12,26.8-26.8S265.8,122.4,251,122.4z"/>
</g>
<ellipse transform="matrix(0.4641 -0.8858 0.8858 0.4641 -181.9504 399.6453)" class="st2" cx="239.3" cy="350.2" rx="17.9" ry="17.9"/>
<circle class="st2" cx="251" cy="283.3" r="17.9"/>
<circle class="st2" cx="326.3" cy="191" r="17.9"/>
<g>
	<path class="st2" d="M80.4,454.4v15.7c-7.7-6.4-15.6-9.6-23.8-9.6c-9.1,0-16.7,3.3-22.9,9.8s-9.4,14.4-9.4,23.7
		c0,9.2,3.1,17,9.4,23.4c6.2,6.4,13.9,9.5,22.9,9.5c4.7,0,8.7-0.8,11.9-2.3c1.8-0.8,3.7-1.8,5.7-3.1s4-2.9,6.2-4.7v16
		c-7.6,4.3-15.6,6.4-24,6.4c-12.6,0-23.3-4.4-32.2-13.2c-8.9-8.9-13.3-19.5-13.3-32.1c0-11.2,3.7-21.2,11.1-30
		c9.1-10.8,20.9-16.1,35.4-16.1C65.4,447.9,73,450.1,80.4,454.4z"/>
	<path class="st2" d="M94.7,441.4h12.8v45.4c4.6-4.1,9.6-6.2,15.1-6.2c6.3,0,11.3,2,15.1,6.1c3.2,3.5,4.8,9.2,4.8,16.9v34.1h-12.8
		v-32.9c0-4.5-0.8-7.7-2.4-9.7s-4.1-3-7.6-3c-4.5,0-7.6,1.4-9.5,4.2c-1.8,2.8-2.7,7.6-2.7,14.5v26.9H94.7V441.4z"/>
	<path class="st2" d="M171.6,441.4v96.4h-12.8v-96.4H171.6z"/>
	<path class="st2" d="M228.9,482.2h12.9v55.6h-12.9V532c-5.3,4.9-11,7.4-17.1,7.4c-7.7,0-14-2.8-19.1-8.3c-5-5.7-7.5-12.7-7.5-21.2
		c0-8.3,2.5-15.3,7.5-20.8c5-5.6,11.2-8.3,18.7-8.3c6.5,0,12.3,2.7,17.4,8v-6.6L228.9,482.2L228.9,482.2z M198.4,509.8
		c0,5.3,1.4,9.7,4.3,13c2.9,3.4,6.6,5.1,11.1,5.1c4.8,0,8.6-1.6,11.5-4.9c2.9-3.4,4.4-7.7,4.4-12.9c0-5.2-1.5-9.5-4.4-12.9
		c-2.9-3.3-6.7-5-11.4-5c-4.4,0-8.1,1.7-11.1,5C199.9,500.6,198.4,504.8,198.4,509.8z"/>
	<path class="st2" d="M258,482.2h12.8v5.1c2.5-2.6,4.6-4.3,6.3-5.2c1.9-1,4.2-1.4,7-1.4c6.3,0,11.2,2.7,14.9,8.2
		c4-5.5,9.5-8.2,16.4-8.2c12.5,0,18.8,7.6,18.8,22.8v34.3h-12.9v-30.9c0-5.3-0.6-9.1-1.9-11.3c-1.3-2.2-3.5-3.4-6.6-3.4
		c-3.5,0-6.1,1.3-7.7,4s-2.4,6.9-2.4,12.8v28.7h-12.9V507c0-9.9-2.9-14.8-8.6-14.8c-3.6,0-6.2,1.4-7.9,4.1c-1.7,2.7-2.5,7-2.5,12.8
		v28.7H258V482.2z"/>
	<path class="st0" d="M352.8,537.8v-88.1H366c5.9,0,10.6,0.5,14.1,1.4s6.5,2.5,9,4.6c2.5,2.2,4.4,5,5.9,8.4s2.2,6.8,2.2,10.3
		c0,6.3-2.4,11.7-7.2,16c4.7,1.6,8.4,4.4,11.1,8.4s4.1,8.6,4.1,13.8c0,6.9-2.4,12.7-7.3,17.5c-2.9,2.9-6.2,5-9.9,6.1
		c-4,1.1-9,1.7-15,1.7L352.8,537.8L352.8,537.8z M366.1,487.5h4.2c4.9,0,8.6-1.1,10.9-3.3c2.3-2.2,3.5-5.4,3.5-9.7
		c0-4.1-1.2-7.3-3.5-9.4c-2.4-2.1-5.8-3.2-10.3-3.2h-4.7v25.6H366.1z M366.1,525.3h8.2c6,0,10.4-1.2,13.2-3.5c3-2.5,4.5-5.8,4.5-9.7
		c0-3.8-1.4-7-4.3-9.6c-2.8-2.5-7.7-3.8-14.9-3.8h-6.7L366.1,525.3L366.1,525.3z"/>
	<path class="st0" d="M460.4,482.2h12.9v55.6h-12.9V532c-5.3,4.9-11,7.4-17.1,7.4c-7.7,0-14-2.8-19.1-8.3c-5-5.7-7.5-12.7-7.5-21.2
		c0-8.3,2.5-15.3,7.5-20.8c5-5.6,11.2-8.3,18.7-8.3c6.5,0,12.3,2.7,17.4,8v-6.6L460.4,482.2L460.4,482.2z M430,509.8
		c0,5.3,1.4,9.7,4.3,13c2.9,3.4,6.6,5.1,11.1,5.1c4.8,0,8.6-1.6,11.5-4.9c2.9-3.4,4.4-7.7,4.4-12.9c0-5.2-1.5-9.5-4.4-12.9
		c-2.9-3.3-6.7-5-11.4-5c-4.4,0-8.1,1.7-11.1,5C431.4,500.6,430,504.8,430,509.8z"/>
	<path class="st0" d="M521.8,491.7l-10.6,5.6c-1.7-3.4-3.7-5.1-6.2-5.1c-1.2,0-2.2,0.4-3,1.2c-0.8,0.8-1.3,1.8-1.3,3
		c0,2.1,2.5,4.2,7.4,6.3c6.8,2.9,11.4,5.6,13.8,8.1c2.4,2.5,3.5,5.8,3.5,10c0,5.4-2,9.9-5.9,13.5c-3.8,3.4-8.5,5.1-13.9,5.1
		c-9.3,0-15.9-4.5-19.8-13.6l11-5.1c1.5,2.7,2.7,4.4,3.5,5.1c1.6,1.4,3.4,2.2,5.6,2.2c4.3,0,6.5-2,6.5-5.9c0-2.3-1.7-4.4-5-6.4
		c-1.3-0.6-2.6-1.3-3.9-1.9c-1.3-0.6-2.6-1.2-3.9-1.9c-3.7-1.8-6.4-3.7-7.9-5.5c-1.9-2.3-2.9-5.3-2.9-9c0-4.8,1.7-8.8,5-12
		c3.4-3.2,7.5-4.7,12.3-4.7C513.1,480.6,518.4,484.3,521.8,491.7z"/>
	<path class="st0" d="M587.6,513h-39.8c0.3,4.6,1.8,8.2,4.5,10.9c2.6,2.7,6,4,10.1,4c3.2,0,5.8-0.8,7.9-2.3c2.1-1.5,4.4-4.3,7-8.4
		l10.8,6c-1.7,2.9-3.4,5.3-5.3,7.3c-1.9,2-3.9,3.7-6,5s-4.4,2.3-6.9,2.9c-2.5,0.6-5.2,0.9-8,0.9c-8.3,0-14.9-2.7-20-8
		c-5-5.4-7.5-12.5-7.5-21.3s2.4-15.9,7.3-21.3c4.9-5.4,11.4-8,19.5-8c8.2,0,14.6,2.6,19.4,7.8c4.7,5.2,7.1,12.3,7.1,21.5L587.6,513z
		 M574.4,502.5c-1.8-6.8-6.1-10.3-13-10.3c-1.6,0-3,0.2-4.4,0.7s-2.6,1.2-3.7,2.1c-1.1,0.9-2.1,2-2.9,3.2c-0.8,1.3-1.4,2.7-1.8,4.3
		L574.4,502.5L574.4,502.5z"/>
</g>
</svg>
