<?xml version="1.0" encoding="utf-8"?>
<!-- Generator: Adobe Illustrator 22.1.0, SVG Export Plug-In . SVG Version: 6.00 Build 0)  -->
<svg version="1.1" id="Layer_1" xmlns="http://www.w3.org/2000/svg" xmlns:xlink="http://www.w3.org/1999/xlink" x="0px" y="0px"
	 viewBox="0 0 599 599" style="enable-background:new 0 0 599 599;" xml:space="preserve">
<style type="text/css">
	.st0{fill:#3F3F3F;}
	.st1{fill:#FFFFFF;}
	.st2{fill:url(#SVGID_1_);}
	.st3{fill:#E74C97;}
</style>
<g>
	<g>
		<g>
			<path class="st0" d="M257.2,440.5c-54.1,0-100.9-19.1-139-56.8C80.1,345.6,60.8,299,60.8,245.2c0-48.2,16.1-91.7,47.9-129.4
				c39.2-46.3,90.6-69.7,152.8-69.7c23.5,0,47,4.6,70,13.6l0.2,0.1c3.7,1.6,3.7,5.1,3.8,8.5c0,1.9,0,4.6,0,8.2
				c-0.1,6.6-0.3,15.5-0.5,24.1c-0.2,9.1-0.4,18.5-0.5,25c0.6,0.3,1.2,0.5,1.8,0.8l1.1-59.1h56.9c23,0,41.8,1.8,55.7,5.5
				c14.8,3.8,27.6,10.4,38,19.6l0.1,0.1c10.3,9.5,18.6,21.3,24.6,35.1c6.1,13.9,9.2,28.3,9.2,42.8c0,21.7-6.8,40.8-20.3,57.1
				c13.3,7,24.4,16.9,32.9,29.5c11.5,16.6,17.2,36,17.1,57.7c0,28.7-10.3,53.3-30.6,73.1c-12.1,12.1-26,20.6-41.3,25.4l-0.9,0.3
				h-0.2c-15.9,4.2-35.7,6.4-58.6,6.4h-73.7C318.2,433.6,288.2,440.5,257.2,440.5z M257.9,117.6c-34.1,0-63.2,12.4-86.5,36.8
				c-23.6,24.5-35.5,54.8-35.5,90.3c0,35,11.9,64.9,35.5,88.8c23.4,23.9,52.6,36,86.8,36c17.1,0,31.8-2.7,43.7-8l0.2-0.2l1.1-0.5
				c7-2.9,14.2-6.9,21.6-11.8c3.7-2.5,6.8-4.6,9.7-6.7l2.9-197.7c-3.1-1.3-7.1-2.9-9.1-3.7c-0.2-0.1-0.4-0.1-0.6-0.2h-2.2l-1.8-2.9
				c-0.4-0.6-0.6-1.1-0.7-1.7C301.6,123.9,279.7,117.6,257.9,117.6z M419.7,353l6-0.1c19.9,0,34.9-3.8,43.5-11
				c9-7.8,13.3-17,13.3-29c0-11.5-4.2-20.9-12.9-28.7c-8.5-7.8-25.6-11.9-49.6-11.9h-15.4V353H419.7z M404.6,210.2l5.8,0
				c16,0,27.5-3.2,34.2-9.7c6.6-6.3,9.9-16.1,9.9-29.2c0-12.6-3.4-22.1-10.1-28.3c-6.9-6.3-17.7-9.5-32.1-9.5h-7.7V210.2z"/>
			<path class="st0" d="M257.3,436.7c-53,0-98.8-18.8-136.2-55.7c-37.4-37.2-56.3-82.9-56.3-135.7c0-47.2,15.8-89.8,47-126.8
				c38.4-45.3,88.8-68.2,149.7-68.2c28.2,0,36.3,2.5,63,10.7l1.2,0.4c4.1,1.4,4.2,5.3,4.3,7.9c0.1,1.5,0.1,3.6,0.1,6.4
				c0,4.6,0,11.1-0.1,19.2c-0.1,10.5-0.3,21.4-0.3,26.9c0,0,0.1,0,0.1,0c4.7,2.3,8.7,4.3,11.9,5.9l0.7-56.4h52
				c23.1,0,41,1.8,54.7,5.4c14,3.6,26.2,9.9,36.3,18.8c10,9.1,17.9,20.5,23.7,33.8c5.9,13.5,8.9,27.3,8.9,41.2
				c0,22.4-7.6,42-22.7,58.4c14.8,6.7,26.9,17,36,30.5c11,15.9,16.5,34.6,16.4,55.6c0,27.5-9.9,51.2-29.4,70.3
				c-11.7,11.7-25.1,20-39.7,24.5l-0.2,0.1c-15.6,4.3-35.2,6.5-58.3,6.5h-75.1C317.1,429.9,287.5,436.7,257.3,436.7z M257.8,113.7
				c-35.7,0-64.9,12.5-89.4,38.1c-24.3,25.2-36.6,56.5-36.6,93.1c0,36,12.3,66.8,36.6,91.6c24.2,24.7,54.4,37.2,89.6,37.2
				c18.2,0,33.7-2.9,46.3-8.7l0.2-0.1c7-2.9,14.3-6.9,22.3-12.1c4.1-2.8,8-5.5,11.6-8.2v-203c-4.7-3.3-9.5-6.4-14.2-9.1l-6.5-3.2
				l0-0.3C298.1,118.8,278,113.7,257.8,113.7z M425.7,356.9c21.1,0,36.7-4,46.1-12c9.8-8.4,14.7-18.9,14.7-32
				c0-12.7-4.7-23.1-14.2-31.8c-9.3-8.5-26.9-12.8-52.3-12.8h-19.4v88.6H425.7z M410.4,214.2c17.1,0,29.5-3.6,37-10.7
				c7.5-7.2,11.1-17.7,11.1-32.2c0-14-3.7-24.3-11.4-31.3c-7.8-7.1-19.5-10.6-34.8-10.6h-11.7l0.1,84.8H410.4z"/>
		</g>
		
			<ellipse transform="matrix(0.7071 -0.7071 0.7071 0.7071 -98.6643 248.8032)" class="st0" cx="251" cy="243.5" rx="149.6" ry="149.6"/>
		<g>
			<path class="st0" d="M174.4,228.6c-20.7,0-37.6-16.9-37.6-37.6s16.9-37.6,37.6-37.6S212,170.3,212,191S195.1,228.6,174.4,228.6z
				 M174.4,170.2c-11.5,0-20.8,9.3-20.8,20.8s9.3,20.8,20.8,20.8s20.8-9.3,20.8-20.8S185.9,170.2,174.4,170.2z"/>
		</g>
		<g>
			<path class="st0" d="M174.4,335.6c-20.7,0-37.6-16.9-37.6-37.6c0-20.7,16.9-37.6,37.6-37.6S212,277.3,212,298
				C212,318.7,195.1,335.6,174.4,335.6z M174.4,277.2c-11.5,0-20.8,9.3-20.8,20.8c0,11.5,9.3,20.8,20.8,20.8s20.8-9.3,20.8-20.8
				C195.2,286.5,185.9,277.2,174.4,277.2z"/>
		</g>
		<g>
			<path class="st0" d="M326.3,338.8c-20.7,0-37.6-16.9-37.6-37.6c0-20.7,16.9-37.6,37.6-37.6c20.7,0,37.6,16.9,37.6,37.6
				C363.9,321.9,347,338.8,326.3,338.8z M326.3,280.4c-11.5,0-20.8,9.3-20.8,20.8c0,11.5,9.3,20.8,20.8,20.8s20.8-9.3,20.8-20.8
				C347.1,289.7,337.8,280.4,326.3,280.4z"/>
		</g>
		<g>
			<path class="st0" d="M251,186.8c-20.7,0-37.6-16.9-37.6-37.6c0-20.7,16.9-37.6,37.6-37.6s37.6,16.9,37.6,37.6
				C288.6,169.9,271.7,186.8,251,186.8z M251,128.4c-11.5,0-20.8,9.3-20.8,20.8S239.5,170,251,170s20.8-9.3,20.8-20.8
				S262.5,128.4,251,128.4z"/>
		</g>
		<path class="st0" d="M239.3,374.1c-5.2,0-10.2-1.7-14.3-4.8c-10.5-7.9-12.7-22.9-4.8-33.5c4.5-6,11.6-9.6,19.1-9.6
			c5.2,0,10.2,1.7,14.3,4.8c10.5,7.9,12.7,22.9,4.8,33.5C253.9,370.5,246.8,374.1,239.3,374.1z"/>
		<path class="st0" d="M251,307.2c-13.2,0-23.9-10.7-23.9-23.9c0-13.2,10.7-23.9,23.9-23.9s23.9,10.7,23.9,23.9
			C274.9,296.5,264.2,307.2,251,307.2z"/>
		<path class="st0" d="M326.3,214.9c-13.2,0-23.9-10.7-23.9-23.9s10.7-23.9,23.9-23.9c13.2,0,23.9,10.7,23.9,23.9
			S339.5,214.9,326.3,214.9z"/>
		<g>
			<path class="st0" d="M56.4,545.2c-14.1,0-26.4-5-36.4-14.9c-10-10-15.1-22.2-15.1-36.4c0-12.6,4.2-24,12.5-33.9
				c10.2-12.1,23.7-18.2,40-18.2c9,0.1,17.7,2.6,26,7.4l3,1.7v31.9l-9.8-8.2c-6.7-5.5-13.2-8.2-20-8.2c-7.4,0-13.5,2.6-18.6,7.9
				c-5.2,5.5-7.7,11.9-7.7,19.6c0,7.7,2.5,13.9,7.7,19.2c5,5.2,11.1,7.7,18.6,7.7c3.8,0,6.9-0.6,9.4-1.7l0.1-0.1
				c1.7-0.8,3.3-1.6,4.9-2.6c1.8-1.2,3.7-2.7,5.7-4.3l9.8-8v32.2l-3,1.7C74.9,542.8,65.9,545.2,56.4,545.2z"/>
			<path class="st0" d="M123.7,543.7v-38.9c0-4.4-0.9-5.7-1.1-6c-0.5-0.7-2-0.7-2.9-0.7c-3.3,0-4.1,1-4.5,1.5
				c-0.5,0.9-1.7,3.7-1.7,11.2v32.9H88.7V435.4h24.8v40.8c2.9-1.1,6-1.6,9.1-1.6c8,0,14.6,2.7,19.5,8c4.3,4.7,6.4,11.7,6.4,21v40.1
				H123.7z"/>
			<rect x="152.8" y="435.4" class="st0" width="24.8" height="108.4"/>
			<path class="st0" d="M211.8,545.4c-9.3,0-17.2-3.4-23.5-10.2l-0.1-0.1c-6-6.8-9-15.3-9-25.2c0-9.9,3-18.2,9.1-24.8
				c6.1-6.8,13.9-10.3,23.1-10.3c4,0,7.8,0.8,11.4,2.4v-1h25v67.6h-24.9v-0.7C219.3,544.6,215.6,545.4,211.8,545.4z M207.3,501.2
				c-2,2.3-2.9,5.2-2.9,8.6c0,3.9,0.9,6.9,2.8,9c1.8,2.1,3.8,3.1,6.6,3.1c3.1,0,5.3-0.9,7-2.9c1.9-2.3,2.9-5.2,2.9-8.9s-1-6.7-3-9
				c-1.7-2-3.9-2.9-6.8-2.9C211.3,498.2,209.2,499.1,207.3,501.2z"/>
			<path class="st0" d="M315.3,543.8v-36.9c0-6.1-0.9-7.9-1.1-8.2c-0.1-0.2-0.3-0.5-1.4-0.5c-1.9,0-2.3,0.6-2.5,1.1
				c-0.6,1-1.6,3.6-1.6,9.7v34.7h-24.9V507c0-5-0.8-7.2-1.3-8.1c-0.4-0.6-0.5-0.7-1.3-0.7c-1.9,0-2.4,0.6-2.8,1.3
				c-0.5,0.8-1.6,3.2-1.6,9.6v34.7H252v-67.6h23.6c2.4-1,5.2-1.5,8.5-1.5c5.9,0,10.9,1.8,15.1,5.4c4.5-3.5,10-5.4,16.2-5.4
				c9.3,0,24.8,3.7,24.8,28.8v40.3H315.3z"/>
			<path class="st0" d="M346.8,543.8V443.7H366c6.2,0,11.5,0.5,15.6,1.6c4.2,1.1,8.1,3.1,11.4,5.8l0.1,0.1c3.1,2.7,5.5,6.1,7.4,10.5
				c1.8,4.1,2.7,8.3,2.7,12.7c0,5.1-1.3,9.9-3.9,14.1c2.6,1.9,4.9,4.2,6.7,7c3.4,5,5.1,10.8,5.1,17.2c0,8.5-3.1,15.9-9.1,21.8
				c-3.7,3.7-7.8,6.2-12.4,7.6l-0.1,0c-4.6,1.3-10.2,1.9-16.6,1.9L346.8,543.8z M374.3,519.3c5.9,0,8.4-1.3,9.4-2.1
				c1.6-1.3,2.3-2.9,2.3-5.1c0-2.1-0.7-3.7-2.3-5.1c-0.8-0.7-3.4-2.3-10.9-2.3h-0.7v14.6H374.3z M372.2,481.4c2.3-0.2,4-0.7,4.9-1.6
				c0.4-0.4,1.6-1.6,1.6-5.4c0-1.6-0.3-3.8-1.5-4.9c-1.1-0.9-2.8-1.5-5-1.6V481.4z"/>
			<path class="st0" d="M443.3,545.4c-9.3,0-17.2-3.4-23.5-10.2l-0.1-0.1c-6-6.8-9-15.3-9-25.2c0-9.9,3-18.2,9.1-24.8
				c6.1-6.8,13.9-10.3,23.1-10.3c4,0,7.8,0.8,11.4,2.4v-1h25v67.6h-24.9v-0.7C450.8,544.6,447.1,545.4,443.3,545.4z M445.5,498.2
				c-2.7,0-4.8,1-6.7,3c-1.9,2.2-2.8,4.9-2.8,8.6c0,3.9,0.9,6.9,2.8,9c1.8,2.1,3.8,3.1,6.6,3.1c3.1,0,5.3-0.9,7-2.9
				c1.9-2.3,2.9-5.2,2.9-8.9c0-3.7-1-6.7-3-9C450.6,499.1,448.4,498.2,445.5,498.2z"/>
			<path class="st0" d="M505.6,545.4c-11.7,0-20.5-6-25.3-17.2l-2.3-5.4l15.7-7.3c-2.8-1.7-5-3.4-6.6-5.3c-2.9-3.5-4.3-7.8-4.3-12.8
				c0-6.3,2.4-12,6.8-16.3c4.5-4.3,10-6.4,16.5-6.4l0.3,0c6.5,0,15.4,2.5,20.9,14.5l2.4,5.2l-11.9,6.3c3.8,2,6.6,4,8.5,6
				c3.4,3.6,5.2,8.3,5.2,14.2c0,7-2.7,13.2-7.8,17.9C518.7,543.1,512.5,545.4,505.6,545.4z M504.3,521.3c0.7,0.6,1.2,0.7,1.6,0.7
				c0,0,0,0,0,0c-0.3-0.3-0.7-0.6-1.4-1c-0.3-0.1-0.5-0.2-0.8-0.4C504.1,521.1,504.3,521.3,504.3,521.3z"/>
			<path class="st0" d="M561.9,545.3c-9.9,0-18-3.3-24.3-9.8l-0.1-0.1c-6-6.5-9.1-15.1-9.1-25.4c0-10.3,3-18.9,8.9-25.3
				c6-6.6,14.1-10,23.9-10c9.8,0,17.8,3.3,23.8,9.7c5.8,6.4,8.7,15,8.7,25.6l0,0.2l-0.3,8.8h-0.5l3.5,1.9l-3.1,5.3
				c-2,3.5-4,6.1-6.1,8.4c-2.3,2.4-4.7,4.5-7.2,6c-2.7,1.7-5.6,2.9-8.7,3.6C568.4,544.9,565.2,545.3,561.9,545.3z M555.9,519
				c0.2,0.2,0.4,0.4,0.6,0.7l0.1,0.1c0.9,0.9,2.5,2.2,5.8,2.2c1.9,0,3.3-0.4,4.4-1.2c0.4-0.3,1-0.8,1.8-1.7H555.9z"/>
		</g>
	</g>
	<g>
		<g>
			<path class="st1" d="M529.7,260.4c-9.5-14-22.2-24.3-37.8-30.9c16-16.4,24.1-36.3,24.1-59.1c0-13.6-2.9-27.2-8.7-40.4
				c-5.7-13.1-13.5-24.2-23.2-33.1c-9.6-8.5-21.6-14.7-35.5-18.3c-13.4-3.5-31.7-5.3-54.2-5.3h-51l-1.2,62.3
				c-3.9-2.8-7.7-2.9-11.6-5.3c0,1.3-1.9,4.5-1.8,4.5c2,0.8,11,4.2,14.6,6.1l-3,204.5c-4.2,3.2-8.4,6.1-12.3,8.7
				c-7.8,5.2-15.4,9.3-22.6,12.3l-0.1,0.1c-12.9,6-28.7,9-47.2,9c-35.8,0-66.5-12.7-91.1-37.8c-24.7-25.1-37.2-56.4-37.2-93
				c0-37,12.5-68.8,37.2-94.4c24.5-25.7,55-38.7,90.8-38.7c24,0,47.6,7.1,70.7,21c-0.3-11.6,1.6-66.9,0.7-67.3
				c-22.1-8.7-44.7-13.2-67.8-13.2c-60.3,0-110.2,22.8-148.2,67.6c-30.9,36.6-46.5,78.8-46.5,125.5c0,52.1,18.7,97.3,55.6,134.2
				c37,36.6,82.4,55.1,134.8,55.1c30.4,0,59.8-6.8,87.9-20.6h75.1c23,0,42.4-2.2,57.8-6.4h0.1c14.4-4.5,27.5-12.6,38.9-24
				c19.1-18.6,28.8-41.8,28.8-68.8C545.9,294.2,540.4,275.9,529.7,260.4z M398.6,127.5h13.7c15.8,0,28,3.7,36.1,11.1
				c8,7.3,12.1,18.3,12.1,32.7c0,14.8-4,26.2-11.8,33.6c-7.9,7.5-20.8,11.3-38.3,11.3l-11.8,0.1L398.6,127.5L398.6,127.5z
				 M473.1,346.5c-9.8,8.2-25.8,12.4-47.4,12.4v0.1h-27.1v-92.7H420c25.9,0,43.9,4.5,53.6,13.4c10,9,14.9,19.9,14.9,33.2
				C488.5,326.6,483.4,337.6,473.1,346.5z"/>
			
				<linearGradient id="SVGID_1_" gradientUnits="userSpaceOnUse" x1="70.8001" y1="-330.5" x2="541.8015" y2="-330.5" gradientTransform="matrix(1 0 0 1 0 574)">
				<stop  offset="0.3651" style="stop-color:#E74C97"/>
				<stop  offset="1" style="stop-color:#1FDFFF"/>
			</linearGradient>
			<path class="st2" d="M526.4,262.8c-10.2-15.1-24.1-25.7-41.8-31.7c18.3-16.6,27.4-36.7,27.4-60.6c0-13.1-2.8-26-8.4-38.8
				c-5.5-12.7-12.9-23.2-22.2-31.7c-9.2-8.2-20.4-14.1-33.8-17.5c-13.2-3.5-30.9-5.2-53.2-5.2h-46.1l-0.7,60
				c-0.3-0.1-23.9-11.8-23.9-11.8s1-58.1,0.1-58.4c-27.2-8.4-34.6-10.8-62.3-10.8c-59.3,0-107.7,22-145.1,66.1
				c-30.4,36-45.6,76.9-45.6,122.9c0,51.3,18.1,95.1,54.5,131.4c36.4,36,80.4,54,132,54c30.2,0,59.2-6.9,87-20.6v0.3h75.9
				c22.7,0,41.6-2.1,56.7-6.3c13.8-4.3,26.2-12,37.3-23.1c18.4-18,27.6-40,27.6-66C541.9,295.1,536.7,277.7,526.4,262.8z
				 M306.8,370.4c-13.4,6.2-29.6,9.3-48.8,9.3c-37,0-68.4-13-93.9-39s-38.3-57.9-38.3-95.8c0-38.3,12.7-70.7,38.3-97.2
				c25.4-26.7,56.6-40,93.7-40c29.8,0,58.6,10.3,86.6,30.8v209c-4.9,3.8-9.7,7.2-14.3,10.3C322,363.1,314.3,367.3,306.8,370.4z
				 M412.3,123.4c17,0,29.9,4.1,38.8,12.2s13.4,20,13.4,35.7c0,16.1-4.3,28.2-13,36.5s-22.4,12.4-41.1,12.4h-15.7l-0.1-96.8
				C394.6,123.4,412.3,123.4,412.3,123.4z M475.7,349.5c-10.6,8.9-27.3,13.4-50,13.4h-31h-0.1V262.3H420c27.1,0,45.8,4.8,56.3,14.4
				c10.8,9.8,16.2,21.8,16.2,36.2C492.5,327.7,486.9,339.9,475.7,349.5z"/>
		</g>
		<circle class="st1" cx="251" cy="243.5" r="143.6"/>
		<g>
			<path class="st3" d="M174.4,222.6c-17.4,0-31.6-14.2-31.6-31.6s14.2-31.6,31.6-31.6S206,173.5,206,191S191.8,222.6,174.4,222.6z
				 M174.4,164.2c-14.8,0-26.8,12-26.8,26.8s12,26.8,26.8,26.8s26.8-12,26.8-26.8S189.2,164.2,174.4,164.2z"/>
		</g>
		<g>
			<path class="st3" d="M174.4,329.6c-17.4,0-31.6-14.2-31.6-31.6s14.2-31.6,31.6-31.6S206,280.6,206,298S191.8,329.6,174.4,329.6z
				 M174.4,271.2c-14.8,0-26.8,12-26.8,26.8s12,26.8,26.8,26.8s26.8-12,26.8-26.8S189.2,271.2,174.4,271.2z"/>
		</g>
		<g>
			<path class="st3" d="M326.3,332.8c-17.4,0-31.6-14.2-31.6-31.6s14.2-31.6,31.6-31.6s31.6,14.2,31.6,31.6
				C357.9,318.6,343.7,332.8,326.3,332.8z M326.3,274.4c-14.8,0-26.8,12-26.8,26.8s12,26.8,26.8,26.8s26.8-12,26.8-26.8
				C353.1,286.4,341,274.4,326.3,274.4z"/>
		</g>
		<g>
			<path class="st3" d="M251,180.8c-17.4,0-31.6-14.2-31.6-31.6s14.2-31.6,31.6-31.6s31.6,14.2,31.6,31.6S268.5,180.8,251,180.8z
				 M251,122.4c-14.8,0-26.8,12-26.8,26.8s12,26.8,26.8,26.8c14.8,0,26.8-12,26.8-26.8S265.8,122.4,251,122.4z"/>
		</g>
		
			<ellipse transform="matrix(0.7071 -0.7071 0.7071 0.7071 -177.552 271.7913)" class="st3" cx="239.3" cy="350.2" rx="17.9" ry="17.9"/>
		<circle class="st3" cx="251" cy="283.3" r="17.9"/>
		<circle class="st3" cx="326.3" cy="191" r="17.9"/>
		<g>
			<path class="st3" d="M80.4,454.4v15.7c-7.7-6.4-15.6-9.6-23.8-9.6c-9.1,0-16.7,3.3-22.9,9.8s-9.4,14.4-9.4,23.7
				c0,9.2,3.1,17,9.4,23.4c6.2,6.4,13.9,9.5,22.9,9.5c4.7,0,8.7-0.8,11.9-2.3c1.8-0.8,3.7-1.8,5.7-3.1s4-2.9,6.2-4.7v16
				c-7.6,4.3-15.6,6.4-24,6.4c-12.6,0-23.3-4.4-32.2-13.2c-8.9-8.9-13.3-19.5-13.3-32.1c0-11.2,3.7-21.2,11.1-30
				c9.1-10.8,20.9-16.1,35.4-16.1C65.4,447.9,73,450.1,80.4,454.4z"/>
			<path class="st3" d="M94.7,441.4h12.8v45.4c4.6-4.1,9.6-6.2,15.1-6.2c6.3,0,11.3,2,15.1,6.1c3.2,3.5,4.8,9.2,4.8,16.9v34.1h-12.8
				v-32.9c0-4.5-0.8-7.7-2.4-9.7s-4.1-3-7.6-3c-4.5,0-7.6,1.4-9.5,4.2c-1.8,2.8-2.7,7.6-2.7,14.5v26.9H94.7V441.4z"/>
			<path class="st3" d="M171.6,441.4v96.4h-12.8v-96.4H171.6z"/>
			<path class="st3" d="M228.9,482.2h12.9v55.6h-12.9V532c-5.3,4.9-11,7.4-17.1,7.4c-7.7,0-14-2.8-19.1-8.3
				c-5-5.7-7.5-12.7-7.5-21.2c0-8.3,2.5-15.3,7.5-20.8c5-5.6,11.2-8.3,18.7-8.3c6.5,0,12.3,2.7,17.4,8v-6.6L228.9,482.2L228.9,482.2
				z M198.4,509.8c0,5.3,1.4,9.7,4.3,13c2.9,3.4,6.6,5.1,11.1,5.1c4.8,0,8.6-1.6,11.5-4.9c2.9-3.4,4.4-7.7,4.4-12.9
				c0-5.2-1.5-9.5-4.4-12.9c-2.9-3.3-6.7-5-11.4-5c-4.4,0-8.1,1.7-11.1,5C199.9,500.6,198.4,504.8,198.4,509.8z"/>
			<path class="st3" d="M258,482.2h12.8v5.1c2.5-2.6,4.6-4.3,6.3-5.2c1.9-1,4.2-1.4,7-1.4c6.3,0,11.2,2.7,14.9,8.2
				c4-5.5,9.5-8.2,16.4-8.2c12.5,0,18.8,7.6,18.8,22.8v34.3h-12.9v-30.9c0-5.3-0.6-9.1-1.9-11.3c-1.3-2.2-3.5-3.4-6.6-3.4
				c-3.5,0-6.1,1.3-7.7,4s-2.4,6.9-2.4,12.8v28.7h-12.9V507c0-9.9-2.9-14.8-8.6-14.8c-3.6,0-6.2,1.4-7.9,4.1
				c-1.7,2.7-2.5,7-2.5,12.8v28.7H258V482.2z"/>
			<path class="st1" d="M352.8,537.8v-88.1H366c5.9,0,10.6,0.5,14.1,1.4s6.5,2.5,9,4.6c2.5,2.2,4.4,5,5.9,8.4s2.2,6.8,2.2,10.3
				c0,6.3-2.4,11.7-7.2,16c4.7,1.6,8.4,4.4,11.1,8.4s4.1,8.6,4.1,13.8c0,6.9-2.4,12.7-7.3,17.5c-2.9,2.9-6.2,5-9.9,6.1
				c-4,1.1-9,1.7-15,1.7L352.8,537.8L352.8,537.8z M366.1,487.5h4.2c4.9,0,8.6-1.1,10.9-3.3c2.3-2.2,3.5-5.4,3.5-9.7
				c0-4.1-1.2-7.3-3.5-9.4c-2.4-2.1-5.8-3.2-10.3-3.2h-4.7v25.6H366.1z M366.1,525.3h8.2c6,0,10.4-1.2,13.2-3.5
				c3-2.5,4.5-5.8,4.5-9.7c0-3.8-1.4-7-4.3-9.6c-2.8-2.5-7.7-3.8-14.9-3.8h-6.7L366.1,525.3L366.1,525.3z"/>
			<path class="st1" d="M460.4,482.2h12.9v55.6h-12.9V532c-5.3,4.9-11,7.4-17.1,7.4c-7.7,0-14-2.8-19.1-8.3
				c-5-5.7-7.5-12.7-7.5-21.2c0-8.3,2.5-15.3,7.5-20.8c5-5.6,11.2-8.3,18.7-8.3c6.5,0,12.3,2.7,17.4,8v-6.6L460.4,482.2L460.4,482.2
				z M430,509.8c0,5.3,1.4,9.7,4.3,13c2.9,3.4,6.6,5.1,11.1,5.1c4.8,0,8.6-1.6,11.5-4.9c2.9-3.4,4.4-7.7,4.4-12.9
				c0-5.2-1.5-9.5-4.4-12.9c-2.9-3.3-6.7-5-11.4-5c-4.4,0-8.1,1.7-11.1,5C431.4,500.6,430,504.8,430,509.8z"/>
			<path class="st1" d="M521.8,491.7l-10.6,5.6c-1.7-3.4-3.7-5.1-6.2-5.1c-1.2,0-2.2,0.4-3,1.2c-0.8,0.8-1.3,1.8-1.3,3
				c0,2.1,2.5,4.2,7.4,6.3c6.8,2.9,11.4,5.6,13.8,8.1c2.4,2.5,3.5,5.8,3.5,10c0,5.4-2,9.9-5.9,13.5c-3.8,3.4-8.5,5.1-13.9,5.1
				c-9.3,0-15.9-4.5-19.8-13.6l11-5.1c1.5,2.7,2.7,4.4,3.5,5.1c1.6,1.4,3.4,2.2,5.6,2.2c4.3,0,6.5-2,6.5-5.9c0-2.3-1.7-4.4-5-6.4
				c-1.3-0.6-2.6-1.3-3.9-1.9c-1.3-0.6-2.6-1.2-3.9-1.9c-3.7-1.8-6.4-3.7-7.9-5.5c-1.9-2.3-2.9-5.3-2.9-9c0-4.8,1.7-8.8,5-12
				c3.4-3.2,7.5-4.7,12.3-4.7C513.1,480.6,518.4,484.3,521.8,491.7z"/>
			<path class="st1" d="M587.6,513h-39.8c0.3,4.6,1.8,8.2,4.5,10.9c2.6,2.7,6,4,10.1,4c3.2,0,5.8-0.8,7.9-2.3c2.1-1.5,4.4-4.3,7-8.4
				l10.8,6c-1.7,2.9-3.4,5.3-5.3,7.3c-1.9,2-3.9,3.7-6,5s-4.4,2.3-6.9,2.9c-2.5,0.6-5.2,0.9-8,0.9c-8.3,0-14.9-2.7-20-8
				c-5-5.4-7.5-12.5-7.5-21.3s2.4-15.9,7.3-21.3c4.9-5.4,11.4-8,19.5-8c8.2,0,14.6,2.6,19.4,7.8c4.7,5.2,7.1,12.3,7.1,21.5
				L587.6,513z M574.4,502.5c-1.8-6.8-6.1-10.3-13-10.3c-1.6,0-3,0.2-4.4,0.7s-2.6,1.2-3.7,2.1c-1.1,0.9-2.1,2-2.9,3.2
				c-0.8,1.3-1.4,2.7-1.8,4.3L574.4,502.5L574.4,502.5z"/>
		</g>
	</g>
</g>
</svg>
