<?xml version="1.0" encoding="utf-8"?>
<!-- Generator: Adobe Illustrator 22.1.0, SVG Export Plug-In . SVG Version: 6.00 Build 0)  -->
<svg version="1.1" id="Layer_1" xmlns="http://www.w3.org/2000/svg" xmlns:xlink="http://www.w3.org/1999/xlink" x="0px" y="0px"
	 viewBox="0 0 50 50" style="enable-background:new 0 0 50 50;" xml:space="preserve">
<style type="text/css">
	.st0{fill:#4BE0EF;}
	.st1{fill:#282828;}
	.st2{fill:#FFFFFF;}
	.st3{fill:url(#SVGID_1_);}
</style>
<path class="st0" d="M48,23l-3.4-3.4c-1.9-6.7-7.2-12-13.9-13.9L27,2c-1.1-1.1-2.9-1.1-4,0l-3.8,3.8c-6.3,2-11.3,6.9-13.3,13.3L2,23
	c-1.1,1.1-1.1,2.9,0,4l3.8,3.8c1.9,6.5,7.1,11.7,13.6,13.6L23,48c1.1,1.1,2.9,1.1,4,0l3.4-3.4c7-1.9,12.4-7.3,14.3-14.3L48,27
	C49.1,25.9,49.1,24.1,48,23z"/>
<path class="st1" d="M5.9,19.1L2,23c-1.1,1.1-1.1,2.9,0,4l3.8,3.8c0.2,0.8,0.5,1.5,0.8,2.3h37c0.4-0.9,0.7-1.8,1-2.8L48,27
	c1.1-1.1,1.1-2.9,0-4l-3.4-3.4c-0.4-1.3-0.9-2.6-1.5-3.7H7.2C6.7,16.9,6.3,18,5.9,19.1z"/>
<g>
	<path class="st2" d="M19.6,19.4v9.5h-2.2l-1.3-4.3v4.3h-2.1v-9.5h2.1l1.4,4.3v-4.3H19.6z"/>
	<path class="st2" d="M23,19.4v9.5h-2.5v-9.5H23z"/>
	<path class="st2" d="M29.7,22.9h-2.5V22c0-0.5,0-0.9-0.1-1s-0.2-0.2-0.3-0.2c-0.2,0-0.3,0.1-0.3,0.2s-0.1,0.4-0.1,0.9v4.6
		c0,0.4,0,0.7,0.1,0.8s0.2,0.2,0.3,0.2c0.2,0,0.3-0.1,0.4-0.2s0.1-0.4,0.1-0.9v-1.1h-0.5v-1.4h2.9v5.1h-1.6l-0.2-0.7
		c-0.2,0.3-0.4,0.5-0.6,0.7s-0.6,0.2-0.9,0.2c-0.4,0-0.8-0.1-1.2-0.3c-0.4-0.2-0.6-0.5-0.8-0.7c-0.2-0.3-0.3-0.6-0.4-0.9
		S24,26.3,24,25.6v-2.8c0-0.9,0-1.6,0.1-2s0.4-0.8,0.8-1.1s1.1-0.5,1.8-0.5c0.7,0,1.3,0.1,1.8,0.4s0.8,0.6,0.9,1.1s0.2,1,0.2,1.8
		V22.9z"/>
	<path class="st2" d="M36.3,22.9h-2.5V22c0-0.5,0-0.9-0.1-1s-0.2-0.2-0.3-0.2c-0.2,0-0.3,0.1-0.3,0.2s-0.1,0.4-0.1,0.9v4.6
		c0,0.4,0,0.7,0.1,0.8s0.2,0.2,0.3,0.2c0.2,0,0.3-0.1,0.4-0.2s0.1-0.4,0.1-0.9v-1.1h-0.5v-1.4h2.9v5.1h-1.6l-0.2-0.7
		c-0.2,0.3-0.4,0.5-0.6,0.7s-0.6,0.2-0.9,0.2c-0.4,0-0.8-0.1-1.2-0.3c-0.4-0.2-0.6-0.5-0.8-0.7c-0.2-0.3-0.3-0.6-0.4-0.9
		s-0.1-0.8-0.1-1.5v-2.8c0-0.9,0-1.6,0.1-2s0.4-0.8,0.8-1.1s1.1-0.5,1.8-0.5c0.7,0,1.3,0.1,1.8,0.4s0.8,0.6,0.9,1.1s0.2,1,0.2,1.8
		V22.9z"/>
</g>
<linearGradient id="SVGID_1_" gradientUnits="userSpaceOnUse" x1="25.3125" y1="25.5903" x2="25.3125" y2="6.5">
	<stop  offset="0" style="stop-color:#FFFFFF;stop-opacity:0"/>
	<stop  offset="1" style="stop-color:#FFFFFF"/>
</linearGradient>
<ellipse class="st3" cx="25.3" cy="16" rx="15.3" ry="9.5"/>
</svg>
