<?xml version="1.0" encoding="utf-8"?>
<!-- Generator: Adobe Illustrator 22.1.0, SVG Export Plug-In . SVG Version: 6.00 Build 0)  -->
<svg version="1.1" id="Layer_1" xmlns="http://www.w3.org/2000/svg" xmlns:xlink="http://www.w3.org/1999/xlink" x="0px" y="0px"
	 viewBox="0 0 50 50" style="enable-background:new 0 0 50 50;" xml:space="preserve">
<style type="text/css">
	.st0{fill:#3D34B2;}
	.st1{fill:#7966FF;}
	.st2{fill:#282828;}
	.st3{fill:url(#SVGID_1_);}
	.st4{fill:#FFFFFF;}
</style>
<g>
	<polyline class="st0" points="12.5,47 37.5,47 50,25.5 37.5,4 	"/>
	<polyline class="st1" points="37.5,4 12.5,4 0,25.5 12.5,47 	"/>
</g>
<polygon class="st2" points="45,16.9 5.1,16.7 0,25.5 4.6,33.3 45.4,33.3 50,25.5 "/>
<linearGradient id="SVGID_1_" gradientUnits="userSpaceOnUse" x1="6.25" y1="58.45" x2="36.35" y2="58.45" gradientTransform="matrix(1 0 0 1 0 -48)">
	<stop  offset="0.1275" style="stop-color:#FFFFFF;stop-opacity:0"/>
	<stop  offset="1" style="stop-color:#FFFFFF"/>
</linearGradient>
<polygon class="st3" points="12.9,4.8 36.3,4.8 29.6,16.1 6.2,16.1 "/>
<g>
	<path class="st4" d="M20.1,24.2h-3.7v-2.5c0-0.7,0-1.2-0.1-1.3s-0.3-0.3-0.5-0.3c-0.3,0-0.5,0.1-0.6,0.3S15,21.1,15,21.8v6.6
		c0,0.7,0,1.1,0.1,1.4s0.3,0.3,0.6,0.3c0.3,0,0.5-0.1,0.5-0.3c0.1-0.2,0.1-0.7,0.1-1.5v-1.8h3.7v0.6c0,1.5-0.1,2.5-0.3,3.1
		c-0.2,0.6-0.7,1.2-1.4,1.6s-1.6,0.7-2.6,0.7c-1.1,0-2-0.2-2.7-0.6s-1.2-0.9-1.4-1.6c-0.2-0.7-0.3-1.7-0.3-3.1V23c0-1,0-1.8,0.1-2.3
		s0.3-1,0.6-1.5s0.8-0.8,1.5-1.1s1.3-0.4,2.1-0.4c1.1,0,2,0.2,2.7,0.6s1.2,0.9,1.4,1.6s0.3,1.6,0.3,2.9V24.2z"/>
	<path class="st4" d="M21.4,18h3.7c1,0,1.8,0.1,2.3,0.2s0.9,0.4,1.2,0.7c0.3,0.3,0.5,0.7,0.6,1.1c0.1,0.4,0.1,1.1,0.1,2v1.2
		c0,0.9-0.1,1.6-0.3,2s-0.5,0.7-1,1c-0.5,0.2-1.2,0.3-2,0.3h-1v5.7h-3.7V18z M25.1,20.4v3.6c0.1,0,0.2,0,0.3,0
		c0.3,0,0.6-0.1,0.7-0.3s0.2-0.5,0.2-1v-1.2c0-0.5-0.1-0.8-0.2-0.9S25.6,20.4,25.1,20.4z"/>
	<path class="st4" d="M38.7,18v14.2h-3.2l-1.9-6.5v6.5h-3.1V18h3.1l2.1,6.4V18H38.7z"/>
</g>
</svg>
