<?xml version="1.0" encoding="utf-8"?>
<!-- Generator: Adobe Illustrator 22.1.0, SVG Export Plug-In . SVG Version: 6.00 Build 0)  -->
<svg version="1.1" id="Layer_1" xmlns="http://www.w3.org/2000/svg" xmlns:xlink="http://www.w3.org/1999/xlink" x="0px" y="0px"
	 viewBox="0 0 50 50" style="enable-background:new 0 0 50 50;" xml:space="preserve">
<style type="text/css">
	.st0{fill:#F95584;}
	.st1{fill:#D8356B;}
	.st2{fill:#282828;}
	.st3{fill:#FFFFFF;}
	.st4{fill:url(#SVGID_1_);}
</style>
<g>
	<path class="st0" d="M49.3,49.3c-0.4,0.4-1,0.7-1.7,0.7H2.4C1.1,50,0,48.9,0,47.6V2.4c0-0.6,0.3-1.2,0.7-1.7"/>
	<path class="st1" d="M0.7,0.7C1.1,0.3,1.7,0,2.4,0h45.3C48.9,0,50,1.1,50,2.4v45.3c0,0.6-0.3,1.2-0.7,1.6"/>
</g>
<rect y="15" class="st2" width="50" height="17.6"/>
<g>
	<path class="st3" d="M7.7,17.1v8.3h0.9v2.2H7.7v2.2H4.6v-2.2H0.8v-2.2l2.7-8.3H7.7z M4.6,25.3v-5.4l-1.4,5.4H4.6z"/>
	<path class="st3" d="M15.2,22.6c0.5,0.2,0.8,0.4,1.1,0.8c0.2,0.4,0.4,1.2,0.4,2.6c0,1-0.1,1.8-0.3,2.3c-0.2,0.6-0.6,1-1.2,1.3
		S13.9,30,13,30c-1,0-1.8-0.2-2.4-0.5s-0.9-0.7-1.1-1.2S9.2,27,9.2,25.8v-1h3.2v2.1c0,0.5,0,0.9,0.1,1s0.2,0.2,0.4,0.2
		s0.4-0.1,0.5-0.3s0.1-0.7,0.1-1.5v-0.9c0-0.5-0.1-0.8-0.2-1.1c-0.1-0.3-0.3-0.4-0.5-0.4c-0.2-0.1-0.6-0.1-1.2-0.1V22
		c0.8,0,1.2,0,1.4-0.1c0.2-0.1,0.3-0.2,0.4-0.4c0.1-0.2,0.1-0.5,0.1-0.9v-0.7c0-0.4,0-0.7-0.1-0.9c-0.1-0.1-0.2-0.2-0.4-0.2
		s-0.4,0.1-0.4,0.2c-0.1,0.1-0.1,0.5-0.1,0.9v1H9.2v-1.1c0-1.2,0.3-2,0.8-2.4c0.6-0.4,1.4-0.6,2.6-0.6c1.5,0,2.5,0.3,3.1,0.9
		c0.5,0.6,0.8,1.4,0.8,2.5c0,0.7-0.1,1.2-0.3,1.5C16.1,22,15.7,22.3,15.2,22.6z"/>
	<path class="st3" d="M24.2,17.1v8.3h0.9v2.2h-0.9v2.2H21v-2.2h-3.8v-2.2l2.7-8.3H24.2z M21.1,25.3v-5.4l-1.4,5.4H21.1z"/>
	<path class="st3" d="M31.4,16.8l-3.7,13.1h-2.4l3.8-13.1H31.4z"/>
	<path class="st3" d="M32.2,17.1h3.3c1,0,1.8,0.1,2.4,0.2c0.5,0.2,1,0.5,1.3,1s0.5,1.3,0.5,2.4c0,0.7-0.1,1.3-0.3,1.5
		c-0.2,0.3-0.7,0.5-1.4,0.7c0.8,0.2,1.3,0.5,1.5,0.9c0.3,0.4,0.4,1,0.4,1.8v1.2c0,0.9-0.1,1.5-0.3,1.9s-0.5,0.7-0.9,0.8
		c-0.4,0.2-1.3,0.2-2.6,0.2h-3.8V17.1H32.2z M35.5,19.2V22c0.1,0,0.2,0,0.3,0c0.3,0,0.5-0.1,0.6-0.2c0.1-0.2,0.1-0.6,0.1-1.4
		c0-0.4,0-0.7-0.1-0.8c-0.1-0.2-0.2-0.3-0.3-0.3S35.8,19.2,35.5,19.2z M35.5,24v3.5c0.5,0,0.8-0.1,0.9-0.2c0.1-0.1,0.2-0.5,0.2-1
		v-1.2c0-0.5-0.1-0.9-0.2-1C36.3,24.1,36,24,35.5,24z"/>
	<path class="st3" d="M48.5,17.1v8.5c0,1,0,1.6-0.1,2s-0.2,0.8-0.6,1.2c-0.3,0.4-0.7,0.7-1.2,0.9S45.5,30,44.8,30
		c-0.8,0-1.4-0.1-2-0.4s-1-0.6-1.3-1S41,27.8,41,27.3c0-0.4,0-1.3,0-2.7v-7.5h3.3v9.5c0,0.6,0,0.9,0.1,1.1c0.1,0.2,0.2,0.2,0.4,0.2
		s0.3-0.1,0.4-0.3c0.1-0.2,0.1-0.6,0.1-1.2v-9.3H48.5z"/>
</g>
<linearGradient id="SVGID_1_" gradientUnits="userSpaceOnUse" x1="6.8473" y1="38.6879" x2="46.3439" y2="-0.8087">
	<stop  offset="0.5593" style="stop-color:#FFFFFF;stop-opacity:0"/>
	<stop  offset="1" style="stop-color:#FFFFFF"/>
</linearGradient>
<path class="st4" d="M46.9,37.2H6.3c-1.3,0-2.4-1.1-2.4-2.4V3.1c0-1.3,1.1-2.4,2.4-2.4h40.5c1.3,0,2.4,1.1,2.4,2.4v31.6
	C49.3,36.1,48.2,37.2,46.9,37.2z"/>
</svg>
