<?xml version="1.0" encoding="utf-8"?>
<!-- Generator: Adobe Illustrator 22.1.0, SVG Export Plug-In . SVG Version: 6.00 Build 0)  -->
<svg version="1.1" id="Layer_1" xmlns="http://www.w3.org/2000/svg" xmlns:xlink="http://www.w3.org/1999/xlink" x="0px" y="0px"
	 viewBox="0 0 50 50" style="enable-background:new 0 0 50 50;" xml:space="preserve">
<style type="text/css">
	.st0{fill:#F95584;}
	.st1{fill:#FFEEF4;}
	.st2{fill:#FFBBD2;}
</style>
<g>
	<path class="st0" d="M47.6,50H2.4C1.1,50,0,48.9,0,47.6L0,2.4C0,1.1,1.1,0,2.4,0l45.3,0C48.9,0,50,1.1,50,2.4v45.3
		C50,48.9,48.9,50,47.6,50z"/>
</g>
<g>
	<path class="st1" d="M5.7,10v1.4H4.6v5.7H2.8v-5.7H1.7V10H5.7z"/>
	<path class="st1" d="M7.9,11.3l-0.1,0.8c0.3-0.5,0.6-0.8,1.1-0.9v2.1c-0.3,0-0.6,0-0.7,0.1S8,13.6,7.9,13.7s-0.1,0.5-0.1,1.1v2.3
		H6.1v-5.8H7.9z"/>
	<path class="st1" d="M10.9,13.5H9.2v-0.4c0-0.5,0.1-0.8,0.2-1c0.1-0.2,0.3-0.5,0.6-0.6s0.7-0.3,1.2-0.3c0.6,0,1.1,0.1,1.4,0.3
		s0.5,0.5,0.5,0.8s0.1,0.9,0.1,1.9v2.9h-1.7v-0.5c-0.1,0.2-0.2,0.4-0.4,0.5c-0.2,0.1-0.4,0.2-0.6,0.2c-0.3,0-0.6-0.1-0.9-0.3
		c-0.3-0.2-0.4-0.6-0.4-1.1v-0.5c0-0.4,0.1-0.7,0.2-0.9s0.5-0.3,1-0.6c0.6-0.2,0.9-0.4,0.9-0.5s0.1-0.2,0.1-0.5c0-0.3,0-0.5-0.1-0.6
		c0-0.1-0.1-0.1-0.2-0.1c-0.1,0-0.2,0-0.2,0.1c0,0.1,0,0.3,0,0.6V13.5z M11.5,14.3c-0.3,0.2-0.4,0.4-0.5,0.5s-0.1,0.3-0.1,0.6
		c0,0.3,0,0.5,0.1,0.6c0,0.1,0.1,0.1,0.2,0.1c0.1,0,0.2,0,0.2-0.1c0-0.1,0.1-0.2,0.1-0.5V14.3z"/>
	<path class="st1" d="M17.8,13.5h-1.7v-0.7c0-0.2,0-0.4-0.1-0.5c0-0.1-0.1-0.1-0.2-0.1s-0.2,0-0.2,0.1s-0.1,0.2-0.1,0.5v2.8
		c0,0.2,0,0.4,0.1,0.5c0.1,0.1,0.1,0.2,0.2,0.2c0.1,0,0.2-0.1,0.2-0.2s0.1-0.3,0.1-0.6v-0.7h1.6c0,0.5,0,0.8-0.1,1
		c0,0.2-0.1,0.5-0.3,0.7c-0.2,0.2-0.4,0.4-0.6,0.6c-0.3,0.1-0.6,0.2-1,0.2c-0.5,0-0.9-0.1-1.2-0.3c-0.3-0.2-0.5-0.4-0.6-0.7
		c-0.1-0.3-0.2-0.7-0.2-1.3v-1.7c0-0.5,0-0.9,0.1-1.1s0.3-0.5,0.6-0.7c0.3-0.2,0.7-0.3,1.2-0.3c0.5,0,0.9,0.1,1.2,0.3
		s0.5,0.4,0.7,0.7S17.8,12.9,17.8,13.5z"/>
	<path class="st1" d="M20.1,10v1.6c0.2-0.1,0.3-0.2,0.5-0.3c0.2-0.1,0.4-0.1,0.6-0.1c0.3,0,0.6,0.1,0.8,0.2s0.4,0.3,0.4,0.5
		c0,0.2,0.1,0.6,0.1,1.1v4h-1.8V13c0-0.3,0-0.6-0.1-0.7s-0.1-0.1-0.2-0.1c-0.1,0-0.2,0-0.2,0.1s-0.1,0.3-0.1,0.6v4.2h-1.8V10H20.1z"
		/>
	<path class="st1" d="M27,13.3v1.4c0,0.5,0,0.9-0.1,1.2c-0.1,0.2-0.2,0.5-0.3,0.7c-0.2,0.2-0.4,0.4-0.7,0.5
		c-0.3,0.1-0.6,0.2-0.9,0.2c-0.4,0-0.7,0-1-0.1c-0.3-0.1-0.5-0.2-0.6-0.4c-0.2-0.2-0.3-0.4-0.3-0.6C23,15.8,23,15.5,23,15v-1.5
		c0-0.5,0.1-1,0.2-1.3s0.3-0.5,0.6-0.7s0.7-0.3,1.2-0.3c0.4,0,0.7,0.1,1,0.2c0.3,0.1,0.5,0.3,0.7,0.5s0.3,0.4,0.3,0.6
		C27,12.6,27,12.9,27,13.3z M25.3,12.9c0-0.3,0-0.5,0-0.6c0-0.1-0.1-0.1-0.2-0.1s-0.2,0-0.2,0.1c0,0.1-0.1,0.3-0.1,0.6v2.6
		c0,0.3,0,0.5,0.1,0.5c0,0.1,0.1,0.1,0.2,0.1c0.1,0,0.2,0,0.2-0.1s0.1-0.2,0.1-0.5V12.9z"/>
	<path class="st1" d="M29.4,11.3l0,0.6c0.1-0.2,0.3-0.4,0.5-0.5c0.2-0.1,0.4-0.2,0.7-0.2c0.5,0,0.8,0.2,1.1,0.7
		c0.1-0.2,0.3-0.4,0.5-0.5s0.4-0.2,0.6-0.2c0.3,0,0.6,0.1,0.8,0.2s0.3,0.3,0.4,0.5s0.1,0.6,0.1,1v4.1h-1.7v-3.8c0-0.5,0-0.8-0.1-0.9
		c0-0.1-0.1-0.2-0.2-0.2c-0.1,0-0.2,0.1-0.2,0.2s-0.1,0.4-0.1,0.9v3.8h-1.7v-3.7c0-0.6,0-0.9,0-1c0-0.1-0.1-0.2-0.2-0.2
		c-0.1,0-0.1,0-0.2,0.1c-0.1,0.1-0.1,0.1-0.1,0.2c0,0.1,0,0.3,0,0.6v4h-1.7v-5.8H29.4z"/>
	<path class="st1" d="M36.2,13.5h-1.7v-0.4c0-0.5,0.1-0.8,0.2-1c0.1-0.2,0.3-0.5,0.6-0.6s0.7-0.3,1.2-0.3c0.6,0,1.1,0.1,1.4,0.3
		s0.5,0.5,0.5,0.8s0.1,0.9,0.1,1.9v2.9h-1.7v-0.5c-0.1,0.2-0.2,0.4-0.4,0.5c-0.2,0.1-0.4,0.2-0.6,0.2c-0.3,0-0.6-0.1-0.9-0.3
		c-0.3-0.2-0.4-0.6-0.4-1.1v-0.5c0-0.4,0.1-0.7,0.2-0.9c0.1-0.2,0.5-0.3,1-0.6c0.6-0.2,0.9-0.4,0.9-0.5s0.1-0.2,0.1-0.5
		c0-0.3,0-0.5-0.1-0.6c0-0.1-0.1-0.1-0.2-0.1c-0.1,0-0.2,0-0.2,0.1c0,0.1,0,0.3,0,0.6V13.5z M36.7,14.3c-0.3,0.2-0.4,0.4-0.5,0.5
		s-0.1,0.3-0.1,0.6c0,0.3,0,0.5,0.1,0.6c0,0.1,0.1,0.1,0.2,0.1c0.1,0,0.2,0,0.2-0.1c0-0.1,0-0.2,0-0.5V14.3z"/>
	<path class="st1" d="M41,10.5v0.9h0.5v0.9H41v3.1c0,0.4,0,0.6,0.1,0.6c0,0,0.2,0.1,0.5,0.1v0.9h-0.7c-0.4,0-0.7,0-0.9-0.1
		c-0.2,0-0.3-0.1-0.5-0.2c-0.1-0.1-0.2-0.3-0.2-0.4c0-0.2,0-0.5,0-1.1v-3h-0.4v-0.9h0.4v-0.9H41z"/>
	<path class="st1" d="M43.7,10v0.9h-1.8V10H43.7z M43.7,11.3v5.8h-1.8v-5.8H43.7z"/>
	<path class="st1" d="M47.9,13.2h-1.6v-0.3c0-0.3,0-0.4,0-0.5c0-0.1-0.1-0.1-0.2-0.1c-0.1,0-0.2,0-0.2,0.1c0,0.1-0.1,0.2-0.1,0.3
		c0,0.2,0,0.3,0,0.4c0,0.1,0.1,0.2,0.2,0.3s0.4,0.2,0.8,0.4c0.5,0.3,0.9,0.5,1,0.7s0.2,0.5,0.2,1c0,0.5-0.1,0.8-0.2,1.1
		c-0.1,0.2-0.3,0.4-0.6,0.6c-0.3,0.1-0.6,0.2-1,0.2c-0.5,0-0.8-0.1-1.2-0.2c-0.3-0.1-0.5-0.3-0.7-0.6c-0.1-0.2-0.2-0.6-0.2-1.1v-0.3
		h1.6v0.4c0,0.3,0,0.5,0.1,0.6c0,0.1,0.1,0.1,0.2,0.1c0.1,0,0.2,0,0.3-0.1c0-0.1,0.1-0.2,0.1-0.4c0-0.3,0-0.5-0.1-0.5
		c-0.1-0.1-0.4-0.3-1-0.6c-0.5-0.3-0.8-0.6-1-0.8c-0.1-0.2-0.2-0.5-0.2-0.9c0-0.5,0.1-0.8,0.2-1c0.1-0.2,0.3-0.4,0.6-0.5
		s0.6-0.2,1-0.2c0.4,0,0.7,0,1,0.1c0.3,0.1,0.5,0.2,0.6,0.4s0.2,0.3,0.3,0.4s0,0.4,0,0.6V13.2z"/>
	<path class="st2" d="M7.7,23.7v8.3h0.9v2.2H7.7v2.2H4.6v-2.2H0.8v-2.2l2.7-8.3H7.7z M4.6,31.9v-5.4l-1.4,5.4H4.6z"/>
	<path class="st2" d="M15.2,29.2c0.5,0.2,0.8,0.4,1.1,0.8c0.2,0.4,0.4,1.2,0.4,2.6c0,1-0.1,1.8-0.3,2.3c-0.2,0.6-0.6,1-1.2,1.3
		s-1.3,0.4-2.2,0.4c-1,0-1.8-0.2-2.4-0.5s-0.9-0.7-1.1-1.2s-0.3-1.3-0.3-2.5v-1h3.2v2.1c0,0.5,0,0.9,0.1,1c0.1,0.1,0.2,0.2,0.4,0.2
		c0.2,0,0.4-0.1,0.5-0.3s0.1-0.7,0.1-1.5V32c0-0.5-0.1-0.8-0.2-1.1s-0.3-0.4-0.5-0.4c-0.2-0.1-0.6-0.1-1.2-0.1v-1.8
		c0.8,0,1.2,0,1.4-0.1c0.2-0.1,0.3-0.2,0.4-0.4s0.1-0.5,0.1-0.9v-0.7c0-0.4,0-0.7-0.1-0.9c-0.1-0.1-0.2-0.2-0.4-0.2
		c-0.2,0-0.4,0.1-0.4,0.2c-0.1,0.1-0.1,0.5-0.1,0.9v1H9.2v-1.1c0-1.2,0.3-2,0.8-2.4c0.6-0.4,1.4-0.6,2.6-0.6c1.5,0,2.5,0.3,3.1,0.9
		c0.5,0.6,0.8,1.4,0.8,2.5c0,0.7-0.1,1.2-0.3,1.5C16.1,28.6,15.7,28.9,15.2,29.2z"/>
	<path class="st2" d="M24.2,23.7v8.3h0.9v2.2h-0.9v2.2h-3.2v-2.2h-3.8v-2.2l2.7-8.3H24.2z M21.1,31.9v-5.4l-1.4,5.4H21.1z"/>
	<path class="st2" d="M31.4,23.4l-3.7,13.1h-2.4l3.8-13.1H31.4z"/>
	<path class="st2" d="M32.2,23.7h3.3c1,0,1.8,0.1,2.4,0.2c0.5,0.2,1,0.5,1.3,1c0.3,0.5,0.5,1.3,0.5,2.4c0,0.7-0.1,1.3-0.3,1.5
		c-0.2,0.3-0.7,0.5-1.4,0.7c0.8,0.2,1.3,0.5,1.5,0.9c0.3,0.4,0.4,1,0.4,1.8v1.2c0,0.9-0.1,1.5-0.3,1.9c-0.2,0.4-0.5,0.7-0.9,0.8
		c-0.4,0.2-1.3,0.2-2.6,0.2h-3.8V23.7z M35.5,25.8v2.8c0.1,0,0.2,0,0.3,0c0.3,0,0.5-0.1,0.6-0.2c0.1-0.2,0.1-0.6,0.1-1.4
		c0-0.4,0-0.7-0.1-0.8c-0.1-0.2-0.2-0.3-0.3-0.3S35.8,25.8,35.5,25.8z M35.5,30.6v3.5c0.5,0,0.8-0.1,0.9-0.2c0.1-0.1,0.2-0.5,0.2-1
		v-1.2c0-0.5-0.1-0.9-0.2-1C36.3,30.7,36,30.6,35.5,30.6z"/>
	<path class="st2" d="M48.5,23.7v8.5c0,1,0,1.6-0.1,2s-0.2,0.8-0.6,1.2c-0.3,0.4-0.7,0.7-1.2,0.9c-0.5,0.2-1.1,0.3-1.8,0.3
		c-0.8,0-1.4-0.1-2-0.4s-1-0.6-1.3-1c-0.3-0.4-0.5-0.8-0.5-1.3C41,33.5,41,32.6,41,31.2v-7.5h3.3v9.5c0,0.6,0,0.9,0.1,1.1
		c0.1,0.2,0.2,0.2,0.4,0.2c0.2,0,0.3-0.1,0.4-0.3c0.1-0.2,0.1-0.6,0.1-1.2v-9.3H48.5z"/>
</g>
</svg>
