<?xml version="1.0" encoding="utf-8"?>
<!-- Generator: Adobe Illustrator 22.1.0, SVG Export Plug-In . SVG Version: 6.00 Build 0)  -->
<svg version="1.1" id="Layer_1" xmlns="http://www.w3.org/2000/svg" xmlns:xlink="http://www.w3.org/1999/xlink" x="0px" y="0px"
	 viewBox="0 0 50 50" style="enable-background:new 0 0 50 50;" xml:space="preserve">
<style type="text/css">
	.st0{fill:#F9DC5F;}
	.st1{fill:#FFFEFA;}
	.st2{fill:#E28B2D;}
</style>
<g>
	<path class="st0" d="M25,50L25,50C11.2,50,0,38.8,0,25v0C0,11.2,11.2,0,25,0h0c13.8,0,25,11.2,25,25v0C50,38.8,38.8,50,25,50z"/>
</g>
<g>
	<path class="st1" d="M7.9,13.8v1.3h-1v5.1H5.2v-5.1h-1v-1.3H7.9z"/>
	<path class="st1" d="M9.8,14.9l-0.1,0.7c0.2-0.5,0.6-0.7,1-0.8v1.8c-0.3,0-0.5,0-0.6,0.1S9.9,17,9.8,17.1s0,0.5,0,1v2H8.2v-5.2H9.8
		z"/>
	<path class="st1" d="M12.5,16.9H11v-0.3c0-0.4,0-0.7,0.1-0.9s0.3-0.4,0.6-0.6s0.6-0.2,1.1-0.2c0.5,0,0.9,0.1,1.2,0.3
		s0.4,0.4,0.5,0.7s0.1,0.8,0.1,1.7v2.6H13v-0.5c-0.1,0.2-0.2,0.3-0.4,0.4s-0.3,0.1-0.5,0.1c-0.3,0-0.5-0.1-0.8-0.2S11,19.5,11,19
		v-0.4c0-0.4,0.1-0.7,0.2-0.8s0.4-0.3,0.9-0.5c0.5-0.2,0.8-0.3,0.8-0.4s0.1-0.2,0.1-0.4c0-0.3,0-0.4-0.1-0.5s-0.1-0.1-0.2-0.1
		c-0.1,0-0.2,0-0.2,0.1s0,0.2,0,0.5V16.9z M13,17.7c-0.3,0.2-0.4,0.3-0.4,0.5s-0.1,0.3-0.1,0.5c0,0.3,0,0.4,0.1,0.5s0.1,0.1,0.2,0.1
		c0.1,0,0.2,0,0.2-0.1s0-0.2,0-0.5V17.7z"/>
	<path class="st1" d="M18.6,16.9h-1.5v-0.6c0-0.2,0-0.3-0.1-0.4s-0.1-0.1-0.2-0.1s-0.2,0-0.2,0.1s0,0.2,0,0.4v2.4
		c0,0.2,0,0.3,0.1,0.4s0.1,0.1,0.2,0.1c0.1,0,0.2,0,0.2-0.1s0.1-0.3,0.1-0.5V18h1.4c0,0.4,0,0.7,0,0.9s-0.1,0.4-0.3,0.6
		s-0.3,0.4-0.6,0.5s-0.5,0.2-0.9,0.2c-0.4,0-0.8-0.1-1.1-0.2s-0.4-0.4-0.6-0.6S15,18.7,15,18.2v-1.5c0-0.4,0-0.8,0.1-1
		s0.3-0.4,0.6-0.6s0.6-0.3,1.1-0.3c0.4,0,0.8,0.1,1.1,0.3s0.5,0.4,0.6,0.7S18.6,16.4,18.6,16.9z"/>
	<path class="st1" d="M20.6,13.8v1.4c0.1-0.1,0.3-0.2,0.4-0.3c0.2-0.1,0.3-0.1,0.5-0.1c0.3,0,0.5,0.1,0.7,0.2s0.3,0.3,0.4,0.5
		s0.1,0.5,0.1,1v3.6h-1.6v-3.6c0-0.3,0-0.5,0-0.6s-0.1-0.1-0.2-0.1c-0.1,0-0.2,0-0.2,0.1s-0.1,0.3-0.1,0.5v3.7h-1.6v-6.3H20.6z"/>
	<path class="st1" d="M26.8,16.8V18c0,0.5,0,0.8-0.1,1s-0.1,0.4-0.3,0.6s-0.4,0.3-0.6,0.4c-0.2,0.1-0.5,0.1-0.8,0.1
		c-0.3,0-0.6,0-0.9-0.1s-0.4-0.2-0.6-0.3s-0.2-0.3-0.3-0.6s-0.1-0.5-0.1-1v-1.3c0-0.5,0.1-0.9,0.2-1.1s0.3-0.5,0.6-0.7
		s0.6-0.2,1-0.2c0.4,0,0.7,0.1,0.9,0.2s0.4,0.2,0.6,0.4s0.2,0.3,0.3,0.5S26.8,16.4,26.8,16.8z M25.2,16.4c0-0.3,0-0.4,0-0.5
		s-0.1-0.1-0.2-0.1s-0.2,0-0.2,0.1s0,0.2,0,0.5v2.3c0,0.2,0,0.4,0,0.5s0.1,0.1,0.2,0.1c0.1,0,0.2,0,0.2-0.1s0-0.2,0-0.4V16.4z"/>
	<path class="st1" d="M28.9,14.9l0,0.5c0.1-0.2,0.3-0.3,0.4-0.4c0.2-0.1,0.4-0.1,0.6-0.1c0.4,0,0.8,0.2,1,0.6
		c0.1-0.2,0.3-0.3,0.4-0.4c0.2-0.1,0.4-0.1,0.6-0.1c0.3,0,0.5,0.1,0.7,0.2s0.3,0.3,0.3,0.5S33,16,33,16.4v3.7h-1.5v-3.4
		c0-0.4,0-0.7,0-0.8s-0.1-0.2-0.2-0.2c-0.1,0-0.2,0.1-0.2,0.2s0,0.4,0,0.8v3.4h-1.5v-3.3c0-0.5,0-0.8,0-0.9s-0.1-0.2-0.2-0.2
		c-0.1,0-0.1,0-0.2,0.1S28.9,16,28.9,16s0,0.2,0,0.5v3.6h-1.5v-5.2H28.9z"/>
	<path class="st1" d="M34.9,16.9h-1.5v-0.3c0-0.4,0-0.7,0.1-0.9s0.3-0.4,0.6-0.6s0.6-0.2,1.1-0.2c0.5,0,0.9,0.1,1.2,0.3
		s0.4,0.4,0.5,0.7s0.1,0.8,0.1,1.7v2.6h-1.5v-0.5c-0.1,0.2-0.2,0.3-0.4,0.4s-0.3,0.1-0.5,0.1c-0.3,0-0.5-0.1-0.8-0.2s-0.3-0.5-0.3-1
		v-0.4c0-0.4,0.1-0.7,0.2-0.8s0.4-0.3,0.9-0.5c0.5-0.2,0.8-0.3,0.8-0.4s0.1-0.2,0.1-0.4c0-0.3,0-0.4-0.1-0.5s-0.1-0.1-0.2-0.1
		c-0.1,0-0.2,0-0.2,0.1s0,0.2,0,0.5V16.9z M35.4,17.7C35.2,17.8,35,18,35,18.1s-0.1,0.3-0.1,0.5c0,0.3,0,0.4,0.1,0.5
		s0.1,0.1,0.2,0.1c0.1,0,0.2,0,0.2-0.1s0-0.2,0-0.5V17.7z"/>
	<path class="st1" d="M39.2,14.2v0.8h0.4v0.8h-0.4v2.8c0,0.3,0,0.5,0.1,0.6s0.2,0.1,0.4,0.1v0.8h-0.6c-0.4,0-0.6,0-0.8,0
		S38,20,37.9,19.9s-0.2-0.2-0.2-0.4s0-0.5,0-1v-2.6h-0.3v-0.8h0.3v-0.8H39.2z"/>
	<path class="st1" d="M41.6,13.8v0.8H40v-0.8H41.6z M41.6,14.9v5.2H40v-5.2H41.6z"/>
	<path class="st1" d="M45.4,16.6H44v-0.3c0-0.2,0-0.4,0-0.5s-0.1-0.1-0.2-0.1c-0.1,0-0.2,0-0.2,0.1s-0.1,0.1-0.1,0.3
		c0,0.2,0,0.3,0,0.3s0.1,0.2,0.2,0.2s0.3,0.2,0.7,0.4c0.5,0.2,0.8,0.4,0.9,0.6s0.2,0.5,0.2,0.9c0,0.4-0.1,0.7-0.2,1S45,19.9,44.8,20
		s-0.6,0.2-0.9,0.2c-0.4,0-0.7-0.1-1-0.2s-0.5-0.3-0.6-0.5s-0.2-0.5-0.2-1v-0.2h1.4v0.3c0,0.3,0,0.5,0.1,0.5s0.1,0.1,0.2,0.1
		c0.1,0,0.2,0,0.2-0.1S44,19,44,18.9c0-0.2,0-0.4-0.1-0.5c-0.1-0.1-0.4-0.2-0.9-0.6c-0.5-0.3-0.7-0.5-0.8-0.7S42,16.7,42,16.4
		c0-0.4,0.1-0.7,0.2-0.9s0.3-0.3,0.6-0.5s0.6-0.2,0.9-0.2c0.3,0,0.6,0,0.9,0.1s0.4,0.2,0.6,0.3s0.2,0.3,0.2,0.4s0,0.3,0,0.6V16.6z"
		/>
	<path class="st2" d="M4.3,24.6H6c1.1,0,1.8,0,2.2,0.2c0.4,0.1,0.7,0.3,0.9,0.5c0.2,0.2,0.3,0.5,0.4,0.8s0.1,0.8,0.1,1.7v3
		c0,0.8,0,1.3-0.1,1.6c-0.1,0.3-0.2,0.5-0.4,0.6s-0.4,0.3-0.7,0.3c-0.3,0.1-0.7,0.1-1.2,0.1H4.3V24.6z M6.5,26.1v5.7
		c0.3,0,0.5-0.1,0.6-0.2s0.1-0.5,0.1-1.1v-3.4c0-0.4,0-0.6,0-0.8S7.1,26.2,7,26.2S6.8,26.1,6.5,26.1z"/>
	<path class="st2" d="M14.2,24.5l-2.6,9H10l2.6-9H14.2z"/>
	<path class="st2" d="M19.8,24.6v5.8c0,0.7,0,1.1-0.1,1.4s-0.2,0.5-0.4,0.8s-0.5,0.5-0.8,0.6c-0.3,0.1-0.8,0.2-1.2,0.2
		c-0.5,0-1-0.1-1.4-0.3s-0.7-0.4-0.9-0.7c-0.2-0.3-0.3-0.6-0.3-0.9c0-0.3-0.1-1-0.1-1.9v-5.1h2.3v6.5c0,0.4,0,0.6,0.1,0.7
		c0,0.1,0.1,0.2,0.2,0.2c0.1,0,0.2-0.1,0.3-0.2c0-0.1,0.1-0.4,0.1-0.8v-6.4H19.8z"/>
	<path class="st2" d="M25.3,24.6l-0.8,3.8l1.2,4.8h-2.1c-0.3-0.9-0.5-1.9-0.7-3.2c-0.1,0.6-0.1,1.1-0.2,1.8l-0.2,1.4h-2.2l0.8-4.8
		l-0.8-3.8h2.2c0,0.2,0.1,0.6,0.2,1.2c0.1,0.4,0.2,0.8,0.2,1.2l0.5-2.4H25.3z"/>
	<path class="st2" d="M28.6,29v1.5h-2.9V29H28.6z"/>
	<path class="st2" d="M33.3,28.4c0.3,0.1,0.6,0.3,0.7,0.5c0.2,0.3,0.2,0.8,0.2,1.8c0,0.7-0.1,1.2-0.2,1.6s-0.4,0.7-0.8,0.9
		c-0.4,0.2-0.9,0.3-1.5,0.3c-0.7,0-1.2-0.1-1.6-0.3c-0.4-0.2-0.7-0.5-0.8-0.8c-0.1-0.3-0.2-0.9-0.2-1.7v-0.7h2.2v1.4
		c0,0.4,0,0.6,0.1,0.7c0,0.1,0.1,0.2,0.3,0.2c0.2,0,0.3-0.1,0.3-0.2c0.1-0.1,0.1-0.5,0.1-1v-0.6c0-0.3,0-0.6-0.1-0.7
		c-0.1-0.2-0.2-0.3-0.3-0.3c-0.1,0-0.4-0.1-0.9-0.1V28c0.5,0,0.8,0,1-0.1s0.2-0.1,0.3-0.3c0.1-0.1,0.1-0.3,0.1-0.6v-0.5
		c0-0.3,0-0.5-0.1-0.6c-0.1-0.1-0.2-0.1-0.3-0.1c-0.2,0-0.3,0.1-0.3,0.2c-0.1,0.1-0.1,0.3-0.1,0.7v0.7h-2.2v-0.7
		c0-0.8,0.2-1.4,0.6-1.7c0.4-0.3,1-0.4,1.8-0.4c1,0,1.7,0.2,2.1,0.6s0.6,1,0.6,1.7c0,0.5-0.1,0.8-0.2,1.1
		C33.8,28,33.6,28.2,33.3,28.4z"/>
	<path class="st2" d="M40.4,28.4h-2.3v-1.5c0-0.4,0-0.7-0.1-0.8c0-0.1-0.2-0.2-0.3-0.2c-0.2,0-0.3,0.1-0.4,0.2s-0.1,0.4-0.1,0.9v4
		c0,0.4,0,0.7,0.1,0.8s0.2,0.2,0.3,0.2c0.2,0,0.3-0.1,0.3-0.2c0.1-0.1,0.1-0.4,0.1-0.9v-1.1h2.3v0.3c0,0.9-0.1,1.5-0.2,1.9
		c-0.1,0.4-0.4,0.7-0.8,1s-1,0.4-1.6,0.4c-0.7,0-1.2-0.1-1.6-0.4c-0.4-0.2-0.7-0.6-0.9-1c-0.1-0.4-0.2-1.1-0.2-1.9v-2.5
		c0-0.6,0-1.1,0.1-1.4s0.2-0.6,0.4-0.9c0.2-0.3,0.5-0.5,0.9-0.7c0.4-0.2,0.8-0.2,1.3-0.2c0.7,0,1.2,0.1,1.6,0.4
		c0.4,0.3,0.7,0.6,0.9,1s0.2,1,0.2,1.8V28.4z"/>
	<path class="st2" d="M45.8,24.6L45,28.5l1.2,4.8h-2.1c-0.3-0.9-0.5-1.9-0.7-3.2c-0.1,0.6-0.1,1.1-0.2,1.8l-0.2,1.4h-2.2l0.8-4.8
		l-0.8-3.8h2.2c0,0.2,0.1,0.6,0.2,1.2c0.1,0.4,0.2,0.8,0.2,1.2l0.5-2.4H45.8z"/>
</g>
</svg>
