<?xml version="1.0" encoding="utf-8"?>
<!-- Generator: Adobe Illustrator 22.1.0, SVG Export Plug-In . SVG Version: 6.00 Build 0)  -->
<svg version="1.1" id="Layer_1" xmlns="http://www.w3.org/2000/svg" xmlns:xlink="http://www.w3.org/1999/xlink" x="0px" y="0px"
	 viewBox="0 0 50 50" style="enable-background:new 0 0 50 50;" xml:space="preserve">
<style type="text/css">
	.st0{fill:#22E08A;}
	.st1{fill:#159B81;}
	.st2{fill:#282828;}
	.st3{fill:url(#SVGID_1_);}
	.st4{fill:#FFFFFF;}
</style>
<g>
	<g>
		<g>
			<path class="st0" d="M25,50L25,50C11.2,50,0,38.8,0,25l0,0C0,11.2,11.2,0,25,0l0,0c13.8,0,25,11.2,25,25l0,0
				C50,38.8,38.8,50,25,50z"/>
		</g>
		<path class="st1" d="M50,25c0-0.9-0.1-1.9-0.2-2.8c-1.4,12.5-12,22.2-24.8,22.2S1.5,34.7,0.2,22.2C0.1,23.1,0,24.1,0,25
			c0,13.8,11.2,25,25,25S50,38.8,50,25z"/>
		<path class="st2" d="M0,25c0,2.9,0.5,5.7,1.4,8.3h47.1c0.9-2.6,1.4-5.4,1.4-8.3c0-2.4-0.4-4.8-1-7H1C0.4,20.2,0,22.5,0,25z"/>
		
			<linearGradient id="SVGID_1_" gradientUnits="userSpaceOnUse" x1="25" y1="77.9" x2="25" y2="48.9" gradientTransform="matrix(1 0 0 1 0 -48)">
			<stop  offset="0" style="stop-color:#FFFFFF;stop-opacity:0"/>
			<stop  offset="1" style="stop-color:#FFFFFF"/>
		</linearGradient>
		<ellipse class="st3" cx="25" cy="15.4" rx="18.9" ry="14.5"/>
	</g>
	<g>
		<path class="st4" d="M21.5,19.2H24c1.6,0,2.7,0.1,3.3,0.2c0.6,0.1,1,0.4,1.3,0.7s0.5,0.7,0.6,1.1c0.1,0.4,0.1,1.2,0.1,2.5v4.6
			c0,1.2-0.1,1.9-0.2,2.3c-0.1,0.4-0.3,0.7-0.6,0.9c-0.3,0.2-0.6,0.4-1,0.5c-0.4,0.1-1,0.1-1.8,0.1h-4.3V19.2z M24.9,21.5V30
			c0.5,0,0.8-0.1,0.9-0.3c0.1-0.2,0.2-0.7,0.2-1.6v-5.1c0-0.6,0-1-0.1-1.1s-0.1-0.3-0.3-0.4C25.5,21.5,25.3,21.5,24.9,21.5z"/>
	</g>
</g>
</svg>
