<?xml version="1.0" encoding="utf-8"?>
<!-- Generator: Adobe Illustrator 22.1.0, SVG Export Plug-In . SVG Version: 6.00 Build 0)  -->
<svg version="1.1" id="Layer_1" xmlns="http://www.w3.org/2000/svg" xmlns:xlink="http://www.w3.org/1999/xlink" x="0px" y="0px"
	 viewBox="0 0 50 50" style="enable-background:new 0 0 50 50;" xml:space="preserve">
<style type="text/css">
	.st0{fill:#22E08A;}
	.st1{fill:#159B81;}
	.st2{fill:#282828;}
	.st3{fill:#FFFFFF;}
	.st4{fill:url(#SVGID_1_);}
</style>
<g>
	<path class="st0" d="M25,50L25,50C11.2,50,0,38.8,0,25l0,0C0,11.2,11.2,0,25,0l0,0c13.8,0,25,11.2,25,25l0,0C50,38.8,38.8,50,25,50
		z"/>
</g>
<path class="st1" d="M50,25c0-0.9-0.1-1.9-0.2-2.8c-1.4,12.5-12,22.2-24.8,22.2S1.5,34.7,0.2,22.2C0.1,23.1,0,24.1,0,25
	c0,13.8,11.2,25,25,25S50,38.8,50,25z"/>
<path class="st2" d="M0,25c0,2.9,0.5,5.7,1.4,8.3h47.1c0.9-2.6,1.4-5.4,1.4-8.3c0-2.4-0.4-4.8-1-7H1C0.4,20.2,0,22.5,0,25z"/>
<g>
	<path class="st3" d="M1.7,20.9h1.9c1.2,0,2,0,2.5,0.2c0.4,0.1,0.8,0.3,1,0.6c0.2,0.2,0.3,0.6,0.4,0.9c0.1,0.3,0.1,0.9,0.1,1.9v3.3
		c0,0.9,0,1.4-0.1,1.8c-0.1,0.3-0.2,0.6-0.4,0.7c-0.2,0.1-0.4,0.3-0.8,0.3c-0.3,0.1-0.8,0.1-1.3,0.1H1.7V20.9z M4.1,22.6v6.3
		c0.3,0,0.6-0.1,0.7-0.2c0.1-0.1,0.1-0.6,0.1-1.2v-3.8c0-0.4,0-0.7,0-0.9c0-0.2-0.1-0.1-0.2-0.1S4.5,22.6,4.1,22.6z"/>
	<path class="st3" d="M12.7,20.8l-2.9,10H8l2.9-10H12.7z"/>
	<path class="st3" d="M18.9,20.9v6.5c0,0.8,0,1.2-0.1,1.6c-0.1,0.3-0.2,0.6-0.4,0.9s-0.6,0.6-0.9,0.7c-0.3,0.1-0.9,0.2-1.3,0.2
		c-0.6,0-1.1-0.1-1.6-0.3c-0.4-0.2-0.8-0.4-1-0.8c-0.2-0.3-0.3-0.7-0.3-1s-0.1-1.1-0.1-2.1v-5.7h2.6V28c0,0.4,0,0.7,0.1,0.8
		c0,0.1,0.1,0.2,0.2,0.2c0.1,0,0.2-0.1,0.3-0.2c0-0.1,0.1-0.4,0.1-0.9v-7.1h2.5V20.9z"/>
	<path class="st3" d="M25.1,20.9l-0.9,4.2l1.3,5.3h-2.3c-0.3-1-0.6-2.1-0.8-3.6c-0.1,0.7-0.1,1.2-0.2,2l-0.2,1.6h-2.5l0.9-5.3
		l-0.9-4.2h2.5c0,0.2,0.1,0.7,0.2,1.3c0.1,0.4,0.2,0.9,0.2,1.3l0.6-2.7C22.9,20.9,25.1,20.9,25.1,20.9z"/>
	<path class="st3" d="M28.7,25.8v1.7h-3.2v-1.7H28.7z"/>
	<path class="st3" d="M34,25.1c0.3,0.1,0.7,0.3,0.8,0.6c0.2,0.3,0.2,0.9,0.2,2c0,0.8-0.1,1.3-0.2,1.8c-0.1,0.4-0.4,0.8-0.9,1
		c-0.4,0.2-1,0.3-1.7,0.3c-0.8,0-1.3-0.1-1.8-0.3s-0.8-0.6-0.9-0.9c-0.1-0.3-0.2-1-0.2-1.9v-0.8h2.5v1.6c0,0.4,0,0.7,0.1,0.8
		c0,0.1,0.1,0.2,0.3,0.2c0.2,0,0.3-0.1,0.3-0.2c0.1-0.1,0.1-0.6,0.1-1.1v-0.7c0-0.3,0-0.7-0.1-0.8c-0.1-0.2-0.2-0.3-0.3-0.3
		c-0.1,0-0.4-0.1-1-0.1v-1.6c0.6,0,0.9,0,1.1-0.1c0.2-0.1,0.2-0.1,0.3-0.3c0.1-0.1,0.1-0.3,0.1-0.7V23c0-0.3,0-0.6-0.1-0.7
		c-0.1-0.1-0.2-0.1-0.3-0.1c-0.2,0-0.3,0.1-0.3,0.2c-0.1,0.1-0.1,0.3-0.1,0.8V24h-2.5v-0.8c0-0.9,0.2-1.6,0.7-1.9s1.1-0.4,2-0.4
		c1.1,0,1.9,0.2,2.3,0.7c0.4,0.4,0.7,1.1,0.7,1.9c0,0.6-0.1,0.9-0.2,1.2C34.5,24.7,34.3,24.9,34,25.1z"/>
	<path class="st3" d="M41.9,25.1h-2.6v-1.7c0-0.4,0-0.8-0.1-0.9c0-0.1-0.2-0.2-0.3-0.2c-0.2,0-0.3,0.1-0.4,0.2
		c-0.1,0.1-0.1,0.4-0.1,1V28c0,0.4,0,0.8,0.1,0.9c0.1,0.1,0.2,0.2,0.3,0.2c0.2,0,0.3-0.1,0.3-0.2c0.1-0.1,0.1-0.4,0.1-1v-1.2h2.6V27
		c0,1-0.1,1.7-0.2,2.1c-0.1,0.4-0.4,0.8-0.9,1.1c-0.4,0.3-1.1,0.4-1.8,0.4c-0.8,0-1.3-0.1-1.8-0.4c-0.4-0.2-0.8-0.7-1-1.1
		c-0.1-0.4-0.2-1.2-0.2-2.1v-2.8c0-0.7,0-1.2,0.1-1.6s0.2-0.7,0.4-1c0.2-0.3,0.6-0.6,1-0.8s0.9-0.2,1.4-0.2c0.8,0,1.3,0.1,1.8,0.4
		c0.4,0.3,0.8,0.7,1,1.1c0.2,0.4,0.2,1.1,0.2,2V25.1z"/>
	<path class="st3" d="M47.9,20.9L47,25.2l1.3,5.3H46c-0.3-1-0.6-2.1-0.8-3.6c-0.1,0.7-0.1,1.2-0.2,2l-0.2,1.6h-2.5l0.9-5.3L42.3,21
		h2.5c0,0.2,0.1,0.7,0.2,1.3c0.1,0.4,0.2,0.9,0.2,1.3l0.6-2.7h2.1V20.9z"/>
</g>
<linearGradient id="SVGID_1_" gradientUnits="userSpaceOnUse" x1="25" y1="29.9167" x2="25" y2="0.9167">
	<stop  offset="0" style="stop-color:#FFFFFF;stop-opacity:0"/>
	<stop  offset="1" style="stop-color:#FFFFFF"/>
</linearGradient>
<ellipse class="st4" cx="25" cy="15.4" rx="18.9" ry="14.5"/>
</svg>
