<?xml version="1.0" encoding="utf-8"?>
<!-- Generator: Adobe Illustrator 22.1.0, SVG Export Plug-In . SVG Version: 6.00 Build 0)  -->
<svg version="1.1" id="Layer_1" xmlns="http://www.w3.org/2000/svg" xmlns:xlink="http://www.w3.org/1999/xlink" x="0px" y="0px"
	 viewBox="0 0 599 599" style="enable-background:new 0 0 599 599;" xml:space="preserve">
<style type="text/css">
	.st0{fill:#E80C85;}
	.st1{fill:#1FDFFF;}
	.st2{fill:#FFFFFF;}
</style>
<g>
	<path class="st0" d="M359.8,97.1v79.4c-38.7-32.4-78.8-48.6-120.3-48.6c-45.7,0-84.1,16.4-115.4,49.2C92.8,209.7,77,249.6,77,296.7
		c0,46.6,15.7,85.9,47.2,118c31.5,32,70,48,115.7,48c23.6,0,43.6-3.8,60.1-11.5c9.2-3.8,18.7-9,28.6-15.5
		c9.9-6.5,20.3-14.4,31.2-23.6v80.8c-38.4,21.7-78.6,32.5-120.8,32.5c-63.5,0-117.7-22.2-162.6-66.5c-44.7-44.7-67-98.6-67-161.7
		c0-56.6,18.7-107,56.1-151.3c46-54.3,105.6-81.4,178.7-81.4C284.1,64.6,322.6,75.4,359.8,97.1z"/>
</g>
<g>
	<path class="st1" d="M346.2,500.1V90.4h61.6c27.4,0,49.3,2.1,65.5,6.4c16.5,4.2,30.3,11.4,41.7,21.5c11.5,10.4,20.6,23.4,27.3,39
		c6.9,15.7,10.3,31.7,10.3,47.8c0,29.4-11.2,54.2-33.7,74.6c21.8,7.4,38.9,20.4,51.5,39c12.7,18.4,19.1,39.8,19.1,64.2
		c0,32-11.3,59.1-34,81.2c-13.6,13.6-28.9,23.1-45.9,28.4c-18.6,5.1-41.8,7.7-69.8,7.7H346.2z M408.1,266.3h19.4
		c23,0,39.8-5.1,50.6-15.3c10.7-10.2,16.1-25.2,16.1-45c0-19.3-5.5-33.9-16.5-43.9c-11-10-26.9-15-47.8-15h-21.8V266.3z M408.1,442
		h38.2c28,0,48.5-5.5,61.6-16.5c13.8-11.8,20.7-26.9,20.7-45.1c0-17.7-6.6-32.5-19.9-44.6c-12.9-11.8-36-17.8-69.3-17.8h-31.3V442z"
		/>
</g>
<circle class="st2" cx="231.2" cy="295" r="176.8"/>
<g>
	<path class="st0" d="M136.9,269.3c-21.5,0-39-17.5-39-39s17.5-39,39-39s39,17.5,39,39S158.4,269.3,136.9,269.3z M136.9,197.4
		c-18.2,0-33,14.8-33,33s14.8,33,33,33s33-14.8,33-33S155,197.4,136.9,197.4z"/>
</g>
<g>
	<path class="st0" d="M136.9,401c-21.5,0-39-17.5-39-39s17.5-39,39-39s39,17.5,39,39S158.4,401,136.9,401z M136.9,329.1
		c-18.2,0-33,14.8-33,33c0,18.2,14.8,33,33,33s33-14.8,33-33C169.8,343.9,155,329.1,136.9,329.1z"/>
</g>
<g>
	<path class="st0" d="M323.9,405c-21.5,0-39-17.5-39-39s17.5-39,39-39s39,17.5,39,39S345.4,405,323.9,405z M323.9,333.1
		c-18.2,0-33,14.8-33,33c0,18.2,14.8,33,33,33c18.2,0,33-14.8,33-33C356.8,347.9,342.1,333.1,323.9,333.1z"/>
</g>
<g>
	<path class="st0" d="M231.2,217.9c-21.5,0-39-17.5-39-39s17.5-39,39-39s39,17.5,39,39S252.7,217.9,231.2,217.9z M231.2,145.9
		c-18.2,0-33,14.8-33,33s14.8,33,33,33s33-14.8,33-33S249.4,145.9,231.2,145.9z"/>
</g>
<circle class="st0" cx="216.8" cy="426.4" r="22"/>
<circle class="st0" cx="231.2" cy="344.1" r="22"/>
<circle class="st0" cx="323.9" cy="230.4" r="22"/>
</svg>
