<?xml version="1.0" encoding="utf-8"?>
<!-- Generator: Adobe Illustrator 22.1.0, SVG Export Plug-In . SVG Version: 6.00 Build 0)  -->
<svg version="1.1" id="Layer_1" xmlns="http://www.w3.org/2000/svg" xmlns:xlink="http://www.w3.org/1999/xlink" x="0px" y="0px"
	 viewBox="0 0 599 599" style="enable-background:new 0 0 599 599;" xml:space="preserve">
<style type="text/css">
	.st0{fill:#FFFFFF;}
	.st1{fill:#E80C85;}
	.st2{fill:url(#SVGID_1_);}
</style>
<g>
	<path class="st0" d="M257.3,434.6c-52.4,0-97.8-18.5-134.8-55.1c-36.9-36.9-55.6-82.1-55.6-134.2c0-46.7,15.6-88.9,46.5-125.5
		c38-44.8,87.9-67.6,148.2-67.6c33,0,65.2,9.1,96,26.9l2,1.2v75.4l-6.6-5.5c-30.6-25.6-62.6-38.6-95.1-38.6
		c-35.8,0-66.3,13-90.8,38.7c-24.7,25.6-37.2,57.4-37.2,94.4c0,36.6,12.5,67.9,37.2,93c24.6,25.1,55.3,37.8,91.1,37.8
		c18.5,0,34.3-3,47.2-9l0.1-0.1c7.2-3,14.8-7.1,22.6-12.3c7.8-5.2,16.3-11.5,25-18.9l6.6-5.5v76.6l-2,1.1
		C325.8,425.6,292.2,434.6,257.3,434.6z"/>
	<path class="st1" d="M355.5,82.7v64.5c-31.5-26.3-64-39.5-97.7-39.5c-37.1,0-68.3,13.3-93.7,40c-25.6,26.5-38.3,58.9-38.3,97.2
		c0,37.9,12.8,69.8,38.3,95.8s56.9,39,93.9,39c19.2,0,35.4-3.1,48.8-9.3c7.5-3.1,15.2-7.3,23.3-12.6c8-5.3,16.5-11.7,25.4-19.2v65.7
		c-31.2,17.6-63.9,26.4-98.1,26.4c-51.6,0-95.6-18-132-54C89,340.4,70.9,296.6,70.9,245.3c0-46,15.2-86.9,45.6-122.9
		c37.4-44.1,85.8-66.1,145.1-66.1C294,56.3,325.3,65.1,355.5,82.7z"/>
</g>
<g>
	<path class="st0" d="M340.4,414.1V73.3h54c22.5,0,40.8,1.8,54.2,5.3c13.9,3.6,25.9,9.8,35.5,18.3c9.7,8.9,17.5,20,23.2,33.1
		c5.8,13.2,8.7,26.8,8.7,40.4c0,22.8-8.1,42.7-24.1,59.1c15.6,6.6,28.3,16.9,37.8,30.9c10.7,15.5,16.2,33.8,16.2,54.4
		c0,27-9.7,50.2-28.8,68.8c-11.4,11.4-24.5,19.5-38.9,24h-0.1c-15.4,4.2-34.8,6.4-57.8,6.4h-79.9L340.4,414.1L340.4,414.1z
		 M425.7,358.9c21.6,0,37.6-4.2,47.4-12.4c10.3-8.9,15.4-19.9,15.4-33.6c0-13.3-4.9-24.2-14.9-33.2c-9.7-8.9-27.7-13.4-53.6-13.4
		h-21.4V359h27.1V358.9z M410.4,216.2c17.5,0,30.4-3.8,38.3-11.3c7.8-7.4,11.8-18.8,11.8-33.6c0-14.4-4.1-25.4-12.1-32.7
		c-8.1-7.4-20.3-11.1-36.1-11.1h-13.7v88.8L410.4,216.2L410.4,216.2z"/>
	<linearGradient id="SVGID_1_" gradientUnits="userSpaceOnUse" x1="443.15" y1="410.4" x2="443.15" y2="77.3">
		<stop  offset="0" style="stop-color:#E80C85"/>
		<stop  offset="1" style="stop-color:#1FDFFF"/>
	</linearGradient>
	<path class="st2" d="M344.4,410.1V77.3h50c22.3,0,40,1.7,53.2,5.2c13.4,3.4,24.6,9.3,33.8,17.5c9.3,8.5,16.7,19,22.2,31.7
		c5.6,12.8,8.4,25.7,8.4,38.8c0,23.9-9.1,44-27.4,60.6c17.7,6,31.6,16.6,41.8,31.7c10.3,14.9,15.5,32.3,15.5,52.2
		c0,26-9.2,48-27.6,66c-11.1,11.1-23.5,18.8-37.3,23.1c-15.1,4.2-34,6.3-56.7,6.3h-75.9L344.4,410.1L344.4,410.1z M394.7,220.2h15.7
		c18.7,0,32.4-4.1,41.1-12.4c8.7-8.3,13-20.4,13-36.5c0-15.7-4.5-27.6-13.4-35.7s-21.8-12.2-38.8-12.2h-17.7L394.7,220.2
		L394.7,220.2z M394.7,362.9h31c22.7,0,39.4-4.5,50-13.4c11.2-9.6,16.8-21.8,16.8-36.6c0-14.4-5.4-26.4-16.2-36.2
		c-10.5-9.6-29.2-14.4-56.3-14.4h-25.4v100.6H394.7z"/>
</g>
<circle class="st0" cx="251" cy="243.5" r="143.6"/>
<g>
	<path class="st1" d="M174.4,222.6c-17.4,0-31.6-14.2-31.6-31.6s14.2-31.6,31.6-31.6S206,173.5,206,191S191.8,222.6,174.4,222.6z
		 M174.4,164.2c-14.8,0-26.8,12-26.8,26.8s12,26.8,26.8,26.8s26.8-12,26.8-26.8S189.2,164.2,174.4,164.2z"/>
</g>
<g>
	<path class="st1" d="M174.4,329.6c-17.4,0-31.6-14.2-31.6-31.6s14.2-31.6,31.6-31.6S206,280.6,206,298S191.8,329.6,174.4,329.6z
		 M174.4,271.2c-14.8,0-26.8,12-26.8,26.8s12,26.8,26.8,26.8s26.8-12,26.8-26.8S189.2,271.2,174.4,271.2z"/>
</g>
<g>
	<path class="st1" d="M326.3,332.8c-17.4,0-31.6-14.2-31.6-31.6s14.2-31.6,31.6-31.6s31.6,14.2,31.6,31.6
		C357.9,318.6,343.7,332.8,326.3,332.8z M326.3,274.4c-14.8,0-26.8,12-26.8,26.8s12,26.8,26.8,26.8s26.8-12,26.8-26.8
		C353.1,286.4,341,274.4,326.3,274.4z"/>
</g>
<g>
	<path class="st1" d="M251,180.8c-17.4,0-31.6-14.2-31.6-31.6s14.2-31.6,31.6-31.6s31.6,14.2,31.6,31.6S268.5,180.8,251,180.8z
		 M251,122.4c-14.8,0-26.8,12-26.8,26.8s12,26.8,26.8,26.8c14.8,0,26.8-12,26.8-26.8S265.8,122.4,251,122.4z"/>
</g>
<ellipse transform="matrix(0.3162 -0.9487 0.9487 0.3162 -168.6011 466.4811)" class="st1" cx="239.3" cy="350.2" rx="17.9" ry="17.9"/>
<circle class="st1" cx="251" cy="283.3" r="17.9"/>
<circle class="st1" cx="326.3" cy="191" r="17.9"/>
<g>
	<path class="st0" d="M80.4,454.4v15.7c-7.7-6.4-15.6-9.6-23.8-9.6c-9.1,0-16.7,3.3-22.9,9.8s-9.4,14.4-9.4,23.7
		c0,9.2,3.1,17,9.4,23.4c6.2,6.4,13.9,9.5,22.9,9.5c4.7,0,8.7-0.8,11.9-2.3c1.8-0.8,3.7-1.8,5.7-3.1s4-2.9,6.2-4.7v16
		c-7.6,4.3-15.6,6.4-24,6.4c-12.6,0-23.3-4.4-32.2-13.2c-8.9-8.9-13.3-19.5-13.3-32.1c0-11.2,3.7-21.2,11.1-30
		c9.1-10.8,20.9-16.1,35.4-16.1C65.4,447.9,73,450.1,80.4,454.4z"/>
	<path class="st0" d="M94.7,441.4h12.8v45.4c4.6-4.1,9.6-6.2,15.1-6.2c6.3,0,11.3,2,15.1,6.1c3.2,3.5,4.8,9.2,4.8,16.9v34.1h-12.8
		v-32.9c0-4.5-0.8-7.7-2.4-9.7s-4.1-3-7.6-3c-4.5,0-7.6,1.4-9.5,4.2c-1.8,2.8-2.7,7.6-2.7,14.5v26.9H94.7V441.4z"/>
	<path class="st0" d="M171.6,441.4v96.4h-12.8v-96.4H171.6z"/>
	<path class="st0" d="M228.9,482.2h12.9v55.6h-12.9V532c-5.3,4.9-11,7.4-17.1,7.4c-7.7,0-14-2.8-19.1-8.3c-5-5.7-7.5-12.7-7.5-21.2
		c0-8.3,2.5-15.3,7.5-20.8c5-5.6,11.2-8.3,18.7-8.3c6.5,0,12.3,2.7,17.4,8v-6.6L228.9,482.2L228.9,482.2z M198.4,509.8
		c0,5.3,1.4,9.7,4.3,13c2.9,3.4,6.6,5.1,11.1,5.1c4.8,0,8.6-1.6,11.5-4.9c2.9-3.4,4.4-7.7,4.4-12.9c0-5.2-1.5-9.5-4.4-12.9
		c-2.9-3.3-6.7-5-11.4-5c-4.4,0-8.1,1.7-11.1,5C199.9,500.6,198.4,504.8,198.4,509.8z"/>
	<path class="st0" d="M258,482.2h12.8v5.1c2.5-2.6,4.6-4.3,6.3-5.2c1.9-1,4.2-1.4,7-1.4c6.3,0,11.2,2.7,14.9,8.2
		c4-5.5,9.5-8.2,16.4-8.2c12.5,0,18.8,7.6,18.8,22.8v34.3h-12.9v-30.9c0-5.3-0.6-9.1-1.9-11.3c-1.3-2.2-3.5-3.4-6.6-3.4
		c-3.5,0-6.1,1.3-7.7,4s-2.4,6.9-2.4,12.8v28.7h-12.9V507c0-9.9-2.9-14.8-8.6-14.8c-3.6,0-6.2,1.4-7.9,4.1c-1.7,2.7-2.5,7-2.5,12.8
		v28.7H258V482.2z"/>
	<path class="st0" d="M352.8,537.8v-88.1H366c5.9,0,10.6,0.5,14.1,1.4s6.5,2.5,9,4.6c2.5,2.2,4.4,5,5.9,8.4s2.2,6.8,2.2,10.3
		c0,6.3-2.4,11.7-7.2,16c4.7,1.6,8.4,4.4,11.1,8.4s4.1,8.6,4.1,13.8c0,6.9-2.4,12.7-7.3,17.5c-2.9,2.9-6.2,5-9.9,6.1
		c-4,1.1-9,1.7-15,1.7L352.8,537.8L352.8,537.8z M366.1,487.5h4.2c4.9,0,8.6-1.1,10.9-3.3c2.3-2.2,3.5-5.4,3.5-9.7
		c0-4.1-1.2-7.3-3.5-9.4c-2.4-2.1-5.8-3.2-10.3-3.2h-4.7v25.6H366.1z M366.1,525.3h8.2c6,0,10.4-1.2,13.2-3.5c3-2.5,4.5-5.8,4.5-9.7
		c0-3.8-1.4-7-4.3-9.6c-2.8-2.5-7.7-3.8-14.9-3.8h-6.7L366.1,525.3L366.1,525.3z"/>
	<path class="st0" d="M460.4,482.2h12.9v55.6h-12.9V532c-5.3,4.9-11,7.4-17.1,7.4c-7.7,0-14-2.8-19.1-8.3c-5-5.7-7.5-12.7-7.5-21.2
		c0-8.3,2.5-15.3,7.5-20.8c5-5.6,11.2-8.3,18.7-8.3c6.5,0,12.3,2.7,17.4,8v-6.6L460.4,482.2L460.4,482.2z M430,509.8
		c0,5.3,1.4,9.7,4.3,13c2.9,3.4,6.6,5.1,11.1,5.1c4.8,0,8.6-1.6,11.5-4.9c2.9-3.4,4.4-7.7,4.4-12.9c0-5.2-1.5-9.5-4.4-12.9
		c-2.9-3.3-6.7-5-11.4-5c-4.4,0-8.1,1.7-11.1,5C431.4,500.6,430,504.8,430,509.8z"/>
	<path class="st0" d="M521.8,491.7l-10.6,5.6c-1.7-3.4-3.7-5.1-6.2-5.1c-1.2,0-2.2,0.4-3,1.2c-0.8,0.8-1.3,1.8-1.3,3
		c0,2.1,2.5,4.2,7.4,6.3c6.8,2.9,11.4,5.6,13.8,8.1c2.4,2.5,3.5,5.8,3.5,10c0,5.4-2,9.9-5.9,13.5c-3.8,3.4-8.5,5.1-13.9,5.1
		c-9.3,0-15.9-4.5-19.8-13.6l11-5.1c1.5,2.7,2.7,4.4,3.5,5.1c1.6,1.4,3.4,2.2,5.6,2.2c4.3,0,6.5-2,6.5-5.9c0-2.3-1.7-4.4-5-6.4
		c-1.3-0.6-2.6-1.3-3.9-1.9c-1.3-0.6-2.6-1.2-3.9-1.9c-3.7-1.8-6.4-3.7-7.9-5.5c-1.9-2.3-2.9-5.3-2.9-9c0-4.8,1.7-8.8,5-12
		c3.4-3.2,7.5-4.7,12.3-4.7C513.1,480.6,518.4,484.3,521.8,491.7z"/>
	<path class="st0" d="M587.6,513h-39.8c0.3,4.6,1.8,8.2,4.5,10.9c2.6,2.7,6,4,10.1,4c3.2,0,5.8-0.8,7.9-2.3c2.1-1.5,4.4-4.3,7-8.4
		l10.8,6c-1.7,2.9-3.4,5.3-5.3,7.3c-1.9,2-3.9,3.7-6,5s-4.4,2.3-6.9,2.9c-2.5,0.6-5.2,0.9-8,0.9c-8.3,0-14.9-2.7-20-8
		c-5-5.4-7.5-12.5-7.5-21.3s2.4-15.9,7.3-21.3c4.9-5.4,11.4-8,19.5-8c8.2,0,14.6,2.6,19.4,7.8c4.7,5.2,7.1,12.3,7.1,21.5L587.6,513z
		 M574.4,502.5c-1.8-6.8-6.1-10.3-13-10.3c-1.6,0-3,0.2-4.4,0.7s-2.6,1.2-3.7,2.1c-1.1,0.9-2.1,2-2.9,3.2c-0.8,1.3-1.4,2.7-1.8,4.3
		L574.4,502.5L574.4,502.5z"/>
</g>
</svg>
