<?xml version="1.0" encoding="utf-8"?>
<!-- Generator: Adobe Illustrator 22.1.0, SVG Export Plug-In . SVG Version: 6.00 Build 0)  -->
<svg version="1.1" xmlns="http://www.w3.org/2000/svg" xmlns:xlink="http://www.w3.org/1999/xlink" x="0px" y="0px"
	 viewBox="0 0 914 433" style="enable-background:new 0 0 914 433;" xml:space="preserve">
<style type="text/css">
	.st0{fill:none;stroke:url(#SVGID_1_);stroke-width:4;stroke-miterlimit:10;}
	.st1{fill:none;stroke:url(#SVGID_2_);stroke-width:4;stroke-miterlimit:10;}
	.st2{fill:none;stroke:url(#SVGID_3_);stroke-width:4;stroke-miterlimit:10;}
	.st3{fill:none;stroke:url(#SVGID_4_);stroke-width:4;stroke-miterlimit:10;}
	.st4{fill:none;stroke:url(#SVGID_5_);stroke-width:4;stroke-miterlimit:10;}
	.st5{fill:#282828;stroke:url(#SVGID_6_);stroke-width:2;stroke-miterlimit:10;}
	.st6{fill:#FFFFFF;}
	.st7{fill:#282828;stroke:url(#SVGID_7_);stroke-width:2;stroke-miterlimit:10;}
	.st8{fill:#282828;stroke:url(#SVGID_8_);stroke-width:2;stroke-miterlimit:10;}
	.st9{fill:#282828;stroke:url(#SVGID_9_);stroke-width:2;stroke-miterlimit:10;}
	.st10{fill:#F95584;}
	.st11{fill:#D8356B;}
	.st12{fill:#282828;}
	.st13{fill:url(#SVGID_10_);}
	.st14{fill:#7966FF;}
	.st15{fill:#3D34B2;}
	.st16{fill:url(#SVGID_11_);}
	.st17{fill:#22E08A;}
	.st18{fill:#159B81;}
	.st19{fill:url(#SVGID_12_);}
	.st20{fill:#4BE0EF;}
	.st21{fill:url(#SVGID_13_);}
</style>
<g id="Layer_2">
	<linearGradient id="SVGID_1_" gradientUnits="userSpaceOnUse" x1="114.2347" y1="212.8079" x2="349.4142" y2="212.8079">
		<stop  offset="0" style="stop-color:#E80C85"/>
		<stop  offset="1" style="stop-color:#66338A"/>
	</linearGradient>
	<polyline class="st0" points="116,291 198,137 348,287 	"/>
	<linearGradient id="SVGID_2_" gradientUnits="userSpaceOnUse" x1="455.419" y1="206.25" x2="572.0811" y2="206.25">
		<stop  offset="0" style="stop-color:#E80C85"/>
		<stop  offset="1" style="stop-color:#66338A"/>
	</linearGradient>
	<line class="st1" x1="457" y1="133" x2="570.5" y2="279.5"/>
	<linearGradient id="SVGID_3_" gradientUnits="userSpaceOnUse" x1="708.276" y1="206.25" x2="800.224" y2="206.25">
		<stop  offset="0" style="stop-color:#E80C85"/>
		<stop  offset="1" style="stop-color:#66338A"/>
	</linearGradient>
	<line class="st2" x1="710" y1="131" x2="798.5" y2="281.5"/>
	<linearGradient id="SVGID_4_" gradientUnits="userSpaceOnUse" x1="201.3653" y1="88.553" x2="461.0369" y2="88.553">
		<stop  offset="0" style="stop-color:#E80C85"/>
		<stop  offset="1" style="stop-color:#66338A"/>
	</linearGradient>
	<polyline class="st3" points="202,132 459,46 458,122 	"/>
	<linearGradient id="SVGID_5_" gradientUnits="userSpaceOnUse" x1="462.8748" y1="87.5" x2="701.1252" y2="87.5">
		<stop  offset="0" style="stop-color:#E80C85"/>
		<stop  offset="1" style="stop-color:#66338A"/>
	</linearGradient>
	<line class="st4" x1="463.5" y1="48.5" x2="700.5" y2="126.5"/>
	<g>
		<g>
			<linearGradient id="SVGID_6_" gradientUnits="userSpaceOnUse" x1="101.0753" y1="134.5" x2="307.0753" y2="134.5">
				<stop  offset="0" style="stop-color:#E80C85"/>
				<stop  offset="1" style="stop-color:#66338A"/>
			</linearGradient>
			<path class="st5" d="M294.1,158h-180c-6.6,0-12-5.4-12-12v-23c0-6.6,5.4-12,12-12h180c6.6,0,12,5.4,12,12v23
				C306.1,152.6,300.7,158,294.1,158z"/>
			<g>
				<path class="st6" d="M121.6,132.4h-3.9v-2.6c0-0.8,0-1.2-0.1-1.4c-0.1-0.2-0.3-0.3-0.6-0.3c-0.3,0-0.5,0.1-0.6,0.3
					c-0.1,0.2-0.1,0.7-0.1,1.5v7c0,0.7,0,1.2,0.1,1.4c0.1,0.2,0.3,0.3,0.6,0.3c0.3,0,0.5-0.1,0.6-0.3c0.1-0.2,0.1-0.7,0.1-1.6v-1.9
					h3.9v0.6c0,1.6-0.1,2.7-0.3,3.3c-0.2,0.7-0.7,1.2-1.5,1.7c-0.8,0.5-1.7,0.7-2.8,0.7c-1.1,0-2.1-0.2-2.8-0.6s-1.2-1-1.5-1.7
					s-0.4-1.8-0.4-3.3v-4.4c0-1.1,0-1.9,0.1-2.4c0.1-0.5,0.3-1.1,0.7-1.6c0.4-0.5,0.9-0.9,1.5-1.2c0.7-0.3,1.4-0.4,2.2-0.4
					c1.2,0,2.1,0.2,2.8,0.7c0.7,0.4,1.2,1,1.5,1.7c0.2,0.7,0.4,1.7,0.4,3.1V132.4z"/>
				<path class="st6" d="M126.6,125.9v3.4c0.3-0.3,0.7-0.5,1-0.7c0.4-0.1,0.8-0.2,1.2-0.2c0.7,0,1.2,0.2,1.7,0.5
					c0.5,0.3,0.7,0.7,0.8,1.2c0.1,0.4,0.2,1.2,0.2,2.4v8.5h-3.7v-8.7c0-0.7,0-1.2-0.1-1.4c-0.1-0.2-0.2-0.3-0.5-0.3
					c-0.2,0-0.4,0.1-0.5,0.3c-0.1,0.2-0.1,0.6-0.1,1.3v8.8h-3.7v-15H126.6z"/>
				<path class="st6" d="M136.7,125.9v15h-3.9v-15H136.7z"/>
				<path class="st6" d="M141.4,133.4h-3.5v-0.8c0-1,0.1-1.7,0.3-2.2c0.2-0.5,0.7-1,1.3-1.4c0.7-0.4,1.5-0.6,2.6-0.6
					c1.3,0,2.2,0.2,2.9,0.7c0.6,0.4,1,1,1.2,1.7c0.1,0.7,0.2,2,0.2,4v6.2h-3.6v-1.1c-0.2,0.4-0.5,0.8-0.9,1
					c-0.4,0.2-0.8,0.3-1.3,0.3c-0.7,0-1.3-0.2-1.8-0.6c-0.5-0.4-0.8-1.2-0.8-2.4v-1c0-0.9,0.1-1.5,0.4-1.9c0.3-0.3,1-0.7,2.2-1.2
					c1.2-0.5,1.9-0.8,2-1c0.1-0.2,0.1-0.5,0.1-1c0-0.6,0-1.1-0.1-1.3c-0.1-0.2-0.3-0.3-0.5-0.3c-0.3,0-0.4,0.1-0.5,0.2
					c-0.1,0.2-0.1,0.6-0.1,1.3V133.4z M142.6,135.1c-0.6,0.4-0.9,0.8-1,1.1c-0.1,0.3-0.1,0.7-0.1,1.3c0,0.6,0,1,0.1,1.2
					c0.1,0.2,0.2,0.3,0.5,0.3c0.2,0,0.4-0.1,0.5-0.2c0.1-0.1,0.1-0.5,0.1-1.1V135.1z"/>
				<path class="st6" d="M151.3,128.6l-0.1,1.2c0.3-0.5,0.6-0.8,1-1c0.4-0.2,0.9-0.3,1.4-0.3c1,0,1.8,0.5,2.4,1.4
					c0.3-0.5,0.7-0.8,1.1-1c0.4-0.2,0.8-0.3,1.3-0.3c0.6,0,1.2,0.2,1.6,0.5c0.4,0.3,0.7,0.7,0.8,1.1c0.1,0.4,0.2,1.2,0.2,2.2v8.7
					h-3.6v-8c0-1.1,0-1.7-0.1-2c-0.1-0.3-0.2-0.4-0.5-0.4c-0.3,0-0.4,0.1-0.5,0.4c-0.1,0.2-0.1,0.9-0.1,2v8h-3.6v-7.8
					c0-1.2,0-1.9-0.1-2.2c-0.1-0.2-0.2-0.4-0.5-0.4c-0.2,0-0.3,0.1-0.4,0.2c-0.1,0.1-0.2,0.3-0.2,0.5c0,0.2,0,0.6,0,1.2v8.5h-3.6
					v-12.3H151.3z"/>
				<path class="st6" d="M170.1,128.6l-1.1,8.9c-0.2,1.4-0.3,2.4-0.4,2.9c-0.1,0.5-0.3,0.9-0.6,1.3c-0.3,0.3-0.6,0.6-1.1,0.7
					s-1.2,0.2-2.3,0.2h-2.3v-2c0.6,0,1,0,1.1-0.1c0.2-0.1,0.3-0.2,0.3-0.4c0-0.1-0.1-0.5-0.2-1.3l-2.1-10.3h3.4l1.2,8.3l0.6-8.3
					H170.1z"/>
				<path class="st6" d="M179.3,125.9v15h-3.7V140c-0.4,0.4-0.7,0.7-1.1,0.8c-0.4,0.2-0.8,0.3-1.2,0.3c-0.6,0-1.1-0.2-1.5-0.5
					c-0.4-0.3-0.7-0.7-0.8-1.1c-0.1-0.4-0.2-1.1-0.2-2v-5.8c0-0.9,0.1-1.6,0.2-2c0.1-0.4,0.4-0.7,0.8-1c0.4-0.3,0.9-0.4,1.5-0.4
					c0.5,0,0.9,0.1,1.3,0.3c0.4,0.2,0.7,0.4,1.1,0.8v-3.5H179.3z M175.6,131.7c0-0.5,0-0.8-0.1-0.9c-0.1-0.2-0.2-0.2-0.5-0.2
					c-0.2,0-0.4,0.1-0.4,0.2c-0.1,0.1-0.1,0.4-0.1,0.9v6c0,0.5,0,0.8,0.1,1c0.1,0.2,0.2,0.2,0.4,0.2c0.2,0,0.4-0.1,0.5-0.3
					c0.1-0.2,0.1-0.6,0.1-1.3V131.7z"/>
				<path class="st6" d="M184.5,125.9v2h-3.9v-2H184.5z M184.5,128.6v12.3h-3.9v-12.3H184.5z"/>
				<path class="st6" d="M189.2,133.4h-3.5v-0.8c0-1,0.1-1.7,0.3-2.2c0.2-0.5,0.7-1,1.3-1.4c0.7-0.4,1.5-0.6,2.6-0.6
					c1.3,0,2.2,0.2,2.9,0.7c0.6,0.4,1,1,1.2,1.7c0.1,0.7,0.2,2,0.2,4v6.2h-3.6v-1.1c-0.2,0.4-0.5,0.8-0.9,1
					c-0.4,0.2-0.8,0.3-1.3,0.3c-0.7,0-1.3-0.2-1.8-0.6c-0.5-0.4-0.8-1.2-0.8-2.4v-1c0-0.9,0.1-1.5,0.4-1.9c0.3-0.3,1-0.7,2.2-1.2
					c1.2-0.5,1.9-0.8,2-1c0.1-0.2,0.1-0.5,0.1-1c0-0.6,0-1.1-0.1-1.3c-0.1-0.2-0.3-0.3-0.5-0.3c-0.3,0-0.4,0.1-0.5,0.2
					c-0.1,0.2-0.1,0.6-0.1,1.3V133.4z M190.4,135.1c-0.6,0.4-0.9,0.8-1,1.1c-0.1,0.3-0.1,0.7-0.1,1.3c0,0.6,0,1,0.1,1.2
					c0.1,0.2,0.2,0.3,0.5,0.3c0.2,0,0.4-0.1,0.5-0.2c0.1-0.1,0.1-0.5,0.1-1.1V135.1z"/>
				<path class="st6" d="M206.8,125.9v3h-2.3v12h-3.9v-12h-2.3v-3H206.8z"/>
				<path class="st6" d="M211.3,128.6l-0.1,1.6c0.5-1.2,1.3-1.8,2.4-1.8v4.3c-0.7,0-1.2,0.1-1.5,0.3c-0.3,0.2-0.5,0.4-0.6,0.8
					c-0.1,0.3-0.1,1.1-0.1,2.3v4.9h-3.7v-12.3H211.3z"/>
				<path class="st6" d="M217.7,133.4h-3.5v-0.8c0-1,0.1-1.7,0.3-2.2c0.2-0.5,0.7-1,1.3-1.4c0.7-0.4,1.5-0.6,2.6-0.6
					c1.3,0,2.2,0.2,2.9,0.7c0.6,0.4,1,1,1.2,1.7c0.1,0.7,0.2,2,0.2,4v6.2H219v-1.1c-0.2,0.4-0.5,0.8-0.9,1c-0.4,0.2-0.8,0.3-1.3,0.3
					c-0.7,0-1.3-0.2-1.8-0.6c-0.5-0.4-0.8-1.2-0.8-2.4v-1c0-0.9,0.1-1.5,0.4-1.9c0.3-0.3,1-0.7,2.2-1.2c1.2-0.5,1.9-0.8,2-1
					c0.1-0.2,0.1-0.5,0.1-1c0-0.6,0-1.1-0.1-1.3c-0.1-0.2-0.3-0.3-0.5-0.3c-0.3,0-0.4,0.1-0.5,0.2c-0.1,0.2-0.1,0.6-0.1,1.3V133.4z
					 M218.9,135.1c-0.6,0.4-0.9,0.8-1,1.1c-0.1,0.3-0.1,0.7-0.1,1.3c0,0.6,0,1,0.1,1.2c0.1,0.2,0.2,0.3,0.5,0.3
					c0.2,0,0.4-0.1,0.5-0.2c0.1-0.1,0.1-0.5,0.1-1.1V135.1z"/>
				<path class="st6" d="M232.2,133.2h-3.5v-1.4c0-0.5,0-0.8-0.1-1c-0.1-0.2-0.2-0.3-0.4-0.3c-0.2,0-0.4,0.1-0.4,0.2
					c-0.1,0.2-0.1,0.5-0.1,1v5.8c0,0.4,0.1,0.8,0.2,1c0.1,0.2,0.3,0.3,0.5,0.3c0.3,0,0.4-0.1,0.5-0.3c0.1-0.2,0.1-0.7,0.1-1.3v-1.5
					h3.3c0,1,0,1.7-0.1,2.2c-0.1,0.5-0.3,1-0.6,1.5c-0.3,0.5-0.8,0.9-1.4,1.2c-0.6,0.3-1.3,0.4-2.1,0.4c-1.1,0-1.9-0.2-2.5-0.5
					c-0.6-0.4-1.1-0.9-1.3-1.5c-0.3-0.7-0.4-1.6-0.4-2.8v-3.5c0-1,0.1-1.8,0.3-2.4c0.2-0.5,0.7-1,1.3-1.4c0.7-0.4,1.5-0.6,2.5-0.6
					c1,0,1.8,0.2,2.5,0.6c0.7,0.4,1.2,0.9,1.4,1.6C232.1,131.2,232.2,132.1,232.2,133.2z"/>
				<path class="st6" d="M237.1,125.9v3.4c0.3-0.3,0.7-0.5,1-0.7c0.4-0.1,0.8-0.2,1.2-0.2c0.7,0,1.2,0.2,1.7,0.5
					c0.5,0.3,0.7,0.7,0.8,1.2c0.1,0.4,0.2,1.2,0.2,2.4v8.5h-3.7v-8.7c0-0.7,0-1.2-0.1-1.4c-0.1-0.2-0.2-0.3-0.5-0.3
					c-0.2,0-0.4,0.1-0.5,0.3c-0.1,0.2-0.1,0.6-0.1,1.3v8.8h-3.7v-15H237.1z"/>
				<path class="st6" d="M251.7,132.9v3c0,1.1-0.1,1.9-0.2,2.4c-0.1,0.5-0.3,1-0.7,1.4c-0.4,0.4-0.8,0.8-1.4,1
					c-0.6,0.2-1.2,0.3-2,0.3c-0.8,0-1.5-0.1-2.1-0.3c-0.6-0.2-1-0.5-1.3-0.8c-0.3-0.4-0.5-0.8-0.7-1.3c-0.1-0.5-0.2-1.3-0.2-2.4
					v-3.2c0-1.1,0.1-2,0.4-2.7c0.2-0.6,0.7-1.2,1.3-1.5c0.6-0.4,1.5-0.6,2.5-0.6c0.8,0,1.6,0.1,2.2,0.4c0.6,0.3,1.1,0.6,1.4,1
					c0.3,0.4,0.6,0.8,0.7,1.2C251.7,131.4,251.7,132,251.7,132.9z M248,132c0-0.6,0-1-0.1-1.2c-0.1-0.2-0.2-0.2-0.4-0.2
					s-0.4,0.1-0.4,0.2c-0.1,0.2-0.1,0.6-0.1,1.2v5.6c0,0.6,0,1,0.1,1.1s0.2,0.3,0.4,0.3c0.2,0,0.4-0.1,0.4-0.2
					c0.1-0.2,0.1-0.5,0.1-1V132z"/>
				<path class="st6" d="M256.7,128.6l-0.1,1.2c0.3-0.5,0.6-0.8,1-1c0.4-0.2,0.9-0.3,1.4-0.3c1,0,1.8,0.5,2.4,1.4
					c0.3-0.5,0.7-0.8,1.1-1c0.4-0.2,0.8-0.3,1.3-0.3c0.6,0,1.2,0.2,1.6,0.5c0.4,0.3,0.7,0.7,0.8,1.1c0.1,0.4,0.2,1.2,0.2,2.2v8.7
					h-3.6v-8c0-1.1,0-1.7-0.1-2c-0.1-0.3-0.2-0.4-0.5-0.4c-0.3,0-0.4,0.1-0.5,0.4c-0.1,0.2-0.1,0.9-0.1,2v8h-3.6v-7.8
					c0-1.2,0-1.9-0.1-2.2c-0.1-0.2-0.2-0.4-0.5-0.4c-0.2,0-0.3,0.1-0.4,0.2c-0.1,0.1-0.2,0.3-0.2,0.5c0,0.2,0,0.6,0,1.2v8.5H253
					v-12.3H256.7z"/>
				<path class="st6" d="M271,133.4h-3.5v-0.8c0-1,0.1-1.7,0.3-2.2c0.2-0.5,0.7-1,1.3-1.4c0.7-0.4,1.5-0.6,2.6-0.6
					c1.3,0,2.2,0.2,2.9,0.7c0.6,0.4,1,1,1.2,1.7c0.1,0.7,0.2,2,0.2,4v6.2h-3.6v-1.1c-0.2,0.4-0.5,0.8-0.9,1
					c-0.4,0.2-0.8,0.3-1.3,0.3c-0.7,0-1.3-0.2-1.8-0.6c-0.5-0.4-0.8-1.2-0.8-2.4v-1c0-0.9,0.1-1.5,0.4-1.9c0.3-0.3,1-0.7,2.2-1.2
					c1.2-0.5,1.9-0.8,2-1c0.1-0.2,0.1-0.5,0.1-1c0-0.6,0-1.1-0.1-1.3c-0.1-0.2-0.3-0.3-0.5-0.3c-0.3,0-0.4,0.1-0.5,0.2
					c-0.1,0.2-0.1,0.6-0.1,1.3V133.4z M272.2,135.1c-0.6,0.4-0.9,0.8-1,1.1c-0.1,0.3-0.1,0.7-0.1,1.3c0,0.6,0,1,0.1,1.2
					c0.1,0.2,0.2,0.3,0.5,0.3c0.2,0,0.4-0.1,0.5-0.2c0.1-0.1,0.1-0.5,0.1-1.1V135.1z"/>
				<path class="st6" d="M281.1,127v1.9h1v1.9h-1v6.6c0,0.8,0,1.3,0.1,1.4c0.1,0.1,0.4,0.1,1,0.1v2h-1.5c-0.9,0-1.5,0-1.8-0.1
					c-0.4-0.1-0.7-0.2-1-0.5c-0.3-0.3-0.5-0.5-0.5-0.9c-0.1-0.3-0.1-1.1-0.1-2.3v-6.3h-0.8v-1.9h0.8V127H281.1z"/>
				<path class="st6" d="M286.8,125.9v2H283v-2H286.8z M286.8,128.6v12.3H283v-12.3H286.8z"/>
				<path class="st6" d="M295.8,132.5h-3.3v-0.7c0-0.6,0-0.9-0.1-1.1c-0.1-0.2-0.2-0.2-0.5-0.2c-0.2,0-0.4,0.1-0.5,0.2
					c-0.1,0.1-0.2,0.3-0.2,0.6c0,0.4,0,0.7,0.1,0.8c0.1,0.2,0.2,0.4,0.5,0.6c0.3,0.2,0.8,0.5,1.6,0.9c1.1,0.5,1.8,1,2.1,1.5
					c0.3,0.5,0.5,1.2,0.5,2.1c0,1-0.1,1.8-0.4,2.3s-0.7,0.9-1.3,1.2c-0.6,0.3-1.3,0.4-2.2,0.4c-1,0-1.8-0.1-2.4-0.4
					c-0.7-0.3-1.1-0.7-1.4-1.2c-0.3-0.5-0.4-1.3-0.4-2.3v-0.6h3.3v0.8c0,0.7,0,1.1,0.1,1.3c0.1,0.2,0.2,0.3,0.5,0.3
					c0.3,0,0.5-0.1,0.6-0.2c0.1-0.1,0.2-0.4,0.2-0.8c0-0.6-0.1-1-0.2-1.1c-0.1-0.1-0.9-0.6-2.2-1.3c-1.1-0.6-1.8-1.2-2-1.7
					c-0.2-0.5-0.4-1.1-0.4-1.8c0-1,0.1-1.7,0.4-2.2c0.3-0.5,0.7-0.8,1.3-1.1c0.6-0.3,1.3-0.4,2.2-0.4c0.8,0,1.5,0.1,2.1,0.3
					c0.6,0.2,1,0.5,1.3,0.8c0.3,0.3,0.5,0.7,0.6,0.9c0.1,0.3,0.1,0.7,0.1,1.4V132.5z"/>
			</g>
		</g>
		<g>
			<linearGradient id="SVGID_7_" gradientUnits="userSpaceOnUse" x1="354.0143" y1="130.5" x2="560.0143" y2="130.5">
				<stop  offset="0" style="stop-color:#E80C85"/>
				<stop  offset="1" style="stop-color:#66338A"/>
			</linearGradient>
			<path class="st7" d="M547,154H367c-6.6,0-12-5.4-12-12v-23c0-6.6,5.4-12,12-12h180c6.6,0,12,5.4,12,12v23
				C559,148.6,553.6,154,547,154z"/>
			<g>
				<path class="st6" d="M380.5,128.4h-3.9v-2.6c0-0.8,0-1.2-0.1-1.4c-0.1-0.2-0.3-0.3-0.6-0.3c-0.3,0-0.5,0.1-0.6,0.3
					c-0.1,0.2-0.1,0.7-0.1,1.5v7c0,0.7,0,1.2,0.1,1.4c0.1,0.2,0.3,0.3,0.6,0.3c0.3,0,0.5-0.1,0.6-0.3c0.1-0.2,0.1-0.7,0.1-1.6v-1.9
					h3.9v0.6c0,1.6-0.1,2.7-0.3,3.3c-0.2,0.7-0.7,1.2-1.5,1.7c-0.8,0.5-1.7,0.7-2.8,0.7c-1.1,0-2.1-0.2-2.8-0.6s-1.2-1-1.5-1.7
					c-0.2-0.7-0.4-1.8-0.4-3.3v-4.4c0-1.1,0-1.9,0.1-2.4c0.1-0.5,0.3-1.1,0.7-1.6c0.4-0.5,0.9-0.9,1.5-1.2c0.7-0.3,1.4-0.4,2.2-0.4
					c1.2,0,2.1,0.2,2.8,0.7c0.7,0.4,1.2,1,1.5,1.7c0.2,0.7,0.4,1.7,0.4,3.1V128.4z"/>
				<path class="st6" d="M385.6,121.9v3.4c0.3-0.3,0.7-0.5,1-0.7c0.4-0.1,0.8-0.2,1.2-0.2c0.7,0,1.2,0.2,1.7,0.5s0.7,0.7,0.8,1.2
					c0.1,0.4,0.2,1.2,0.2,2.4v8.5h-3.7v-8.7c0-0.7,0-1.2-0.1-1.4c-0.1-0.2-0.2-0.3-0.5-0.3c-0.2,0-0.4,0.1-0.5,0.3
					c-0.1,0.2-0.1,0.6-0.1,1.3v8.8h-3.7v-15H385.6z"/>
				<path class="st6" d="M395.6,121.9v15h-3.9v-15H395.6z"/>
				<path class="st6" d="M400.3,129.4h-3.5v-0.8c0-1,0.1-1.7,0.3-2.2c0.2-0.5,0.7-1,1.3-1.4c0.7-0.4,1.5-0.6,2.6-0.6
					c1.3,0,2.2,0.2,2.9,0.7c0.6,0.4,1,1,1.2,1.7c0.1,0.7,0.2,2,0.2,4v6.2h-3.6v-1.1c-0.2,0.4-0.5,0.8-0.9,1
					c-0.4,0.2-0.8,0.3-1.3,0.3c-0.7,0-1.3-0.2-1.8-0.6c-0.5-0.4-0.8-1.2-0.8-2.4v-1c0-0.9,0.1-1.5,0.4-1.9s1-0.7,2.2-1.2
					c1.2-0.5,1.9-0.8,2-1c0.1-0.2,0.1-0.5,0.1-1c0-0.6,0-1.1-0.1-1.3c-0.1-0.2-0.3-0.3-0.5-0.3c-0.3,0-0.4,0.1-0.5,0.2
					c-0.1,0.2-0.1,0.6-0.1,1.3V129.4z M401.5,131.1c-0.6,0.4-0.9,0.8-1,1.1s-0.1,0.7-0.1,1.3c0,0.6,0,1,0.1,1.2
					c0.1,0.2,0.2,0.3,0.5,0.3c0.2,0,0.4-0.1,0.5-0.2c0.1-0.1,0.1-0.5,0.1-1.1V131.1z"/>
				<path class="st6" d="M410.2,124.6l-0.1,1.2c0.3-0.5,0.6-0.8,1-1c0.4-0.2,0.9-0.3,1.4-0.3c1,0,1.8,0.5,2.4,1.4
					c0.3-0.5,0.7-0.8,1.1-1c0.4-0.2,0.8-0.3,1.3-0.3c0.6,0,1.2,0.2,1.6,0.5c0.4,0.3,0.7,0.7,0.8,1.1c0.1,0.4,0.2,1.2,0.2,2.2v8.7
					h-3.6v-8c0-1.1,0-1.7-0.1-2c-0.1-0.3-0.2-0.4-0.5-0.4c-0.3,0-0.4,0.1-0.5,0.4c-0.1,0.2-0.1,0.9-0.1,2v8h-3.6v-7.8
					c0-1.2,0-1.9-0.1-2.2c-0.1-0.2-0.2-0.4-0.5-0.4c-0.2,0-0.3,0.1-0.4,0.2c-0.1,0.1-0.2,0.3-0.2,0.5c0,0.2,0,0.6,0,1.2v8.5h-3.6
					v-12.3H410.2z"/>
				<path class="st6" d="M429,124.6l-1.1,8.9c-0.2,1.4-0.3,2.4-0.4,2.9c-0.1,0.5-0.3,0.9-0.6,1.3c-0.3,0.3-0.6,0.6-1.1,0.7
					s-1.2,0.2-2.3,0.2h-2.3v-2c0.6,0,1,0,1.1-0.1c0.2-0.1,0.3-0.2,0.3-0.4c0-0.1-0.1-0.5-0.2-1.3l-2.1-10.3h3.4l1.2,8.3l0.6-8.3H429
					z"/>
				<path class="st6" d="M438.2,121.9v15h-3.7V136c-0.4,0.4-0.7,0.7-1.1,0.8c-0.4,0.2-0.8,0.3-1.2,0.3c-0.6,0-1.1-0.2-1.5-0.5
					c-0.4-0.3-0.7-0.7-0.8-1.1c-0.1-0.4-0.2-1.1-0.2-2v-5.8c0-0.9,0.1-1.6,0.2-2c0.1-0.4,0.4-0.7,0.8-1c0.4-0.3,0.9-0.4,1.5-0.4
					c0.5,0,0.9,0.1,1.3,0.3c0.4,0.2,0.7,0.4,1.1,0.8v-3.5H438.2z M434.5,127.7c0-0.5,0-0.8-0.1-0.9c-0.1-0.2-0.2-0.2-0.5-0.2
					c-0.2,0-0.4,0.1-0.4,0.2c-0.1,0.1-0.1,0.4-0.1,0.9v6c0,0.5,0,0.8,0.1,1c0.1,0.2,0.2,0.2,0.4,0.2c0.2,0,0.4-0.1,0.5-0.3
					c0.1-0.2,0.1-0.6,0.1-1.3V127.7z"/>
				<path class="st6" d="M443.4,121.9v2h-3.9v-2H443.4z M443.4,124.6v12.3h-3.9v-12.3H443.4z"/>
				<path class="st6" d="M448.1,129.4h-3.5v-0.8c0-1,0.1-1.7,0.3-2.2c0.2-0.5,0.7-1,1.3-1.4c0.7-0.4,1.5-0.6,2.6-0.6
					c1.3,0,2.2,0.2,2.9,0.7c0.6,0.4,1,1,1.2,1.7c0.1,0.7,0.2,2,0.2,4v6.2h-3.6v-1.1c-0.2,0.4-0.5,0.8-0.9,1
					c-0.4,0.2-0.8,0.3-1.3,0.3c-0.7,0-1.3-0.2-1.8-0.6c-0.5-0.4-0.8-1.2-0.8-2.4v-1c0-0.9,0.1-1.5,0.4-1.9c0.3-0.3,1-0.7,2.2-1.2
					c1.2-0.5,1.9-0.8,2-1c0.1-0.2,0.1-0.5,0.1-1c0-0.6,0-1.1-0.1-1.3c-0.1-0.2-0.3-0.3-0.5-0.3c-0.3,0-0.4,0.1-0.5,0.2
					c-0.1,0.2-0.1,0.6-0.1,1.3V129.4z M449.3,131.1c-0.6,0.4-0.9,0.8-1,1.1c-0.1,0.3-0.1,0.7-0.1,1.3c0,0.6,0,1,0.1,1.2
					c0.1,0.2,0.2,0.3,0.5,0.3c0.2,0,0.4-0.1,0.5-0.2c0.1-0.1,0.1-0.5,0.1-1.1V131.1z"/>
				<path class="st6" d="M469.9,121.9v15h-3.4l0-10.1l-1.4,10.1h-2.4l-1.4-9.9l0,9.9h-3.4v-15h5.1c0.2,0.9,0.3,2,0.5,3.2l0.6,3.8
					l0.9-7H469.9z"/>
				<path class="st6" d="M479.9,124.6v12.3h-3.8l0.1-1c-0.3,0.4-0.6,0.7-1,0.9c-0.4,0.2-0.8,0.3-1.3,0.3c-0.6,0-1-0.1-1.4-0.3
					c-0.4-0.2-0.6-0.5-0.8-0.8c-0.2-0.3-0.3-0.7-0.3-1c0-0.4-0.1-1.1-0.1-2.1v-8.3h3.7v8.4c0,1,0,1.5,0.1,1.7
					c0.1,0.2,0.2,0.3,0.5,0.3c0.3,0,0.4-0.1,0.5-0.3s0.1-0.8,0.1-1.8v-8.3H479.9z"/>
				<path class="st6" d="M485,124.6l-0.1,1.6c0.5-1.2,1.3-1.8,2.4-1.8v4.3c-0.7,0-1.2,0.1-1.5,0.3c-0.3,0.2-0.5,0.4-0.6,0.8
					c-0.1,0.3-0.1,1.1-0.1,2.3v4.9h-3.7v-12.3H485z"/>
				<path class="st6" d="M491.9,121.9v2h-3.9v-2H491.9z M491.9,124.6v12.3h-3.9v-12.3H491.9z"/>
				<path class="st6" d="M501.8,121.9v15H498V136c-0.4,0.4-0.7,0.7-1.1,0.8s-0.8,0.3-1.2,0.3c-0.6,0-1.1-0.2-1.5-0.5
					c-0.4-0.3-0.7-0.7-0.8-1.1c-0.1-0.4-0.2-1.1-0.2-2v-5.8c0-0.9,0.1-1.6,0.2-2c0.1-0.4,0.4-0.7,0.8-1c0.4-0.3,0.9-0.4,1.5-0.4
					c0.5,0,0.9,0.1,1.3,0.3c0.4,0.2,0.7,0.4,1.1,0.8v-3.5H501.8z M498,127.7c0-0.5,0-0.8-0.1-0.9c-0.1-0.2-0.2-0.2-0.5-0.2
					c-0.2,0-0.4,0.1-0.5,0.2c-0.1,0.1-0.1,0.4-0.1,0.9v6c0,0.5,0,0.8,0.1,1c0.1,0.2,0.2,0.2,0.4,0.2c0.2,0,0.4-0.1,0.5-0.3
					c0.1-0.2,0.1-0.6,0.1-1.3V127.7z"/>
				<path class="st6" d="M506.5,129.4H503v-0.8c0-1,0.1-1.7,0.3-2.2c0.2-0.5,0.7-1,1.3-1.4c0.7-0.4,1.5-0.6,2.6-0.6
					c1.3,0,2.2,0.2,2.9,0.7c0.6,0.4,1,1,1.2,1.7c0.1,0.7,0.2,2,0.2,4v6.2h-3.6v-1.1c-0.2,0.4-0.5,0.8-0.9,1
					c-0.4,0.2-0.8,0.3-1.3,0.3c-0.7,0-1.3-0.2-1.8-0.6c-0.5-0.4-0.8-1.2-0.8-2.4v-1c0-0.9,0.1-1.5,0.4-1.9c0.3-0.3,1-0.7,2.2-1.2
					c1.2-0.5,1.9-0.8,2-1c0.1-0.2,0.1-0.5,0.1-1c0-0.6,0-1.1-0.1-1.3c-0.1-0.2-0.3-0.3-0.5-0.3c-0.3,0-0.4,0.1-0.5,0.2
					c-0.1,0.2-0.1,0.6-0.1,1.3V129.4z M507.7,131.1c-0.6,0.4-0.9,0.8-1,1.1s-0.1,0.7-0.1,1.3c0,0.6,0,1,0.1,1.2
					c0.1,0.2,0.2,0.3,0.5,0.3c0.2,0,0.4-0.1,0.5-0.2c0.1-0.1,0.1-0.5,0.1-1.1V131.1z"/>
				<path class="st6" d="M516.4,124.6l-0.1,1.6c0.5-1.2,1.3-1.8,2.4-1.8v4.3c-0.7,0-1.2,0.1-1.5,0.3c-0.3,0.2-0.5,0.4-0.6,0.8
					c-0.1,0.3-0.1,1.1-0.1,2.3v4.9h-3.7v-12.3H516.4z"/>
				<path class="st6" d="M528.1,124.6v12.3h-3.8l0.1-1c-0.3,0.4-0.6,0.7-1,0.9c-0.4,0.2-0.8,0.3-1.3,0.3c-0.6,0-1-0.1-1.4-0.3
					c-0.4-0.2-0.6-0.5-0.8-0.8c-0.2-0.3-0.3-0.7-0.3-1c0-0.4-0.1-1.1-0.1-2.1v-8.3h3.7v8.4c0,1,0,1.5,0.1,1.7
					c0.1,0.2,0.2,0.3,0.5,0.3c0.3,0,0.4-0.1,0.5-0.3s0.1-0.8,0.1-1.8v-8.3H528.1z"/>
				<path class="st6" d="M533.1,124.6l-0.1,1.2c0.3-0.5,0.6-0.8,1-1s0.9-0.3,1.4-0.3c1,0,1.8,0.5,2.4,1.4c0.3-0.5,0.7-0.8,1.1-1
					s0.8-0.3,1.3-0.3c0.6,0,1.2,0.2,1.6,0.5c0.4,0.3,0.7,0.7,0.8,1.1c0.1,0.4,0.2,1.2,0.2,2.2v8.7h-3.6v-8c0-1.1,0-1.7-0.1-2
					c-0.1-0.3-0.2-0.4-0.5-0.4c-0.3,0-0.4,0.1-0.5,0.4c-0.1,0.2-0.1,0.9-0.1,2v8h-3.6v-7.8c0-1.2,0-1.9-0.1-2.2s-0.2-0.4-0.5-0.4
					c-0.2,0-0.3,0.1-0.4,0.2c-0.1,0.1-0.2,0.3-0.2,0.5c0,0.2,0,0.6,0,1.2v8.5h-3.6v-12.3H533.1z"/>
			</g>
		</g>
		<g>
			<linearGradient id="SVGID_8_" gradientUnits="userSpaceOnUse" x1="606.9186" y1="130.5002" x2="812.9879" y2="130.5002">
				<stop  offset="0" style="stop-color:#E80C85"/>
				<stop  offset="1" style="stop-color:#66338A"/>
			</linearGradient>
			<path class="st8" d="M800,153.7l-180,0.5c-6.6,0-12-5.4-12-12l-0.1-23c0-6.6,5.4-12,12-12l180-0.5c6.6,0,12,5.4,12,12l0.1,23
				C812,148.3,806.6,153.7,800,153.7z"/>
			<g>
				<path class="st6" d="M627.7,128.7l-3.9,0l0-2.6c0-0.8,0-1.2-0.1-1.4c-0.1-0.2-0.3-0.3-0.6-0.3c-0.3,0-0.5,0.1-0.6,0.3
					c-0.1,0.2-0.1,0.7-0.1,1.5l0,7c0,0.7,0,1.2,0.1,1.4c0.1,0.2,0.3,0.3,0.6,0.3c0.3,0,0.5-0.1,0.6-0.3c0.1-0.2,0.1-0.7,0.1-1.6
					l0-1.9l3.9,0l0,0.6c0,1.6-0.1,2.7-0.3,3.3c-0.2,0.7-0.7,1.2-1.5,1.7c-0.8,0.5-1.7,0.7-2.8,0.7c-1.1,0-2.1-0.2-2.8-0.6
					c-0.7-0.4-1.2-1-1.5-1.7c-0.2-0.7-0.4-1.8-0.4-3.3l0-4.4c0-1.1,0-1.9,0.1-2.4c0.1-0.5,0.3-1.1,0.7-1.6c0.4-0.5,0.9-0.9,1.5-1.2
					c0.7-0.3,1.4-0.4,2.2-0.4c1.2,0,2.1,0.2,2.8,0.7s1.2,1,1.5,1.7c0.2,0.7,0.4,1.7,0.4,3.1L627.7,128.7z"/>
				<path class="st6" d="M632.7,122.1l0,3.4c0.3-0.3,0.7-0.5,1-0.7c0.4-0.1,0.8-0.2,1.2-0.2c0.7,0,1.2,0.2,1.7,0.5
					c0.5,0.3,0.7,0.7,0.8,1.2c0.1,0.4,0.2,1.2,0.2,2.4l0,8.5l-3.7,0l0-8.7c0-0.7,0-1.2-0.1-1.4c-0.1-0.2-0.2-0.3-0.5-0.3
					c-0.2,0-0.4,0.1-0.5,0.3c-0.1,0.2-0.1,0.6-0.1,1.3l0,8.8l-3.7,0l0-15L632.7,122.1z"/>
				<path class="st6" d="M642.8,122.1l0,15l-3.9,0l0-15L642.8,122.1z"/>
				<path class="st6" d="M647.5,129.6l-3.5,0l0-0.8c0-1,0.1-1.7,0.3-2.2c0.2-0.5,0.7-1,1.3-1.4c0.7-0.4,1.5-0.6,2.6-0.6
					c1.3,0,2.2,0.2,2.9,0.7c0.6,0.4,1,1,1.2,1.6c0.1,0.7,0.2,2,0.2,4l0,6.2l-3.6,0l0-1.1c-0.2,0.4-0.5,0.8-0.9,1
					c-0.4,0.2-0.8,0.3-1.3,0.3c-0.7,0-1.3-0.2-1.8-0.5c-0.5-0.4-0.8-1.2-0.8-2.4l0-1c0-0.9,0.1-1.5,0.4-1.9s1-0.7,2.2-1.2
					c1.2-0.5,1.9-0.8,2-1c0.1-0.2,0.1-0.5,0.1-1c0-0.6-0.1-1.1-0.1-1.3c-0.1-0.2-0.3-0.3-0.5-0.3c-0.3,0-0.4,0.1-0.5,0.2
					c-0.1,0.2-0.1,0.6-0.1,1.3L647.5,129.6z M648.7,131.2c-0.6,0.4-0.9,0.8-1,1.1s-0.1,0.7-0.1,1.3c0,0.6,0,1,0.1,1.2
					c0.1,0.2,0.2,0.3,0.5,0.3c0.2,0,0.4-0.1,0.5-0.2c0.1-0.1,0.1-0.5,0.1-1.1L648.7,131.2z"/>
				<path class="st6" d="M657.4,124.8l-0.1,1.2c0.3-0.5,0.6-0.8,1-1c0.4-0.2,0.9-0.4,1.4-0.4c1,0,1.8,0.5,2.4,1.4
					c0.3-0.5,0.7-0.8,1.1-1c0.4-0.2,0.8-0.4,1.3-0.4c0.6,0,1.2,0.2,1.6,0.5c0.4,0.3,0.7,0.7,0.8,1.1c0.1,0.4,0.2,1.2,0.2,2.2l0,8.7
					l-3.6,0l0-8c0-1.1,0-1.7-0.1-2c-0.1-0.3-0.2-0.4-0.5-0.4c-0.3,0-0.4,0.1-0.5,0.4c-0.1,0.2-0.1,0.9-0.1,2l0,8l-3.6,0l0-7.8
					c0-1.2,0-1.9-0.1-2.2c-0.1-0.2-0.2-0.4-0.5-0.4c-0.2,0-0.3,0.1-0.4,0.2c-0.1,0.1-0.2,0.3-0.2,0.5c0,0.2,0,0.6,0,1.2l0,8.5
					l-3.6,0l0-12.3L657.4,124.8z"/>
				<path class="st6" d="M676.2,124.7l-1,8.9c-0.2,1.4-0.3,2.4-0.4,2.9c-0.1,0.5-0.3,0.9-0.6,1.3c-0.3,0.3-0.6,0.6-1.1,0.7
					c-0.5,0.2-1.2,0.2-2.3,0.2l-2.3,0l0-2c0.6,0,1,0,1.1-0.1c0.2-0.1,0.3-0.2,0.2-0.4c0-0.1-0.1-0.5-0.2-1.3l-2.1-10.3l3.4,0
					l1.3,8.3l0.6-8.3L676.2,124.7z"/>
				<path class="st6" d="M685.4,122l0,15l-3.7,0l0-0.9c-0.4,0.4-0.7,0.7-1.1,0.8c-0.4,0.2-0.8,0.3-1.2,0.3c-0.6,0-1.1-0.2-1.5-0.5
					c-0.4-0.3-0.7-0.7-0.8-1.1c-0.1-0.4-0.2-1.1-0.2-2l0-5.8c0-0.9,0.1-1.6,0.2-2c0.1-0.4,0.4-0.7,0.8-1c0.4-0.3,0.9-0.5,1.5-0.5
					c0.5,0,0.9,0.1,1.3,0.2c0.4,0.2,0.7,0.4,1.1,0.8l0-3.5L685.4,122z M681.6,127.8c0-0.5,0-0.8-0.1-0.9c-0.1-0.2-0.2-0.2-0.5-0.2
					c-0.2,0-0.4,0.1-0.4,0.2c-0.1,0.1-0.1,0.5-0.1,0.9l0,6c0,0.5,0,0.8,0.1,1c0.1,0.2,0.2,0.2,0.4,0.2c0.2,0,0.4-0.1,0.5-0.3
					c0.1-0.2,0.1-0.6,0.1-1.3L681.6,127.8z"/>
				<path class="st6" d="M690.6,121.9l0,2l-3.9,0l0-2L690.6,121.9z M690.6,124.7l0,12.3l-3.9,0l0-12.3L690.6,124.7z"/>
				<path class="st6" d="M695.3,129.4l-3.5,0l0-0.8c0-1,0.1-1.7,0.3-2.2c0.2-0.5,0.7-1,1.3-1.4c0.7-0.4,1.5-0.6,2.6-0.6
					c1.3,0,2.2,0.2,2.9,0.7c0.6,0.4,1,1,1.2,1.6c0.1,0.7,0.2,2,0.2,4l0,6.2l-3.6,0l0-1.1c-0.2,0.4-0.5,0.8-0.9,1
					c-0.4,0.2-0.8,0.3-1.3,0.3c-0.7,0-1.3-0.2-1.8-0.5c-0.5-0.4-0.8-1.2-0.8-2.4l0-1c0-0.9,0.1-1.5,0.4-1.9c0.3-0.3,1-0.7,2.2-1.2
					c1.2-0.5,1.9-0.8,2-1c0.1-0.2,0.1-0.5,0.1-1c0-0.6-0.1-1.1-0.1-1.3c-0.1-0.2-0.3-0.3-0.5-0.3c-0.3,0-0.4,0.1-0.5,0.2
					c-0.1,0.2-0.1,0.6-0.1,1.3L695.3,129.4z M696.5,131.1c-0.6,0.4-0.9,0.8-1,1.1c-0.1,0.3-0.1,0.7-0.1,1.3c0,0.6,0,1,0.1,1.2
					c0.1,0.2,0.2,0.3,0.5,0.3c0.2,0,0.4-0.1,0.5-0.2c0.1-0.1,0.1-0.5,0.1-1.1L696.5,131.1z"/>
				<path class="st6" d="M705,121.9l3.9,0c1.1,0,1.9,0.1,2.5,0.2c0.6,0.2,1,0.4,1.3,0.7c0.3,0.3,0.5,0.7,0.6,1.1
					c0.1,0.4,0.2,1.1,0.2,2.1l0,1.3c0,1-0.1,1.7-0.3,2.1c-0.2,0.4-0.6,0.8-1.1,1c-0.5,0.2-1.2,0.4-2.1,0.4l-1,0l0,6l-3.9,0
					L705,121.9z M708.9,124.5l0,3.8c0.1,0,0.2,0,0.3,0c0.4,0,0.6-0.1,0.7-0.3c0.1-0.2,0.2-0.5,0.2-1.1l0-1.2c0-0.5-0.1-0.8-0.2-1
					C709.7,124.5,709.4,124.5,708.9,124.5z"/>
				<path class="st6" d="M718.2,124.6l-0.1,1.1c0.3-0.5,0.6-0.8,1-1c0.4-0.2,0.8-0.3,1.4-0.3c0.6,0,1.2,0.1,1.6,0.4
					c0.4,0.3,0.7,0.7,0.8,1.1c0.1,0.5,0.2,1.2,0.2,2.3l0,8.6l-3.7,0l0-8.5c0-0.8,0-1.4-0.1-1.5c-0.1-0.2-0.2-0.3-0.5-0.3
					c-0.3,0-0.4,0.1-0.5,0.3c-0.1,0.2-0.1,0.8-0.1,1.7l0,8.3l-3.7,0l0-12.3L718.2,124.6z"/>
				<path class="st6" d="M732.8,130.9l-4.9,0l0,2.7c0,0.6,0,0.9,0.1,1.1c0.1,0.2,0.2,0.2,0.5,0.2c0.3,0,0.5-0.1,0.6-0.3
					c0.1-0.2,0.1-0.6,0.1-1.2l0-1.6l3.6,0l0,0.9c0,0.8,0,1.3-0.1,1.8c-0.1,0.4-0.3,0.8-0.7,1.3c-0.4,0.5-0.8,0.8-1.3,1
					c-0.5,0.2-1.2,0.4-2,0.4c-0.8,0-1.5-0.1-2.1-0.3c-0.6-0.2-1.1-0.5-1.4-0.9c-0.3-0.4-0.6-0.8-0.7-1.3c-0.1-0.5-0.2-1.2-0.2-2.1
					l0-3.6c0-1.1,0.1-1.9,0.4-2.5c0.3-0.6,0.8-1.1,1.4-1.4c0.7-0.3,1.4-0.5,2.3-0.5c1.1,0,1.9,0.2,2.6,0.6c0.7,0.4,1.2,0.9,1.4,1.6
					c0.3,0.7,0.4,1.6,0.4,2.8L732.8,130.9z M729.1,128.9l0-0.9c0-0.6,0-1-0.1-1.2c-0.1-0.2-0.2-0.3-0.4-0.3c-0.3,0-0.4,0.1-0.5,0.2
					c-0.1,0.2-0.1,0.6-0.1,1.3l0,0.9L729.1,128.9z"/>
				<path class="st6" d="M742.6,124.5l0,12.3l-3.8,0l0.1-1c-0.3,0.4-0.6,0.7-1,0.9c-0.4,0.2-0.8,0.3-1.3,0.3c-0.6,0-1-0.1-1.4-0.3
					c-0.4-0.2-0.6-0.5-0.8-0.8c-0.2-0.3-0.3-0.7-0.3-1c0-0.4-0.1-1.1-0.1-2.1l0-8.3l3.7,0l0,8.4c0,1,0,1.5,0.1,1.7
					c0.1,0.2,0.2,0.3,0.5,0.3c0.3,0,0.4-0.1,0.5-0.3c0.1-0.2,0.1-0.8,0.1-1.8l0-8.3L742.6,124.5z"/>
				<path class="st6" d="M747.7,124.5l-0.1,1.2c0.3-0.5,0.6-0.8,1-1c0.4-0.2,0.9-0.4,1.4-0.4c1,0,1.8,0.5,2.4,1.4
					c0.3-0.5,0.7-0.8,1.1-1c0.4-0.2,0.8-0.4,1.3-0.4c0.6,0,1.2,0.2,1.6,0.5c0.4,0.3,0.7,0.7,0.8,1.1c0.1,0.4,0.2,1.2,0.2,2.2l0,8.7
					l-3.6,0l0-8c0-1.1,0-1.7-0.1-2c-0.1-0.3-0.2-0.4-0.5-0.4c-0.3,0-0.4,0.1-0.5,0.4c-0.1,0.2-0.1,0.9-0.1,2l0,8l-3.6,0l0-7.8
					c0-1.2,0-1.9-0.1-2.2c-0.1-0.2-0.2-0.4-0.5-0.4c-0.2,0-0.3,0.1-0.4,0.2c-0.1,0.1-0.2,0.3-0.2,0.5c0,0.2,0,0.6,0,1.2l0,8.5
					l-3.6,0l0-12.3L747.7,124.5z"/>
				<path class="st6" d="M767.1,128.7l0,3c0,1.1,0,1.9-0.2,2.4c-0.1,0.5-0.3,1-0.7,1.4c-0.4,0.4-0.8,0.8-1.4,1
					c-0.6,0.2-1.2,0.3-2,0.3c-0.8,0-1.5-0.1-2.1-0.3c-0.6-0.2-1-0.5-1.3-0.8c-0.3-0.4-0.5-0.8-0.7-1.3c-0.1-0.5-0.2-1.3-0.2-2.4
					l0-3.2c0-1.1,0.1-2,0.4-2.7c0.2-0.6,0.7-1.2,1.3-1.6c0.6-0.4,1.5-0.6,2.5-0.6c0.8,0,1.6,0.1,2.2,0.4c0.6,0.2,1.1,0.6,1.4,1
					c0.3,0.4,0.6,0.8,0.7,1.2C767,127.2,767.1,127.9,767.1,128.7z M763.4,127.8c0-0.6,0-1-0.1-1.2c-0.1-0.2-0.2-0.2-0.4-0.2
					s-0.4,0.1-0.4,0.2c-0.1,0.2-0.1,0.6-0.1,1.2l0,5.6c0,0.6,0,1,0.1,1.1c0.1,0.2,0.2,0.3,0.4,0.3c0.2,0,0.4-0.1,0.4-0.2
					c0.1-0.2,0.1-0.5,0.1-1L763.4,127.8z"/>
				<path class="st6" d="M772.1,124.4l-0.1,1.1c0.3-0.5,0.6-0.8,1-1c0.4-0.2,0.8-0.3,1.4-0.3c0.6,0,1.2,0.1,1.6,0.4
					c0.4,0.3,0.7,0.7,0.8,1.1c0.1,0.5,0.2,1.2,0.2,2.3l0,8.6l-3.7,0l0-8.5c0-0.8,0-1.4-0.1-1.5c-0.1-0.2-0.2-0.3-0.5-0.3
					c-0.3,0-0.4,0.1-0.5,0.3c-0.1,0.2-0.1,0.8-0.1,1.7l0,8.3l-3.7,0l0-12.3L772.1,124.4z"/>
				<path class="st6" d="M782.1,121.7l0,2l-3.9,0l0-2L782.1,121.7z M782.1,124.4l0,12.3l-3.9,0l0-12.3L782.1,124.4z"/>
				<path class="st6" d="M786.8,129.1l-3.5,0l0-0.8c0-1,0.1-1.7,0.3-2.2c0.2-0.5,0.7-1,1.3-1.4c0.7-0.4,1.5-0.6,2.6-0.6
					c1.3,0,2.2,0.2,2.9,0.7c0.6,0.4,1,1,1.2,1.6c0.1,0.7,0.2,2,0.2,4l0,6.2l-3.6,0l0-1.1c-0.2,0.4-0.5,0.8-0.9,1
					c-0.4,0.2-0.8,0.3-1.3,0.3c-0.7,0-1.3-0.2-1.8-0.5c-0.5-0.4-0.8-1.2-0.8-2.4l0-1c0-0.9,0.1-1.5,0.4-1.9c0.3-0.3,1-0.7,2.2-1.2
					c1.2-0.5,1.9-0.8,2-1c0.1-0.2,0.1-0.5,0.1-1c0-0.6-0.1-1.1-0.1-1.3c-0.1-0.2-0.3-0.3-0.5-0.3c-0.3,0-0.4,0.1-0.5,0.2
					c-0.1,0.2-0.1,0.6-0.1,1.3L786.8,129.1z M788,130.8c-0.6,0.4-0.9,0.8-1,1.1c-0.1,0.3-0.1,0.7-0.1,1.3c0,0.6,0,1,0.1,1.2
					c0.1,0.2,0.2,0.3,0.5,0.3c0.2,0,0.4-0.1,0.5-0.2c0.1-0.1,0.1-0.5,0.1-1.1L788,130.8z"/>
				<path class="st6" d="M801.6,130.7l-4.9,0l0,2.7c0,0.6,0,0.9,0.1,1.1c0.1,0.2,0.2,0.2,0.5,0.2c0.3,0,0.5-0.1,0.6-0.3
					c0.1-0.2,0.1-0.6,0.1-1.2l0-1.6l3.6,0l0,0.9c0,0.8,0,1.3-0.1,1.8s-0.3,0.8-0.7,1.3c-0.4,0.5-0.8,0.8-1.3,1
					c-0.5,0.2-1.2,0.4-2,0.4c-0.8,0-1.5-0.1-2.1-0.3c-0.6-0.2-1.1-0.5-1.4-0.9c-0.3-0.4-0.6-0.8-0.7-1.3c-0.1-0.5-0.2-1.2-0.2-2.1
					l0-3.6c0-1.1,0.1-1.9,0.4-2.5c0.3-0.6,0.8-1.1,1.4-1.4c0.7-0.3,1.4-0.5,2.3-0.5c1.1,0,1.9,0.2,2.6,0.6c0.7,0.4,1.2,0.9,1.4,1.6
					c0.3,0.7,0.4,1.6,0.4,2.8L801.6,130.7z M797.8,128.7l0-0.9c0-0.6,0-1-0.1-1.2c-0.1-0.2-0.2-0.3-0.4-0.3c-0.3,0-0.4,0.1-0.5,0.2
					c-0.1,0.2-0.1,0.6-0.1,1.3l0,0.9L797.8,128.7z"/>
			</g>
		</g>
	</g>
	<g>
		<linearGradient id="SVGID_9_" gradientUnits="userSpaceOnUse" x1="354.0316" y1="38.5" x2="560.0316" y2="38.5">
			<stop  offset="0" style="stop-color:#E80C85"/>
			<stop  offset="1" style="stop-color:#66338A"/>
		</linearGradient>
		<path class="st9" d="M547,62H367c-6.6,0-12-5.4-12-12V27c0-6.6,5.4-12,12-12h180c6.6,0,12,5.4,12,12v23C559,56.6,553.6,62,547,62z
			"/>
		<g>
			<path class="st6" d="M408.7,35.9h-6v-4c0-1.2-0.1-1.9-0.2-2.2c-0.1-0.3-0.4-0.4-0.8-0.4c-0.5,0-0.8,0.2-0.9,0.5s-0.2,1.1-0.2,2.3
				v10.6c0,1.1,0.1,1.8,0.2,2.2s0.4,0.5,0.9,0.5c0.4,0,0.7-0.2,0.9-0.5c0.1-0.3,0.2-1.1,0.2-2.4v-2.9h6v0.9c0,2.4-0.2,4.1-0.5,5
				c-0.3,1-1.1,1.9-2.2,2.6c-1.1,0.7-2.6,1.1-4.2,1.1c-1.7,0-3.2-0.3-4.3-0.9s-1.9-1.5-2.3-2.6c-0.4-1.1-0.6-2.8-0.6-5V34
				c0-1.7,0.1-2.9,0.2-3.7c0.1-0.8,0.5-1.6,1-2.4c0.6-0.8,1.3-1.4,2.3-1.8c1-0.4,2.1-0.7,3.4-0.7c1.8,0,3.2,0.3,4.3,1
				s1.9,1.5,2.3,2.5s0.5,2.6,0.5,4.7V35.9z"/>
			<path class="st6" d="M416.4,25.9V31c0.5-0.5,1-0.8,1.6-1c0.6-0.2,1.2-0.3,1.8-0.3c1,0,1.9,0.3,2.6,0.8c0.7,0.5,1.1,1.1,1.3,1.8
				c0.2,0.7,0.2,1.9,0.2,3.6v13h-5.7V35.6c0-1.1-0.1-1.8-0.2-2.1c-0.1-0.3-0.4-0.5-0.7-0.5c-0.3,0-0.6,0.2-0.7,0.5s-0.2,1-0.2,1.9
				v13.4h-5.7V25.9H416.4z"/>
			<path class="st6" d="M431.8,25.9v22.9h-5.9V25.9H431.8z"/>
			<path class="st6" d="M439,37.3h-5.4V36c0-1.5,0.2-2.6,0.5-3.4c0.3-0.8,1-1.5,2-2.1s2.3-0.9,3.9-0.9c1.9,0,3.4,0.3,4.4,1
				c1,0.7,1.6,1.5,1.8,2.5c0.2,1,0.3,3,0.3,6.2v9.4h-5.6v-1.7c-0.3,0.7-0.8,1.2-1.4,1.5c-0.6,0.3-1.2,0.5-2,0.5
				c-1,0-1.9-0.3-2.8-0.8c-0.8-0.6-1.3-1.8-1.3-3.7v-1.5c0-1.4,0.2-2.4,0.7-2.9s1.5-1.1,3.3-1.8c1.9-0.7,2.9-1.2,3-1.5
				s0.2-0.8,0.2-1.6c0-1-0.1-1.6-0.2-1.9c-0.1-0.3-0.4-0.4-0.7-0.4c-0.4,0-0.6,0.1-0.7,0.4c-0.1,0.3-0.1,0.9-0.1,1.9V37.3z
				 M440.8,39.9c-0.9,0.7-1.4,1.2-1.6,1.7c-0.1,0.5-0.2,1.1-0.2,2c0,1,0.1,1.6,0.2,1.9s0.4,0.4,0.8,0.4c0.4,0,0.6-0.1,0.7-0.3
				c0.1-0.2,0.2-0.8,0.2-1.7V39.9z"/>
			<path class="st6" d="M454.1,30l-0.1,1.8c0.4-0.7,1-1.2,1.6-1.6c0.6-0.4,1.3-0.5,2.1-0.5c1.5,0,2.7,0.7,3.6,2.1
				c0.5-0.7,1-1.2,1.6-1.6c0.6-0.4,1.3-0.5,2-0.5c1,0,1.8,0.2,2.4,0.7s1,1.1,1.2,1.7c0.2,0.7,0.3,1.8,0.3,3.3v13.4h-5.6V36.6
				c0-1.6-0.1-2.6-0.2-3c-0.1-0.4-0.4-0.6-0.8-0.6c-0.4,0-0.7,0.2-0.8,0.6c-0.1,0.4-0.2,1.4-0.2,3v12.2h-5.6V36.9
				c0-1.8,0-2.9-0.1-3.3c-0.1-0.4-0.3-0.6-0.7-0.6c-0.3,0-0.5,0.1-0.7,0.3c-0.2,0.2-0.3,0.4-0.3,0.7c0,0.3,0,0.9,0,1.8v13h-5.6V30
				H454.1z"/>
			<path class="st6" d="M482.8,30l-1.6,13.6c-0.3,2.2-0.5,3.6-0.6,4.4s-0.5,1.4-0.9,1.9c-0.4,0.5-1,0.9-1.7,1.1
				c-0.7,0.2-1.9,0.4-3.5,0.4H471v-3c0.9,0,1.5,0,1.7-0.1c0.3-0.1,0.4-0.3,0.4-0.6c0-0.2-0.1-0.8-0.4-2L469.6,30h5.2l1.9,12.7
				l0.9-12.7H482.8z"/>
			<path class="st6" d="M496.8,25.9v22.9h-5.7v-1.4c-0.5,0.6-1.1,1-1.7,1.3c-0.6,0.3-1.2,0.4-1.9,0.4c-0.9,0-1.7-0.2-2.3-0.7
				c-0.7-0.5-1.1-1-1.3-1.6c-0.2-0.6-0.3-1.6-0.3-3V35c0-1.4,0.1-2.5,0.3-3.1c0.2-0.6,0.6-1.1,1.3-1.6c0.7-0.5,1.4-0.7,2.4-0.7
				c0.7,0,1.4,0.1,1.9,0.4s1.1,0.6,1.6,1.1v-5.3H496.8z M491.1,34.8c0-0.7-0.1-1.2-0.2-1.4c-0.1-0.2-0.4-0.4-0.7-0.4
				c-0.3,0-0.6,0.1-0.7,0.3c-0.1,0.2-0.2,0.7-0.2,1.4V44c0,0.8,0.1,1.3,0.2,1.5c0.1,0.2,0.3,0.4,0.7,0.4c0.4,0,0.6-0.1,0.7-0.4
				c0.1-0.3,0.2-0.9,0.2-2V34.8z"/>
			<path class="st6" d="M504.8,25.9v3h-5.9v-3H504.8z M504.8,30v18.8h-5.9V30H504.8z"/>
			<path class="st6" d="M511.9,37.3h-5.4V36c0-1.5,0.2-2.6,0.5-3.4c0.3-0.8,1-1.5,2-2.1c1-0.6,2.3-0.9,3.9-0.9c1.9,0,3.4,0.3,4.4,1
				c1,0.7,1.6,1.5,1.8,2.5c0.2,1,0.3,3,0.3,6.2v9.4h-5.6v-1.7c-0.3,0.7-0.8,1.2-1.4,1.5c-0.6,0.3-1.2,0.5-2,0.5
				c-1,0-1.9-0.3-2.8-0.8c-0.8-0.6-1.3-1.8-1.3-3.7v-1.5c0-1.4,0.2-2.4,0.7-2.9s1.5-1.1,3.3-1.8c1.9-0.7,2.9-1.2,3-1.5
				s0.2-0.8,0.2-1.6c0-1-0.1-1.6-0.2-1.9c-0.1-0.3-0.4-0.4-0.7-0.4c-0.4,0-0.6,0.1-0.7,0.4c-0.1,0.3-0.1,0.9-0.1,1.9V37.3z
				 M513.8,39.9c-0.9,0.7-1.4,1.2-1.6,1.7s-0.2,1.1-0.2,2c0,1,0.1,1.6,0.2,1.9c0.1,0.3,0.4,0.4,0.8,0.4c0.4,0,0.6-0.1,0.7-0.3
				c0.1-0.2,0.2-0.8,0.2-1.7V39.9z"/>
		</g>
	</g>
</g>
<g id="Layer_1">
	<g>
		<g id="_x34_34BU">
			<g>
				<path class="st10" d="M36.1,385.4h-3.9v-2.6c0-0.8,0-1.2-0.1-1.4c-0.1-0.2-0.3-0.3-0.6-0.3c-0.3,0-0.5,0.1-0.6,0.3
					c-0.1,0.2-0.1,0.7-0.1,1.5v7c0,0.7,0,1.2,0.1,1.4c0.1,0.2,0.3,0.3,0.6,0.3c0.3,0,0.5-0.1,0.6-0.3c0.1-0.2,0.1-0.7,0.1-1.6v-1.9
					h3.9v0.6c0,1.6-0.1,2.7-0.3,3.3c-0.2,0.7-0.7,1.2-1.5,1.7c-0.8,0.5-1.7,0.7-2.8,0.7c-1.1,0-2.1-0.2-2.8-0.6s-1.2-1-1.5-1.7
					s-0.4-1.8-0.4-3.3v-4.4c0-1.1,0-1.9,0.1-2.4s0.3-1.1,0.7-1.6c0.4-0.5,0.9-0.9,1.5-1.2c0.7-0.3,1.4-0.4,2.2-0.4
					c1.2,0,2.1,0.2,2.8,0.7c0.7,0.4,1.2,1,1.5,1.7c0.2,0.7,0.4,1.7,0.4,3.1V385.4z"/>
				<path class="st10" d="M41.1,378.9v3.4c0.3-0.3,0.7-0.5,1-0.7c0.4-0.1,0.8-0.2,1.2-0.2c0.7,0,1.2,0.2,1.7,0.5
					c0.5,0.3,0.7,0.7,0.8,1.2c0.1,0.4,0.2,1.2,0.2,2.4v8.5h-3.7v-8.7c0-0.7,0-1.2-0.1-1.4c-0.1-0.2-0.2-0.3-0.5-0.3
					c-0.2,0-0.4,0.1-0.5,0.3c-0.1,0.2-0.1,0.6-0.1,1.3v8.8h-3.7v-15H41.1z"/>
				<path class="st10" d="M51.2,378.9v15h-3.9v-15H51.2z"/>
				<path class="st10" d="M55.9,386.4h-3.5v-0.8c0-1,0.1-1.7,0.3-2.2c0.2-0.5,0.7-1,1.3-1.4c0.7-0.4,1.5-0.6,2.6-0.6
					c1.3,0,2.2,0.2,2.9,0.7c0.6,0.4,1,1,1.2,1.7c0.1,0.7,0.2,2,0.2,4v6.2h-3.6v-1.1c-0.2,0.4-0.5,0.8-0.9,1
					c-0.4,0.2-0.8,0.3-1.3,0.3c-0.7,0-1.3-0.2-1.8-0.6c-0.5-0.4-0.8-1.2-0.8-2.4v-1c0-0.9,0.1-1.5,0.4-1.9c0.3-0.3,1-0.7,2.2-1.2
					c1.2-0.5,1.9-0.8,2-1c0.1-0.2,0.1-0.5,0.1-1c0-0.6,0-1.1-0.1-1.3c-0.1-0.2-0.3-0.3-0.5-0.3c-0.3,0-0.4,0.1-0.5,0.2
					c-0.1,0.2-0.1,0.6-0.1,1.3V386.4z M57.1,388.1c-0.6,0.4-0.9,0.8-1,1.1c-0.1,0.3-0.1,0.7-0.1,1.3c0,0.6,0,1,0.1,1.2
					c0.1,0.2,0.2,0.3,0.5,0.3c0.2,0,0.4-0.1,0.5-0.2c0.1-0.1,0.1-0.5,0.1-1.1V388.1z"/>
				<path class="st10" d="M65.8,381.6l-0.1,1.2c0.3-0.5,0.6-0.8,1-1c0.4-0.2,0.9-0.3,1.4-0.3c1,0,1.8,0.5,2.4,1.4
					c0.3-0.5,0.7-0.8,1.1-1c0.4-0.2,0.8-0.3,1.3-0.3c0.6,0,1.2,0.2,1.6,0.5c0.4,0.3,0.7,0.7,0.8,1.1c0.1,0.4,0.2,1.2,0.2,2.2v8.7
					h-3.6v-8c0-1.1,0-1.7-0.1-2c-0.1-0.2-0.2-0.4-0.5-0.4c-0.3,0-0.4,0.1-0.5,0.4c-0.1,0.2-0.1,0.9-0.1,2v8h-3.6v-7.8
					c0-1.2,0-1.9-0.1-2.2c-0.1-0.2-0.2-0.4-0.5-0.4c-0.2,0-0.3,0.1-0.4,0.2c-0.1,0.1-0.2,0.3-0.2,0.5c0,0.2,0,0.6,0,1.2v8.5h-3.6
					v-12.3H65.8z"/>
				<path class="st10" d="M84.6,381.6l-1.1,8.9c-0.2,1.4-0.3,2.4-0.4,2.9c-0.1,0.5-0.3,0.9-0.6,1.3c-0.3,0.3-0.6,0.6-1.1,0.7
					s-1.2,0.2-2.3,0.2h-2.3v-2c0.6,0,1,0,1.1-0.1c0.2-0.1,0.3-0.2,0.3-0.4c0-0.1-0.1-0.5-0.2-1.3L76,381.6h3.4l1.2,8.3l0.6-8.3H84.6
					z"/>
				<path class="st10" d="M93.8,378.9v15H90V393c-0.4,0.4-0.7,0.7-1.1,0.8c-0.4,0.2-0.8,0.3-1.2,0.3c-0.6,0-1.1-0.2-1.5-0.5
					c-0.4-0.3-0.7-0.7-0.8-1.1c-0.1-0.4-0.2-1.1-0.2-2v-5.8c0-0.9,0.1-1.6,0.2-2c0.1-0.4,0.4-0.7,0.8-1c0.4-0.3,0.9-0.5,1.5-0.5
					c0.5,0,0.9,0.1,1.3,0.3c0.4,0.2,0.7,0.4,1.1,0.8v-3.5H93.8z M90,384.7c0-0.5,0-0.8-0.1-0.9c-0.1-0.2-0.2-0.2-0.5-0.2
					c-0.2,0-0.4,0.1-0.4,0.2c-0.1,0.1-0.1,0.4-0.1,0.9v6c0,0.5,0,0.8,0.1,1c0.1,0.2,0.2,0.2,0.4,0.2c0.2,0,0.4-0.1,0.5-0.3
					c0.1-0.2,0.1-0.6,0.1-1.3V384.7z"/>
				<path class="st10" d="M99,378.9v2h-3.9v-2H99z M99,381.6v12.3h-3.9v-12.3H99z"/>
				<path class="st10" d="M103.7,386.4h-3.5v-0.8c0-1,0.1-1.7,0.3-2.2c0.2-0.5,0.7-1,1.3-1.4c0.7-0.4,1.5-0.6,2.6-0.6
					c1.3,0,2.2,0.2,2.9,0.7c0.6,0.4,1,1,1.2,1.7c0.1,0.7,0.2,2,0.2,4v6.2H105v-1.1c-0.2,0.4-0.5,0.8-0.9,1c-0.4,0.2-0.8,0.3-1.3,0.3
					c-0.7,0-1.3-0.2-1.8-0.6c-0.5-0.4-0.8-1.2-0.8-2.4v-1c0-0.9,0.1-1.5,0.4-1.9c0.3-0.3,1-0.7,2.2-1.2c1.2-0.5,1.9-0.8,2-1
					c0.1-0.2,0.1-0.5,0.1-1c0-0.6,0-1.1-0.1-1.3c-0.1-0.2-0.3-0.3-0.5-0.3c-0.3,0-0.4,0.1-0.5,0.2c-0.1,0.2-0.1,0.6-0.1,1.3V386.4z
					 M104.9,388.1c-0.6,0.4-0.9,0.8-1,1.1c-0.1,0.3-0.1,0.7-0.1,1.3c0,0.6,0,1,0.1,1.2c0.1,0.2,0.2,0.3,0.5,0.3
					c0.2,0,0.4-0.1,0.5-0.2c0.1-0.1,0.1-0.5,0.1-1.1V388.1z"/>
				<path class="st10" d="M121.2,378.9v3h-2.3v12H115v-12h-2.3v-3H121.2z"/>
				<path class="st10" d="M125.8,381.6l-0.1,1.6c0.5-1.2,1.3-1.8,2.4-1.8v4.3c-0.7,0-1.2,0.1-1.5,0.3c-0.3,0.2-0.5,0.4-0.6,0.8
					c-0.1,0.3-0.1,1.1-0.1,2.3v4.9H122v-12.3H125.8z"/>
				<path class="st10" d="M132.2,386.4h-3.5v-0.8c0-1,0.1-1.7,0.3-2.2c0.2-0.5,0.7-1,1.3-1.4c0.7-0.4,1.5-0.6,2.6-0.6
					c1.3,0,2.2,0.2,2.9,0.7c0.6,0.4,1,1,1.2,1.7c0.1,0.7,0.2,2,0.2,4v6.2h-3.6v-1.1c-0.2,0.4-0.5,0.8-0.9,1
					c-0.4,0.2-0.8,0.3-1.3,0.3c-0.7,0-1.3-0.2-1.8-0.6c-0.5-0.4-0.8-1.2-0.8-2.4v-1c0-0.9,0.1-1.5,0.4-1.9c0.3-0.3,1-0.7,2.2-1.2
					c1.2-0.5,1.9-0.8,2-1c0.1-0.2,0.1-0.5,0.1-1c0-0.6,0-1.1-0.1-1.3c-0.1-0.2-0.3-0.3-0.5-0.3c-0.3,0-0.4,0.1-0.5,0.2
					c-0.1,0.2-0.1,0.6-0.1,1.3V386.4z M133.4,388.1c-0.6,0.4-0.9,0.8-1,1.1c-0.1,0.3-0.1,0.7-0.1,1.3c0,0.6,0,1,0.1,1.2
					c0.1,0.2,0.2,0.3,0.5,0.3c0.2,0,0.4-0.1,0.5-0.2c0.1-0.1,0.1-0.5,0.1-1.1V388.1z"/>
				<path class="st10" d="M146.7,386.2h-3.5v-1.4c0-0.5,0-0.8-0.1-1c-0.1-0.2-0.2-0.3-0.4-0.3c-0.2,0-0.4,0.1-0.4,0.2
					c-0.1,0.2-0.1,0.5-0.1,1v5.8c0,0.4,0.1,0.8,0.2,1c0.1,0.2,0.3,0.3,0.5,0.3c0.3,0,0.4-0.1,0.5-0.3c0.1-0.2,0.1-0.7,0.1-1.3v-1.5
					h3.3c0,1,0,1.7-0.1,2.2c-0.1,0.5-0.3,1-0.6,1.5c-0.3,0.5-0.8,0.9-1.4,1.2c-0.6,0.3-1.3,0.4-2.1,0.4c-1.1,0-1.9-0.2-2.5-0.5
					c-0.6-0.4-1.1-0.9-1.3-1.5c-0.3-0.7-0.4-1.6-0.4-2.8v-3.5c0-1,0.1-1.8,0.3-2.4c0.2-0.5,0.7-1,1.3-1.4s1.5-0.6,2.5-0.6
					c1,0,1.8,0.2,2.5,0.6c0.7,0.4,1.2,0.9,1.4,1.6C146.6,384.2,146.7,385.1,146.7,386.2z"/>
				<path class="st10" d="M151.5,378.9v3.4c0.3-0.3,0.7-0.5,1-0.7c0.4-0.1,0.8-0.2,1.2-0.2c0.7,0,1.2,0.2,1.7,0.5
					c0.5,0.3,0.7,0.7,0.8,1.2c0.1,0.4,0.2,1.2,0.2,2.4v8.5h-3.7v-8.7c0-0.7,0-1.2-0.1-1.4c-0.1-0.2-0.2-0.3-0.5-0.3
					c-0.2,0-0.4,0.1-0.5,0.3c-0.1,0.2-0.1,0.6-0.1,1.3v8.8h-3.7v-15H151.5z"/>
				<path class="st10" d="M166.2,385.9v3c0,1.1-0.1,1.9-0.2,2.4c-0.1,0.5-0.3,1-0.7,1.4c-0.4,0.4-0.8,0.8-1.4,1
					c-0.6,0.2-1.2,0.3-2,0.3c-0.8,0-1.5-0.1-2.1-0.3c-0.6-0.2-1-0.5-1.3-0.8c-0.3-0.4-0.5-0.8-0.7-1.3c-0.1-0.5-0.2-1.3-0.2-2.4
					v-3.2c0-1.1,0.1-2,0.4-2.7c0.2-0.6,0.7-1.2,1.3-1.5c0.6-0.4,1.5-0.6,2.5-0.6c0.8,0,1.6,0.1,2.2,0.4c0.6,0.2,1.1,0.6,1.4,1
					c0.3,0.4,0.6,0.8,0.7,1.2C166.2,384.4,166.2,385,166.2,385.9z M162.5,385c0-0.6,0-1-0.1-1.2c-0.1-0.2-0.2-0.2-0.4-0.2
					s-0.4,0.1-0.4,0.2c-0.1,0.2-0.1,0.6-0.1,1.2v5.6c0,0.6,0,1,0.1,1.1s0.2,0.3,0.4,0.3c0.2,0,0.4-0.1,0.4-0.2
					c0.1-0.2,0.1-0.5,0.1-1V385z"/>
				<path class="st10" d="M171.2,381.6l-0.1,1.2c0.3-0.5,0.6-0.8,1-1c0.4-0.2,0.9-0.3,1.4-0.3c1,0,1.8,0.5,2.4,1.4
					c0.3-0.5,0.7-0.8,1.1-1c0.4-0.2,0.8-0.3,1.3-0.3c0.6,0,1.2,0.2,1.6,0.5c0.4,0.3,0.7,0.7,0.8,1.1c0.1,0.4,0.2,1.2,0.2,2.2v8.7
					h-3.6v-8c0-1.1,0-1.7-0.1-2c-0.1-0.2-0.2-0.4-0.5-0.4c-0.3,0-0.4,0.1-0.5,0.4c-0.1,0.2-0.1,0.9-0.1,2v8h-3.6v-7.8
					c0-1.2,0-1.9-0.1-2.2c-0.1-0.2-0.2-0.4-0.5-0.4c-0.2,0-0.3,0.1-0.4,0.2c-0.1,0.1-0.2,0.3-0.2,0.5c0,0.2,0,0.6,0,1.2v8.5h-3.6
					v-12.3H171.2z"/>
				<path class="st10" d="M185.5,386.4h-3.5v-0.8c0-1,0.1-1.7,0.3-2.2c0.2-0.5,0.7-1,1.3-1.4c0.7-0.4,1.5-0.6,2.6-0.6
					c1.3,0,2.2,0.2,2.9,0.7c0.6,0.4,1,1,1.2,1.7c0.1,0.7,0.2,2,0.2,4v6.2h-3.6v-1.1c-0.2,0.4-0.5,0.8-0.9,1
					c-0.4,0.2-0.8,0.3-1.3,0.3c-0.7,0-1.3-0.2-1.8-0.6c-0.5-0.4-0.8-1.2-0.8-2.4v-1c0-0.9,0.1-1.5,0.4-1.9c0.3-0.3,1-0.7,2.2-1.2
					c1.2-0.5,1.9-0.8,2-1c0.1-0.2,0.1-0.5,0.1-1c0-0.6,0-1.1-0.1-1.3c-0.1-0.2-0.3-0.3-0.5-0.3c-0.3,0-0.4,0.1-0.5,0.2
					c-0.1,0.2-0.1,0.6-0.1,1.3V386.4z M186.6,388.1c-0.6,0.4-0.9,0.8-1,1.1c-0.1,0.3-0.1,0.7-0.1,1.3c0,0.6,0,1,0.1,1.2
					c0.1,0.2,0.2,0.3,0.5,0.3c0.2,0,0.4-0.1,0.5-0.2c0.1-0.1,0.1-0.5,0.1-1.1V388.1z"/>
				<path class="st10" d="M195.6,380v1.9h1v1.9h-1v6.6c0,0.8,0,1.3,0.1,1.4c0.1,0.1,0.4,0.1,1,0.1v2h-1.5c-0.9,0-1.5,0-1.8-0.1
					c-0.4-0.1-0.7-0.2-1-0.5c-0.3-0.3-0.5-0.5-0.5-0.9c-0.1-0.3-0.1-1.1-0.1-2.3v-6.3h-0.8v-1.9h0.8V380H195.6z"/>
				<path class="st10" d="M201.3,378.9v2h-3.9v-2H201.3z M201.3,381.6v12.3h-3.9v-12.3H201.3z"/>
				<path class="st10" d="M210.3,385.5H207v-0.7c0-0.6,0-0.9-0.1-1.1c-0.1-0.2-0.2-0.2-0.5-0.2c-0.2,0-0.4,0.1-0.5,0.2
					c-0.1,0.1-0.2,0.3-0.2,0.6c0,0.4,0,0.7,0.1,0.8c0.1,0.2,0.2,0.4,0.5,0.6c0.3,0.2,0.8,0.5,1.6,0.9c1.1,0.5,1.8,1,2.1,1.5
					c0.3,0.5,0.5,1.2,0.5,2.1c0,1-0.1,1.8-0.4,2.3s-0.7,0.9-1.3,1.2c-0.6,0.3-1.3,0.4-2.2,0.4c-1,0-1.8-0.1-2.4-0.4
					c-0.7-0.3-1.1-0.7-1.4-1.2c-0.3-0.5-0.4-1.3-0.4-2.3v-0.6h3.3v0.8c0,0.7,0,1.1,0.1,1.3c0.1,0.2,0.2,0.3,0.5,0.3
					c0.3,0,0.5-0.1,0.6-0.2c0.1-0.1,0.2-0.4,0.2-0.8c0-0.6-0.1-1-0.2-1.1c-0.1-0.1-0.9-0.6-2.2-1.3c-1.1-0.6-1.8-1.2-2-1.7
					c-0.2-0.5-0.4-1.1-0.4-1.8c0-1,0.1-1.7,0.4-2.2c0.3-0.5,0.7-0.8,1.3-1.1c0.6-0.3,1.3-0.4,2.2-0.4c0.8,0,1.5,0.1,2.1,0.3
					c0.6,0.2,1,0.5,1.3,0.8c0.3,0.3,0.5,0.7,0.6,0.9c0.1,0.3,0.1,0.7,0.1,1.4V385.5z"/>
				<path class="st10" d="M98.1,401.7v9.8h1.1v2.6h-1.1v2.6h-3.7v-2.6h-4.5v-2.6l3.2-9.8H98.1z M94.4,411.5v-6.4l-1.7,6.4H94.4z"/>
				<path class="st10" d="M107,408.2c0.6,0.2,1,0.5,1.3,0.9s0.4,1.5,0.4,3.1c0,1.2-0.1,2.1-0.4,2.8c-0.3,0.7-0.7,1.2-1.4,1.5
					s-1.5,0.5-2.6,0.5c-1.2,0-2.1-0.2-2.8-0.6c-0.7-0.4-1.1-0.9-1.3-1.5c-0.2-0.6-0.3-1.6-0.3-3v-1.2h3.7v2.4c0,0.7,0,1.1,0.1,1.2
					c0.1,0.2,0.2,0.3,0.5,0.3c0.3,0,0.5-0.1,0.6-0.3s0.1-0.8,0.1-1.7v-1c0-0.6-0.1-1-0.2-1.3s-0.3-0.4-0.6-0.5
					c-0.3-0.1-0.7-0.1-1.5-0.1v-2.2c0.9,0,1.4,0,1.7-0.1c0.2-0.1,0.4-0.2,0.5-0.4c0.1-0.2,0.1-0.6,0.1-1.1V405c0-0.5-0.1-0.9-0.2-1
					c-0.1-0.2-0.3-0.3-0.5-0.3c-0.3,0-0.4,0.1-0.5,0.3c-0.1,0.2-0.1,0.6-0.1,1.1v1.2h-3.7v-1.3c0-1.4,0.3-2.4,1-2.9
					c0.7-0.5,1.7-0.8,3.1-0.8c1.8,0,3,0.3,3.6,1c0.6,0.7,1,1.7,1,2.9c0,0.8-0.1,1.4-0.3,1.8C108,407.5,107.6,407.9,107,408.2z"/>
				<path class="st10" d="M117.7,401.7v9.8h1.1v2.6h-1.1v2.6H114v-2.6h-4.5v-2.6l3.2-9.8H117.7z M114,411.5v-6.4l-1.7,6.4H114z"/>
				<path class="st10" d="M126.3,401.4l-4.4,15.6H119l4.5-15.6H126.3z"/>
				<path class="st10" d="M127.2,401.7h3.9c1.2,0,2.2,0.1,2.8,0.3c0.6,0.2,1.1,0.6,1.5,1.2s0.6,1.5,0.6,2.8c0,0.9-0.1,1.5-0.4,1.8
					c-0.3,0.3-0.8,0.6-1.6,0.8c0.9,0.2,1.5,0.5,1.8,1c0.3,0.5,0.5,1.2,0.5,2.2v1.4c0,1-0.1,1.8-0.3,2.3c-0.2,0.5-0.6,0.8-1.1,1
					c-0.5,0.2-1.5,0.3-3.1,0.3h-4.5V401.7z M131.1,404.3v3.3c0.2,0,0.3,0,0.4,0c0.4,0,0.6-0.1,0.7-0.3c0.1-0.2,0.2-0.7,0.2-1.6
					c0-0.5,0-0.8-0.1-1c-0.1-0.2-0.2-0.3-0.3-0.4C131.8,404.3,131.5,404.3,131.1,404.3z M131.1,409.9v4.2c0.6,0,0.9-0.1,1.1-0.3
					c0.2-0.2,0.2-0.5,0.2-1.1v-1.4c0-0.6-0.1-1-0.2-1.2C132,410,131.7,410,131.1,409.9z"/>
				<path class="st10" d="M146.6,401.7v10c0,1.1,0,1.9-0.1,2.4c-0.1,0.5-0.3,0.9-0.7,1.4c-0.4,0.5-0.8,0.9-1.4,1.1
					c-0.6,0.3-1.3,0.4-2.1,0.4c-0.9,0-1.7-0.1-2.4-0.4s-1.2-0.7-1.5-1.2c-0.3-0.5-0.5-1-0.6-1.5c-0.1-0.5-0.1-1.6-0.1-3.3v-8.9h3.9
					v11.3c0,0.7,0,1.1,0.1,1.3c0.1,0.2,0.2,0.3,0.4,0.3c0.2,0,0.4-0.1,0.5-0.3c0.1-0.2,0.1-0.7,0.1-1.4v-11.1H146.6z"/>
			</g>
			<g>
				<g>
					<path class="st10" d="M189.7,360.9c-1.2,1.2-2.9,2.1-5,2.1H52.3c-3.9,0-7-3.2-7-7V223.5c0-1.8,0.9-3.5,2.1-5"/>
					<path class="st11" d="M47.8,219.1c1.2-1.2,2.9-2.1,5-2.1h132.7c3.5,0,6.7,3.2,6.7,7v132.7c0,1.8-0.9,3.5-2.1,4.7"/>
				</g>
				<rect x="46.2" y="260" class="st12" width="146" height="52"/>
				<g>
					<path class="st6" d="M68.2,267v24h3v7h-3v6h-9v-6h-11v-6.5l7.8-24.5C56.1,267,68.2,267,68.2,267z M59.2,291v-15.8L55.1,291
						H59.2z"/>
					<path class="st6" d="M90.4,282.8c1.5,0.6,2.4,1.1,3.3,2.3c0.6,1.1,1.2,3.4,1.2,7.3c0,2.8-0.3,5.1-0.9,6.5
						c-0.6,1.7-1.8,2.8-3.6,3.7c-1.8,0.8-3.9,1.1-6.7,1.1c-3,0-5.5-0.6-7.3-1.4c-1.8-0.8-2.7-2-3.3-3.4s-0.9-3.7-0.9-7.1V289h10v6.2
						c0,1.5,0,2.6,0.3,2.9c0.3,0.3,0.5,0.6,1.1,0.6s1.1-0.3,1.4-0.9c0.3-0.6,0.3-2.1,0.3-4.4v-1.8c0-1.6-0.3-2.5-0.6-3.5
						c-0.3-0.9-0.9-1.3-1.6-1.3c-0.6-0.3-1.9-0.3-3.8-0.3v-5.7c2.5,0,3.8,0,4.4-0.3c0.6-0.3,0.9-0.6,1.3-1.3
						c0.3-0.6,0.3-1.6,0.3-2.8v-1.5c0-1.2,0-2.1-0.3-2.7c-0.3-0.3-0.6-0.6-1.2-0.6s-1.2,0.3-1.2,0.6c-0.3,0.3-0.3,1.5-0.3,2.7v3.1
						h-10v-3.1c0-3.4,0.9-5.6,2.4-6.8c1.8-1.1,4.2-1.7,7.9-1.7c4.5,0,7.6,0.8,9.4,2.5c1.5,1.7,2.4,3.9,2.4,7.1c0,2-0.3,3.4-0.9,4.2
						C93.1,281.1,91.9,281.9,90.4,282.8z"/>
					<path class="st6" d="M116.2,267v24h3v7h-3v6h-9v-6h-12v-6.5l8.1-24.5C103.3,267,116.2,267,116.2,267z M107.2,291v-15.8
						l-4.1,15.8H107.2z"/>
					<path class="st6" d="M137.5,266l-10.7,38h-7l11-38H137.5z"/>
					<path class="st6" d="M139.9,267h9.6c2.9,0,5.2,0.3,6.9,0.6c1.4,0.6,2.9,1.5,3.8,2.9c0.9,1.5,1.4,3.8,1.4,7
						c0,2.1-0.3,3.8-0.9,4.4c-0.6,0.9-2,1.5-4.1,2.1c2.3,0.6,3.8,1.5,4.3,2.6c0.9,1.2,1.2,2.9,1.2,5.3v3.5c0,2.6-0.3,4.4-0.9,5.6
						c-0.6,1.2-1.4,2.1-2.6,2.3c-1.2,0.6-3.8,0.6-7.5,0.6h-11v-37H139.9z M149.2,272.8v8.2c0.3,0,0.6,0,0.9,0c0.9,0,1.5-0.3,1.8-0.6
						c0.3-0.6,0.3-1.8,0.3-4.1c0-1.2,0-2.1-0.3-2.3c-0.3-0.6-0.6-0.9-0.9-0.9C150.7,273.1,150.1,272.8,149.2,272.8z M149.2,287.3
						v9.5c1.4,0,2.2-0.3,2.5-0.5c0.3-0.3,0.5-1.4,0.5-2.7v-3.3c0-1.4-0.3-2.5-0.5-2.7C151.4,287.5,150.6,287.3,149.2,287.3z"/>
					<path class="st6" d="M187.2,267v24.9c0,2.9,0,4.7-0.3,5.9c-0.3,1.2-0.6,2.3-1.8,3.5c-0.9,1.2-2.1,2.1-3.5,2.6
						c-1.5,0.6-3.2,0.9-5.3,0.9c-2.3,0-4.1-0.3-5.9-1.2c-2-1-3.2-2-4.1-3.4c-0.7-1-1.2-2.9-1.2-4.1V289v-22h10v27.8
						c0,1.8,0,2.6,0.3,3.2c0.3,0.6,0.6,0.6,1.2,0.6c0.6,0,0.9-0.3,1.2-0.9s0.3-1.8,0.3-3.5V267H187.2z"/>
				</g>

					<linearGradient id="SVGID_10_" gradientUnits="userSpaceOnUse" x1="-50.1644" y1="785.5219" x2="65.7046" y2="901.3909" gradientTransform="matrix(1 0 0 -1 116 1116)">
					<stop  offset="0.5593" style="stop-color:#FFFFFF;stop-opacity:0"/>
					<stop  offset="1" style="stop-color:#FFFFFF"/>
				</linearGradient>
				<path class="st13" d="M183.5,326H64.3c-3.9,0-7-3.2-7-7V226c0-3.9,3.2-7,7-7h118.9c3.9,0,7,3.2,7,7v92.6
					C190.5,322.8,187.3,326,183.5,326z"/>
			</g>
		</g>
		<g id="CWL209">
			<g>
				<path class="st14" d="M713.4,385.4h-3.9v-2.6c0-0.8,0-1.2-0.1-1.4c-0.1-0.2-0.3-0.3-0.6-0.3c-0.3,0-0.5,0.1-0.6,0.3
					c-0.1,0.2-0.1,0.7-0.1,1.5v7c0,0.7,0,1.2,0.1,1.4c0.1,0.2,0.3,0.3,0.6,0.3c0.3,0,0.5-0.1,0.6-0.3s0.1-0.7,0.1-1.6v-1.9h3.9v0.6
					c0,1.6-0.1,2.7-0.3,3.3c-0.2,0.7-0.7,1.2-1.5,1.7c-0.8,0.5-1.7,0.7-2.8,0.7c-1.1,0-2.1-0.2-2.8-0.6s-1.2-1-1.5-1.7
					c-0.2-0.7-0.4-1.8-0.4-3.3v-4.4c0-1.1,0-1.9,0.1-2.4s0.3-1.1,0.7-1.6c0.4-0.5,0.9-0.9,1.5-1.2s1.4-0.4,2.2-0.4
					c1.2,0,2.1,0.2,2.8,0.7s1.2,1,1.5,1.7c0.2,0.7,0.4,1.7,0.4,3.1V385.4z"/>
				<path class="st14" d="M718.4,378.9v3.4c0.3-0.3,0.7-0.5,1-0.7s0.8-0.2,1.2-0.2c0.7,0,1.2,0.2,1.7,0.5s0.7,0.7,0.8,1.2
					c0.1,0.4,0.2,1.2,0.2,2.4v8.5h-3.7v-8.7c0-0.7,0-1.2-0.1-1.4c-0.1-0.2-0.2-0.3-0.5-0.3c-0.2,0-0.4,0.1-0.5,0.3
					c-0.1,0.2-0.1,0.6-0.1,1.3v8.8h-3.7v-15H718.4z"/>
				<path class="st14" d="M728.5,378.9v15h-3.9v-15H728.5z"/>
				<path class="st14" d="M733.2,386.4h-3.5v-0.8c0-1,0.1-1.7,0.3-2.2c0.2-0.5,0.7-1,1.3-1.4c0.7-0.4,1.5-0.6,2.6-0.6
					c1.3,0,2.2,0.2,2.9,0.7c0.6,0.4,1,1,1.2,1.7c0.1,0.7,0.2,2,0.2,4v6.2h-3.6v-1.1c-0.2,0.4-0.5,0.8-0.9,1
					c-0.4,0.2-0.8,0.3-1.3,0.3c-0.7,0-1.3-0.2-1.8-0.6c-0.5-0.4-0.8-1.2-0.8-2.4v-1c0-0.9,0.1-1.5,0.4-1.9s1-0.7,2.2-1.2
					c1.2-0.5,1.9-0.8,2-1c0.1-0.2,0.1-0.5,0.1-1c0-0.6,0-1.1-0.1-1.3c-0.1-0.2-0.3-0.3-0.5-0.3c-0.3,0-0.4,0.1-0.5,0.2
					c-0.1,0.2-0.1,0.6-0.1,1.3V386.4z M734.3,388.1c-0.6,0.4-0.9,0.8-1,1.1s-0.1,0.7-0.1,1.3c0,0.6,0,1,0.1,1.2
					c0.1,0.2,0.2,0.3,0.5,0.3c0.2,0,0.4-0.1,0.5-0.2c0.1-0.1,0.1-0.5,0.1-1.1V388.1z"/>
				<path class="st14" d="M743.1,381.6l-0.1,1.2c0.3-0.5,0.6-0.8,1-1c0.4-0.2,0.9-0.3,1.4-0.3c1,0,1.8,0.5,2.4,1.4
					c0.3-0.5,0.7-0.8,1.1-1c0.4-0.2,0.8-0.3,1.3-0.3c0.6,0,1.2,0.2,1.6,0.5c0.4,0.3,0.7,0.7,0.8,1.1c0.1,0.4,0.2,1.2,0.2,2.2v8.7
					h-3.6v-8c0-1.1,0-1.7-0.1-2c-0.1-0.2-0.2-0.4-0.5-0.4c-0.3,0-0.4,0.1-0.5,0.4c-0.1,0.2-0.1,0.9-0.1,2v8h-3.6v-7.8
					c0-1.2,0-1.9-0.1-2.2c-0.1-0.2-0.2-0.4-0.5-0.4c-0.2,0-0.3,0.1-0.4,0.2c-0.1,0.1-0.2,0.3-0.2,0.5c0,0.2,0,0.6,0,1.2v8.5h-3.6
					v-12.3H743.1z"/>
				<path class="st14" d="M761.9,381.6l-1.1,8.9c-0.2,1.4-0.3,2.4-0.4,2.9c-0.1,0.5-0.3,0.9-0.6,1.3c-0.3,0.3-0.6,0.6-1.1,0.7
					s-1.2,0.2-2.3,0.2h-2.3v-2c0.6,0,1,0,1.1-0.1c0.2-0.1,0.3-0.2,0.3-0.4c0-0.1-0.1-0.5-0.2-1.3l-2.1-10.3h3.4l1.2,8.3l0.6-8.3
					H761.9z"/>
				<path class="st14" d="M771.1,378.9v15h-3.7V393c-0.4,0.4-0.7,0.7-1.1,0.8c-0.4,0.2-0.8,0.3-1.2,0.3c-0.6,0-1.1-0.2-1.5-0.5
					c-0.4-0.3-0.7-0.7-0.8-1.1s-0.2-1.1-0.2-2v-5.8c0-0.9,0.1-1.6,0.2-2c0.1-0.4,0.4-0.7,0.8-1c0.4-0.3,0.9-0.5,1.5-0.5
					c0.5,0,0.9,0.1,1.3,0.3c0.4,0.2,0.7,0.4,1.1,0.8v-3.5H771.1z M767.3,384.7c0-0.5,0-0.8-0.1-0.9c-0.1-0.2-0.2-0.2-0.5-0.2
					c-0.2,0-0.4,0.1-0.4,0.2c-0.1,0.1-0.1,0.4-0.1,0.9v6c0,0.5,0,0.8,0.1,1c0.1,0.2,0.2,0.2,0.4,0.2c0.2,0,0.4-0.1,0.5-0.3
					c0.1-0.2,0.1-0.6,0.1-1.3V384.7z"/>
				<path class="st14" d="M776.3,378.9v2h-3.9v-2H776.3z M776.3,381.6v12.3h-3.9v-12.3H776.3z"/>
				<path class="st14" d="M781,386.4h-3.5v-0.8c0-1,0.1-1.7,0.3-2.2c0.2-0.5,0.7-1,1.3-1.4s1.5-0.6,2.6-0.6c1.3,0,2.2,0.2,2.9,0.7
					c0.6,0.4,1,1,1.2,1.7c0.1,0.7,0.2,2,0.2,4v6.2h-3.6v-1.1c-0.2,0.4-0.5,0.8-0.9,1c-0.4,0.2-0.8,0.3-1.3,0.3
					c-0.7,0-1.3-0.2-1.8-0.6c-0.5-0.4-0.8-1.2-0.8-2.4v-1c0-0.9,0.1-1.5,0.4-1.9c0.3-0.3,1-0.7,2.2-1.2c1.2-0.5,1.9-0.8,2-1
					c0.1-0.2,0.1-0.5,0.1-1c0-0.6,0-1.1-0.1-1.3c-0.1-0.2-0.3-0.3-0.5-0.3c-0.3,0-0.4,0.1-0.5,0.2c-0.1,0.2-0.1,0.6-0.1,1.3V386.4z
					 M782.2,388.1c-0.6,0.4-0.9,0.8-1,1.1c-0.1,0.3-0.1,0.7-0.1,1.3c0,0.6,0,1,0.1,1.2c0.1,0.2,0.2,0.3,0.5,0.3
					c0.2,0,0.4-0.1,0.5-0.2c0.1-0.1,0.1-0.5,0.1-1.1V388.1z"/>
				<path class="st14" d="M790.7,378.9h3.9c1.1,0,1.9,0.1,2.5,0.3c0.6,0.2,1,0.4,1.3,0.7c0.3,0.3,0.5,0.7,0.6,1.1
					c0.1,0.4,0.2,1.1,0.2,2.1v1.3c0,1-0.1,1.7-0.3,2.1c-0.2,0.4-0.6,0.8-1.1,1c-0.5,0.2-1.2,0.4-2.1,0.4h-1v6h-3.9V378.9z
					 M794.6,381.5v3.8c0.1,0,0.2,0,0.3,0c0.4,0,0.6-0.1,0.7-0.3c0.1-0.2,0.2-0.5,0.2-1.1v-1.2c0-0.5-0.1-0.8-0.2-1
					S795.1,381.5,794.6,381.5z"/>
				<path class="st14" d="M803.9,381.6l-0.1,1.1c0.3-0.5,0.6-0.8,1-1c0.4-0.2,0.8-0.3,1.4-0.3c0.6,0,1.2,0.2,1.6,0.5
					c0.4,0.3,0.7,0.7,0.8,1.1c0.1,0.5,0.2,1.2,0.2,2.3v8.6H805v-8.5c0-0.8,0-1.4-0.1-1.5s-0.2-0.3-0.5-0.3c-0.3,0-0.4,0.1-0.5,0.3
					c-0.1,0.2-0.1,0.8-0.1,1.7v8.3h-3.7v-12.3H803.9z"/>
				<path class="st14" d="M818.5,388h-4.9v2.7c0,0.6,0,0.9,0.1,1.1c0.1,0.2,0.2,0.2,0.5,0.2c0.3,0,0.5-0.1,0.6-0.3
					c0.1-0.2,0.1-0.6,0.1-1.2v-1.6h3.6v0.9c0,0.8,0,1.3-0.1,1.8c-0.1,0.4-0.3,0.8-0.7,1.3c-0.4,0.5-0.8,0.8-1.3,1
					c-0.5,0.2-1.2,0.3-2,0.3c-0.8,0-1.5-0.1-2.1-0.3c-0.6-0.2-1.1-0.5-1.4-0.9s-0.6-0.8-0.7-1.3c-0.1-0.5-0.2-1.2-0.2-2.1v-3.6
					c0-1.1,0.1-1.9,0.4-2.5s0.8-1.1,1.4-1.4c0.7-0.3,1.4-0.5,2.3-0.5c1.1,0,1.9,0.2,2.6,0.6c0.7,0.4,1.2,0.9,1.4,1.6
					s0.4,1.6,0.4,2.8V388z M814.7,386v-0.9c0-0.6,0-1-0.1-1.2s-0.2-0.3-0.4-0.3c-0.3,0-0.4,0.1-0.5,0.2s-0.1,0.6-0.1,1.3v0.9H814.7z
					"/>
				<path class="st14" d="M828.3,381.6v12.3h-3.8l0.1-1c-0.3,0.4-0.6,0.7-1,0.9c-0.4,0.2-0.8,0.3-1.3,0.3c-0.6,0-1-0.1-1.4-0.3
					c-0.4-0.2-0.6-0.5-0.8-0.8c-0.2-0.3-0.3-0.7-0.3-1s-0.1-1.1-0.1-2.1v-8.3h3.7v8.4c0,1,0,1.5,0.1,1.7s0.2,0.3,0.5,0.3
					c0.3,0,0.4-0.1,0.5-0.3c0.1-0.2,0.1-0.8,0.1-1.8v-8.3H828.3z"/>
				<path class="st14" d="M833.4,381.6l-0.1,1.2c0.3-0.5,0.6-0.8,1-1c0.4-0.2,0.9-0.3,1.4-0.3c1,0,1.8,0.5,2.4,1.4
					c0.3-0.5,0.7-0.8,1.1-1c0.4-0.2,0.8-0.3,1.3-0.3c0.6,0,1.2,0.2,1.6,0.5c0.4,0.3,0.7,0.7,0.8,1.1c0.1,0.4,0.2,1.2,0.2,2.2v8.7
					h-3.6v-8c0-1.1,0-1.7-0.1-2c-0.1-0.2-0.2-0.4-0.5-0.4c-0.3,0-0.4,0.1-0.5,0.4c-0.1,0.2-0.1,0.9-0.1,2v8h-3.6v-7.8
					c0-1.2,0-1.9-0.1-2.2s-0.2-0.4-0.5-0.4c-0.2,0-0.3,0.1-0.4,0.2s-0.2,0.3-0.2,0.5c0,0.2,0,0.6,0,1.2v8.5h-3.6v-12.3H833.4z"/>
				<path class="st14" d="M852.8,385.9v3c0,1.1-0.1,1.9-0.2,2.4c-0.1,0.5-0.3,1-0.7,1.4c-0.4,0.4-0.8,0.8-1.4,1
					c-0.6,0.2-1.2,0.3-2,0.3c-0.8,0-1.5-0.1-2.1-0.3c-0.6-0.2-1-0.5-1.3-0.8c-0.3-0.4-0.5-0.8-0.7-1.3c-0.1-0.5-0.2-1.3-0.2-2.4
					v-3.2c0-1.1,0.1-2,0.4-2.7c0.2-0.6,0.7-1.2,1.3-1.5c0.6-0.4,1.5-0.6,2.5-0.6c0.8,0,1.6,0.1,2.2,0.4c0.6,0.2,1.1,0.6,1.4,1
					c0.3,0.4,0.6,0.8,0.7,1.2C852.7,384.4,852.8,385,852.8,385.9z M849,385c0-0.6,0-1-0.1-1.2c-0.1-0.2-0.2-0.2-0.4-0.2
					s-0.4,0.1-0.4,0.2c-0.1,0.2-0.1,0.6-0.1,1.2v5.6c0,0.6,0,1,0.1,1.1s0.2,0.3,0.4,0.3c0.2,0,0.4-0.1,0.4-0.2
					c0.1-0.2,0.1-0.5,0.1-1V385z"/>
				<path class="st14" d="M857.8,381.6l-0.1,1.1c0.3-0.5,0.6-0.8,1-1c0.4-0.2,0.8-0.3,1.4-0.3c0.6,0,1.2,0.2,1.6,0.5
					c0.4,0.3,0.7,0.7,0.8,1.1s0.2,1.2,0.2,2.3v8.6h-3.7v-8.5c0-0.8,0-1.4-0.1-1.5s-0.2-0.3-0.5-0.3c-0.3,0-0.4,0.1-0.5,0.3
					c-0.1,0.2-0.1,0.8-0.1,1.7v8.3H854v-12.3H857.8z"/>
				<path class="st14" d="M867.8,378.9v2H864v-2H867.8z M867.8,381.6v12.3H864v-12.3H867.8z"/>
				<path class="st14" d="M872.5,386.4H869v-0.8c0-1,0.1-1.7,0.3-2.2c0.2-0.5,0.7-1,1.3-1.4s1.5-0.6,2.6-0.6c1.3,0,2.2,0.2,2.9,0.7
					c0.6,0.4,1,1,1.2,1.7c0.1,0.7,0.2,2,0.2,4v6.2h-3.6v-1.1c-0.2,0.4-0.5,0.8-0.9,1c-0.4,0.2-0.8,0.3-1.3,0.3
					c-0.7,0-1.3-0.2-1.8-0.6c-0.5-0.4-0.8-1.2-0.8-2.4v-1c0-0.9,0.1-1.5,0.4-1.9s1-0.7,2.2-1.2c1.2-0.5,1.9-0.8,2-1s0.1-0.5,0.1-1
					c0-0.6,0-1.1-0.1-1.3c-0.1-0.2-0.3-0.3-0.5-0.3c-0.3,0-0.4,0.1-0.5,0.2c-0.1,0.2-0.1,0.6-0.1,1.3V386.4z M873.7,388.1
					c-0.6,0.4-0.9,0.8-1,1.1c-0.1,0.3-0.1,0.7-0.1,1.3c0,0.6,0,1,0.1,1.2s0.2,0.3,0.5,0.3c0.2,0,0.4-0.1,0.5-0.2
					c0.1-0.1,0.1-0.5,0.1-1.1V388.1z"/>
				<path class="st14" d="M887.2,388h-4.9v2.7c0,0.6,0,0.9,0.1,1.1c0.1,0.2,0.2,0.2,0.5,0.2c0.3,0,0.5-0.1,0.6-0.3
					c0.1-0.2,0.1-0.6,0.1-1.2v-1.6h3.6v0.9c0,0.8,0,1.3-0.1,1.8s-0.3,0.8-0.7,1.3c-0.4,0.5-0.8,0.8-1.3,1c-0.5,0.2-1.2,0.3-2,0.3
					c-0.8,0-1.5-0.1-2.1-0.3c-0.6-0.2-1.1-0.5-1.4-0.9c-0.3-0.4-0.6-0.8-0.7-1.3c-0.1-0.5-0.2-1.2-0.2-2.1v-3.6
					c0-1.1,0.1-1.9,0.4-2.5c0.3-0.6,0.8-1.1,1.4-1.4c0.7-0.3,1.4-0.5,2.3-0.5c1.1,0,1.9,0.2,2.6,0.6s1.2,0.9,1.4,1.6
					s0.4,1.6,0.4,2.8V388z M883.5,386v-0.9c0-0.6,0-1-0.1-1.2c-0.1-0.2-0.2-0.3-0.4-0.3c-0.3,0-0.4,0.1-0.5,0.2
					c-0.1,0.2-0.1,0.6-0.1,1.3v0.9H883.5z"/>
				<path class="st14" d="M773.9,408.2H770v-2.6c0-0.8,0-1.2-0.1-1.4c-0.1-0.2-0.3-0.3-0.6-0.3c-0.3,0-0.5,0.1-0.6,0.3
					c-0.1,0.2-0.1,0.7-0.1,1.5v7c0,0.7,0,1.2,0.1,1.4c0.1,0.2,0.3,0.3,0.6,0.3c0.3,0,0.5-0.1,0.6-0.3c0.1-0.2,0.1-0.7,0.1-1.6v-1.9
					h3.9v0.6c0,1.6-0.1,2.7-0.3,3.3s-0.7,1.2-1.5,1.7c-0.8,0.5-1.7,0.7-2.8,0.7c-1.1,0-2.1-0.2-2.8-0.6s-1.2-1-1.5-1.7
					c-0.2-0.7-0.4-1.8-0.4-3.3V407c0-1.1,0-1.9,0.1-2.4c0.1-0.5,0.3-1.1,0.7-1.6s0.9-0.9,1.5-1.2c0.7-0.3,1.4-0.4,2.2-0.4
					c1.2,0,2.1,0.2,2.8,0.7c0.7,0.4,1.2,1,1.5,1.7c0.2,0.7,0.4,1.7,0.4,3.1V408.2z"/>
				<path class="st14" d="M790,401.7l-1.7,15h-4.9c-0.4-2.3-0.8-4.9-1.2-7.9c-0.2,1.3-0.5,3.9-1.1,7.9h-4.8l-1.7-15h3.8l0.4,5.2
					l0.4,5.1c0.1-2.6,0.5-6.1,1.1-10.3h4.1c0.1,0.4,0.2,2.1,0.4,5l0.4,5.7c0.2-3.6,0.6-7.2,1.1-10.7H790z"/>
				<path class="st14" d="M794.7,401.7v12h2.4v3h-6.3v-15H794.7z"/>
				<path class="st14" d="M806.7,406.8v5c0,1.1-0.1,2-0.2,2.5s-0.4,1-0.8,1.5c-0.4,0.5-0.9,0.8-1.4,1s-1.2,0.3-1.8,0.3
					c-0.9,0-1.6-0.1-2.2-0.3c-0.6-0.2-1.1-0.5-1.4-1s-0.6-0.9-0.8-1.4c-0.1-0.5-0.2-1.3-0.2-2.3v-5.2c0-1.4,0.1-2.4,0.4-3.1
					c0.2-0.7,0.7-1.2,1.4-1.7c0.7-0.4,1.6-0.6,2.6-0.6c0.8,0,1.6,0.1,2.2,0.4c0.6,0.3,1.1,0.6,1.5,1.1c0.3,0.4,0.5,0.9,0.7,1.4
					C806.7,404.8,806.7,405.6,806.7,406.8z M803,405.5c0-0.8,0-1.3-0.1-1.5c-0.1-0.2-0.3-0.3-0.5-0.3c-0.3,0-0.5,0.1-0.6,0.3
					c-0.1,0.2-0.1,0.7-0.1,1.5v7.3c0,0.9,0,1.4,0.1,1.6s0.3,0.3,0.5,0.3c0.3,0,0.5-0.1,0.5-0.3c0.1-0.2,0.1-0.7,0.1-1.4V405.5z"/>
				<path class="st14" d="M816.2,414.1v2.6h-8.2l0-2.1c2.4-4,3.9-6.5,4.4-7.4c0.5-0.9,0.7-1.7,0.7-2.2c0-0.4-0.1-0.7-0.2-0.9
					c-0.1-0.2-0.4-0.3-0.6-0.3s-0.5,0.1-0.6,0.3c-0.1,0.2-0.2,0.7-0.2,1.3v1.4h-3.4v-0.5c0-0.8,0-1.5,0.1-2c0.1-0.5,0.3-1,0.6-1.4
					c0.3-0.5,0.8-0.8,1.3-1.1c0.5-0.2,1.2-0.4,2-0.4c1.5,0,2.6,0.4,3.4,1.1c0.8,0.7,1.1,1.7,1.1,2.8c0,0.9-0.2,1.8-0.6,2.7
					c-0.4,1-1.7,3-3.8,6.1H816.2z"/>
				<path class="st14" d="M817.6,412.7h3.7c0,0.7,0,1.1,0,1.3c0,0.2,0.1,0.3,0.2,0.5c0.1,0.1,0.3,0.2,0.5,0.2c0.2,0,0.3-0.1,0.5-0.2
					c0.1-0.1,0.2-0.3,0.2-0.5s0-0.6,0-1.1v-2.4c-0.2,0.4-0.5,0.7-0.8,0.9c-0.4,0.2-0.8,0.3-1.4,0.3c-0.7,0-1.3-0.2-1.8-0.6
					c-0.5-0.4-0.9-0.8-1-1.3c-0.1-0.5-0.2-1.2-0.2-2.1v-1.2c0-1.1,0-1.8,0.1-2.3c0.1-0.5,0.3-1,0.6-1.4s0.8-0.8,1.4-1
					c0.6-0.2,1.3-0.4,2.1-0.4c1,0,1.8,0.1,2.5,0.4c0.6,0.3,1.1,0.7,1.5,1.2c0.4,0.5,0.6,1.1,0.6,1.6c0.1,0.6,0.1,1.7,0.1,3.3v2.1
					c0,1.8,0,3-0.1,3.6c-0.1,0.6-0.3,1.2-0.6,1.7c-0.4,0.5-0.9,0.9-1.5,1.2c-0.7,0.3-1.4,0.4-2.3,0.4c-1.1,0-1.9-0.2-2.6-0.5
					c-0.7-0.3-1.2-0.8-1.4-1.4C817.8,414.4,817.6,413.7,817.6,412.7z M821.4,408c0,0.6,0.1,1,0.2,1.2s0.3,0.2,0.5,0.2
					c0.3,0,0.4-0.1,0.6-0.3c0.1-0.2,0.2-0.6,0.2-1.1v-2.7c0-0.7-0.1-1.1-0.2-1.3c-0.1-0.2-0.3-0.3-0.6-0.3c-0.2,0-0.3,0.1-0.5,0.2
					c-0.2,0.2-0.3,0.6-0.3,1.3V408z"/>
			</g>
			<g>
				<g>
					<polyline class="st15" points="753.2,358 838,358 880.3,285.2 838,212.4 					"/>
					<polyline class="st14" points="838.2,212 753.4,212 711,284.8 753.4,357.6 					"/>
				</g>
				<polygon class="st12" points="864,255 727.7,254.3 710.3,284.4 726,311 865.3,311 881,284.4 				"/>
				<g>
					<path class="st6" d="M749.2,282h-8v-5.4c0-1.7,0-2.7-0.3-3c-0.3-0.3-0.7-0.7-1-0.7c-0.7,0-1,0.3-1.3,0.7
						c-0.3,0.3-0.3,1.7-0.3,3v15c0,0-0.4,2.7-0.1,3c0.3,0.3,0.7,0.7,1.4,0.7s1-0.3,1.4-0.7c0.3-0.3,0.3-1.7,0.3-3.4V287h8v1.4
						c0,3.4-0.3,5.8-0.7,7.1c-0.3,1.4-1.3,2.7-3,3.7c-1.7,1-3.7,1.7-6,1.7c-2.3,0-4.3-0.3-6-1.4c-1.7-1-3-2.4-3.7-4.1
						c-0.7-1.7-0.7-3.7-0.7-6.8v-9.4c0-2.4,0-4.1,0.3-5.1c0.3-1,0.7-2.4,1.4-3.4c0.7-1,2.1-2,3.4-2.4c1.4-0.3,3.1-1,4.8-1
						c2.4,0,4.5,0.3,6.2,1.4c1.7,1,2.8,2,3.1,3.7c0.3,1.7,0.7,3.7,0.7,6.8V282z"/>
					<path class="st6" d="M783.4,268l-3.7,32h-10.4c-1-5.1-1.7-10.4-2.4-16.8c-0.3,2.7-1,8.4-2.4,16.8h-10.4l-3.7-32h8.1l1,11.1
						l1,10.8c0.3-5.7,1-12.8,2.4-21.9h8.8c0,1,0.3,4.4,1,10.4l1,12.1c0.3-7.7,1.3-15.2,2.4-22.6H783.4z"/>
					<path class="st6" d="M793.2,268v26h5v6h-13v-32H793.2z"/>
					<path class="st6" d="M840.2,279v10.9c0,2.4,0,4.1-0.3,5.4s-0.7,2-1.7,3.1c-1,1-1.7,1.7-3.1,2c-1.4,0.3-2.4,0.7-4.1,0.7
						c-2,0-3.4-0.3-4.8-0.7s-2.4-1.4-3.1-2.4c-0.7-1-1.4-2-1.7-3.1c-0.3-1-0.3-2.7-0.3-5.1v-11.2c0-3.1,0.3-5.1,0.7-6.8
						s1.4-2.7,3.1-3.4c1.7-0.7,3.4-1.4,5.4-1.4c1.7,0,3.4,0.3,4.8,1c1.4,0.7,2.4,1.4,3.1,2.4c0.7,1,1,2,1.4,3.1
						S840.2,276.3,840.2,279z M832.2,276.3c0.1-1.7,0.1-2.7-0.3-3c-0.3-0.3-0.7-0.7-1-0.7c-0.7,0-1,0.3-1,0.7c0,0.3-0.3,1.4-0.7,3
						v15.6c0.4,2,0.4,3,0.7,3.4c0.3,0.3,0.7,0.7,1,0.7c0.3,0,1-0.3,1-0.7s0.3-1.4,0.3-3V276.3z"/>
					<path class="st6" d="M819.2,294.3v5.7h-17v-4.8c4.8-8.6,8-14.1,8.9-16.2c1-2.1,1.3-3.8,1.3-4.8s0-1.7-0.3-2.1s-0.6-0.7-1.3-0.7
						c-0.6,0-1,0.3-1.3,0.7s-0.3,1.4-0.3,2.8v3.1h-7v-1c0-1.7,0-3.4,0.3-4.4c0.3-1,0.7-2,1.3-3.1c0.7-1,1.7-1.7,2.7-2.4
						s2.7-0.7,4-0.7c3,0,5.7,0.7,7,2.4c1.3,1.7,2.3,3.7,2.3,6.1c0,1.7-0.3,3.7-1.3,5.8c-1,2-3.7,6.5-8,13.3h8.7
						C819.2,294,819.2,294.3,819.2,294.3z"/>
					<path class="st6" d="M842.8,292h7.3v2.3c0.4,0.3,0.7,0.7,0.7,1s0.7,0.3,1,0.3c0.3,0,0.7,0,1-0.3c0.3-0.3,0.3-1,0.3-1
						s0-1.6,0-2.6v-4.8c-0.3,1-1,1.3-1.6,1.9c-0.6,0.6-1.6,0.6-2.9,0.6c-1.3,0-2.6-0.3-3.5-1.3c-1-1-1.3-1.6-1.6-2.6
						s-0.3-2.6-0.3-4.2v-2.6c0-2.4,0-4.1,0.3-5.1c0.3-1,0.7-2,1.3-3c0.7-1,1.7-1.7,3-2c1.3-0.3,2.7-0.7,4.3-0.7c2,0,4,0.3,5.3,1
						c1.3,0.7,2.3,1.4,3,2.7c0.7,1.4,1.3,2.4,1.3,3.4c0,1,0.3,3.7,0.3,7.1v4.4c0,3.7,0,6.4,0,7.8c0,1.4-0.7,2.4-1.3,3.7
						c-0.7,1.4-2,2-3.3,2.7c-1.3,0.7-3,1-4.7,1c-2.3,0-4-0.3-5.3-1c-1.3-0.7-2.3-1.7-3-3C843.8,296.4,842.8,294,842.8,292z
						 M851.2,281.4c-0.6,1.4-0.3,2,0,2.4c0.3,0.3,0.7,0.3,1,0.3c0.7,0,1-0.3,1.4-0.7c0.3-0.3,0.3-1.4,0.6-2.4v-5.8
						c-0.3-1.4-0.3-2.4-0.6-2.7c-0.3-0.3-0.7-0.7-1.4-0.7c-0.3,0-0.7,0-1,0.3c-0.3,0.3-0.7,1.4,0,2.7V281.4z"/>
				</g>

					<linearGradient id="SVGID_11_" gradientUnits="userSpaceOnUse" x1="616.5355" y1="882" x2="717.7567" y2="882" gradientTransform="matrix(1 0 0 -1 116 1116)">
					<stop  offset="0.1275" style="stop-color:#FFFFFF;stop-opacity:0"/>
					<stop  offset="1" style="stop-color:#FFFFFF"/>
				</linearGradient>
				<polygon class="st16" points="754.9,215 833.6,215 811.1,253 732.4,253 				"/>
			</g>
		</g>
		<g id="DUX3CX">
			<g>
				<path class="st17" d="M261.7,385.4h-3.9v-2.6c0-0.8,0-1.2-0.1-1.4c-0.1-0.2-0.3-0.3-0.6-0.3c-0.3,0-0.5,0.1-0.6,0.3
					c-0.1,0.2-0.1,0.7-0.1,1.5v7c0,0.7,0,1.2,0.1,1.4c0.1,0.2,0.3,0.3,0.6,0.3c0.3,0,0.5-0.1,0.6-0.3c0.1-0.2,0.1-0.7,0.1-1.6v-1.9
					h3.9v0.6c0,1.6-0.1,2.7-0.3,3.3c-0.2,0.7-0.7,1.2-1.5,1.7c-0.8,0.5-1.7,0.7-2.8,0.7c-1.1,0-2.1-0.2-2.8-0.6s-1.2-1-1.5-1.7
					s-0.4-1.8-0.4-3.3v-4.4c0-1.1,0-1.9,0.1-2.4s0.3-1.1,0.7-1.6c0.4-0.5,0.9-0.9,1.5-1.2c0.7-0.3,1.4-0.4,2.2-0.4
					c1.2,0,2.1,0.2,2.8,0.7c0.7,0.4,1.2,1,1.5,1.7c0.2,0.7,0.4,1.7,0.4,3.1V385.4z"/>
				<path class="st17" d="M266.8,378.9v3.4c0.3-0.3,0.7-0.5,1-0.7c0.4-0.1,0.8-0.2,1.2-0.2c0.7,0,1.2,0.2,1.7,0.5
					c0.5,0.3,0.7,0.7,0.8,1.2c0.1,0.4,0.2,1.2,0.2,2.4v8.5h-3.7v-8.7c0-0.7,0-1.2-0.1-1.4c-0.1-0.2-0.2-0.3-0.5-0.3
					c-0.2,0-0.4,0.1-0.5,0.3c-0.1,0.2-0.1,0.6-0.1,1.3v8.8H263v-15H266.8z"/>
				<path class="st17" d="M276.8,378.9v15H273v-15H276.8z"/>
				<path class="st17" d="M281.5,386.4H278v-0.8c0-1,0.1-1.7,0.3-2.2c0.2-0.5,0.7-1,1.3-1.4c0.7-0.4,1.5-0.6,2.6-0.6
					c1.3,0,2.2,0.2,2.9,0.7c0.6,0.4,1,1,1.2,1.7c0.1,0.7,0.2,2,0.2,4v6.2h-3.6v-1.1c-0.2,0.4-0.5,0.8-0.9,1
					c-0.4,0.2-0.8,0.3-1.3,0.3c-0.7,0-1.3-0.2-1.8-0.6c-0.5-0.4-0.8-1.2-0.8-2.4v-1c0-0.9,0.1-1.5,0.4-1.9c0.3-0.3,1-0.7,2.2-1.2
					c1.2-0.5,1.9-0.8,2-1c0.1-0.2,0.1-0.5,0.1-1c0-0.6,0-1.1-0.1-1.3c-0.1-0.2-0.3-0.3-0.5-0.3c-0.3,0-0.4,0.1-0.5,0.2
					c-0.1,0.2-0.1,0.6-0.1,1.3V386.4z M282.7,388.1c-0.6,0.4-0.9,0.8-1,1.1c-0.1,0.3-0.1,0.7-0.1,1.3c0,0.6,0,1,0.1,1.2
					c0.1,0.2,0.2,0.3,0.5,0.3c0.2,0,0.4-0.1,0.5-0.2c0.1-0.1,0.1-0.5,0.1-1.1V388.1z"/>
				<path class="st17" d="M291.4,381.6l-0.1,1.2c0.3-0.5,0.6-0.8,1-1c0.4-0.2,0.9-0.3,1.4-0.3c1,0,1.8,0.5,2.4,1.4
					c0.3-0.5,0.7-0.8,1.1-1c0.4-0.2,0.8-0.3,1.3-0.3c0.6,0,1.2,0.2,1.6,0.5c0.4,0.3,0.7,0.7,0.8,1.1c0.1,0.4,0.2,1.2,0.2,2.2v8.7
					h-3.6v-8c0-1.1,0-1.7-0.1-2c-0.1-0.2-0.2-0.4-0.5-0.4c-0.3,0-0.4,0.1-0.5,0.4c-0.1,0.2-0.1,0.9-0.1,2v8h-3.6v-7.8
					c0-1.2,0-1.9-0.1-2.2c-0.1-0.2-0.2-0.4-0.5-0.4c-0.2,0-0.3,0.1-0.4,0.2c-0.1,0.1-0.2,0.3-0.2,0.5c0,0.2,0,0.6,0,1.2v8.5h-3.6
					v-12.3H291.4z"/>
				<path class="st17" d="M310.2,381.6l-1.1,8.9c-0.2,1.4-0.3,2.4-0.4,2.9c-0.1,0.5-0.3,0.9-0.6,1.3c-0.3,0.3-0.6,0.6-1.1,0.7
					s-1.2,0.2-2.3,0.2h-2.3v-2c0.6,0,1,0,1.1-0.1c0.2-0.1,0.3-0.2,0.3-0.4c0-0.1-0.1-0.5-0.2-1.3l-2.1-10.3h3.4l1.2,8.3l0.6-8.3
					H310.2z"/>
				<path class="st17" d="M319.4,378.9v15h-3.7V393c-0.4,0.4-0.7,0.7-1.1,0.8c-0.4,0.2-0.8,0.3-1.2,0.3c-0.6,0-1.1-0.2-1.5-0.5
					c-0.4-0.3-0.7-0.7-0.8-1.1c-0.1-0.4-0.2-1.1-0.2-2v-5.8c0-0.9,0.1-1.6,0.2-2c0.1-0.4,0.4-0.7,0.8-1c0.4-0.3,0.9-0.5,1.5-0.5
					c0.5,0,0.9,0.1,1.3,0.3c0.4,0.2,0.7,0.4,1.1,0.8v-3.5H319.4z M315.7,384.7c0-0.5,0-0.8-0.1-0.9c-0.1-0.2-0.2-0.2-0.5-0.2
					c-0.2,0-0.4,0.1-0.4,0.2c-0.1,0.1-0.1,0.4-0.1,0.9v6c0,0.5,0,0.8,0.1,1c0.1,0.2,0.2,0.2,0.4,0.2c0.2,0,0.4-0.1,0.5-0.3
					c0.1-0.2,0.1-0.6,0.1-1.3V384.7z"/>
				<path class="st17" d="M324.6,378.9v2h-3.9v-2H324.6z M324.6,381.6v12.3h-3.9v-12.3H324.6z"/>
				<path class="st17" d="M329.3,386.4h-3.5v-0.8c0-1,0.1-1.7,0.3-2.2c0.2-0.5,0.7-1,1.3-1.4c0.7-0.4,1.5-0.6,2.6-0.6
					c1.3,0,2.2,0.2,2.9,0.7c0.6,0.4,1,1,1.2,1.7c0.1,0.7,0.2,2,0.2,4v6.2h-3.6v-1.1c-0.2,0.4-0.5,0.8-0.9,1
					c-0.4,0.2-0.8,0.3-1.3,0.3c-0.7,0-1.3-0.2-1.8-0.6c-0.5-0.4-0.8-1.2-0.8-2.4v-1c0-0.9,0.1-1.5,0.4-1.9c0.3-0.3,1-0.7,2.2-1.2
					c1.2-0.5,1.9-0.8,2-1c0.1-0.2,0.1-0.5,0.1-1c0-0.6,0-1.1-0.1-1.3c-0.1-0.2-0.3-0.3-0.5-0.3c-0.3,0-0.4,0.1-0.5,0.2
					c-0.1,0.2-0.1,0.6-0.1,1.3V386.4z M330.5,388.1c-0.6,0.4-0.9,0.8-1,1.1c-0.1,0.3-0.1,0.7-0.1,1.3c0,0.6,0,1,0.1,1.2
					c0.1,0.2,0.2,0.3,0.5,0.3c0.2,0,0.4-0.1,0.5-0.2c0.1-0.1,0.1-0.5,0.1-1.1V388.1z"/>
				<path class="st17" d="M346.9,378.9v3h-2.3v12h-3.9v-12h-2.3v-3H346.9z"/>
				<path class="st17" d="M351.4,381.6l-0.1,1.6c0.5-1.2,1.3-1.8,2.4-1.8v4.3c-0.7,0-1.2,0.1-1.5,0.3c-0.3,0.2-0.5,0.4-0.6,0.8
					c-0.1,0.3-0.1,1.1-0.1,2.3v4.9h-3.7v-12.3H351.4z"/>
				<path class="st17" d="M357.8,386.4h-3.5v-0.8c0-1,0.1-1.7,0.3-2.2c0.2-0.5,0.7-1,1.3-1.4c0.7-0.4,1.5-0.6,2.6-0.6
					c1.3,0,2.2,0.2,2.9,0.7c0.6,0.4,1,1,1.2,1.7c0.1,0.7,0.2,2,0.2,4v6.2h-3.6v-1.1c-0.2,0.4-0.5,0.8-0.9,1
					c-0.4,0.2-0.8,0.3-1.3,0.3c-0.7,0-1.3-0.2-1.8-0.6c-0.5-0.4-0.8-1.2-0.8-2.4v-1c0-0.9,0.1-1.5,0.4-1.9c0.3-0.3,1-0.7,2.2-1.2
					c1.2-0.5,1.9-0.8,2-1c0.1-0.2,0.1-0.5,0.1-1c0-0.6,0-1.1-0.1-1.3c-0.1-0.2-0.3-0.3-0.5-0.3c-0.3,0-0.4,0.1-0.5,0.2
					c-0.1,0.2-0.1,0.6-0.1,1.3V386.4z M359,388.1c-0.6,0.4-0.9,0.8-1,1.1c-0.1,0.3-0.1,0.7-0.1,1.3c0,0.6,0,1,0.1,1.2
					c0.1,0.2,0.2,0.3,0.5,0.3c0.2,0,0.4-0.1,0.5-0.2c0.1-0.1,0.1-0.5,0.1-1.1V388.1z"/>
				<path class="st17" d="M372.3,386.2h-3.5v-1.4c0-0.5,0-0.8-0.1-1c-0.1-0.2-0.2-0.3-0.4-0.3c-0.2,0-0.4,0.1-0.4,0.2
					c-0.1,0.2-0.1,0.5-0.1,1v5.8c0,0.4,0.1,0.8,0.2,1c0.1,0.2,0.3,0.3,0.5,0.3c0.3,0,0.4-0.1,0.5-0.3c0.1-0.2,0.1-0.7,0.1-1.3v-1.5
					h3.3c0,1,0,1.7-0.1,2.2c-0.1,0.5-0.3,1-0.6,1.5c-0.3,0.5-0.8,0.9-1.4,1.2c-0.6,0.3-1.3,0.4-2.1,0.4c-1.1,0-1.9-0.2-2.5-0.5
					c-0.6-0.4-1.1-0.9-1.3-1.5c-0.3-0.7-0.4-1.6-0.4-2.8v-3.5c0-1,0.1-1.8,0.3-2.4c0.2-0.5,0.7-1,1.3-1.4s1.5-0.6,2.5-0.6
					c1,0,1.8,0.2,2.5,0.6c0.7,0.4,1.2,0.9,1.4,1.6C372.2,384.2,372.3,385.1,372.3,386.2z"/>
				<path class="st17" d="M377.2,378.9v3.4c0.3-0.3,0.7-0.5,1-0.7c0.4-0.1,0.8-0.2,1.2-0.2c0.7,0,1.2,0.2,1.7,0.5
					c0.5,0.3,0.7,0.7,0.8,1.2c0.1,0.4,0.2,1.2,0.2,2.4v8.5h-3.7v-8.7c0-0.7,0-1.2-0.1-1.4c-0.1-0.2-0.2-0.3-0.5-0.3
					c-0.2,0-0.4,0.1-0.5,0.3c-0.1,0.2-0.1,0.6-0.1,1.3v8.8h-3.7v-15H377.2z"/>
				<path class="st17" d="M391.9,385.9v3c0,1.1-0.1,1.9-0.2,2.4c-0.1,0.5-0.3,1-0.7,1.4c-0.4,0.4-0.8,0.8-1.4,1
					c-0.6,0.2-1.2,0.3-2,0.3c-0.8,0-1.5-0.1-2.1-0.3c-0.6-0.2-1-0.5-1.3-0.8c-0.3-0.4-0.5-0.8-0.7-1.3c-0.1-0.5-0.2-1.3-0.2-2.4
					v-3.2c0-1.1,0.1-2,0.4-2.7c0.2-0.6,0.7-1.2,1.3-1.5c0.6-0.4,1.5-0.6,2.5-0.6c0.8,0,1.6,0.1,2.2,0.4c0.6,0.2,1.1,0.6,1.4,1
					c0.3,0.4,0.6,0.8,0.7,1.2C391.8,384.4,391.9,385,391.9,385.9z M388.1,385c0-0.6,0-1-0.1-1.2c-0.1-0.2-0.2-0.2-0.4-0.2
					s-0.4,0.1-0.4,0.2c-0.1,0.2-0.1,0.6-0.1,1.2v5.6c0,0.6,0,1,0.1,1.1s0.2,0.3,0.4,0.3c0.2,0,0.4-0.1,0.4-0.2
					c0.1-0.2,0.1-0.5,0.1-1V385z"/>
				<path class="st17" d="M396.8,381.6l-0.1,1.2c0.3-0.5,0.6-0.8,1-1c0.4-0.2,0.9-0.3,1.4-0.3c1,0,1.8,0.5,2.4,1.4
					c0.3-0.5,0.7-0.8,1.1-1c0.4-0.2,0.8-0.3,1.3-0.3c0.6,0,1.2,0.2,1.6,0.5c0.4,0.3,0.7,0.7,0.8,1.1c0.1,0.4,0.2,1.2,0.2,2.2v8.7
					h-3.6v-8c0-1.1,0-1.7-0.1-2c-0.1-0.2-0.2-0.4-0.5-0.4c-0.3,0-0.4,0.1-0.5,0.4c-0.1,0.2-0.1,0.9-0.1,2v8H398v-7.8
					c0-1.2,0-1.9-0.1-2.2c-0.1-0.2-0.2-0.4-0.5-0.4c-0.2,0-0.3,0.1-0.4,0.2c-0.1,0.1-0.2,0.3-0.2,0.5c0,0.2,0,0.6,0,1.2v8.5h-3.6
					v-12.3H396.8z"/>
				<path class="st17" d="M411.1,386.4h-3.5v-0.8c0-1,0.1-1.7,0.3-2.2c0.2-0.5,0.7-1,1.3-1.4c0.7-0.4,1.5-0.6,2.6-0.6
					c1.3,0,2.2,0.2,2.9,0.7c0.6,0.4,1,1,1.2,1.7c0.1,0.7,0.2,2,0.2,4v6.2h-3.6v-1.1c-0.2,0.4-0.5,0.8-0.9,1
					c-0.4,0.2-0.8,0.3-1.3,0.3c-0.7,0-1.3-0.2-1.8-0.6c-0.5-0.4-0.8-1.2-0.8-2.4v-1c0-0.9,0.1-1.5,0.4-1.9c0.3-0.3,1-0.7,2.2-1.2
					c1.2-0.5,1.9-0.8,2-1c0.1-0.2,0.1-0.5,0.1-1c0-0.6,0-1.1-0.1-1.3c-0.1-0.2-0.3-0.3-0.5-0.3c-0.3,0-0.4,0.1-0.5,0.2
					c-0.1,0.2-0.1,0.6-0.1,1.3V386.4z M412.3,388.1c-0.6,0.4-0.9,0.8-1,1.1c-0.1,0.3-0.1,0.7-0.1,1.3c0,0.6,0,1,0.1,1.2
					c0.1,0.2,0.2,0.3,0.5,0.3c0.2,0,0.4-0.1,0.5-0.2c0.1-0.1,0.1-0.5,0.1-1.1V388.1z"/>
				<path class="st17" d="M421.3,380v1.9h1v1.9h-1v6.6c0,0.8,0,1.3,0.1,1.4c0.1,0.1,0.4,0.1,1,0.1v2h-1.5c-0.9,0-1.5,0-1.8-0.1
					c-0.4-0.1-0.7-0.2-1-0.5c-0.3-0.3-0.5-0.5-0.5-0.9c-0.1-0.3-0.1-1.1-0.1-2.3v-6.3h-0.8v-1.9h0.8V380H421.3z"/>
				<path class="st17" d="M427,378.9v2h-3.9v-2H427z M427,381.6v12.3h-3.9v-12.3H427z"/>
				<path class="st17" d="M436,385.5h-3.3v-0.7c0-0.6,0-0.9-0.1-1.1c-0.1-0.2-0.2-0.2-0.5-0.2c-0.2,0-0.4,0.1-0.5,0.2
					c-0.1,0.1-0.2,0.3-0.2,0.6c0,0.4,0,0.7,0.1,0.8c0.1,0.2,0.2,0.4,0.5,0.6c0.3,0.2,0.8,0.5,1.6,0.9c1.1,0.5,1.8,1,2.1,1.5
					c0.3,0.5,0.5,1.2,0.5,2.1c0,1-0.1,1.8-0.4,2.3s-0.7,0.9-1.3,1.2c-0.6,0.3-1.3,0.4-2.2,0.4c-1,0-1.8-0.1-2.4-0.4
					c-0.7-0.3-1.1-0.7-1.4-1.2c-0.3-0.5-0.4-1.3-0.4-2.3v-0.6h3.3v0.8c0,0.7,0,1.1,0.1,1.3c0.1,0.2,0.2,0.3,0.5,0.3
					c0.3,0,0.5-0.1,0.6-0.2c0.1-0.1,0.2-0.4,0.2-0.8c0-0.6-0.1-1-0.2-1.1c-0.1-0.1-0.9-0.6-2.2-1.3c-1.1-0.6-1.8-1.2-2-1.7
					c-0.2-0.5-0.4-1.1-0.4-1.8c0-1,0.1-1.7,0.4-2.2c0.3-0.5,0.7-0.8,1.3-1.1c0.6-0.3,1.3-0.4,2.2-0.4c0.8,0,1.5,0.1,2.1,0.3
					c0.6,0.2,1,0.5,1.3,0.8c0.3,0.3,0.5,0.7,0.6,0.9c0.1,0.3,0.1,0.7,0.1,1.4V385.5z"/>
				<path class="st17" d="M308.5,401.7h2.9c1.9,0,3.2,0.1,3.8,0.3c0.7,0.2,1.2,0.5,1.5,0.9c0.3,0.4,0.6,0.8,0.6,1.3
					c0.1,0.5,0.1,1.4,0.1,2.9v5.3c0,1.3-0.1,2.2-0.2,2.7c-0.1,0.5-0.3,0.8-0.7,1.1c-0.3,0.3-0.7,0.4-1.2,0.5s-1.2,0.2-2.1,0.2h-4.9
					V401.7z M312.4,404.3v9.9c0.6,0,0.9-0.1,1-0.3c0.1-0.2,0.2-0.8,0.2-1.8v-5.8c0-0.7,0-1.1-0.1-1.3c0-0.2-0.1-0.3-0.3-0.4
					C313.1,404.3,312.9,404.3,312.4,404.3z"/>
				<path class="st17" d="M325.6,401.4l-4.4,15.6h-2.8l4.5-15.6H325.6z"/>
				<path class="st17" d="M335.4,401.7v10c0,1.1,0,1.9-0.1,2.4c-0.1,0.5-0.3,0.9-0.7,1.4c-0.4,0.5-0.8,0.9-1.4,1.1
					c-0.6,0.3-1.3,0.4-2.1,0.4c-0.9,0-1.7-0.1-2.4-0.4s-1.2-0.7-1.5-1.2c-0.3-0.5-0.5-1-0.6-1.5c-0.1-0.5-0.1-1.6-0.1-3.3v-8.9h3.9
					v11.3c0,0.7,0,1.1,0.1,1.3c0.1,0.2,0.2,0.3,0.4,0.3c0.2,0,0.4-0.1,0.5-0.3c0.1-0.2,0.1-0.7,0.1-1.4v-11.1H335.4z"/>
				<path class="st17" d="M344.8,401.7l-1.4,6.6l2.1,8.4h-3.6c-0.4-1.5-0.8-3.3-1.2-5.5c-0.1,1-0.2,2-0.4,3l-0.4,2.4h-3.8l1.4-8.4
					l-1.4-6.6h3.8c0.1,0.4,0.2,1.1,0.4,2.1c0.2,0.7,0.3,1.4,0.4,2l0.8-4.1H344.8z"/>
				<path class="st17" d="M350.6,409.3v2.6h-4.9v-2.6H350.6z"/>
				<path class="st17" d="M358.6,408.2c0.6,0.2,1,0.5,1.3,0.9s0.4,1.5,0.4,3.1c0,1.2-0.1,2.1-0.4,2.8c-0.3,0.7-0.7,1.2-1.4,1.5
					s-1.5,0.5-2.6,0.5c-1.2,0-2.1-0.2-2.8-0.6c-0.7-0.4-1.1-0.9-1.3-1.5c-0.2-0.6-0.3-1.6-0.3-3v-1.2h3.7v2.4c0,0.7,0,1.1,0.1,1.2
					c0.1,0.2,0.2,0.3,0.5,0.3c0.3,0,0.5-0.1,0.6-0.3s0.1-0.8,0.1-1.7v-1c0-0.6-0.1-1-0.2-1.3s-0.3-0.4-0.6-0.5
					c-0.3-0.1-0.7-0.1-1.5-0.1v-2.2c0.9,0,1.4,0,1.7-0.1c0.2-0.1,0.4-0.2,0.5-0.4c0.1-0.2,0.1-0.6,0.1-1.1V405c0-0.5-0.1-0.9-0.2-1
					c-0.1-0.2-0.3-0.3-0.5-0.3c-0.3,0-0.4,0.1-0.5,0.3c-0.1,0.2-0.1,0.6-0.1,1.1v1.2h-3.7v-1.3c0-1.4,0.3-2.4,1-2.9
					c0.7-0.5,1.7-0.8,3.1-0.8c1.8,0,3,0.3,3.6,1c0.6,0.7,1,1.7,1,2.9c0,0.8-0.1,1.4-0.3,1.8C359.6,407.5,359.2,407.9,358.6,408.2z"
					/>
				<path class="st17" d="M370.9,408.2H367v-2.6c0-0.8,0-1.2-0.1-1.4c-0.1-0.2-0.3-0.3-0.6-0.3c-0.3,0-0.5,0.1-0.6,0.3
					c-0.1,0.2-0.1,0.7-0.1,1.5v7c0,0.7,0,1.2,0.1,1.4c0.1,0.2,0.3,0.3,0.6,0.3c0.3,0,0.5-0.1,0.6-0.3c0.1-0.2,0.1-0.7,0.1-1.6v-1.9
					h3.9v0.6c0,1.6-0.1,2.7-0.3,3.3c-0.2,0.7-0.7,1.2-1.5,1.7c-0.8,0.5-1.7,0.7-2.8,0.7c-1.1,0-2.1-0.2-2.8-0.6s-1.2-1-1.5-1.7
					c-0.2-0.7-0.4-1.8-0.4-3.3V407c0-1.1,0-1.9,0.1-2.4c0.1-0.5,0.3-1.1,0.7-1.6c0.4-0.5,0.9-0.9,1.5-1.2c0.7-0.3,1.4-0.4,2.2-0.4
					c1.2,0,2.1,0.2,2.8,0.7c0.7,0.4,1.2,1,1.5,1.7c0.2,0.7,0.4,1.7,0.4,3.1V408.2z"/>
				<path class="st17" d="M380.2,401.7l-1.4,6.6l2.1,8.4h-3.6c-0.4-1.5-0.8-3.3-1.2-5.5c-0.1,1-0.2,2-0.4,3l-0.4,2.4h-3.8l1.4-8.4
					l-1.4-6.6h3.8c0.1,0.4,0.2,1.1,0.4,2.1c0.2,0.7,0.3,1.4,0.4,2l0.8-4.1H380.2z"/>
			</g>
			<g>
				<g>
					<path class="st17" d="M344.4,361.6L344.4,361.6c-42.4,0-76.8-34.4-76.8-76.8l0,0c0-42.4,34.4-76.8,76.8-76.8l0,0
						c42.4,0,76.8,34.4,76.8,76.8l0,0C421.2,327.2,386.8,361.6,344.4,361.6z"/>
				</g>
				<path class="st18" d="M421.2,284.8c0-2.8-0.3-5.8-0.6-8.6c-4.3,38.4-36.8,68.2-76.1,68.2s-72.1-29.8-76.1-68.2
					c-0.3,2.8-0.6,5.8-0.6,8.6c0,42.4,34.4,76.8,76.8,76.8S421.2,327.2,421.2,284.8z"/>
				<path class="st12" d="M267.6,284.5c0,8.9,1.5,17.5,4.3,25.5h144.7c2.8-8,4.3-16.6,4.3-25.5c0-7.4-1.2-14.7-3.1-21.5H270.7
					C268.8,269.8,267.6,276.8,267.6,284.5z"/>
				<g>
					<path class="st6" d="M272.7,272h5.8c3.7,0,6.1,0,7.6,0.6c1.2,0.3,2.4,0.9,3.1,1.8c0.6,0.6,0.9,1.8,1.2,2.8s0.3,2.8,0.3,5.8
						v10.1c0,2.8,0,4.3-0.3,5.5c-0.3,0.9-0.6,1.8-1.2,2.1s-1.2,0.9-2.4,0.9c-0.9,0.3-2.4,0.3-4,0.3h-10.1V272z M280.7,277.5v19.3
						c0.5,0,1.4-0.3,1.7-0.6c0.3-0.3,0.3-1.8,0.3-3.7v-11.7v-2.8c0-0.6-0.3-0.3-0.6-0.3C281.8,277.8,281.5,277.5,280.7,277.5z"/>
					<path class="st6" d="M306.7,272l-9,31h-5.6l9-31H306.7z"/>
					<path class="st6" d="M326.7,272v20c0,2.5,0,3.7-0.3,4.9c-0.3,0.9-0.6,1.8-1.3,2.8c-0.6,0.9-1.9,1.8-2.8,2.1
						c-0.9,0.3-2.8,0.6-4.1,0.6c-1.9,0-3.5-0.3-5.1-0.9c-1.3-0.6-2.5-1.2-3.2-2.5c-0.6-0.9-0.9-2.1-0.9-3.1c0-0.9-0.3-3.4-0.3-6.4
						V272h8v22.1c-0.5,1.2-0.5,2.1-0.2,2.5c0,0.3,0.3,0.6,0.6,0.6c0.3,0,0.6-0.3,0.9-0.6c0-0.3,0.3-1.2,0.7-2.8V273h7v-1H326.7z"/>
					<path class="st6" d="M344.7,272l-2.7,12.8l4,16.2h-7c-0.9-3.1-1.8-6.4-2.4-11c-0.3,2.1-0.3,3.7-0.6,6.1l-0.6,4.9h-7.6l2.7-16.2
						l-2.7-12.8h7.6c0,0.6,0.3,2.1,0.6,4c0.3,1.2,0.6,2.7,0.6,4l1.8-8.2C337.9,272,344.7,272,344.7,272z"/>
					<path class="st6" d="M355.7,287v5h-10v-5H355.7z"/>
					<path class="st6" d="M372,285.1c0.9,0.3,2.1,0.9,2.5,1.8c0.6,0.9,0.6,2.8,0.6,6.1c0,2.5-0.3,4-0.6,5.5
						c-0.3,1.2-1.2,2.5-2.8,3.1c-1.2,0.6-3.1,0.9-5.2,0.9c-2.5,0-4-0.3-5.5-0.9c-1.5-0.6-2.5-1.8-2.8-2.8c-0.3-0.9-0.6-3.1,0.4-5.8
						V291h7v4.6c-0.4,1.2-0.4,2.1-0.1,2.5c0,0.3,0.3,0.6,0.9,0.6c0.6,0,0.9-0.3,0.9-0.6c0.3-0.3,0.2-3.4,0.2-3.4v-2.3
						c0-0.9,0-2-0.3-2.3c-0.3-0.6-0.6-0.9-0.9-0.9s-1.1-0.3-2.9-0.3v-4.9c2,0,3,0,3.7-0.3c0.7-0.3,0.7-0.3,1-1
						c0.3-0.3,0.3-1,0.3-2.3v-1.7c0,0-0.6-1.8-0.9-2.1c-0.3-0.3-0.6-0.3-0.9-0.3c-0.6,0-0.9,0.3-0.9,0.6c-0.3,0.3-0.3,0.9-0.2,2.5
						v2.7h-8v-2.7c0.2-2.8,0.9-4.9,2.4-5.8s3.4-1.2,6.1-1.2c3.4,0,5.8,0.6,7.1,2.1c1.2,1.2,2.1,3.4,2.1,5.8c0,1.8-0.3,2.8-0.6,3.7
						C373.6,283.9,373,284.5,372,285.1z"/>
					<path class="st6" d="M396,285h-7.3v-5.2c0-1.2,0-2.5-0.3-2.8c0-0.3-0.7-0.6-1-0.6c-0.7,0-1,0.3-1.3,0.6
						c-0.3,0.3-0.3,1.2-0.3,3.1v14c0,0-0.1,2.5,0.2,2.8c0.3,0.3,0.6,0.6,0.9,0.6c0.6,0,0.9-0.3,0.9-0.6c0.3-0.3,0.3-1.2,0-3.1V290h8
						v0.9c0,3.1-0.3,5.3-0.6,6.6s-1.2,2.5-2.7,3.4c-1.2,0.9-3.4,1.2-5.5,1.2c-2.4,0-4-0.3-5.5-1.2c-1.2-0.6-2.4-2.2-3.1-3.4
						c-0.3-1.2-0.6-3.8-0.6-6.6v-8.8c0-2.2,0-3.8,0.3-5c0.3-1.2,0.6-2.2,1.2-3.1s1.8-1.9,3.1-2.5s2.7-0.6,4.3-0.6
						c2.4,0,4,0.3,5.5,1.2c1.2,0.9,2.4,2.2,3.1,3.4s0.6,3.4,0.6,6.2v3.1H396z"/>
					<path class="st6" d="M414.7,272l-2.7,13l3.9,16h-7.1c-0.9-3.1-1.8-6.4-2.4-11c-0.3,2.1-0.3,3.7-0.6,6.1l-0.6,4.9h-7.6l2.7-16.2
						l-2.7-12.8h7.6c0,0,0.3,2.7,0.6,4.6c0.3,1.2,0.6,2.8,0.6,4l1.8-8.5H414.7C414.7,272,414.7,272,414.7,272z"/>
				</g>

					<linearGradient id="SVGID_12_" gradientUnits="userSpaceOnUse" x1="228.3976" y1="816.114" x2="228.3976" y2="905.1491" gradientTransform="matrix(1 0 0 -1 116 1116)">
					<stop  offset="0" style="stop-color:#FFFFFF;stop-opacity:0"/>
					<stop  offset="1" style="stop-color:#FFFFFF"/>
				</linearGradient>
				<ellipse class="st19" cx="344.4" cy="255.4" rx="58" ry="44.5"/>
			</g>
		</g>
		<g id="NIGG">
			<g>
				<path class="st20" d="M493.5,385.4h-3.9v-2.6c0-0.8,0-1.2-0.1-1.4c-0.1-0.2-0.3-0.3-0.6-0.3c-0.3,0-0.5,0.1-0.6,0.3
					c-0.1,0.2-0.1,0.7-0.1,1.5v7c0,0.7,0,1.2,0.1,1.4c0.1,0.2,0.3,0.3,0.6,0.3c0.3,0,0.5-0.1,0.6-0.3s0.1-0.7,0.1-1.6v-1.9h3.9v0.6
					c0,1.6-0.1,2.7-0.3,3.3c-0.2,0.7-0.7,1.2-1.5,1.7c-0.8,0.5-1.7,0.7-2.8,0.7c-1.1,0-2.1-0.2-2.8-0.6s-1.2-1-1.5-1.7
					c-0.2-0.7-0.4-1.8-0.4-3.3v-4.4c0-1.1,0-1.9,0.1-2.4s0.3-1.1,0.7-1.6c0.4-0.5,0.9-0.9,1.5-1.2s1.4-0.4,2.2-0.4
					c1.2,0,2.1,0.2,2.8,0.7s1.2,1,1.5,1.7c0.2,0.7,0.4,1.7,0.4,3.1V385.4z"/>
				<path class="st20" d="M498.5,378.9v3.4c0.3-0.3,0.7-0.5,1-0.7s0.8-0.2,1.2-0.2c0.7,0,1.2,0.2,1.7,0.5s0.7,0.7,0.8,1.2
					c0.1,0.4,0.2,1.2,0.2,2.4v8.5h-3.7v-8.7c0-0.7,0-1.2-0.1-1.4c-0.1-0.2-0.2-0.3-0.5-0.3c-0.2,0-0.4,0.1-0.5,0.3
					c-0.1,0.2-0.1,0.6-0.1,1.3v8.8h-3.7v-15H498.5z"/>
				<path class="st20" d="M508.6,378.9v15h-3.9v-15H508.6z"/>
				<path class="st20" d="M513.3,386.4h-3.5v-0.8c0-1,0.1-1.7,0.3-2.2c0.2-0.5,0.7-1,1.3-1.4c0.7-0.4,1.5-0.6,2.6-0.6
					c1.3,0,2.2,0.2,2.9,0.7c0.6,0.4,1,1,1.2,1.7c0.1,0.7,0.2,2,0.2,4v6.2h-3.6v-1.1c-0.2,0.4-0.5,0.8-0.9,1
					c-0.4,0.2-0.8,0.3-1.3,0.3c-0.7,0-1.3-0.2-1.8-0.6c-0.5-0.4-0.8-1.2-0.8-2.4v-1c0-0.9,0.1-1.5,0.4-1.9s1-0.7,2.2-1.2
					c1.2-0.5,1.9-0.8,2-1c0.1-0.2,0.1-0.5,0.1-1c0-0.6,0-1.1-0.1-1.3c-0.1-0.2-0.3-0.3-0.5-0.3c-0.3,0-0.4,0.1-0.5,0.2
					c-0.1,0.2-0.1,0.6-0.1,1.3V386.4z M514.5,388.1c-0.6,0.4-0.9,0.8-1,1.1s-0.1,0.7-0.1,1.3c0,0.6,0,1,0.1,1.2
					c0.1,0.2,0.2,0.3,0.5,0.3c0.2,0,0.4-0.1,0.5-0.2c0.1-0.1,0.1-0.5,0.1-1.1V388.1z"/>
				<path class="st20" d="M523.2,381.6l-0.1,1.2c0.3-0.5,0.6-0.8,1-1c0.4-0.2,0.9-0.3,1.4-0.3c1,0,1.8,0.5,2.4,1.4
					c0.3-0.5,0.7-0.8,1.1-1c0.4-0.2,0.8-0.3,1.3-0.3c0.6,0,1.2,0.2,1.6,0.5c0.4,0.3,0.7,0.7,0.8,1.1c0.1,0.4,0.2,1.2,0.2,2.2v8.7
					h-3.6v-8c0-1.1,0-1.7-0.1-2c-0.1-0.2-0.2-0.4-0.5-0.4c-0.3,0-0.4,0.1-0.5,0.4c-0.1,0.2-0.1,0.9-0.1,2v8h-3.6v-7.8
					c0-1.2,0-1.9-0.1-2.2c-0.1-0.2-0.2-0.4-0.5-0.4c-0.2,0-0.3,0.1-0.4,0.2c-0.1,0.1-0.2,0.3-0.2,0.5c0,0.2,0,0.6,0,1.2v8.5h-3.6
					v-12.3H523.2z"/>
				<path class="st20" d="M542,381.6l-1.1,8.9c-0.2,1.4-0.3,2.4-0.4,2.9c-0.1,0.5-0.3,0.9-0.6,1.3c-0.3,0.3-0.6,0.6-1.1,0.7
					s-1.2,0.2-2.3,0.2h-2.3v-2c0.6,0,1,0,1.1-0.1c0.2-0.1,0.3-0.2,0.3-0.4c0-0.1-0.1-0.5-0.2-1.3l-2.1-10.3h3.4l1.2,8.3l0.6-8.3H542
					z"/>
				<path class="st20" d="M551.2,378.9v15h-3.7V393c-0.4,0.4-0.7,0.7-1.1,0.8c-0.4,0.2-0.8,0.3-1.2,0.3c-0.6,0-1.1-0.2-1.5-0.5
					c-0.4-0.3-0.7-0.7-0.8-1.1s-0.2-1.1-0.2-2v-5.8c0-0.9,0.1-1.6,0.2-2c0.1-0.4,0.4-0.7,0.8-1c0.4-0.3,0.9-0.5,1.5-0.5
					c0.5,0,0.9,0.1,1.3,0.3c0.4,0.2,0.7,0.4,1.1,0.8v-3.5H551.2z M547.5,384.7c0-0.5,0-0.8-0.1-0.9c-0.1-0.2-0.2-0.2-0.5-0.2
					c-0.2,0-0.4,0.1-0.4,0.2c-0.1,0.1-0.1,0.4-0.1,0.9v6c0,0.5,0,0.8,0.1,1c0.1,0.2,0.2,0.2,0.4,0.2c0.2,0,0.4-0.1,0.5-0.3
					c0.1-0.2,0.1-0.6,0.1-1.3V384.7z"/>
				<path class="st20" d="M556.4,378.9v2h-3.9v-2H556.4z M556.4,381.6v12.3h-3.9v-12.3H556.4z"/>
				<path class="st20" d="M561.1,386.4h-3.5v-0.8c0-1,0.1-1.7,0.3-2.2c0.2-0.5,0.7-1,1.3-1.4s1.5-0.6,2.6-0.6c1.3,0,2.2,0.2,2.9,0.7
					c0.6,0.4,1,1,1.2,1.7c0.1,0.7,0.2,2,0.2,4v6.2h-3.6v-1.1c-0.2,0.4-0.5,0.8-0.9,1c-0.4,0.2-0.8,0.3-1.3,0.3
					c-0.7,0-1.3-0.2-1.8-0.6c-0.5-0.4-0.8-1.2-0.8-2.4v-1c0-0.9,0.1-1.5,0.4-1.9c0.3-0.3,1-0.7,2.2-1.2c1.2-0.5,1.9-0.8,2-1
					c0.1-0.2,0.1-0.5,0.1-1c0-0.6,0-1.1-0.1-1.3c-0.1-0.2-0.3-0.3-0.5-0.3c-0.3,0-0.4,0.1-0.5,0.2c-0.1,0.2-0.1,0.6-0.1,1.3V386.4z
					 M562.3,388.1c-0.6,0.4-0.9,0.8-1,1.1c-0.1,0.3-0.1,0.7-0.1,1.3c0,0.6,0,1,0.1,1.2c0.1,0.2,0.2,0.3,0.5,0.3
					c0.2,0,0.4-0.1,0.5-0.2c0.1-0.1,0.1-0.5,0.1-1.1V388.1z"/>
				<path class="st20" d="M582.9,378.9v15h-3.4l0-10.1l-1.4,10.1h-2.4l-1.4-9.9l0,9.9h-3.4v-15h5.1c0.2,0.9,0.3,2,0.5,3.2l0.6,3.8
					l0.9-7H582.9z"/>
				<path class="st20" d="M592.9,381.6v12.3h-3.8l0.1-1c-0.3,0.4-0.6,0.7-1,0.9c-0.4,0.2-0.8,0.3-1.3,0.3c-0.6,0-1-0.1-1.4-0.3
					c-0.4-0.2-0.6-0.5-0.8-0.8s-0.3-0.7-0.3-1c0-0.4-0.1-1.1-0.1-2.1v-8.3h3.7v8.4c0,1,0,1.5,0.1,1.7c0.1,0.2,0.2,0.3,0.5,0.3
					c0.3,0,0.4-0.1,0.5-0.3s0.1-0.8,0.1-1.8v-8.3H592.9z"/>
				<path class="st20" d="M598,381.6l-0.1,1.6c0.5-1.2,1.3-1.8,2.4-1.8v4.3c-0.7,0-1.2,0.1-1.5,0.3c-0.3,0.2-0.5,0.4-0.6,0.8
					c-0.1,0.3-0.1,1.1-0.1,2.3v4.9h-3.7v-12.3H598z"/>
				<path class="st20" d="M604.9,378.9v2H601v-2H604.9z M604.9,381.6v12.3H601v-12.3H604.9z"/>
				<path class="st20" d="M614.8,378.9v15H611V393c-0.4,0.4-0.7,0.7-1.1,0.8s-0.8,0.3-1.2,0.3c-0.6,0-1.1-0.2-1.5-0.5
					c-0.4-0.3-0.7-0.7-0.8-1.1c-0.1-0.4-0.2-1.1-0.2-2v-5.8c0-0.9,0.1-1.6,0.2-2c0.1-0.4,0.4-0.7,0.8-1c0.4-0.3,0.9-0.5,1.5-0.5
					c0.5,0,0.9,0.1,1.3,0.3c0.4,0.2,0.7,0.4,1.1,0.8v-3.5H614.8z M611,384.7c0-0.5,0-0.8-0.1-0.9c-0.1-0.2-0.2-0.2-0.5-0.2
					c-0.2,0-0.4,0.1-0.5,0.2c-0.1,0.1-0.1,0.4-0.1,0.9v6c0,0.5,0,0.8,0.1,1c0.1,0.2,0.2,0.2,0.4,0.2c0.2,0,0.4-0.1,0.5-0.3
					s0.1-0.6,0.1-1.3V384.7z"/>
				<path class="st20" d="M619.5,386.4h-3.5v-0.8c0-1,0.1-1.7,0.3-2.2c0.2-0.5,0.7-1,1.3-1.4c0.7-0.4,1.5-0.6,2.6-0.6
					c1.3,0,2.2,0.2,2.9,0.7c0.6,0.4,1,1,1.2,1.7c0.1,0.7,0.2,2,0.2,4v6.2h-3.6v-1.1c-0.2,0.4-0.5,0.8-0.9,1
					c-0.4,0.2-0.8,0.3-1.3,0.3c-0.7,0-1.3-0.2-1.8-0.6c-0.5-0.4-0.8-1.2-0.8-2.4v-1c0-0.9,0.1-1.5,0.4-1.9c0.3-0.3,1-0.7,2.2-1.2
					c1.2-0.5,1.9-0.8,2-1c0.1-0.2,0.1-0.5,0.1-1c0-0.6,0-1.1-0.1-1.3c-0.1-0.2-0.3-0.3-0.5-0.3c-0.3,0-0.4,0.1-0.5,0.2
					c-0.1,0.2-0.1,0.6-0.1,1.3V386.4z M620.7,388.1c-0.6,0.4-0.9,0.8-1,1.1s-0.1,0.7-0.1,1.3c0,0.6,0,1,0.1,1.2
					c0.1,0.2,0.2,0.3,0.5,0.3c0.2,0,0.4-0.1,0.5-0.2c0.1-0.1,0.1-0.5,0.1-1.1V388.1z"/>
				<path class="st20" d="M629.4,381.6l-0.1,1.6c0.5-1.2,1.3-1.8,2.4-1.8v4.3c-0.7,0-1.2,0.1-1.5,0.3c-0.3,0.2-0.5,0.4-0.6,0.8
					c-0.1,0.3-0.1,1.1-0.1,2.3v4.9h-3.7v-12.3H629.4z"/>
				<path class="st20" d="M641.1,381.6v12.3h-3.8l0.1-1c-0.3,0.4-0.6,0.7-1,0.9c-0.4,0.2-0.8,0.3-1.3,0.3c-0.6,0-1-0.1-1.4-0.3
					c-0.4-0.2-0.6-0.5-0.8-0.8c-0.2-0.3-0.3-0.7-0.3-1s-0.1-1.1-0.1-2.1v-8.3h3.7v8.4c0,1,0,1.5,0.1,1.7s0.2,0.3,0.5,0.3
					c0.3,0,0.4-0.1,0.5-0.3s0.1-0.8,0.1-1.8v-8.3H641.1z"/>
				<path class="st20" d="M646.1,381.6l-0.1,1.2c0.3-0.5,0.6-0.8,1-1s0.9-0.3,1.4-0.3c1,0,1.8,0.5,2.4,1.4c0.3-0.5,0.7-0.8,1.1-1
					s0.8-0.3,1.3-0.3c0.6,0,1.2,0.2,1.6,0.5c0.4,0.3,0.7,0.7,0.8,1.1c0.1,0.4,0.2,1.2,0.2,2.2v8.7h-3.6v-8c0-1.1,0-1.7-0.1-2
					s-0.2-0.4-0.5-0.4c-0.3,0-0.4,0.1-0.5,0.4c-0.1,0.2-0.1,0.9-0.1,2v8h-3.6v-7.8c0-1.2,0-1.9-0.1-2.2s-0.2-0.4-0.5-0.4
					c-0.2,0-0.3,0.1-0.4,0.2s-0.2,0.3-0.2,0.5c0,0.2,0,0.6,0,1.2v8.5h-3.6v-12.3H646.1z"/>
				<path class="st20" d="M561.9,401.7v15h-3.4l-2-6.8v6.8h-3.3v-15h3.3l2.2,6.8v-6.8H561.9z"/>
				<path class="st20" d="M567.2,401.7v2h-3.9v-2H567.2z M567.2,404.4v12.3h-3.9v-12.3H567.2z"/>
				<path class="st20" d="M577.1,404.4v9.5c0,1.3,0,2.1-0.1,2.5c-0.1,0.4-0.3,0.8-0.6,1.2s-0.9,0.7-1.5,1c-0.6,0.2-1.4,0.3-2.4,0.3
					c-1.2,0-2.2-0.2-2.9-0.6c-0.7-0.4-1.1-1.2-1.1-2.4h3.6c0,0.5,0.2,0.8,0.6,0.8c0.3,0,0.5-0.1,0.6-0.3c0.1-0.2,0.1-0.5,0.1-1v-0.9
					c-0.3,0.3-0.7,0.5-1,0.7c-0.4,0.1-0.7,0.2-1.1,0.2c-0.7,0-1.2-0.1-1.7-0.4c-0.4-0.3-0.7-0.6-0.9-1.1c-0.2-0.4-0.2-1.1-0.2-1.9
					v-4.5c0-1.2,0.2-2,0.6-2.5c0.4-0.5,1.1-0.8,1.9-0.8c0.5,0,0.9,0.1,1.3,0.3s0.7,0.5,1,0.9l0.3-0.9H577.1z M573.3,407.7
					c0-0.6,0-0.9-0.1-1.1c-0.1-0.2-0.2-0.2-0.4-0.2c-0.2,0-0.4,0.1-0.5,0.3c-0.1,0.2-0.1,0.5-0.1,1v4.1c0,0.6,0,0.9,0.1,1.1
					s0.2,0.2,0.4,0.2c0.2,0,0.4-0.1,0.5-0.3c0.1-0.2,0.1-0.6,0.1-1.3V407.7z"/>
				<path class="st20" d="M586.9,404.4v9.5c0,1.3,0,2.1-0.1,2.5c-0.1,0.4-0.3,0.8-0.6,1.2c-0.4,0.4-0.9,0.7-1.5,1
					c-0.6,0.2-1.4,0.3-2.4,0.3c-1.2,0-2.2-0.2-2.9-0.6c-0.7-0.4-1.1-1.2-1.1-2.4h3.6c0,0.5,0.2,0.8,0.6,0.8c0.3,0,0.5-0.1,0.6-0.3
					c0.1-0.2,0.1-0.5,0.1-1v-0.9c-0.3,0.3-0.7,0.5-1,0.7c-0.4,0.1-0.7,0.2-1.1,0.2c-0.7,0-1.2-0.1-1.7-0.4c-0.4-0.3-0.7-0.6-0.9-1.1
					c-0.2-0.4-0.2-1.1-0.2-1.9v-4.5c0-1.2,0.2-2,0.6-2.5c0.4-0.5,1.1-0.8,1.9-0.8c0.5,0,0.9,0.1,1.3,0.3c0.4,0.2,0.7,0.5,1,0.9
					l0.3-0.9H586.9z M583.2,407.7c0-0.6,0-0.9-0.1-1.1s-0.2-0.2-0.4-0.2c-0.2,0-0.4,0.1-0.5,0.3c-0.1,0.2-0.1,0.5-0.1,1v4.1
					c0,0.6,0,0.9,0.1,1.1c0.1,0.2,0.2,0.2,0.4,0.2c0.2,0,0.4-0.1,0.5-0.3c0.1-0.2,0.1-0.6,0.1-1.3V407.7z"/>
			</g>
			<g>
				<path class="st20" d="M642.4,274.8l-10.7-10.7c-6-21.1-22.7-37.8-43.7-43.7l-11.6-11.6c-3.5-3.5-9.1-3.5-12.6,0l-12,12
					c-19.8,6.3-35.6,21.7-41.8,41.8l-12.3,12.3c-3.5,3.5-3.5,9.1,0,12.6l12,12c6,20.4,22.3,36.8,42.8,42.8l11.3,11.3
					c3.5,3.5,9.1,3.5,12.6,0l10.7-10.7c22-6,39-23,45-45l10.4-10.4C645.8,283.9,645.8,278.2,642.4,274.8z"/>
				<path class="st12" d="M510.1,262l-12.2,12.2c-3.5,3.5-3.5,9.1,0,12.6l11.9,11.9c0.6,2.5,1.6,4.7,2.5,7.2h116.2
					c1.3-2.8,2.2-5.7,3.1-8.8l10.7-10.4c3.5-3.5,3.5-9.1,0-12.6l-10.7-10.7c-1.3-4.1-2.8-8.2-4.7-11.6H514.1
					C512.6,255.1,511.3,258.6,510.1,262z"/>
				<g>
					<path class="st6" d="M552.9,263v30h-6.7l-4.3-13.6V293h-7v-30h6.3l4.7,13.6V263C545.9,263,552.9,263,552.9,263z"/>
					<path class="st6" d="M563.9,263v30h-8v-30H563.9z"/>
					<path class="st6" d="M585.2,275h-8.3v-3.4c0.1-1.6,0.1-2.8-0.3-3.1s-0.6-0.6-0.9-0.6c-0.6,0-0.9,0.3-0.9,0.6s-0.9,2.8-0.9,2.8
						v14.4c0,1.3,0,2.3,0.3,2.7c0.3,0.3,0.7,0.7,1,0.7c0.7,0,1-0.3,1.3-0.7c0.3-0.3,0.3-1.3,0.3-3V282h-1v-4h9v16h-4.8l-0.6-2.2
						c-0.6,0.9-1.3,1.6-1.9,2.2c-0.6,0.6-1.9,0.6-2.9,0.6c-1.3,0-2.6-0.3-3.9-0.9c-1.3-0.6-1.9-1.6-2.6-2.2c-0.6-0.9-1-1.9-1.3-2.8
						c-0.3-0.9,0-3.1,0-5.3v-8.7c0-2.8,0-5,0.3-6.2c0.3-1.2,1.3-2.5,2.6-3.4c1.3-0.9,3.5-1.6,5.8-1.6s4.2,0.3,5.8,1.2
						c1.6,0.9,2.6,1.9,2.9,3.4s0.6,3.1,0.6,5.6v1.2H585.2z"/>
					<path class="st6" d="M605.5,275h-7.6v-3.4c-0.2-1.6-0.2-2.8-0.5-3.1c-0.3-0.3-0.6-0.6-0.9-0.6c-0.6,0-0.9,0.3-0.9,0.6
						s-0.6,2.8-0.6,2.8v14.4c0,1.3,0,2.3,0.3,2.7c0.3,0.3,0.7,0.7,1,0.7c0.7,0,1-0.3,1.3-0.7c0.3-0.3,0.3-1.3,0.3-3V282h-2v-4h10v16
						h-5.5l-0.6-2.2c-0.6,0.9-1.3,1.6-1.9,2.2c-0.6,0.6-1.9,0.6-2.9,0.6c-1.3,0-2.6-0.3-3.9-0.9c-1.3-0.6-1.9-1.6-2.6-2.2
						c-0.6-0.9-1-1.9-1.3-2.8s-0.3-2.5-0.3-4.7v-8.7c0-2.8,0-5,0.3-6.2s1.3-2.5,2.6-3.4c1.3-0.9,3.5-1.6,5.8-1.6s4.2,0.3,5.8,1.2
						c1.6,0.9,2.6,1.9,2.9,3.4s0.6,3.1,0.6,5.6v0.6H605.5z"/>
				</g>

					<linearGradient id="SVGID_13_" gradientUnits="userSpaceOnUse" x1="454.9695" y1="833.099" x2="454.9695" y2="893.1592" gradientTransform="matrix(1 0 0 -1 116 1116)">
					<stop  offset="0" style="stop-color:#FFFFFF;stop-opacity:0"/>
					<stop  offset="1" style="stop-color:#FFFFFF"/>
				</linearGradient>
				<ellipse class="st21" cx="571" cy="252.7" rx="48.1" ry="29.9"/>
			</g>
		</g>
	</g>
</g>
</svg>
