<?xml version="1.0" encoding="utf-8"?>
<!-- Generator: Adobe Illustrator 22.1.0, SVG Export Plug-In . SVG Version: 6.00 Build 0)  -->
<svg version="1.1" id="Layer_1" xmlns="http://www.w3.org/2000/svg" xmlns:xlink="http://www.w3.org/1999/xlink" x="0px" y="0px"
	 viewBox="0 0 599 599" style="enable-background:new 0 0 599 599;" xml:space="preserve">
<style type="text/css">
	.st0{fill:#FFFFFF;}
	.st1{fill:url(#SVGID_1_);}
	.st2{fill:#3B4ACC;}
</style>
<g>
	<g>
		<path class="st0" d="M105.9,444.4H72.7v22.9h32v13.5h-32V526H58.4v-95.1h47.5V444.4z"/>
		<path class="st0" d="M118,441c0-2.4,0.9-4.5,2.6-6.3c1.8-1.8,3.9-2.6,6.3-2.6c2.5,0,4.6,0.9,6.4,2.6c1.8,1.7,2.6,3.8,2.6,6.3
			c0,2.5-0.9,4.6-2.6,6.4c-1.7,1.8-3.8,2.6-6.3,2.6c-2.5,0-4.6-0.9-6.4-2.6C118.9,445.8,118,443.6,118,441z M134,466v60h-13.9v-60
			H134z"/>
		<path class="st0" d="M186.4,476.2l-11.5,6.1c-1.8-3.7-4-5.5-6.7-5.5c-1.3,0-2.4,0.4-3.3,1.3c-0.9,0.8-1.4,1.9-1.4,3.2
			c0,2.3,2.7,4.6,8,6.8c7.4,3.2,12.3,6.1,14.8,8.7c2.5,2.7,3.8,6.3,3.8,10.8c0,5.8-2.1,10.6-6.4,14.5c-4.1,3.7-9.2,5.5-15,5.5
			c-10.1,0-17.2-4.9-21.4-14.7l11.8-5.5c1.6,2.9,2.9,4.7,3.8,5.5c1.7,1.6,3.7,2.3,6,2.3c4.7,0,7-2.1,7-6.4c0-2.5-1.8-4.8-5.4-6.9
			c-1.4-0.7-2.8-1.4-4.2-2c-1.4-0.7-2.8-1.3-4.3-2c-4-2-6.9-3.9-8.5-5.9c-2.1-2.5-3.1-5.7-3.1-9.7c0-5.2,1.8-9.5,5.4-12.9
			c3.7-3.4,8.1-5.1,13.3-5.1C176.9,464.3,182.6,468.3,186.4,476.2z"/>
		<path class="st0" d="M202.7,421.9h13.9v49c4.9-4.4,10.4-6.7,16.3-6.7c6.8,0,12.2,2.2,16.3,6.6c3.4,3.8,5.2,9.9,5.2,18.3V526h-13.9
			v-35.5c0-4.8-0.9-8.3-2.6-10.4c-1.7-2.2-4.4-3.2-8.2-3.2c-4.8,0-8.3,1.5-10.2,4.5c-1.9,3-2.9,8.3-2.9,15.6v29h-13.9V421.9z"/>
		<path class="st0" d="M274.5,526v-95.1h14.3c6.4,0,11.4,0.5,15.2,1.5c3.8,1,7,2.6,9.7,5c2.7,2.4,4.8,5.4,6.3,9.1
			c1.6,3.7,2.4,7.4,2.4,11.1c0,6.8-2.6,12.6-7.8,17.3c5.1,1.7,9,4.7,12,9.1c3,4.3,4.4,9.2,4.4,14.9c0,7.4-2.6,13.7-7.9,18.9
			c-3.2,3.2-6.7,5.4-10.7,6.6c-4.3,1.2-9.7,1.8-16.2,1.8H274.5z M288.9,471.7h4.5c5.3,0,9.3-1.2,11.7-3.5c2.5-2.4,3.7-5.8,3.7-10.4
			c0-4.5-1.3-7.9-3.8-10.2c-2.5-2.3-6.2-3.5-11.1-3.5h-5.1V471.7z M288.9,512.5h8.9c6.5,0,11.3-1.3,14.3-3.8
			c3.2-2.8,4.8-6.2,4.8-10.5c0-4.1-1.5-7.6-4.6-10.3c-3-2.8-8.4-4.1-16.1-4.1h-7.3V512.5z"/>
		<path class="st0" d="M390.7,466h13.9v60h-13.9v-6.3c-5.7,5.3-11.8,8-18.4,8c-8.3,0-15.2-3-20.6-9c-5.4-6.1-8.1-13.8-8.1-22.9
			c0-9,2.7-16.5,8.1-22.5c5.4-6,12.1-9,20.2-9c7,0,13.2,2.9,18.8,8.6V466z M357.8,495.8c0,5.8,1.5,10.4,4.6,14
			c3.2,3.7,7.1,5.5,12,5.5c5.1,0,9.3-1.8,12.4-5.3c3.2-3.7,4.7-8.3,4.7-13.9c0-5.6-1.6-10.3-4.7-13.9c-3.2-3.6-7.3-5.4-12.3-5.4
			c-4.8,0-8.7,1.8-12,5.4C359.4,485.9,357.8,490.4,357.8,495.8z"/>
		<path class="st0" d="M457,476.2l-11.5,6.1c-1.8-3.7-4-5.5-6.7-5.5c-1.3,0-2.4,0.4-3.3,1.3c-0.9,0.8-1.4,1.9-1.4,3.2
			c0,2.3,2.7,4.6,8,6.8c7.4,3.2,12.3,6.1,14.8,8.7c2.5,2.7,3.8,6.3,3.8,10.8c0,5.8-2.1,10.6-6.4,14.5c-4.1,3.7-9.2,5.5-15,5.5
			c-10.1,0-17.2-4.9-21.4-14.7l11.8-5.5c1.6,2.9,2.9,4.7,3.8,5.5c1.7,1.6,3.7,2.3,6,2.3c4.7,0,7-2.1,7-6.4c0-2.5-1.8-4.8-5.4-6.9
			c-1.4-0.7-2.8-1.4-4.2-2c-1.4-0.7-2.8-1.3-4.3-2c-4-2-6.9-3.9-8.5-5.9c-2.1-2.5-3.1-5.7-3.1-9.7c0-5.2,1.8-9.5,5.4-12.9
			c3.7-3.4,8.1-5.1,13.3-5.1C447.6,464.3,453.3,468.3,457,476.2z"/>
		<path class="st0" d="M528,499.3h-43c0.4,4.9,2,8.9,4.8,11.8c2.8,2.9,6.5,4.3,10.9,4.3c3.4,0,6.3-0.8,8.6-2.5
			c2.2-1.6,4.7-4.7,7.6-9.1l11.7,6.5c-1.8,3.1-3.7,5.7-5.7,7.9c-2,2.2-4.2,4-6.5,5.4c-2.3,1.4-4.8,2.5-7.5,3.1c-2.7,0.7-5.6,1-8.7,1
			c-9,0-16.1-2.9-21.6-8.6c-5.4-5.8-8.1-13.5-8.1-23c0-9.5,2.6-17.2,7.9-23c5.3-5.8,12.3-8.7,21.1-8.7c8.8,0,15.8,2.8,20.9,8.4
			c5.1,5.6,7.6,13.3,7.6,23.2L528,499.3z M513.8,487.9c-1.9-7.4-6.6-11.1-14-11.1c-1.7,0-3.3,0.3-4.7,0.8c-1.5,0.5-2.8,1.3-4,2.2
			c-1.2,1-2.2,2.1-3.1,3.5c-0.9,1.4-1.5,2.9-2,4.6H513.8z"/>
	</g>
	<g>
		<g>
			<path class="st0" d="M289.9,404.9V64.1h54c22.5,0,40.8,1.8,54.2,5.3C412,73,424,79.2,433.6,87.7c9.7,8.9,17.5,20,23.2,33.1
				c5.8,13.2,8.7,26.8,8.7,40.4c0,22.8-8.1,42.7-24.1,59.1c15.6,6.6,28.3,16.9,37.8,30.9c10.7,15.5,16.2,33.8,16.2,54.4
				c0,27-9.7,50.2-28.8,68.8c-11.4,11.4-24.5,19.5-38.9,24h-0.1c-15.4,4.2-34.8,6.4-57.8,6.4h-79.9L289.9,404.9L289.9,404.9z
				 M375.2,349.7c21.6,0,37.6-4.2,47.4-12.4c10.3-8.9,15.4-19.9,15.4-33.6c0-13.3-4.9-24.2-14.9-33.2c-9.7-8.9-27.7-13.4-53.6-13.4
				h-21.4v92.7h27.1V349.7z M359.9,207c17.5,0,30.4-3.8,38.3-11.3c7.8-7.4,11.8-18.8,11.8-33.6c0-14.4-4.1-25.4-12.1-32.7
				c-8.1-7.4-20.3-11.1-36.1-11.1h-13.7v88.8L359.9,207L359.9,207z"/>
			
				<linearGradient id="SVGID_1_" gradientUnits="userSpaceOnUse" x1="392.6822" y1="198.812" x2="392.6822" y2="531.912" gradientTransform="matrix(1 0 0 -1 0 600)">
				<stop  offset="0" style="stop-color:#3B4ACC"/>
				<stop  offset="1" style="stop-color:#1FDFFF"/>
			</linearGradient>
			<path class="st1" d="M293.9,400.9V68.1h50c22.3,0,40,1.7,53.2,5.2c13.4,3.4,24.6,9.3,33.8,17.5c9.3,8.5,16.7,19,22.2,31.7
				c5.6,12.8,8.4,25.7,8.4,38.8c0,23.9-9.1,44-27.4,60.6c17.7,6,31.6,16.6,41.8,31.7c10.3,14.9,15.5,32.3,15.5,52.2
				c0,26-9.2,48-27.6,66c-11.1,11.1-23.5,18.8-37.3,23.1c-15.1,4.2-34,6.3-56.7,6.3h-75.9L293.9,400.9L293.9,400.9z M344.2,211h15.7
				c18.7,0,32.4-4.1,41.1-12.4c8.7-8.3,13-20.4,13-36.5c0-15.7-4.5-27.6-13.4-35.7s-21.8-12.2-38.8-12.2h-17.7L344.2,211L344.2,211z
				 M344.2,353.7h31c22.7,0,39.4-4.5,50-13.4c11.2-9.6,16.8-21.8,16.8-36.6c0-14.4-5.4-26.4-16.2-36.2
				c-10.5-9.6-29.2-14.4-56.3-14.4h-25.4v100.6H344.2z"/>
		</g>
		<g>
			<g>
				<path d="M289.7,137.3c0,0-95.5-20.6-116.1,0c-30.6,30.6-31.6,102.5-1,133.1c19.9,19.9,117,17.7,117,17.7v47.5H173.1l33.3,66.6
					h-50.5c0,0-139.2-220.5-8.2-309.4C200.3,57,289.7,67.5,289.7,67.5V137.3z"/>
			</g>
			<g>
				<path class="st0" d="M153.7,406.2l-1.2-1.9c-0.4-0.6-35.3-56.4-53.7-122.4c-10.9-39-13.9-74-9.1-103.9
					c6.1-37.8,24.9-67.6,55.7-88.5c18.4-12.5,53.2-27.4,114.1-27.4c18.1,0,30.2,1.4,30.7,1.5l3.5,0.4v78.4l-4.8-1
					c-0.4-0.1-42.4-9.1-76-9.1c-23.5,0-32.8,4.3-36.4,8c-13.7,13.7-22,37.5-22.3,63.8c-0.3,26.3,7.7,50.1,21.3,63.7
					c4.3,4.3,16.3,10.3,48.8,13.8c21.9,2.4,45,2.8,56.7,2.8c5.3,0,8.6-0.1,8.6-0.1l4.1-0.1v55.6h-114l33.3,66.6H153.7z"/>
			</g>
			<g>
				<path class="st2" d="M289.7,137.3c0,0-95.5-20.6-116.1,0c-30.6,30.6-31.6,102.5-1,133.1c19.9,19.9,117,17.7,117,17.7v47.5H173.1
					l33.3,66.6h-50.5c0,0-139.2-220.5-8.2-309.4C200.3,57,289.7,67.5,289.7,67.5V137.3z"/>
			</g>
		</g>
		<g>
			<circle class="st0" cx="228.4" cy="204.8" r="104.1"/>
			<g>
				<path class="st2" d="M172.9,189.7c-12.6,0-22.9-10.3-22.9-22.9c0-12.6,10.3-22.9,22.9-22.9c12.6,0,22.9,10.2,22.9,22.9
					C195.8,179.5,185.5,189.7,172.9,189.7z M172.9,147.4c-10.7,0-19.4,8.7-19.4,19.4c0,10.7,8.7,19.4,19.4,19.4
					c10.7,0,19.4-8.7,19.4-19.4C192.3,156.1,183.6,147.4,172.9,147.4z"/>
			</g>
			<g>
				<path class="st2" d="M172.9,267.2c-12.6,0-22.9-10.3-22.9-22.9s10.3-22.9,22.9-22.9c12.6,0,22.9,10.3,22.9,22.9
					S185.5,267.2,172.9,267.2z M172.9,224.9c-10.7,0-19.4,8.7-19.4,19.4c0,10.7,8.7,19.4,19.4,19.4c10.7,0,19.4-8.7,19.4-19.4
					C192.3,233.6,183.6,224.9,172.9,224.9z"/>
			</g>
			<g>
				<path class="st2" d="M283,269.5c-12.6,0-22.9-10.3-22.9-22.9c0-12.6,10.3-22.9,22.9-22.9s22.9,10.3,22.9,22.9
					C305.9,259.3,295.6,269.5,283,269.5z M283,227.2c-10.7,0-19.4,8.7-19.4,19.4c0,10.7,8.7,19.4,19.4,19.4
					c10.7,0,19.4-8.7,19.4-19.4C302.4,235.9,293.6,227.2,283,227.2z"/>
			</g>
			<g>
				<path class="st2" d="M228.4,159.4c-12.6,0-22.9-10.3-22.9-22.9s10.3-22.9,22.9-22.9c12.6,0,22.9,10.3,22.9,22.9
					S241.1,159.4,228.4,159.4z M228.4,117.1c-10.7,0-19.4,8.7-19.4,19.4s8.7,19.4,19.4,19.4c10.7,0,19.4-8.7,19.4-19.4
					S239.1,117.1,228.4,117.1z"/>
			</g>
			
				<ellipse transform="matrix(0.4641 -0.8858 0.8858 0.4641 -132.07 346.0115)" class="st2" cx="219.9" cy="282.2" rx="13" ry="13"/>
			<circle class="st2" cx="228.4" cy="233.7" r="13"/>
			<circle class="st2" cx="283" cy="166.8" r="13"/>
		</g>
	</g>
</g>
</svg>
