<?xml version="1.0" encoding="utf-8"?>
<!-- Generator: Adobe Illustrator 22.1.0, SVG Export Plug-In . SVG Version: 6.00 Build 0)  -->
<svg version="1.1" id="Layer_1" xmlns="http://www.w3.org/2000/svg" xmlns:xlink="http://www.w3.org/1999/xlink" x="0px" y="0px"
	 viewBox="0 0 100 100" style="enable-background:new 0 0 100 100;" xml:space="preserve">
<style type="text/css">
	.st0{fill:url(#SVGID_1_);}
	.st1{fill:url(#SVGID_2_);}
	.st2{fill:url(#SVGID_3_);}
	.st3{fill:url(#SVGID_4_);}
	.st4{fill:url(#SVGID_5_);}
</style>
<g>
	<linearGradient id="SVGID_1_" gradientUnits="userSpaceOnUse" x1="41.5938" y1="85" x2="41.5938" y2="71.125">
		<stop  offset="0" style="stop-color:#E80C85"/>
		<stop  offset="1" style="stop-color:#66338A"/>
	</linearGradient>
	<polygon class="st0" points="48.5,76.5 43.2,76.5 43.2,71.1 40,71.1 40,76.5 34.7,76.5 34.7,79.7 40,79.7 40,85 43.2,85 43.2,79.7 
		48.5,79.7 	"/>
</g>
<g>
	<linearGradient id="SVGID_2_" gradientUnits="userSpaceOnUse" x1="60.6719" y1="87.3125" x2="60.6719" y2="79.2188">
		<stop  offset="0" style="stop-color:#E80C85"/>
		<stop  offset="1" style="stop-color:#66338A"/>
	</linearGradient>
	<polygon class="st1" points="64.7,82.3 61.6,82.3 61.6,79.2 59.7,79.2 59.7,82.3 56.6,82.3 56.6,84.2 59.7,84.2 59.7,87.3 
		61.6,87.3 61.6,84.2 64.7,84.2 	"/>
</g>
<g>
	<linearGradient id="SVGID_3_" gradientUnits="userSpaceOnUse" x1="54.8906" y1="71.125" x2="54.8906" y2="51.4688">
		<stop  offset="0" style="stop-color:#E80C85"/>
		<stop  offset="1" style="stop-color:#66338A"/>
	</linearGradient>
	<polygon class="st2" points="64.7,59 57.2,59 57.2,51.5 52.6,51.5 52.6,59 45.1,59 45.1,63.6 52.6,63.6 52.6,71.1 57.2,71.1 
		57.2,63.6 64.7,63.6 	"/>
</g>
<g>
	<linearGradient id="SVGID_4_" gradientUnits="userSpaceOnUse" x1="28.875" y1="54.9375" x2="28.875" y2="27.1875">
		<stop  offset="0" style="stop-color:#E80C85"/>
		<stop  offset="1" style="stop-color:#66338A"/>
	</linearGradient>
	<polygon class="st3" points="42.8,37.9 32.1,37.9 32.1,27.2 25.7,27.2 25.7,37.9 15,37.9 15,44.3 25.7,44.3 25.7,54.9 32.1,54.9 
		32.1,44.3 42.8,44.3 	"/>
</g>
<g>
	<linearGradient id="SVGID_5_" gradientUnits="userSpaceOnUse" x1="68.7656" y1="51.4688" x2="68.7656" y2="11">
		<stop  offset="0" style="stop-color:#E80C85"/>
		<stop  offset="1" style="stop-color:#66338A"/>
	</linearGradient>
	<polygon class="st4" points="89,26.6 73.4,26.6 73.4,11 64.1,11 64.1,26.6 48.5,26.6 48.5,35.9 64.1,35.9 64.1,51.5 73.4,51.5 
		73.4,35.9 89,35.9 	"/>
</g>
</svg>
