<?xml version="1.0" encoding="utf-8"?>
<!-- Generator: Adobe Illustrator 22.1.0, SVG Export Plug-In . SVG Version: 6.00 Build 0)  -->
<svg version="1.1" id="Layer_1" xmlns="http://www.w3.org/2000/svg" xmlns:xlink="http://www.w3.org/1999/xlink" x="0px" y="0px"
	 viewBox="0 0 25 25" style="enable-background:new 0 0 25 25;" xml:space="preserve">
<style type="text/css">
	.st0{fill:url(#SVGID_1_);}
	.st1{fill:#FEFEFE;}
	.st2{fill:#DBDBDB;}
	.st3{fill:#984FCB;}
	.st4{fill:#FD7C01;}
</style>
<linearGradient id="SVGID_1_" gradientUnits="userSpaceOnUse" x1="12.5" y1="25" x2="12.5" y2="-9.094947e-13">
	<stop  offset="0" style="stop-color:#B602F6"/>
	<stop  offset="1" style="stop-color:#5201A0"/>
</linearGradient>
<rect class="st0" width="25" height="25"/>
<g>
	<g id="E3WAaa.tif">
		<g>
			<path class="st1" d="M10.9,0.1c1.2,0,2.4,0,3.5,0c0,0.2,0,0.4,0,0.6c0,1.8,0,3.6,0,5.4c0,0,0,0,0,0.1c0,0,0.1,0,0.1-0.1
				c1-1,2-1.9,2.9-2.9c0.6-0.6,1.4-0.7,2.1-0.1c1.2,0.9,1.3,2.1,0.2,3.2c-1.4,1.4-2.7,2.8-4.1,4.1c-0.6,0.5-1.1,1.1-1.7,1.7
				c-0.4,0.3-0.7,0.7-1,1c-0.2,0.3-0.4,0.2-0.6,0c-0.3-0.3-0.7-0.6-1-0.9c-0.6-0.5-1.1-1.1-1.7-1.6c-0.7-0.7-1.3-1.3-2-2
				C6.8,7.7,6,6.9,5.2,6.1C4.6,5.5,4.5,4.8,4.9,4.2c0.7-1.2,2.2-1.4,3.3-0.4c0.9,0.8,1.8,1.7,2.7,2.6C10.9,4.2,10.9,2.1,10.9,0.1z
				 M15.8,9.6c-2.1,0.8-4.1,0.9-6.2-0.1c0.1,0.1,0.1,0.2,0.1,0.2c1,0.9,1.9,1.8,2.9,2.7c0.2,0.2,0.3,0,0.4-0.1
				c0.6-0.5,1.2-1.1,1.7-1.6C15.1,10.4,15.5,10.1,15.8,9.6z"/>
			<path class="st2" d="M15.8,9.6c-0.3,0.5-0.7,0.8-1.1,1.1c-0.6,0.5-1.1,1.1-1.7,1.6c-0.1,0.1-0.2,0.2-0.4,0.1
				c-1-0.9-1.9-1.8-2.9-2.7c0,0,0-0.1-0.1-0.2C11.7,10.5,13.8,10.4,15.8,9.6z"/>
			<path class="st3" d="M14.5,6.1c0,0,0.1,0,0.1,0C14.6,6.1,14.6,6.1,14.5,6.1C14.5,6.1,14.5,6.1,14.5,6.1z"/>
			<path class="st2" d="M0.1,18.7C0.1,18.8,0.1,18.8,0.1,18.7C0.1,18.8,0.1,18.8,0.1,18.7C0.1,18.8,0.1,18.7,0.1,18.7z"/>
			<g>
				<polygon class="st1" points="18.5,18.7 18.4,18.8 18.5,18.8 				"/>
				<path class="st1" d="M7.7,18.8c0,0-0.1,0-0.1,0C7.7,18.8,7.7,18.8,7.7,18.8C7.7,18.8,7.7,18.8,7.7,18.8z"/>
			</g>
		</g>
	</g>
	<path class="st1" d="M22.2,16c-1.4,0-2.5,1.1-2.6,2.5H6.2C6.2,17.1,5.1,16,3.7,16H0v5.5h3.7c1.3,0,2.4-1,2.6-2.3h13.4
		c0.1,1.3,1.2,2.4,2.6,2.4h2.7V16H22.2z"/>
	<path class="st4" d="M15.3,21.5h-5.2c-1.5,0-2.7-1.2-2.7-2.7v0c0-1.5,1.2-2.7,2.7-2.7h5.2c1.5,0,2.7,1.2,2.7,2.7v0
		C18,20.3,16.8,21.5,15.3,21.5z"/>
</g>
</svg>
