<?xml version="1.0" encoding="utf-8"?>
<!-- Generator: Adobe Illustrator 22.1.0, SVG Export Plug-In . SVG Version: 6.00 Build 0)  -->
<svg version="1.1" id="Layer_1" xmlns="http://www.w3.org/2000/svg" xmlns:xlink="http://www.w3.org/1999/xlink" x="0px" y="0px"
	 viewBox="0 0 599 599" style="enable-background:new 0 0 599 599;" xml:space="preserve">
<style type="text/css">
	.st0{fill:#FFD560;}
	.st1{fill:#FFFFFF;}
	.st2{fill:url(#SVGID_1_);}
	.st3{fill:#6842A5;}
</style>
<g>
	<g>
		<path class="st0" d="M30.6,548.5l18.7-95.4l30.5,68.9l31.5-68.9l16.8,95.4h-13.7l-8.6-53.5l-26.2,57.6l-25.5-57.7l-9.5,53.6H30.6z
			"/>
		<path class="st0" d="M161.9,538.2l-25.1-45.6h14.9l17.2,32.2l16-32.2h14.6L155,579h-14.8L161.9,538.2z"/>
		<path class="st0" d="M225.5,518.2l-20.1-25.6h15.4l12.4,16.3l12.7-16.3h15.8l-20.6,25.6l23.9,30.3h-15.4l-16.4-20.9l-16.9,20.9
			h-15.8L225.5,518.2z"/>
		<path class="st0" d="M268.9,520.2c0-8.1,2.9-14.9,8.7-20.6c5.8-5.7,12.8-8.5,21.1-8.5c8.4,0,15.4,2.9,21.2,8.6s8.6,12.7,8.6,21
			c0,8.4-2.9,15.4-8.7,21.1c-5.8,5.6-12.9,8.5-21.4,8.5c-8.4,0-15.4-2.9-21.1-8.6C271.7,535.9,268.9,528.7,268.9,520.2z
			 M282.1,520.3c0,5.6,1.4,10,4.4,13.3c3.1,3.3,7.1,4.9,12.1,4.9s9.1-1.6,12.1-4.9c3-3.3,4.5-7.6,4.5-13s-1.5-9.7-4.5-13
			c-3.1-3.3-7.1-4.9-12.1-4.9c-4.9,0-9,1.6-12,4.9C283.6,510.9,282.1,515.1,282.1,520.3z"/>
		<path class="st1" d="M344.7,548.5v-88.7H358c6,0,10.7,0.5,14.2,1.3c3.6,1,6.6,2.5,9.1,4.6c2.5,2.2,4.4,5.1,5.9,8.5
			c1.4,3.4,2.2,6.8,2.2,10.3c0,6.4-2.4,11.8-7.3,16.1c4.7,1.6,8.4,4.4,11.2,8.5c2.8,4,4.1,8.6,4.1,13.9c0,6.9-2.4,12.8-7.3,17.5
			c-3,3-6.3,5-9.9,6.2c-4,1.2-9.1,1.6-15.1,1.6L344.7,548.5L344.7,548.5z M358.1,498h4.1c5,0,8.6-1.1,10.9-3.3
			c2.3-2.2,3.5-5.4,3.5-9.7c0-4.1-1.2-7.3-3.6-9.5c-2.4-2.1-5.8-3.3-10.3-3.3H358L358.1,498L358.1,498z M358.1,536h8.3
			c6.1,0,10.5-1.2,13.3-3.6c3-2.6,4.4-5.8,4.4-9.7c0-3.9-1.4-7-4.3-9.6c-2.8-2.6-7.8-3.9-14.9-3.9h-6.7V536z"/>
		<path class="st1" d="M453,492.6h13v55.9h-13v-5.9c-5.3,5-11.1,7.4-17.2,7.4c-7.7,0-14.2-2.8-19.2-8.4c-5-5.7-7.5-12.8-7.5-21.4
			c0-8.4,2.5-15.3,7.5-20.9c5-5.6,11.3-8.4,18.8-8.4c6.6,0,12.3,2.7,17.5,8L453,492.6L453,492.6z M422.3,520.3
			c0,5.4,1.4,9.7,4.3,13.1c3,3.4,6.7,5.1,11.2,5.1c4.8,0,8.7-1.6,11.6-4.9c3-3.4,4.4-7.7,4.4-13c0-5.2-1.4-9.5-4.4-13
			c-3-3.4-6.7-5-11.5-5c-4.4,0-8.2,1.6-11.2,5C423.8,511.2,422.3,515.3,422.3,520.3z"/>
		<path class="st1" d="M514.8,502.1l-10.7,5.7c-1.6-3.5-3.8-5.2-6.3-5.2c-1.2,0-2.2,0.4-3.1,1.2c-0.9,0.8-1.3,1.8-1.3,3
			c0,2.1,2.5,4.2,7.4,6.4c6.8,3,11.5,5.7,13.9,8.2c2.4,2.5,3.6,5.9,3.6,10c0,5.4-2,9.9-6,13.6c-3.9,3.5-8.6,5.2-14,5.2
			c-9.4,0-16-4.5-20-13.7l11-5.1c1.5,2.7,2.7,4.3,3.5,5.1c1.5,1.4,3.5,2.2,5.6,2.2c4.3,0,6.6-2,6.6-6c0-2.3-1.6-4.4-5-6.5
			c-1.3-0.7-2.6-1.3-4-1.9c-1.3-0.6-2.6-1.3-4-1.9c-3.8-1.8-6.4-3.7-7.9-5.5c-1.9-2.3-2.9-5.3-2.9-9.1c0-4.8,1.6-8.9,5-12.1
			c3.4-3.2,7.5-4.7,12.4-4.7C506,491,511.3,494.7,514.8,502.1z"/>
		<path class="st1" d="M580.9,523.6h-40.1c0.4,4.6,1.8,8.3,4.4,11s6.1,4,10.1,4c3.2,0,5.9-0.8,8-2.3c2-1.5,4.4-4.3,7-8.5l10.9,6.1
			c-1.6,2.9-3.5,5.3-5.3,7.4c-1.8,2-3.9,3.8-6.1,5c-2.1,1.3-4.4,2.3-6.9,2.9c-2.5,0.6-5.2,1-8.1,1c-8.4,0-15-2.7-20.1-8
			c-5-5.4-7.6-12.5-7.6-21.5c0-8.9,2.4-16,7.3-21.5c4.9-5.4,11.5-8.1,19.7-8.1c8.2,0,14.8,2.6,19.6,7.9c4.7,5.2,7.1,12.4,7.1,21.7
			L580.9,523.6z M567.7,513c-1.8-6.8-6.2-10.3-13-10.3c-1.5,0-3.1,0.2-4.4,0.7c-1.3,0.5-2.6,1.2-3.8,2c-1.2,0.9-2.1,2-2.9,3.3
			s-1.4,2.7-1.8,4.3H567.7z"/>
	</g>
</g>
<g>
	<g>
		<path class="st1" d="M180.6,270.6l-4.1,162.5h-59.4l6.1-249.3c-8-36.3-20.1-37.3-21.4-37.3c-0.1,0-0.2,0-0.2,0l-5.2,1.8l0.3-5.7
			v-10.2l4.1,0.1c7.6,0.2,18.4,3.9,29.4,19.5l2.8-12.6c1.5-15.9,1.9-37.4-5-49.9l-1.7-3.1l13-9.1l2.1,4c0.6,1.2,14.3,26.5,22,55.4
			c5.6-7.7,10.9-13,15.9-15.8l6-3.3v14.3l-0.7,1c-0.1,0.1-9.3,13.9-14,32.5l90.5,165.6l71.5-140.4c3.9-33.5,9.7-100.2,4-117.4
			l-1.1-3.2l3-1.6c3-1.6,10.4-5.2,14.1-5.2c2.2,0,3.4,1.1,4,1.7c0.9,1.1,1.2,2.5,0.9,3.9c-4.3,22.2-2.2,39.3,6.3,50.8
			c8.8,11.8,22.9,15.6,33.3,16.6l14.9,0.2c14.7,0.5,26.4,2,35.8,4.5c12,3,22.4,8.4,30.9,16.1c8.5,7.8,15.3,17.5,20.3,28.9
			c5,11.5,7.6,23.4,7.6,35.2c0,19.6-6.9,36.8-20.5,51c13.3,5.7,24.1,14.7,32.3,26.7c9.4,13.5,14.1,29.5,14.1,47.5
			c0,23.6-8.5,43.8-25.1,60.1c-10,10-21.5,17.1-33.9,21l-0.1,0c-13.4,3.7-30.3,5.6-50.2,5.6h-10.7l0,0.3h-58.3l-0.1-0.3h-0.7l-0.1-4
			v-0.5l1.6-166.2l-90.9,182.8L180.6,270.6z M427.8,383.6c18.6,0,32.3-3.6,40.8-10.7c8.8-7.6,13.1-17,13.1-28.7
			c0-11.4-4.2-20.6-12.7-28.4c-8.3-7.6-23.8-11.4-46.1-11.4H414l-1,79.2H427.8z M414.5,259.8c15.1,0,26.2-3.2,32.9-9.6
			c6.8-6.4,10-15.8,10-28.8c0-12.3-3.5-21.8-10.3-28c-7-6.3-17.4-9.5-30.9-9.5h-0.8L414.5,259.8L414.5,259.8z"/>
		<linearGradient id="SVGID_1_" gradientUnits="userSpaceOnUse" x1="100.6928" y1="251.3363" x2="528.5396" y2="251.3363">
			<stop  offset="0" style="stop-color:#8754FF"/>
			<stop  offset="0.2505" style="stop-color:#8956FD"/>
			<stop  offset="0.3877" style="stop-color:#8F5CF5"/>
			<stop  offset="0.4975" style="stop-color:#9968E7"/>
			<stop  offset="0.5927" style="stop-color:#A877D3"/>
			<stop  offset="0.6785" style="stop-color:#BB8CBA"/>
			<stop  offset="0.7576" style="stop-color:#D2A59B"/>
			<stop  offset="0.8301" style="stop-color:#EEC277"/>
			<stop  offset="0.8694" style="stop-color:#FFD560"/>
		</linearGradient>
		<path class="st2" d="M515.1,300.8c-8.8-13.1-20.9-22.3-36.2-27.5c15.9-14.4,23.8-31.8,23.8-52.5c0-11.4-2.4-22.5-7.3-33.6
			c-4.8-11-11.2-20.1-19.2-27.5c-8-7.1-17.7-12.2-29.3-15.2c-9.1-2.4-20.7-3.8-34.8-4.3l-15-0.2c-20.8-2.1-54.7-14.1-43.3-72.2
			c0.7-3.4-13.2,3.9-13.2,3.9c7.6,22.8-3.9,119.9-3.9,119.9l-75.3,147.8l-94.9-173.6c4.8-20.5,14.9-35.3,14.9-35.3v-6.2
			c-7.1,4-14.2,13.5-19.5,22.1c-7-32.2-23.8-63.3-23.8-63.3l-6.4,4.5c7.4,13.4,7,35.8,5.4,52.5l-5,22.3
			c-5.7-10.1-16.7-25.5-31.3-25.8v6.1c0,0,16.8-4.2,26.6,40.8l-6,245.7h51.4l4.4-175.3l87.1,182l95-191.1l-1.8,183.6v0.2v0.3h0.1
			l0.1,0.3h51l0-0.3h14.6c19.7,0,36.1-1.8,49.2-5.5c12-3.7,22.7-10.4,32.3-20c16-15.6,23.9-34.7,23.9-57.2
			C528.5,328.8,524,313.7,515.1,300.8z M416.2,179.9c14.7,0,25.9,3.6,33.6,10.6c7.7,7,11.6,17.3,11.6,31c0,14-3.7,24.5-11.3,31.6
			c-7.5,7.2-19.4,10.8-35.6,10.8h-4.1l1-83.9H416.2z M471.1,376c-9.2,7.7-23.7,11.6-43.4,11.6H409l1-87.2h12.8
			c23.5,0,39.7,4.2,48.8,12.5c9.4,8.5,14,18.9,14,31.4C485.7,357.1,480.9,367.6,471.1,376z"/>
	</g>
	<g>
		<path class="st1" d="M100.3,116.1c-6.9,0-9.3-3.9-9.3-7.6c0-6.7,5.5-20.5,14.8-31.9c8.6-10.6,23.5-23.2,45.7-23.2
			c8.7,0,17.9,2,27.2,5.9c3,1,7.9,3.9,8.2,9.2c0.3,5.8-3.8,15.6-43.8,32.8C139.6,103.1,112.9,116.1,100.3,116.1z"/>
		<path class="st3" d="M141.4,97.7c0,0-46.4,23.1-46.4,10.8s26.5-69.1,82.3-45.4C177.3,63.1,203.8,70.9,141.4,97.7z"/>
	</g>
	<g>
		<path class="st1" d="M197.8,143.6c-6.2,0-14.6-3.2-22.7-8.6c-5.9-3.9-10.9-8.6-14-13.1c-5.2-7.5-3.7-12.1-2.3-14.2
			c2.9-4.3,9.9-5.8,15.5-5.8c6.9,0,13.7,2,19.2,5.7c5.8,3.9,10.3,9.7,12.9,16.3c2.4,6.4,2.5,12.3,0.2,15.7
			C205.4,141.5,202.9,143.6,197.8,143.6z"/>
		<path class="st3" d="M203.3,137.4c-3,4.4-14.6,1.9-25.9-5.7c-11.4-7.6-18.2-17.4-15.2-21.8c3-4.4,17.8-6.6,29.1,1
			S206.3,133,203.3,137.4z"/>
	</g>
	<g>
		<path class="st1" d="M93.4,154.7c-2.6,0-4.9-1.2-6.9-3.5c-5.5-6.5-7.2-21.5,1.6-29.1c3.1-2.6,7.2-4,11.8-4
			c6.6,0,13.5,2.9,17.1,7.1c1.8,2.1,2.6,4.4,2.4,6.8c-0.4,4.6-4.4,7.8-9,11.6c-0.8,0.7-1.6,1.3-2.4,2c-0.8,0.7-1.6,1.4-2.4,2.1
			C101.4,151.5,97.7,154.7,93.4,154.7z"/>
		<path class="st3" d="M114,127.8c4.4,5.2-1.8,9-8.5,14.8s-11.6,11.2-16,6c-4.4-5.2-5.6-17.7,1.2-23.4
			C97.4,119.4,109.6,122.6,114,127.8z"/>
	</g>
	<g>
		<path class="st1" d="M365.1,105.3c-3.2,0-6.4-0.1-9.9-0.1c-3.7-0.1-7.5-0.2-11.5-0.2c-3.9,0-7.8,0.1-11.5,0.2
			c-3.5,0.1-6.8,0.1-9.9,0.1c-8.2,0-16.7-0.4-23-3.6c-6.9-3.5-10.4-9.9-10.4-19.1c0-12.3,6-27.5,15.7-39.7c11.2-14,25-21.7,39-21.7
			s27.9,7.7,39,21.7c9.7,12.2,15.7,27.4,15.7,39.7C398.5,105.3,377.6,105.3,365.1,105.3z"/>
		<path class="st3" d="M394.5,82.6c0,22.7-22.7,18.4-50.8,18.4c-28,0-50.8,4.2-50.8-18.4s22.7-57.5,50.8-57.5
			C371.7,25.1,394.5,59.9,394.5,82.6z"/>
	</g>
</g>
</svg>
