<?xml version="1.0" encoding="utf-8"?>
<!-- Generator: Adobe Illustrator 22.1.0, SVG Export Plug-In . SVG Version: 6.00 Build 0)  -->
<svg version="1.1" id="Layer_1" xmlns="http://www.w3.org/2000/svg" xmlns:xlink="http://www.w3.org/1999/xlink" x="0px" y="0px"
	 viewBox="0 0 599 599" style="enable-background:new 0 0 599 599;" xml:space="preserve">
<style type="text/css">
	.st0{fill:#FFFFFF;}
	.st1{fill:url(#SVGID_1_);}
	.st2{fill:#FF5331;}
</style>
<g>
	<g>
		<path class="st0" d="M13.8,522.9l19.4-98.9l31.6,71.5l32.7-71.5l17.4,98.9h-14.2l-8.9-55.5l-27.2,59.7l-26.4-59.8l-9.9,55.6H13.8z
			"/>
		<path class="st0" d="M150,512.2L124,464.9h15.5l17.8,33.4l16.6-33.4h15.1l-46.2,89.6h-15.3L150,512.2z"/>
		<path class="st0" d="M216,491.5l-20.8-26.6h16l12.9,16.9l13.2-16.9h16.4l-21.4,26.6l24.8,31.4h-16l-17-21.7l-17.5,21.7h-16.4
			L216,491.5z"/>
		<path class="st0" d="M261,493.5c0-8.4,3-15.5,9-21.4c6-5.9,13.3-8.8,21.9-8.8c8.7,0,16,3,22,8.9c6,5.9,8.9,13.2,8.9,21.8
			c0,8.7-3,16-9,21.9c-6,5.8-13.4,8.8-22.2,8.8c-8.7,0-16-3-21.9-8.9C263.9,509.8,261,502.4,261,493.5z M274.7,493.7
			c0,5.8,1.5,10.4,4.6,13.8c3.2,3.4,7.4,5.1,12.6,5.1c5.2,0,9.4-1.7,12.6-5.1c3.1-3.4,4.7-7.9,4.7-13.5c0-5.6-1.6-10.1-4.7-13.5
			c-3.2-3.4-7.4-5.1-12.6-5.1c-5.1,0-9.3,1.7-12.4,5.1C276.2,483.9,274.7,488.3,274.7,493.7z"/>
		<path class="st0" d="M339.6,522.9v-92h13.8c6.2,0,11.1,0.5,14.7,1.4c3.7,1,6.8,2.6,9.4,4.8c2.6,2.3,4.6,5.3,6.1,8.8
			c1.5,3.5,2.3,7.1,2.3,10.7c0,6.6-2.5,12.2-7.6,16.7c4.9,1.7,8.7,4.6,11.6,8.8c2.9,4.1,4.3,8.9,4.3,14.4c0,7.2-2.5,13.3-7.6,18.2
			c-3.1,3.1-6.5,5.2-10.3,6.4c-4.2,1.2-9.4,1.7-15.7,1.7H339.6z M353.5,470.5h4.3c5.2,0,8.9-1.1,11.3-3.4c2.4-2.3,3.6-5.6,3.6-10.1
			c0-4.3-1.2-7.6-3.7-9.9c-2.5-2.2-6-3.4-10.7-3.4h-4.9V470.5z M353.5,509.9h8.6c6.3,0,10.9-1.2,13.8-3.7c3.1-2.7,4.6-6,4.6-10.1
			c0-4-1.5-7.3-4.5-10c-2.9-2.7-8.1-4-15.5-4h-7V509.9z"/>
		<path class="st0" d="M451.9,464.9h13.5v58h-13.5v-6.1c-5.5,5.2-11.5,7.7-17.8,7.7c-8,0-14.7-2.9-19.9-8.7
			c-5.2-5.9-7.8-13.3-7.8-22.2c0-8.7,2.6-15.9,7.8-21.7c5.2-5.8,11.7-8.7,19.5-8.7c6.8,0,12.8,2.8,18.2,8.3V464.9z M420.1,493.7
			c0,5.6,1.5,10.1,4.5,13.6c3.1,3.5,6.9,5.3,11.6,5.3c5,0,9-1.7,12-5.1c3.1-3.5,4.6-8,4.6-13.5c0-5.4-1.5-9.9-4.6-13.5
			c-3.1-3.5-7-5.2-11.9-5.2c-4.6,0-8.5,1.7-11.6,5.2C421.6,484.2,420.1,488.5,420.1,493.7z"/>
		<path class="st0" d="M516,474.8l-11.1,5.9c-1.7-3.6-3.9-5.4-6.5-5.4c-1.2,0-2.3,0.4-3.2,1.2c-0.9,0.8-1.3,1.9-1.3,3.1
			c0,2.2,2.6,4.4,7.7,6.6c7.1,3.1,11.9,5.9,14.4,8.5c2.5,2.6,3.7,6.1,3.7,10.4c0,5.6-2.1,10.3-6.2,14.1c-4,3.6-8.9,5.4-14.5,5.4
			c-9.7,0-16.6-4.7-20.7-14.2l11.4-5.3c1.6,2.8,2.8,4.5,3.6,5.3c1.6,1.5,3.6,2.3,5.8,2.3c4.5,0,6.8-2.1,6.8-6.2
			c0-2.4-1.7-4.6-5.2-6.7c-1.4-0.7-2.7-1.3-4.1-2c-1.4-0.6-2.7-1.3-4.1-2c-3.9-1.9-6.6-3.8-8.2-5.7c-2-2.4-3-5.5-3-9.4
			c0-5,1.7-9.2,5.2-12.5c3.5-3.3,7.8-4.9,12.9-4.9C506.9,463.3,512.4,467.1,516,474.8z"/>
		<path class="st0" d="M584.6,497.1h-41.6c0.4,4.8,1.9,8.6,4.6,11.4c2.7,2.8,6.3,4.2,10.5,4.2c3.3,0,6.1-0.8,8.3-2.4
			c2.1-1.6,4.6-4.5,7.3-8.8l11.3,6.3c-1.7,3-3.6,5.5-5.5,7.7c-1.9,2.1-4,3.9-6.3,5.2c-2.2,1.4-4.6,2.4-7.2,3c-2.6,0.6-5.4,1-8.4,1
			c-8.7,0-15.6-2.8-20.8-8.3c-5.2-5.6-7.9-13-7.9-22.3c0-9.2,2.5-16.6,7.6-22.3c5.1-5.6,11.9-8.4,20.4-8.4c8.5,0,15.3,2.7,20.3,8.2
			c4.9,5.4,7.4,12.9,7.4,22.5L584.6,497.1z M570.9,486.1c-1.9-7.1-6.4-10.7-13.5-10.7c-1.6,0-3.2,0.2-4.6,0.7
			c-1.4,0.5-2.7,1.2-3.9,2.1c-1.2,0.9-2.2,2.1-3,3.4s-1.5,2.8-1.9,4.5H570.9z"/>
	</g>
	<g>
		<g>
			<path class="st0" d="M361.9,401.2V60.4h54c22.5,0,40.8,1.8,54.2,5.3C484,69.3,496,75.5,505.6,84c9.7,8.9,17.5,20,23.2,33.1
				c5.8,13.2,8.7,26.8,8.7,40.4c0,22.8-8.1,42.7-24.1,59.1c15.6,6.6,28.3,16.9,37.8,30.9c10.7,15.5,16.2,33.8,16.2,54.4
				c0,27-9.7,50.2-28.8,68.8c-11.4,11.4-24.5,19.5-38.9,24h-0.1c-15.4,4.2-34.8,6.4-57.8,6.4h-79.9L361.9,401.2L361.9,401.2z
				 M447.2,346c21.6,0,37.6-4.2,47.4-12.4c10.3-8.9,15.4-19.9,15.4-33.6c0-13.3-4.9-24.2-14.9-33.2c-9.7-8.9-27.7-13.4-53.6-13.4
				h-21.4v92.7h27.1V346z M431.9,203.3c17.5,0,30.4-3.8,38.3-11.3c7.8-7.4,11.8-18.8,11.8-33.6c0-14.4-4.1-25.4-12.1-32.7
				c-8.1-7.4-20.3-11.1-36.1-11.1h-13.7v88.8L431.9,203.3L431.9,203.3z"/>
			
				<linearGradient id="SVGID_1_" gradientUnits="userSpaceOnUse" x1="464.6796" y1="202.4867" x2="464.6796" y2="535.5867" gradientTransform="matrix(1 0 0 -1 0 600)">
				<stop  offset="0" style="stop-color:#FF5331"/>
				<stop  offset="1" style="stop-color:#1FDFFF"/>
			</linearGradient>
			<path class="st1" d="M365.9,397.2V64.4h50c22.3,0,40,1.7,53.2,5.2c13.4,3.4,24.6,9.3,33.8,17.5c9.3,8.5,16.7,19,22.2,31.7
				c5.6,12.8,8.4,25.7,8.4,38.8c0,23.9-9.1,44-27.4,60.6c17.7,6,31.6,16.6,41.8,31.7c10.3,14.9,15.5,32.3,15.5,52.2
				c0,26-9.2,48-27.6,66c-11.1,11.1-23.5,18.8-37.3,23.1c-15.1,4.2-34,6.3-56.7,6.3h-75.9L365.9,397.2L365.9,397.2z M416.2,207.3
				h15.7c18.7,0,32.4-4.1,41.1-12.4c8.7-8.3,13-20.4,13-36.5c0-15.7-4.5-27.6-13.4-35.7s-21.8-12.2-38.8-12.2h-17.7L416.2,207.3
				L416.2,207.3z M416.2,350h31c22.7,0,39.4-4.5,50-13.4C508.4,327,514,314.8,514,300c0-14.4-5.4-26.4-16.2-36.2
				c-10.5-9.6-29.2-14.4-56.3-14.4h-25.4V350H416.2z"/>
		</g>
		<g>
			<g>
				<path class="st2" d="M31.6,396.9L94.4,60.4l43.4,0.5c0,0,26.7,202.7,58.5,201.6c46.1-1.6,120.6-194,120.6-194l44-0.5l0,328.9
					h-46.4l-1.8-134.6c0,0-48.3,52.5-115.5,39.8c-59.3-11.2-86.7-48.7-86.7-48.7L78.4,396.9H31.6z"/>
			</g>
			<g>
				<path class="st0" d="M310.6,400.9l-1.8-129.3c-13.6,12.1-46.7,36.6-90.6,36.6c-7.2,0-14.5-0.7-21.7-2c-45.9-8.6-73-32.5-83.8-44
					L81.6,400.9H26.8L91,56.4l50.2,0.6l0.5,3.4c0.1,0.5,6.8,50.9,17.2,100.5c6.1,29.1,12.3,52.2,18.4,68.7
					c6.6,18.1,13.6,28.9,18.7,28.9l0.1,0c23-0.8,56.3-60.1,74.2-95.4c24-47.6,42.7-95.6,42.9-96l1-2.5l50.8-0.5l0,336.9H310.6z"/>
			</g>
			<g>
				<path class="st2" d="M31.6,396.9L94.4,60.4l43.4,0.5c0,0,26.7,202.7,58.5,201.6c46.1-1.6,120.6-194,120.6-194l44-0.5l0,328.9
					h-46.4l-1.8-134.6c0,0-48.3,52.5-115.5,39.8c-59.3-11.2-86.7-48.7-86.7-48.7L78.4,396.9H31.6z"/>
			</g>
		</g>
		<g>
			<circle class="st0" cx="217.3" cy="167" r="103.2"/>
			<g>
				<path class="st2" d="M162.3,152c-12.5,0-22.7-10.2-22.7-22.7c0-12.5,10.2-22.7,22.7-22.7c12.5,0,22.7,10.1,22.7,22.7
					S174.8,152,162.3,152z M162.3,110c-10.6,0-19.3,8.6-19.3,19.3s8.6,19.3,19.3,19.3c10.6,0,19.3-8.6,19.3-19.3
					S172.9,110,162.3,110z"/>
			</g>
			<g>
				<path class="st2" d="M162.3,228.9c-12.5,0-22.7-10.2-22.7-22.7s10.2-22.7,22.7-22.7c12.5,0,22.7,10.2,22.7,22.7
					S174.8,228.9,162.3,228.9z M162.3,186.9c-10.6,0-19.3,8.6-19.3,19.3c0,10.6,8.6,19.3,19.3,19.3c10.6,0,19.3-8.6,19.3-19.3
					C181.5,195.6,172.9,186.9,162.3,186.9z"/>
			</g>
			<g>
				<path class="st2" d="M271.5,231.2c-12.5,0-22.7-10.2-22.7-22.7s10.2-22.7,22.7-22.7c12.5,0,22.7,10.2,22.7,22.7
					C294.2,221,284,231.2,271.5,231.2z M271.5,189.2c-10.6,0-19.3,8.6-19.3,19.3c0,10.6,8.6,19.3,19.3,19.3s19.3-8.6,19.3-19.3
					C290.7,197.9,282,189.2,271.5,189.2z"/>
			</g>
			<g>
				<path class="st2" d="M217.3,122c-12.5,0-22.7-10.2-22.7-22.7s10.2-22.7,22.7-22.7S240,86.7,240,99.2S229.9,122,217.3,122z
					 M217.3,80c-10.6,0-19.3,8.6-19.3,19.3s8.6,19.3,19.3,19.3c10.6,0,19.3-8.6,19.3-19.3S228,80,217.3,80z"/>
			</g>
			
				<ellipse transform="matrix(0.4641 -0.8858 0.8858 0.4641 -103.934 315.6804)" class="st2" cx="208.9" cy="243.7" rx="12.9" ry="12.9"/>
			<circle class="st2" cx="217.3" cy="195.6" r="12.9"/>
			<circle class="st2" cx="271.5" cy="129.3" r="12.9"/>
		</g>
	</g>
</g>
</svg>
