<?xml version="1.0" encoding="utf-8"?>
<!-- Generator: Adobe Illustrator 22.1.0, SVG Export Plug-In . SVG Version: 6.00 Build 0)  -->
<svg version="1.1" id="Layer_1" xmlns="http://www.w3.org/2000/svg" xmlns:xlink="http://www.w3.org/1999/xlink" x="0px" y="0px"
	 viewBox="0 0 599 599" style="enable-background:new 0 0 599 599;" xml:space="preserve">
<style type="text/css">
	.Graphic_x0020_Style_x0020_2{fill:url(#SVGID_1_);}
	.st0{fill:#FFD560;}
	.st1{fill:#FFFFFF;}
	.st2{fill:url(#SVGID_2_);}
</style>
<linearGradient id="SVGID_1_" gradientUnits="userSpaceOnUse" x1="0" y1="599" x2="1" y2="599">
	<stop  offset="0" style="stop-color:#8754FF"/>
	<stop  offset="0.2505" style="stop-color:#8956FD"/>
	<stop  offset="0.3877" style="stop-color:#8F5CF5"/>
	<stop  offset="0.4975" style="stop-color:#9968E7"/>
	<stop  offset="0.5927" style="stop-color:#A877D3"/>
	<stop  offset="0.6785" style="stop-color:#BB8CBA"/>
	<stop  offset="0.7576" style="stop-color:#D2A59B"/>
	<stop  offset="0.8301" style="stop-color:#EEC277"/>
	<stop  offset="0.8694" style="stop-color:#FFD560"/>
</linearGradient>
<g>
	<g>
		<path class="st0" d="M24.1,548.5l18.7-95.4l30.5,68.9l31.5-68.9l16.8,95.4h-13.7L99.3,495l-26.2,57.6l-25.5-57.7l-9.5,53.6H24.1z"
			/>
		<path class="st0" d="M155.5,538.2l-25.1-45.6h14.9l17.2,32.2l16-32.2h14.6L148.5,579h-14.8L155.5,538.2z"/>
		<path class="st0" d="M219.1,518.2L199,492.6h15.4l12.4,16.3l12.7-16.3h15.8l-20.6,25.6l23.9,30.3h-15.4l-16.4-20.9L210,548.5
			h-15.8L219.1,518.2z"/>
		<path class="st0" d="M262.5,520.2c0-8.1,2.9-14.9,8.7-20.6c5.8-5.7,12.8-8.5,21.1-8.5c8.4,0,15.4,2.9,21.2,8.6
			c5.8,5.7,8.6,12.7,8.6,21c0,8.4-2.9,15.4-8.7,21.1c-5.8,5.6-12.9,8.5-21.4,8.5c-8.4,0-15.4-2.9-21.1-8.6
			C265.3,535.9,262.5,528.7,262.5,520.2z M275.7,520.3c0,5.6,1.4,10,4.4,13.3c3.1,3.3,7.1,4.9,12.1,4.9s9.1-1.6,12.1-4.9
			c3-3.3,4.5-7.6,4.5-13s-1.5-9.7-4.5-13c-3.1-3.3-7.1-4.9-12.1-4.9c-4.9,0-9,1.6-12,4.9C277.1,510.9,275.7,515.1,275.7,520.3z"/>
		<path class="st1" d="M338.3,548.5v-88.7h13.3c6,0,10.7,0.5,14.2,1.3c3.6,1,6.6,2.5,9.1,4.6c2.5,2.2,4.4,5.1,5.9,8.5
			c1.4,3.4,2.2,6.8,2.2,10.3c0,6.4-2.4,11.8-7.3,16.1c4.7,1.6,8.4,4.4,11.2,8.5c2.8,4,4.1,8.6,4.1,13.9c0,6.9-2.4,12.8-7.3,17.5
			c-3,3-6.3,5-9.9,6.2c-4,1.2-9.1,1.6-15.1,1.6L338.3,548.5L338.3,548.5z M351.7,498h4.1c5,0,8.6-1.1,10.9-3.3
			c2.3-2.2,3.5-5.4,3.5-9.7c0-4.1-1.2-7.3-3.6-9.5c-2.4-2.1-5.8-3.3-10.3-3.3h-4.7L351.7,498L351.7,498z M351.7,536h8.3
			c6.1,0,10.5-1.2,13.3-3.6c3-2.6,4.4-5.8,4.4-9.7c0-3.9-1.4-7-4.3-9.6c-2.8-2.6-7.8-3.9-14.9-3.9h-6.7V536z"/>
		<path class="st1" d="M446.5,492.6h13v55.9h-13v-5.9c-5.3,5-11.1,7.4-17.2,7.4c-7.7,0-14.2-2.8-19.2-8.4c-5-5.7-7.5-12.8-7.5-21.4
			c0-8.4,2.5-15.3,7.5-20.9c5-5.6,11.3-8.4,18.8-8.4c6.6,0,12.3,2.7,17.5,8L446.5,492.6L446.5,492.6z M415.9,520.3
			c0,5.4,1.4,9.7,4.3,13.1c3,3.4,6.7,5.1,11.2,5.1c4.8,0,8.7-1.6,11.6-4.9c3-3.4,4.4-7.7,4.4-13c0-5.2-1.4-9.5-4.4-13
			c-3-3.4-6.7-5-11.5-5c-4.4,0-8.2,1.6-11.2,5C417.3,511.2,415.9,515.3,415.9,520.3z"/>
		<path class="st1" d="M508.3,502.1l-10.7,5.7c-1.6-3.5-3.8-5.2-6.3-5.2c-1.2,0-2.2,0.4-3.1,1.2c-0.9,0.8-1.3,1.8-1.3,3
			c0,2.1,2.5,4.2,7.4,6.4c6.8,3,11.5,5.7,13.9,8.2c2.4,2.5,3.6,5.9,3.6,10c0,5.4-2,9.9-6,13.6c-3.9,3.5-8.6,5.2-14,5.2
			c-9.4,0-16-4.5-20-13.7l11-5.1c1.5,2.7,2.7,4.3,3.5,5.1c1.5,1.4,3.5,2.2,5.6,2.2c4.3,0,6.6-2,6.6-6c0-2.3-1.6-4.4-5-6.5
			c-1.3-0.7-2.6-1.3-4-1.9c-1.3-0.6-2.6-1.3-4-1.9c-3.8-1.8-6.4-3.7-7.9-5.5c-1.9-2.3-2.9-5.3-2.9-9.1c0-4.8,1.6-8.9,5-12.1
			c3.4-3.2,7.5-4.7,12.4-4.7C499.6,491,504.9,494.7,508.3,502.1z"/>
		<path class="st1" d="M574.5,523.6h-40.1c0.4,4.6,1.8,8.3,4.4,11s6.1,4,10.1,4c3.2,0,5.9-0.8,8-2.3c2-1.5,4.4-4.3,7-8.5l10.9,6.1
			c-1.6,2.9-3.5,5.3-5.3,7.4c-1.8,2-3.9,3.8-6.1,5c-2.1,1.3-4.4,2.3-6.9,2.9c-2.5,0.6-5.2,1-8.1,1c-8.4,0-15-2.7-20.1-8
			c-5-5.4-7.6-12.5-7.6-21.5c0-8.9,2.4-16,7.3-21.5c4.9-5.4,11.5-8.1,19.7-8.1c8.2,0,14.8,2.6,19.6,7.9c4.7,5.2,7.1,12.4,7.1,21.7
			L574.5,523.6z M561.3,513c-1.8-6.8-6.2-10.3-13-10.3c-1.5,0-3.1,0.2-4.4,0.7c-1.3,0.5-2.6,1.2-3.8,2c-1.2,0.9-2.1,2-2.9,3.3
			s-1.4,2.7-1.8,4.3H561.3z"/>
	</g>
</g>
<g>
	<path class="st1" d="M199.4,293.4l-3.5,140.6h-53l5.4-218.5c-3.4-15.2-7.5-23.2-11-27.5c-0.2,1.6-0.7,3.2-1.6,4.7
		c-2.3,4.2-6.7,6.7-11.5,6.7c-1.3,0-2.6-0.2-3.8-0.6c-2.4,1.8-5.4,2.8-8.5,2.8c-2.4,0-4.8-0.6-6.9-1.8c-3.3-1.8-5.6-4.8-6.7-8.4
		c-0.6-2.1-0.7-4.2-0.3-6.2c-0.1,0-0.2-0.1-0.3-0.1c-2.8-1.6-4.9-4.2-5.7-7.3s-0.5-6.4,1.1-9.2c1.9-3.4,5.4-5.7,9.3-6.1
		c0.2-0.8,0.6-1.6,1-2.4c1.9-3.5,5.7-5.6,9.8-5.6c1.2,0,2.4,0.2,3.5,0.5c-4.6-4.6-5-12.9-0.6-19.8c0.4-0.7,0.9-1.3,1.4-1.9
		c-1,0.5-2,0.9-3.1,1.3c-2,0.6-4.1,1-6.2,1c-6.7,0-12.1-3.5-13.9-8.8c-2.3-7.1,3-15.2,11.8-18c0.8-0.2,1.5-0.4,2.3-0.6
		c-1.1-0.2-2.2-0.6-3.2-1c-3.9-1.6-7.2-4.3-9.2-7.6c-2.2-3.6-2.6-7.7-1.1-11.2c2-4.8,7-7.8,13-7.8c2.5,0,5.1,0.5,7.5,1.5
		c0.7,0.3,1.4,0.6,2.1,1c-0.7-0.9-1.3-1.8-1.8-2.9c-4.3-8.1-2.4-17.6,4.2-21.1c1.7-0.9,3.5-1.3,5.4-1.3c5.6,0,11.3,3.8,14.4,9.8
		c0.4,0.7,0.7,1.4,1,2.1c0.1-1.1,0.2-2.2,0.4-3.4c1.7-7.9,7.8-13.7,14.4-13.7c0.8,0,1.6,0.1,2.4,0.3c3.7,0.8,6.8,3.5,8.6,7.3
		c1.6,3.5,2,7.7,1.1,11.9c-0.2,0.8-0.4,1.5-0.6,2.3c0.8-0.8,1.6-1.6,2.5-2.3c3.4-2.6,7.5-4.1,11.4-4.1c4.2,0,7.8,1.6,10.1,4.6
		c2.3,3,3,7,1.9,11.1c-1,3.7-3.4,7.2-6.8,9.8c-0.6,0.5-1.3,0.9-1.9,1.3c0.8-0.1,1.7-0.2,2.5-0.2c0.3,0,0.6,0,0.8,0
		c9.2,0.4,16.4,6.7,16.1,14.2c-0.1,2.8-1.2,5.3-3.1,7.4c1.8-0.6,3.8-0.9,5.8-0.9c4.2,0,8,1.5,10.5,4.3c1.3,1.4,2.7,3.5,3.2,6.6
		c0.2,0,0.5,0,0.8,0c6,0,10.8,1.9,14,5.6c3.1,3.7,4.4,8.9,3.7,15.4c2.9,2.5,7.8,7.7,8.1,14.1c0.1,3-0.7,7.5-5.7,11.7
		c-3.3,2.8-6.9,4.2-11.1,4.2c-0.3,0-0.6,0-0.9,0c-2.5,2.4-5.6,3.7-8.9,3.7c-4.5,0-8.6-2.5-11.3-6.6c-0.4,0.2-0.8,0.5-1.2,0.7
		c-6.4,11.2-9,27.4-10,36.9l71.6,131l62.1-121.9c0.6-5.5,4.8-42.5,5.4-71.3c-9.4-2.2-16.9-12.1-20.8-18.4c-3.4,2.5-5.3,4.6-6.4,6.2
		c1.6,8.2-2.4,17.7-10.2,24.2c-5.4,4.5-11.9,7-18.2,7c-5.9,0-11-2.2-14.3-6.3c-3.6-4.3-4.8-10.1-3.3-16.3c1.4-5.8,4.9-11.3,10-15.5
		c5.4-4.5,11.9-7,18.2-7c2.2,0,4.3,0.3,6.3,0.9c4.5-1.3,8.4-4.5,11.2-7.5c-0.6-1.8-1.1-3.5-1.5-5.2c-3.3-0.5-6.2-0.8-8.8-0.8
		c-2.4,0-4.5,0.2-6.2,0.7c-4,7.2-13.1,12-23.3,12l-0.2,0c-6.6,0-12.8-2-17.6-5.6c-5.1-3.9-7.8-9.1-7.8-14.7
		c0.1-11.1,11.5-20.1,25.4-20.1l0.2,0c9.7,0,18.4,4.4,22.7,11.1c2.5,1.1,5.6,1.7,9.1,1.7c2.4,0,4.6-0.3,6.5-0.6
		c0.3-1.1,0.6-2.2,1-3.3c-5.6-6.8-9.7-9.8-12.6-11.1c-2.2,0.9-4.7,1.3-7.3,1.3c-6.3,0-13-2.6-18.3-7.2c-5-4.3-8.5-9.8-9.8-15.6
		c-1.4-6.2-0.2-12,3.5-16.3c3.3-3.9,8.4-6.1,14.2-6.1c6.3,0,13,2.6,18.3,7.2c7.4,6.2,11.3,15.2,10.2,23.1c2.5,5.2,7.8,9,11.9,11.3
		c0.7-0.6,1.5-1.1,2.3-1.6c0.2-9.1-1.1-14.3-2.5-17.2c-7.9-2.7-14.1-10.9-15.9-21c-1.1-6.5-0.2-13,2.5-18.3
		c2.9-5.7,7.6-9.3,13.1-10.2c0.9-0.2,1.8-0.2,2.8-0.2c10.1,0,19.3,9.4,21.4,21.9c1.6,9.5-1.1,18.9-7,24.2c-1.5,5.8,0.4,12.5,2,16.6
		c0.8,0,1.6,0.1,2.4,0.2c6.2-7,8.6-11.9,9.4-15c-4.3-7.1-3.8-17.4,1.3-26.3c5-8.6,13.5-14.1,21.7-14.1c3.1,0,6,0.8,8.6,2.3
		c4.8,2.8,7.9,7.9,8.7,14.2c0.7,5.9-0.8,12.3-4.1,18c-4.8,8.3-13,13.7-21,14.1c-4.9,3.5-7.7,9.9-9.2,14.1c0.6,0.5,1.2,1.1,1.7,1.6
		c9.3-1.4,14.2-3.6,16.8-5.5c1.3-8.2,8.3-15.8,17.9-19.3c3.5-1.2,7-1.9,10.5-1.9c9.6,0,17.6,4.8,20.3,12.3
		c3.8,10.5-3.9,22.9-17.2,27.6c-3.5,1.2-7,1.9-10.5,1.9c-5.6,0-10.7-1.6-14.6-4.6c-0.4,0-0.8,0-1.2,0c-5.2,0-10.3,2.3-13.9,4.4
		c0.2,0.7,0.3,1.5,0.5,2.3c0.1,0.5,0.2,1,0.2,1.5c7.3,4.3,12.1,5.6,15.1,5.8c3.9-3.3,9.3-5.2,15.3-5.2c3.6,0,7.3,0.7,10.8,2
		c13.2,4.9,20.8,17.3,16.9,27.8c-2.8,7.5-10.5,12.1-20.1,12.1c-3.6,0-7.3-0.7-10.8-2c-9.1-3.4-15.8-10.4-17.5-18.2
		c-2.9-2.8-6.8-4.5-10.4-5.5c-1.7,9.2-5.5,20.1-11.9,26.7c4.4,21.3,21.3,27.5,35,28.9l13,0.2c12.9,0.4,23.2,1.7,31.5,3.9
		c10.6,2.7,19.7,7.4,27.3,14.2c7.5,6.9,13.5,15.4,17.8,25.4c4.4,10.2,6.7,20.6,6.7,31c0,17.1-5.9,32-17.6,44.5
		c11.4,5,20.8,12.9,27.8,23.3c8.2,11.9,12.4,26,12.4,41.8c0,20.7-7.4,38.5-22.1,52.9c-8.8,8.8-18.9,15-29.9,18.5l-0.1,0
		c-11.7,3.3-26.6,4.9-44.1,4.9h-8.8l0,0.3h-51.9l-0.1-0.3h-0.7l-0.1-4v-0.4L351,286l-79,158.9L199.4,293.4z M415.2,389.6
		c16.2,0,28.1-3.1,35.3-9.2c7.6-6.5,11.3-14.6,11.3-24.7c0-9.8-3.6-17.8-11-24.5c-7.2-6.6-20.6-9.9-40-9.9h-7.3l-0.8,68.3H415.2z
		 M404.1,281.4c12.8-0.1,22.2-2.9,27.9-8.3c5.8-5.5,8.6-13.6,8.6-24.8c0-10.7-3-18.8-8.9-24.1c-6-5.4-15-8.2-26.7-8.2h-0.2
		L404.1,281.4z M136.4,171.3c7.4,2.6,13.6,8.6,18.3,15l2.2-9.9c1.2-12.2,1.6-28.5-2.6-39.6c-4.7-0.5-9.2-3.2-12.4-5.7
		c-0.5,0.9-0.9,1.6-1.1,2.1c2.3,4.8,1.7,11.1-1.7,16.5c-3.4,5.3-8.8,8.6-14.1,8.6c-1.2,0-2.3-0.2-3.4-0.5c0.7,0.7,1.3,1.4,1.8,2.2
		c0,0,0.1,0,0.1,0c2.2,0,4.5,0.6,6.4,1.7C133.4,163.7,135.8,167.2,136.4,171.3z M166.8,128.4c3.2,6.4,10.3,21.3,15.6,38.4
		c3.6-3.6,6.6-6.7,7.9-8c0.3-0.9,0.8-2.6,1.3-4.8c-3.6-3.7-4.8-9.2-3-14.2c0.8-2.1,2-4,3.7-5.5c-0.2-0.6-0.3-1.3-0.5-1.9
		c-1.3-3.8-0.8-7.7,1.4-10.8c0.2-0.3,0.4-0.6,0.7-0.9c-2,0.7-4.3,1.1-6.6,1.1c-0.3,0-0.6,0-0.8,0c-6-0.2-11.4-3.1-14.2-7.4
		c-1.1-0.5-2.4-0.7-3.9-0.8C168.9,118.4,168.6,124,166.8,128.4z M126.2,123c-0.5,1.8-1.3,3.5-2.5,5.1c1.9-0.9,3.9-1.5,5.9-1.6
		c1.5-1.1,2.7-2.8,3.5-4.5c-0.2-0.3-0.5-0.7-0.7-1C129.3,121.6,127.4,122.4,126.2,123z M121.9,110.7c0.1,0,0.3,0,0.4,0
		c2.2,0,4.5-0.8,6.2-1.6c0,0,0-0.1,0-0.1c-3.3-2-5.5-2.8-7-3.1c-1.5,1.1-3.3,1.9-5.2,2.3C118.5,108.7,120.3,109.5,121.9,110.7z
		 M165,100.9c2.1,0.4,3.9,0.6,5.4,0.6c0.8,0,1.5-0.1,2-0.1c1.1-1.5,2.5-2.9,4.1-3.9c-0.6,0.1-1.2,0.1-1.8,0.1
		c-1.5,0-2.9-0.2-4.2-0.6c-2.2,0.7-4.2,2.3-5.6,3.7C164.9,100.7,165,100.9,165,100.9z M126.2,93.7c1.8,1.6,4.3,2.6,6.3,3.1
		c-1.2-3.8-2.5-5.8-3.4-7c-1.9-0.1-3.7-0.7-5.5-1.6C124.9,89.9,125.8,91.8,126.2,93.7z M157.9,84.7c-1.3,2-1.8,4.6-1.9,6.7
		c3.5-1.9,5.3-3.5,6.3-4.6c-0.2-1.9,0-3.8,0.7-5.7C161.5,82.7,159.8,83.9,157.9,84.7z M140.4,83.5c0.3,2.4,1.6,4.7,2.8,6.4
		c1.5-3.7,1.9-6.1,1.9-7.5c-1.3-1.3-2.4-3-3.2-4.8C141.9,79.6,141.3,81.7,140.4,83.5z"/>
	<linearGradient id="SVGID_2_" gradientUnits="userSpaceOnUse" x1="95.6671" y1="225.0453" x2="503.3329" y2="225.0453">
		<stop  offset="0" style="stop-color:#8754FF"/>
		<stop  offset="0.2505" style="stop-color:#8956FD"/>
		<stop  offset="0.3877" style="stop-color:#8F5CF5"/>
		<stop  offset="0.4975" style="stop-color:#9968E7"/>
		<stop  offset="0.5927" style="stop-color:#A877D3"/>
		<stop  offset="0.6785" style="stop-color:#BB8CBA"/>
		<stop  offset="0.7576" style="stop-color:#D2A59B"/>
		<stop  offset="0.8301" style="stop-color:#EEC277"/>
		<stop  offset="0.8694" style="stop-color:#FFD560"/>
	</linearGradient>
	<path class="st2" d="M491.6,317.7c-7.7-11.5-18.3-19.5-31.7-24c13.9-12.6,20.8-27.8,20.8-46c0-9.9-2.1-19.7-6.4-29.4
		c-4.2-9.6-9.8-17.6-16.8-24c-7-6.2-15.5-10.7-25.6-13.3c-8-2.1-18.1-3.4-30.5-3.8l-13.1-0.2c-14.1-1.4-34.9-8-39.1-34.3
		c7-5.9,11.6-18.7,12.9-30.1c5.4,1,12.7,3.2,17.5,8.5c1,6.7,6.7,13.2,15.2,16.3c11.1,4.1,22.7,0.6,25.8-7.8
		c3.1-8.4-3.4-18.5-14.5-22.7c-9-3.3-18.3-1.7-23.1,3.5c-4.2,0.2-10.7-1.5-20.4-7.4c-0.1-1.1-0.2-2.2-0.4-3.2
		c-0.3-1.6-0.7-3.2-1.2-4.7c4.5-3,13-7.6,21.4-6.4c5,4.5,13.7,5.8,22.1,2.8c11.2-4,17.8-14.1,14.8-22.5s-14.5-12-25.7-8
		c-9,3.2-15.1,10.5-15.5,17.6c-3.3,3-9.8,6-22.2,7.7c-1.4-1.7-3-3.2-4.8-4.5c1.4-5,4.9-14.7,12.6-19.5c6.7,0.2,14.2-4.3,18.7-12.1
		c6-10.2,4.6-22.2-3.2-26.7c-7.7-4.5-18.9,0.1-24.8,10.4c-4.8,8.3-4.8,17.7-0.6,23.4c-0.6,4.4-3.6,10.9-12.1,20.2
		c-2.1-0.5-4.3-0.7-6.6-0.6c-2.2-4.8-5.6-14.4-2.8-22.8c5.3-4.2,8.1-12.4,6.6-21.3c-2-11.7-10.8-20-19.6-18.4s-14.4,12.2-12.4,23.9
		c1.6,9.5,7.7,16.7,14.6,18.3c2.4,3.7,4.2,10.6,3.7,22.9c-2.1,1.1-4,2.4-5.7,4c-4.8-2.3-13.3-7.4-16.5-15.5
		c1.4-6.6-1.8-14.7-8.7-20.5c-9-7.7-21.1-8.4-26.9-1.5c-5.8,6.8-3.2,18.6,5.9,26.3c7.3,6.2,16.6,7.8,23,4.6
		c4.2,1.3,9.9,5.3,17.3,14.8c-1.1,2.3-1.9,4.7-2.3,7.3c-5.3,1.2-14.5,2.4-21.8-1.5c-3.2-5.9-10.8-10.1-19.8-10.2
		c-11.9-0.1-21.5,7.1-21.6,16.1c0,9,9.5,16.3,21.4,16.3c9.6,0,17.8-4.7,20.5-11.2c3.9-1.6,10.4-2.3,21.3-0.1c0,0.1,0,0.1,0,0.2
		c0.5,2.8,1.4,6,2.7,9.3c-3.5,4.2-9.1,9.4-16,10.8c-6.2-2.5-14.8-0.8-21.7,5c-9.1,7.6-11.9,19.3-6.2,26.2c5.7,6.9,17.8,6.3,26.9-1.2
		c7.4-6.1,10.6-15,8.5-21.8c1.6-3.1,5.1-6.9,12-11.3c5.9,10.9,14.8,20.7,23.6,20.6c-0.4,32.1-5.6,76.1-5.6,76.1l-65.9,129.3
		l-75.8-138.8c0.9-9.8,3.6-28,11-40.4c2.1-1.8,4.2-2.6,6.4-2.8c1.6,4.3,5.1,7.3,9.2,7.3c2.8,0,5.4-1.5,7.2-3.9
		c3.6,0.5,7.3,0.1,10.9-3c11.6-9.9-4.1-20.9-4.1-20.9c3.8-23.3-17.9-18.3-17.9-18.3c1.3-17.5-25.2-12.5-20.7,0.5
		c0.5,1.6,0.9,3.2,1.2,4.9c-2,1.1-3.5,2.9-4.4,5.2c-1.5,4.3,0.1,8.9,3.7,11.4c-1,5-2.2,8.5-2.2,8.5s-6.7,6.9-13.4,13.5
		c-5.8-21.4-15.4-40.8-18.1-46c2.6-4.7,2.7-12.3,1.4-18.7c3.2-0.5,7.7-0.5,11.3,1.6c1.8,3.6,6.2,6.2,11.5,6.4c7,0.3,12.8-3.8,13-9.1
		c0.2-5.3-5.3-9.8-12.3-10.1c-5.7-0.2-10.6,2.4-12.3,6.2c-2.3,0.9-6.3,1.1-12.8-0.4c-0.2-0.6-0.5-1.2-0.8-1.7
		c-0.5-0.9-1-1.7-1.5-2.4c2-2.5,5.9-6.6,10.9-7.5c3.6,1.6,8.7,0.8,12.9-2.5c5.5-4.3,7.4-11.1,4.2-15.3c-3.2-4.2-10.3-4.1-15.9,0.2
		c-4.5,3.5-6.6,8.6-5.5,12.7c-1.3,2.3-4.4,5.2-11,8.4c-1.1-0.7-2.3-1.2-3.5-1.6c-0.1-3.1,0.1-9.2,3.5-13.2c3.8-1.1,7.2-5,8.3-10.2
		c1.5-6.8-1.5-13.3-6.7-14.4c-5.2-1.1-10.6,3.5-12,10.4c-1.2,5.5,0.5,10.8,4,13.2c0.5,2.6,0,6.8-3.1,13.6c-1.3,0.1-2.5,0.4-3.8,0.9
		c-2.1-2.3-5.8-7-5.7-12.3c2.2-3.3,2.3-8.5-0.2-13.2c-3.3-6.2-9.7-9.2-14.4-6.8c-4.7,2.5-5.8,9.5-2.6,15.7c2.6,5,7.4,8,11.5,7.6
		c2,1.7,4.3,5.2,6.3,12.2c-1,1-1.8,2.1-2.5,3.3c-3.1-0.4-8.8-1.8-12.1-5.7c-0.4-3.9-3.7-7.9-8.6-9.9c-6.5-2.7-13.4-0.8-15.4,4
		c-2,4.9,1.6,11,8.1,13.7c5.2,2.1,10.8,1.4,13.7-1.6c2.6,0,6.5,1.2,12.4,5.1c-0.2,1.5-0.2,3,0,4.5c-2.8,1.7-7.7,4-12.5,3.2
		c-2.9-2.7-7.9-3.7-13-2.1c-6.7,2.1-10.8,7.9-9.2,13c1.6,5,8.3,7.4,15,5.3c5.4-1.7,9.1-5.9,9.5-10.1c1.9-1.6,5.4-3.2,11.9-3.9
		c0,0,0,0.1,0.1,0.1c0.8,1.5,1.9,3.1,3.2,4.7c-1.2,3-3.4,6.9-7,9c-4-0.3-8.5,2.3-11.3,6.7c-3.7,5.9-3.1,13,1.3,15.8
		c4.5,2.8,11.1,0.3,14.9-5.6c3-4.8,3.2-10.4,0.8-13.8c0.4-2,1.6-4.8,4.7-8.5c4.8,4.6,11,8.3,15.7,7.5c5.6,11.9,5.3,30.4,3.9,44.3
		l-4.3,19.5c-4.5-8-12.9-19.9-24-22.2c0.5-3.6-1.2-7.3-4.6-9.2c-2.2-1.2-4.7-1.5-7-0.8c-0.5-2-1.8-3.8-3.7-4.9
		c-3.6-2-8.2-0.9-10.1,2.6c-0.8,1.5-1.1,3.2-0.7,4.7c-3.6-1.2-7.6,0.3-9.5,3.8c-2.2,3.9-0.8,8.8,3.1,11c1.1,0.6,2.3,0.9,3.5,1
		c0,0-0.1,0.1-0.1,0.1c-2.7,4.8-1,11,3.9,13.7c4.3,2.4,9.5,1.3,12.6-2.2c0.1,0,0.1,0.1,0.2,0.1c4.4,2.5,10,0.9,12.5-3.5
		c2.2-3.9,1.2-8.7-2-11.5c3.6,0.1,15,3.1,22.1,35.8L147,429.9h45l3.8-153.3l76.2,159.2l83.1-167.1l-1.6,160.6v0.2v0.2h0.1l0.1,0.3
		h44.6l0-0.3h12.8c17.2,0,31.5-1.6,43-4.8c10.5-3.3,19.9-9.1,28.3-17.5c14-13.7,20.9-30.3,20.9-50.1
		C503.3,342.2,499.4,329,491.6,317.7z M114.1,172.9c0,0.1,0,0.2,0,0.3c-0.8-0.1-1.6-0.1-2.4,0.1c0-0.2-0.1-0.5-0.1-0.7
		C112.5,172.9,113.3,173,114.1,172.9z M400.9,212h4.1c12.9,0,22.7,3.1,29.4,9.3s10.2,15.2,10.2,27.1c0,12.2-3.3,21.4-9.9,27.7
		c-6.6,6.3-17,9.4-31.2,9.4H400L400.9,212z M453.1,383.4c-8,6.7-20.7,10.2-37.9,10.2h-16.5l0.9-76.3h11.2c20.6,0,34.7,3.6,42.7,10.9
		c8.2,7.4,12.3,16.5,12.3,27.5C465.9,366.9,461.6,376.2,453.1,383.4z"/>
</g>
</svg>
