<?xml version="1.0" encoding="utf-8"?>
<!-- Generator: Adobe Illustrator 22.1.0, SVG Export Plug-In . SVG Version: 6.00 Build 0)  -->
<svg version="1.1" id="Layer_1" xmlns="http://www.w3.org/2000/svg" xmlns:xlink="http://www.w3.org/1999/xlink" x="0px" y="0px"
	 viewBox="0 0 25 25" style="enable-background:new 0 0 25 25;" xml:space="preserve">
<style type="text/css">
	.st0{fill:url(#SVGID_1_);}
	.st1{fill:#FFFFFF;}
</style>
<linearGradient id="SVGID_1_" gradientUnits="userSpaceOnUse" x1="12.5" y1="1" x2="12.5" y2="26" gradientTransform="matrix(1 0 0 -1 0 26)">
	<stop  offset="0" style="stop-color:#4F97BA"/>
	<stop  offset="1" style="stop-color:#00689B"/>
</linearGradient>
<rect class="st0" width="25" height="25"/>
<g id="_x39_arirk.tif">
	<g>
		<path class="st1" d="M10.5,13.1L10.5,13.1c-0.9-0.4-1.7-0.8-2.4-1.3c-0.3-0.2-0.6-0.5-0.8-0.8c-0.2-0.3-0.2-0.7,0-1
			c0.1-0.3,0.4-0.5,0.6-0.7C8.3,9,8.7,8.8,9.2,8.6C10,8.3,10.8,8,11.7,7.9c0.5-0.1,0.9-0.2,1.4-0.2c0.4-0.1,0.8-0.1,1.2-0.1
			c0.8-0.1,1.7-0.2,2.5-0.5C17,7,17.2,6.9,17.4,6.8c0.1-0.1,0.2-0.2,0.3-0.3C18,6.3,18.1,6,17.9,5.6c-0.1-0.2-0.2-0.4-0.3-0.5
			c-0.3-0.4-0.7-0.7-1.1-0.9c-0.4-0.2-0.8-0.4-1.1-0.7c0,0-0.1,0-0.1-0.1h0.1c0.7,0.3,1.4,0.6,2.1,1c0.4,0.2,0.7,0.4,1,0.7
			c0.2,0.2,0.4,0.4,0.5,0.7c0.2,0.4,0.2,0.8,0,1.2c-0.1,0.2-0.3,0.4-0.5,0.6c-0.4,0.3-0.8,0.5-1.3,0.7c-0.9,0.4-1.7,0.6-2.6,0.8
			c-0.5,0.1-0.9,0.2-1.4,0.2c-0.3,0-0.5,0.1-0.8,0.1c-0.9,0.1-1.7,0.2-2.5,0.4C9.6,9.9,9.3,10,9,10.2c-0.2,0.1-0.3,0.2-0.4,0.3
			c-0.3,0.3-0.3,0.7-0.1,1S9,12,9.3,12.3s0.7,0.5,1.1,0.7C10.4,13,10.5,13,10.5,13.1L10.5,13.1z"/>
		<path class="st1" d="M13,15.9c0-0.6,0-1.2,0-1.7c0.1,0,0.1,0,0.2,0c0.5,0,1.1-0.1,1.6-0.2c0.7-0.1,1.4-0.2,2.1-0.4
			c0.2-0.1,0.3-0.1,0.5-0.2c0.1,0,0.2-0.1,0.3-0.2c0.4-0.3,0.5-0.7,0.2-1.1c-0.1-0.1-0.2-0.2-0.2-0.4c-0.3-0.4-0.7-0.7-1.1-0.9
			s-0.8-0.5-1.1-0.7c0,0-0.1,0-0.1-0.1c0,0,0,0,0.1,0c0.8,0.3,1.6,0.7,2.3,1.2c0.3,0.2,0.7,0.4,0.9,0.7c0.2,0.2,0.3,0.4,0.4,0.6
			c0.2,0.4,0.1,0.7,0,1c-0.1,0.2-0.3,0.4-0.5,0.6c-0.3,0.3-0.7,0.5-1.1,0.7c-0.7,0.3-1.5,0.6-2.3,0.8c-0.6,0.2-1.3,0.3-1.9,0.3
			C13.1,15.9,13.1,15.9,13,15.9L13,15.9z"/>
		<path class="st1" d="M13.3,1.3c0,0.6,0,1.2,0,1.8c-0.1,0-0.2,0-0.3,0c-0.4,0-0.8,0-1.2,0.1c-0.8,0-1.6,0.2-2.4,0.4
			C9.2,3.7,9,3.8,8.9,3.9C8.7,4,8.6,4.1,8.5,4.2C8.3,4.4,8.3,4.6,8.4,4.8c0,0.2,0.1,0.3,0.2,0.5C8.8,5.6,9.1,5.8,9.4,6
			c0.4,0.3,0.9,0.6,1.3,0.8c0.1,0,0.1,0.1,0.2,0.1c0,0,0,0-0.1,0C10,6.6,9.2,6.2,8.4,5.7C8.1,5.5,7.9,5.3,7.6,5.1
			C7.5,5,7.4,4.8,7.2,4.6C7,4.3,7,3.9,7.2,3.6c0.1-0.2,0.2-0.4,0.4-0.5c0.3-0.3,0.7-0.5,1.2-0.7c0.7-0.3,1.5-0.5,2.2-0.7
			s1.4-0.3,2.1-0.4C13.1,1.3,13.2,1.3,13.3,1.3z"/>
	</g>
</g>
<g>
	<path class="st1" d="M4.4,23.6v-6.2h0.9l2,3.1c0.5,0.7,0.8,1.4,1.1,2l0,0c-0.1-0.8-0.1-1.6-0.1-2.5v-2.6H9v6.2H8.2l-2-3.1
		c-0.4-0.7-0.8-1.4-1.2-2.1l0,0c0,0.8,0.1,1.5,0.1,2.5v2.6H4.4z"/>
	<path class="st1" d="M14.7,23.4c-0.3,0.1-0.9,0.3-1.6,0.3c-1.7,0-3-1.1-3-3.1c0-1.9,1.3-3.2,3.2-3.2c0.8,0,1.3,0.2,1.5,0.3
		l-0.2,0.7c-0.3-0.1-0.7-0.3-1.2-0.3c-1.4,0-2.4,0.9-2.4,2.5c0,1.5,0.9,2.5,2.4,2.5c0.5,0,1-0.1,1.3-0.3L14.7,23.4z"/>
	<path class="st1" d="M15.7,17.5c0.3-0.1,0.9-0.1,1.5-0.1c0.8,0,1.3,0.1,1.7,0.4c0.3,0.2,0.5,0.6,0.5,1.1c0,0.6-0.4,1.1-1,1.4v0
		c0.6,0.1,1.3,0.6,1.3,1.5c0,0.5-0.2,0.9-0.5,1.2c-0.4,0.4-1.1,0.6-2.1,0.6c-0.5,0-1,0-1.2-0.1V17.5z M16.5,20h0.7
		c0.8,0,1.3-0.4,1.3-1c0-0.7-0.5-1-1.4-1c-0.4,0-0.6,0-0.7,0.1V20z M16.5,23c0.2,0,0.4,0,0.7,0c0.8,0,1.6-0.3,1.6-1.2
		c0-0.8-0.7-1.2-1.6-1.2h-0.7V23z"/>
	<path class="st1" d="M21.5,17.4v6.2h-0.8v-6.2H21.5z"/>
</g>
</svg>
