<?xml version="1.0" encoding="utf-8"?>
<!-- Generator: Adobe Illustrator 22.1.0, SVG Export Plug-In . SVG Version: 6.00 Build 0)  -->
<svg version="1.1" id="Layer_1" xmlns="http://www.w3.org/2000/svg" xmlns:xlink="http://www.w3.org/1999/xlink" x="0px" y="0px"
	 viewBox="0 0 25 25" style="enable-background:new 0 0 25 25;" xml:space="preserve">
<style type="text/css">
	.st0{fill:#73C4E0;}
	.st1{fill:#FDFDFE;}
	.st2{fill:#027BAF;}
	.st3{fill:#251F1F;}
</style>
<rect class="st0" width="25" height="25"/>
<g id="afncCA.tif">
	<g>
		<path class="st1" d="M6.5,4.5c0-0.5,0-1.2,0-1.7l0,0C6.7,3,7.2,3,7.5,3.3C8.4,4,8.9,4.8,9.1,6c0.2,0.7,0.2,1.4,0.2,2.2
			c0,3.8,0,7.7,0,11.5c0-0.2,0-0.5,0-0.7c0-0.7-0.2-1.7-0.7-2.4c-0.5-0.7-1-1.4-1.9-1.9c-0.2,0-0.2-0.2-0.2-0.2c0-3.1,0-6.5,0-9.6
			C6.7,4.8,6.5,4.8,6.5,4.5z"/>
		<path class="st2" d="M22.3,23c-0.5-0.2-0.7-0.7-1.2-1c-1.2-1-2.6-1.9-4.1-2.6c-1-0.5-1.9-0.7-3.1-1c-1.9-0.2-3.6,0.7-4.6,2.4l0,0
			v-0.2c0-3.8,0-7.7,0-11.8c0-0.2,0-0.2,0-0.5c1-1.9,2.4-2.9,4.6-2.9c1.4,0,2.9,0.2,4.1,1c1.4,0.7,2.9,1.4,4.1,2.4c0,0,0,0,0,0.2
			s0,0.2,0,0.5c0,4.3,0,8.9,0,13.2C22.3,23,22.3,23,22.3,23z M16.1,13.9L16.1,13.9c-0.7-1.7-1.2-3.1-1.7-4.6c0-0.2-0.2-0.2-0.2-0.2
			c-0.7,0-1.2,0-1.9,0c-0.2,0-0.2,0-0.2,0.2c-0.2,1.9-0.7,3.8-1,5.5c-0.2,1-0.2,1.9-0.5,2.9c0,0,0,0.2,0.2,0.2c0.7,0,1.4,0,1.9,0
			c0,0,0.2,0,0.2-0.2c0.2-1.2,0.2-2.2,0.5-3.4c0-0.5,0.2-1,0.2-1.7v0.2c0.5,1.4,1.2,2.9,1.7,4.3c0,0.2,0.2,0.5,0.2,0.7
			c0.2,0.2,0.5,0,0.7,0s0.2,0,0.2-0.2c0.5-1.2,1-2.2,1.4-3.4c0.2-0.5,0.5-1,0.7-1.7l0,0c0,0.5,0.2,1,0.2,1.4
			c0.2,1.2,0.2,2.2,0.5,3.4c0,0.2,0,0.2,0.2,0.2c0.7,0,1.2,0,1.9,0c0.2,0,0.2,0,0.2-0.2c-0.2-1.4-0.5-3.1-0.7-4.6
			c-0.2-1.2-0.5-2.6-0.5-3.8c0-0.2,0-0.2-0.2-0.2c-0.7,0-1.2,0-1.9,0c-0.2,0-0.2,0-0.2,0.2c-0.2,0.7-0.5,1.4-1,2.2
			C16.8,12.4,16.3,13.2,16.1,13.9z"/>
		<path class="st3" d="M6.5,4.5v0.2c0,3.1,0,6.5,0,9.6c0,0.2,0,0.2,0.2,0.2c1,0.2,1.4,1,1.9,1.9c0.5,0.7,0.5,1.4,0.7,2.4
			c0,0.7,0,1.4,0,1.9l0,0c0-0.2,0-0.5-0.2-0.7c-0.5-1.4-1.4-2.4-2.9-2.6c-0.5-0.2-1.2-0.2-1.9-0.2c-0.2,0-0.2,0-0.2-0.2
			c0-4.3,0-8.6,0-13c0-0.2,0.2-0.2,0.2-0.2C5.3,4,6,4.3,6.5,4.5z"/>
		<path class="st1" d="M16.1,13.9c0.2-0.7,0.7-1.7,1-2.4c0.2-0.7,0.5-1.4,1-2.2c0-0.2,0.2-0.2,0.2-0.2c0.7,0,1.2,0,1.9,0
			c0.2,0,0.2,0,0.2,0.2c0.2,1.2,0.5,2.6,0.5,3.8c0.2,1.4,0.5,3.1,0.7,4.6c0,0.2,0,0.2-0.2,0.2c-0.7,0-1.2,0-1.9,0
			c-0.2,0-0.2,0-0.2-0.2c-0.2-1.2-0.2-2.2-0.5-3.4c0-0.5-0.2-1-0.2-1.4l0,0c-0.2,0.5-0.5,1.2-0.7,1.7c-0.5,1.2-1,2.2-1.4,3.4
			c0,0.2-0.2,0.2-0.2,0.2c-0.2,0-0.5,0-0.7,0c-0.2-0.2-0.2-0.5-0.2-0.7c-0.5-1.4-1.2-2.9-1.7-4.3c0,0,0,0,0-0.2
			c0,0.5-0.2,1.2-0.2,1.7c-0.2,1.2-0.2,2.2-0.5,3.4c0,0,0,0.2-0.2,0.2c-0.7,0-1.4,0-1.9,0c-0.2,0-0.2,0-0.2-0.2
			c0.2-1,0.2-1.9,0.5-2.9c0.2-1.9,0.7-3.8,1-5.5c0-0.2,0-0.2,0.2-0.2c0.7,0,1.2,0,1.9,0c0.2,0,0.2,0,0.2,0.2
			C14.9,10.8,15.3,12.2,16.1,13.9L16.1,13.9z"/>
	</g>
</g>
</svg>
