<?xml version="1.0" encoding="utf-8"?>
<!-- Generator: Adobe Illustrator 22.1.0, SVG Export Plug-In . SVG Version: 6.00 Build 0)  -->
<svg version="1.1" id="Layer_1" xmlns="http://www.w3.org/2000/svg" xmlns:xlink="http://www.w3.org/1999/xlink" x="0px" y="0px"
	 viewBox="0 0 201 201" style="enable-background:new 0 0 201 201;" xml:space="preserve">
<style type="text/css">
	.st0{fill:#FFCC00;}
</style>
<g>
	<path class="st0" d="M149,29.9c2.2,0,4.3,0,6.5,0c1.2,0.3,2.4,0.5,3.6,0.8c7.1,2,12.3,6.5,16.3,12.5c5.1,7.5,7.5,16,9,24.8
		c0.5,3.3,0.8,6.6,1.1,9.9c0,4.6,0,9.1,0,13.7c-0.1,1.4-0.3,2.8-0.4,4.2c-0.8,10.4-2.8,20.6-6.1,30.5c-3.5,10.4-8.2,20-15.2,28.5
		c-5.4,6.4-11.8,11.6-19.8,14.4c-3.1,1.1-6.3,1.6-9.6,2c-1.4,0-2.7,0-4.1,0c-0.2,0-0.4-0.1-0.6-0.1c-4.8-0.3-9.3-1.7-13.6-3.8
		c-6.6-3.3-12.1-8-17.2-13.3c-6.6-7-12.1-14.9-17.4-22.9c-0.9-1.4-0.9-1.4-2.1-0.2c-4.2,4.4-8.7,8.5-14,11.6
		c-6.1,3.6-12.5,5.1-19.6,3.4c-7-1.7-12.5-5.7-17-11.2c-6.4-7.9-9.9-17.1-11.9-26.9c-0.7-3.4-1-6.9-1.4-10.4c0-2.1,0-4.2,0-6.2
		c0.1-1.3,0.2-2.6,0.4-3.9c0.8-6.1,2.4-11.9,5.9-16.9c4.7-6.7,11.1-10.2,19.3-10.2c5.4,0,10.1,2,14.4,5.1c4.7,3.4,8.5,7.7,12,12.3
		c5.2,6.7,9.6,14,14,21.2c0.8,1.2,0.8,1.3,1.6,0.1c6.2-8.8,12.4-17.6,18.7-26.3c7.2-10,14.6-20,23.5-28.6
		C132.1,37.1,139.4,31.6,149,29.9z M132.3,154c0.8-0.1,1.7-0.1,2.5-0.2c5.7-0.8,10.2-3.8,14.1-7.8c5.9-6.1,9.8-13.4,12.7-21.2
		c4.9-13.3,7.1-27,6.8-41.1c-0.1-6.1-0.6-12-2-17.9c-1.2-5.1-2.8-9.9-6-14.1c-3.8-5-8.4-5.9-13.9-2.9c-2.7,1.5-5,3.4-7.3,5.5
		c-6.7,6.2-12.3,13.3-17.8,20.6c-10,13.2-18.9,27.1-29,40.2c-0.5,0.6-0.3,1.1,0,1.6c4.3,6.9,8.8,13.7,13.9,20
		c4.1,5.1,8.4,9.8,13.9,13.4C123.9,152.3,127.8,154,132.3,154z M32.6,94c0,2.2,0.2,4.4,0.5,6.6c0.9,7,2.9,13.6,6.6,19.6
		c1.7,2.9,3.8,5.5,6.6,7.3c3,1.9,6.1,2.3,9.3,0.5c1.4-0.8,2.8-1.6,4-2.6c4-3.1,7.4-6.8,10.7-10.5c0.7-0.7,0.4-1.3,0-2
		c-3-4.9-5.9-9.8-9-14.6c-3.5-5.5-7.1-10.8-11.4-15.7c-1.8-2.1-3.8-4-6.3-5.3c-2.6-1.3-5.4-0.6-7.2,1.6c-0.9,1.2-1.6,2.5-2.1,3.9
		C33,86.5,32.7,90.3,32.6,94z"/>
</g>
</svg>
