<?xml version="1.0" encoding="utf-8"?>
<!-- Generator: Adobe Illustrator 22.1.0, SVG Export Plug-In . SVG Version: 6.00 Build 0)  -->
<svg version="1.1" id="Layer_1" xmlns="http://www.w3.org/2000/svg" xmlns:xlink="http://www.w3.org/1999/xlink" x="0px" y="0px"
	 viewBox="0 0 25 25" style="enable-background:new 0 0 25 25;" xml:space="preserve">
<style type="text/css">
	.st0{fill:#FFFFFF;}
	.st1{fill:#FF061F;}
</style>
<rect class="st0" width="25" height="25"/>
<g>
	<path class="st1" d="M0,8.7C0,8.8,0,8.9,0,9c2-0.8,4-1.6,6-2.4C5.9,6,6,5.5,6.2,5C6.5,4.2,7,3.8,7.7,3.4c0.2-0.1,0.5-0.3,0.9,0
		C8.9,2.3,9,1.2,9.2,0C9.1,0,9,0,8.9,0C6.5,0,4,0,1.5,0v0H0v1.5h0C0,3.9,0,6.3,0,8.7z M2.8,3.1C2.8,3,2.9,2.9,3,2.9
		c0.2,0,0.5,0,0.7,0c0.2,0,0.2-0.1,0.2-0.2c0-0.2,0-0.4,0-0.7c0-0.1,0-0.2,0.2-0.2c0.1,0,0.2,0,0.2,0c0.6,0,0.6,0,0.6,0.6
		c0,0.6-0.1,0.5,0.5,0.5C6,2.9,6,2.9,6,3.5c0,0.1,0,0.1,0,0.2c0,0.2-0.1,0.3-0.2,0.2c-0.2,0-0.4,0-0.6,0C4.9,3.9,4.9,4,4.9,4.2
		c0,0.2,0,0.4,0,0.7c0,0.1,0,0.2-0.2,0.2C4.5,5,4.3,5,4,5c-0.1,0-0.2,0-0.2-0.2c0-0.2,0-0.4,0-0.6c0-0.3,0-0.3-0.3-0.3
		c-0.2,0-0.5,0-0.7,0C2.8,3.6,2.8,3.3,2.8,3.1z"/>
	<path class="st1" d="M21.3,15.3c-0.5,0-1,0-1.6,0c0,0.5,0,1,0,1.4c0.5,0,1,0,1.5,0c0.4,0,0.7-0.3,0.7-0.7
		C21.9,15.6,21.7,15.3,21.3,15.3z"/>
	<path class="st1" d="M21.7,13.7c0-0.3-0.1-0.5-0.5-0.6c-0.4,0-0.9,0-1.4-0.1c0,0-0.1,0.1-0.1,0.1c0,0.4,0,0.8,0,1.2
		c0.5,0,1,0,1.5-0.1C21.5,14.3,21.7,14.1,21.7,13.7z"/>
	<path class="st1" d="M25,0h-1.5v0c-4.3,0-8.6,0-12.9,0c-0.2,0-0.3,0.1-0.3,0.3C10.1,1.2,10,2.2,9.8,3.1c0,0.2,0,0.3,0,0.4
		c0.1,0,0.3,0,0.3,0C10.5,3.8,10.8,4,11,4.3c0.6,0.7,0.9,1.5,0.5,2.5c0,0,0,0,0.1,0C13,7.6,14.5,8.4,16,9.2c0.1,0.1,0.2,0.1,0.4,0
		c0.5-0.3,1.1-0.2,1.5,0.1c0.4,0.4,0.6,0.9,0.4,1.4c-0.2,0.5-0.8,0.9-1.3,0.8c-0.6-0.1-1.1-0.5-1.2-1.1c0-0.2-0.1-0.4-0.4-0.5
		c-0.9-0.5-1.9-1-2.8-1.4c-0.5-0.2-1-0.5-1.5-0.7c-0.1,0-0.1,0-0.2-0.1C10.9,7.9,10.9,8,10.9,8C9.3,9.5,7.3,9,6.4,7.6
		c-0.1,0-0.1,0-0.2,0.1c-2,0.8-4,1.6-6,2.3C0.1,10.1,0,10.2,0,10.4c0,2.4,0,4.8,0,7.2c0,0.2,0,0.4,0.1,0.5V25H25v-7h-0.1
		c0-0.1,0.1-0.3,0.1-0.5c0-5.2,0-10.5,0-15.7h0V0z M14.7,17.3c-0.8,0.4-1.6,0.4-2.4,0.1c-0.5-0.2-0.8-0.6-0.9-1.1
		c-0.1-0.3,0-0.6,0.3-0.7c0.3-0.1,0.5,0,0.6,0.3c0.1,0.2,0.2,0.4,0.3,0.6c0.4,0.4,1.3,0.4,1.6,0c0.3-0.3,0.2-0.8-0.2-1
		c-0.3-0.1-0.6-0.2-0.9-0.3c-0.3-0.1-0.6-0.2-0.9-0.3c-0.5-0.2-0.8-0.7-0.8-1.3c0-0.6,0.4-1,0.9-1.2c0.3-0.1,0.7-0.2,1-0.2
		c0.6,0,1.1,0.2,1.5,0.6c0.2,0.2,0.3,0.4,0.3,0.7c0,0.2-0.1,0.4-0.3,0.5c-0.2,0.1-0.4,0-0.5-0.2c0-0.1-0.1-0.1-0.1-0.2
		c-0.3-0.6-1-0.7-1.5-0.4c-0.4,0.2-0.4,0.7,0,0.9c0.2,0.1,0.5,0.2,0.7,0.3c0.4,0.1,0.8,0.2,1.2,0.4c0.5,0.2,0.9,0.6,0.9,1.2
		C15.5,16.5,15.3,17,14.7,17.3z M17.5,17c0,0.3-0.1,0.5-0.3,0.6c-0.3,0.1-0.6,0-0.7-0.3c0-0.1,0-0.2,0-0.4c0-1.3,0-2.7,0-4
		c0-0.4,0.1-0.6,0.4-0.7c0.3-0.1,0.6,0.1,0.7,0.3c0,0.1,0,0.2,0,0.3c0,0.7,0,1.3,0,2C17.5,15.6,17.5,16.3,17.5,17z M22,17.4
		c-0.2,0.1-0.5,0.1-0.7,0.1c-0.7,0-1.4,0-2,0c-0.4,0-0.6-0.2-0.6-0.5c0-0.9,0-1.7,0-2.6c0-0.5,0-1,0-1.5c0-0.4,0.2-0.5,0.5-0.5
		c0.8,0,1.6,0,2.4,0c0.6,0,1,0.5,1.1,1c0.1,0.5-0.1,1-0.6,1.3c0,0-0.1,0-0.1,0.1c0.1,0,0.1,0.1,0.2,0.1c0.5,0.3,0.8,0.7,0.8,1.3
		C22.9,16.7,22.6,17.2,22,17.4z"/>
</g>
</svg>
