<?xml version="1.0" encoding="utf-8"?>
<!-- Generator: Adobe Illustrator 22.1.0, SVG Export Plug-In . SVG Version: 6.00 Build 0)  -->
<svg version="1.1" id="Layer_1" xmlns="http://www.w3.org/2000/svg" xmlns:xlink="http://www.w3.org/1999/xlink" x="0px" y="0px"
	 viewBox="0 0 50 50" style="enable-background:new 0 0 50 50;" xml:space="preserve">
<style type="text/css">
	.st0{fill:#3D34B2;}
	.st1{fill:#7966FF;}
	.st2{fill:#282828;}
	.st3{fill:#FFFFFF;}
	.st4{fill:url(#SVGID_1_);}
</style>
<g>
	<polyline class="st0" points="12.5,47 37.5,47 50,25.5 37.5,4 	"/>
	<polyline class="st1" points="37.5,4 12.5,4 0,25.5 12.5,47 	"/>
</g>
<polygon class="st2" points="45,16.9 5.1,16.7 0,25.5 4.6,33.3 45.4,33.3 50,25.5 "/>
<g>
	<path class="st3" d="M11.2,24.7H8.8v-1.6c0-0.5,0-0.8-0.1-0.9S8.5,22,8.4,22c-0.2,0-0.3,0.1-0.4,0.2s-0.1,0.5-0.1,0.9v4.4
		c0,0.5,0,0.8,0.1,0.9s0.2,0.2,0.4,0.2s0.3-0.1,0.4-0.2c0.1-0.1,0.1-0.5,0.1-1v-1.2h2.5v0.4c0,1-0.1,1.7-0.2,2.1
		c-0.1,0.4-0.4,0.8-0.9,1.1s-1.1,0.5-1.8,0.5s-1.3-0.1-1.8-0.4s-0.9-0.7-1.1-1.2s-0.2-1.1-0.2-2v-2.8c0-0.7,0-1.2,0.1-1.5
		s0.2-0.7,0.4-1c0.2-0.3,0.6-0.6,1-0.7s0.9-0.3,1.4-0.3c0.7,0,1.3,0.1,1.8,0.4s0.8,0.6,0.9,1.1s0.2,1.1,0.2,2V24.7z"/>
	<path class="st3" d="M21.4,20.5L20.3,30h-3.1c-0.3-1.5-0.5-3.1-0.7-5c-0.1,0.8-0.3,2.5-0.7,5h-3.1l-1.1-9.5H14l0.3,3.3l0.3,3.2
		c0.1-1.7,0.3-3.8,0.7-6.5h2.6c0,0.3,0.1,1.3,0.3,3.1l0.3,3.6c0.1-2.3,0.4-4.5,0.7-6.7H21.4z"/>
	<path class="st3" d="M24.3,20.5v7.6h1.5V30h-4v-9.5H24.3z"/>
	<path class="st3" d="M38.1,23.8V27c0,0.7,0,1.2-0.1,1.6c-0.1,0.4-0.2,0.6-0.5,0.9S37,30,36.6,30.1c-0.4,0.1-0.7,0.2-1.2,0.2
		c-0.6,0-1-0.1-1.4-0.2c-0.4-0.1-0.7-0.4-0.9-0.7c-0.2-0.3-0.4-0.6-0.5-0.9c-0.1-0.3-0.1-0.8-0.1-1.5v-3.3c0-0.9,0.1-1.5,0.2-2
		c0.1-0.5,0.4-0.8,0.9-1s1-0.4,1.6-0.4c0.5,0,1,0.1,1.4,0.3c0.4,0.2,0.7,0.4,0.9,0.7c0.2,0.3,0.3,0.6,0.4,0.9
		C38,22.5,38.1,23,38.1,23.8z M35.7,23c0-0.5,0-0.8-0.1-0.9c-0.1-0.1-0.2-0.2-0.3-0.2c-0.2,0-0.3,0.1-0.3,0.2s-0.1,0.4-0.1,0.9v4.6
		c0,0.6,0,0.9,0.1,1c0.1,0.1,0.2,0.2,0.3,0.2s0.3-0.1,0.3-0.2s0.1-0.4,0.1-0.9V23z"/>
	<path class="st3" d="M31.7,28.4V30h-5.2v-1.4c1.5-2.5,2.5-4.1,2.8-4.7s0.4-1.1,0.4-1.4s0-0.5-0.1-0.6s-0.2-0.2-0.4-0.2
		s-0.3,0.1-0.4,0.2c-0.1,0.1-0.1,0.4-0.1,0.8v0.9h-2.1v-0.3c0-0.5,0-1,0.1-1.3s0.2-0.6,0.4-0.9s0.5-0.5,0.8-0.7s0.8-0.2,1.2-0.2
		c0.9,0,1.7,0.2,2.1,0.7s0.7,1.1,0.7,1.8c0,0.5-0.1,1.1-0.4,1.7s-1.1,1.9-2.4,3.9L31.7,28.4C31.7,28.3,31.7,28.4,31.7,28.4z"/>
	<path class="st3" d="M38.8,27.5h2.4c0,0.4,0,0.7,0,0.8s0.1,0.2,0.1,0.3s0.2,0.1,0.3,0.1s0.2,0,0.3-0.1s0.1-0.2,0.1-0.3s0-0.4,0-0.7
		v-1.5c-0.1,0.3-0.3,0.4-0.5,0.6s-0.5,0.2-0.9,0.2s-0.8-0.1-1.1-0.4S39.1,26,39,25.7s-0.1-0.8-0.1-1.3v-0.8c0-0.7,0-1.2,0.1-1.5
		s0.2-0.6,0.4-0.9s0.5-0.5,0.9-0.6s0.8-0.2,1.3-0.2c0.6,0,1.2,0.1,1.6,0.3s0.7,0.4,0.9,0.8s0.4,0.7,0.4,1s0.1,1.1,0.1,2.1v1.3
		c0,1.1,0,1.9,0,2.3s-0.2,0.7-0.4,1.1s-0.6,0.6-1,0.8s-0.9,0.3-1.4,0.3c-0.7,0-1.2-0.1-1.6-0.3s-0.7-0.5-0.9-0.9
		S38.8,28.1,38.8,27.5z M41.2,24.5c0,0.4,0.1,0.6,0.2,0.7s0.2,0.1,0.3,0.1c0.2,0,0.3-0.1,0.4-0.2s0.1-0.4,0.1-0.7v-1.7
		c0-0.4,0-0.7-0.1-0.8s-0.2-0.2-0.4-0.2c-0.1,0-0.2,0-0.3,0.1s-0.2,0.4-0.2,0.8V24.5z"/>
</g>
<linearGradient id="SVGID_1_" gradientUnits="userSpaceOnUse" x1="6.25" y1="41.55" x2="36.35" y2="41.55" gradientTransform="matrix(1 0 0 -1 0 52)">
	<stop  offset="0.1275" style="stop-color:#FFFFFF;stop-opacity:0"/>
	<stop  offset="1" style="stop-color:#FFFFFF"/>
</linearGradient>
<polygon class="st4" points="12.9,4.8 36.3,4.8 29.6,16.1 6.2,16.1 "/>
</svg>
