<?xml version="1.0" encoding="utf-8"?>
<!-- Generator: Adobe Illustrator 22.1.0, SVG Export Plug-In . SVG Version: 6.00 Build 0)  -->
<svg version="1.1" id="Layer_1" xmlns="http://www.w3.org/2000/svg" xmlns:xlink="http://www.w3.org/1999/xlink" x="0px" y="0px"
	 viewBox="0 0 50 50" style="enable-background:new 0 0 50 50;" xml:space="preserve">
<style type="text/css">
	.st0{fill:#4BE0EF;}
	.st1{fill:#ABF9FF;}
	.st2{fill:#0096D8;}
</style>
<g>
	<path class="st0" d="M48,27L27,48c-1.1,1.1-2.9,1.1-4,0L2,27c-1.1-1.1-1.1-2.9,0-4L23,2c1.1-1.1,2.9-1.1,4,0l21,21
		C49.1,24.1,49.1,25.9,48,27z"/>
</g>
<g>
	<path class="st1" d="M12.5,17.7v6h-1.4l0-4l-0.5,4h-1l-0.6-3.9l0,3.9H7.7v-6h2c0.1,0.4,0.1,0.8,0.2,1.3l0.2,1.5l0.4-2.8H12.5z"/>
	<path class="st1" d="M16.5,18.8v4.9H15l0-0.4c-0.1,0.2-0.2,0.3-0.4,0.4c-0.2,0.1-0.3,0.1-0.5,0.1c-0.2,0-0.4,0-0.6-0.1
		c-0.1-0.1-0.3-0.2-0.3-0.3c-0.1-0.1-0.1-0.3-0.1-0.4c0-0.1,0-0.4,0-0.8v-3.3h1.5v3.3c0,0.4,0,0.6,0,0.7c0,0.1,0.1,0.1,0.2,0.1
		c0.1,0,0.2,0,0.2-0.1c0-0.1,0-0.3,0-0.7v-3.3H16.5z"/>
	<path class="st1" d="M18.6,18.8l-0.1,0.6c0.2-0.5,0.5-0.7,0.9-0.7v1.7c-0.3,0-0.5,0-0.6,0.1c-0.1,0.1-0.2,0.2-0.2,0.3
		c0,0.1,0,0.4,0,0.9v1.9h-1.5v-4.9H18.6z"/>
	<path class="st1" d="M21.3,17.7v0.8h-1.5v-0.8H21.3z M21.3,18.8v4.9h-1.5v-4.9H21.3z"/>
	<path class="st1" d="M25.2,17.7v6h-1.5v-0.4c-0.1,0.1-0.3,0.3-0.5,0.3c-0.2,0.1-0.3,0.1-0.5,0.1c-0.2,0-0.4-0.1-0.6-0.2
		c-0.2-0.1-0.3-0.3-0.3-0.4c0-0.2-0.1-0.4-0.1-0.8v-2.3c0-0.4,0-0.6,0.1-0.8c0-0.2,0.2-0.3,0.3-0.4c0.2-0.1,0.4-0.2,0.6-0.2
		c0.2,0,0.4,0,0.5,0.1c0.2,0.1,0.3,0.2,0.4,0.3v-1.4H25.2z M23.8,20c0-0.2,0-0.3,0-0.4c0-0.1-0.1-0.1-0.2-0.1c-0.1,0-0.1,0-0.2,0.1
		c0,0.1,0,0.2,0,0.4v2.4c0,0.2,0,0.3,0,0.4c0,0.1,0.1,0.1,0.2,0.1c0.1,0,0.2,0,0.2-0.1c0-0.1,0-0.2,0-0.5V20z"/>
	<path class="st1" d="M27.1,20.6h-1.4v-0.3c0-0.4,0-0.7,0.1-0.9c0.1-0.2,0.3-0.4,0.5-0.5c0.3-0.2,0.6-0.2,1-0.2
		c0.5,0,0.9,0.1,1.1,0.3c0.3,0.2,0.4,0.4,0.5,0.7c0.1,0.3,0.1,0.8,0.1,1.6v2.5h-1.5v-0.4c-0.1,0.2-0.2,0.3-0.4,0.4
		c-0.1,0.1-0.3,0.1-0.5,0.1c-0.3,0-0.5-0.1-0.7-0.2c-0.2-0.1-0.3-0.5-0.3-1v-0.4c0-0.4,0.1-0.6,0.2-0.8c0.1-0.1,0.4-0.3,0.9-0.5
		c0.5-0.2,0.8-0.3,0.8-0.4c0-0.1,0.1-0.2,0.1-0.4c0-0.3,0-0.4-0.1-0.5c0-0.1-0.1-0.1-0.2-0.1c-0.1,0-0.2,0-0.2,0.1
		c0,0.1,0,0.2,0,0.5V20.6z M27.6,21.3c-0.2,0.2-0.4,0.3-0.4,0.4c0,0.1-0.1,0.3-0.1,0.5c0,0.3,0,0.4,0,0.5c0,0.1,0.1,0.1,0.2,0.1
		c0.1,0,0.2,0,0.2-0.1c0-0.1,0-0.2,0-0.5V21.3z"/>
	<path class="st1" d="M31.1,18.8L31,19.4c0.2-0.5,0.5-0.7,0.9-0.7v1.7c-0.3,0-0.5,0-0.6,0.1c-0.1,0.1-0.2,0.2-0.2,0.3
		c0,0.1,0,0.4,0,0.9v1.9h-1.5v-4.9H31.1z"/>
	<path class="st1" d="M35.7,18.8v4.9h-1.5l0-0.4c-0.1,0.2-0.2,0.3-0.4,0.4c-0.2,0.1-0.3,0.1-0.5,0.1c-0.2,0-0.4,0-0.6-0.1
		c-0.1-0.1-0.3-0.2-0.3-0.3c-0.1-0.1-0.1-0.3-0.1-0.4c0-0.1,0-0.4,0-0.8v-3.3h1.5v3.3c0,0.4,0,0.6,0,0.7c0,0.1,0.1,0.1,0.2,0.1
		c0.1,0,0.2,0,0.2-0.1c0-0.1,0-0.3,0-0.7v-3.3H35.7z"/>
	<path class="st1" d="M37.7,18.8l0,0.5c0.1-0.2,0.3-0.3,0.4-0.4c0.2-0.1,0.3-0.1,0.5-0.1c0.4,0,0.7,0.2,0.9,0.6
		c0.1-0.2,0.3-0.3,0.4-0.4s0.3-0.1,0.5-0.1c0.3,0,0.5,0.1,0.6,0.2c0.2,0.1,0.3,0.3,0.3,0.5c0,0.2,0.1,0.5,0.1,0.9v3.5h-1.4v-3.2
		c0-0.4,0-0.7,0-0.8c0-0.1-0.1-0.1-0.2-0.1c-0.1,0-0.2,0-0.2,0.1c0,0.1,0,0.4,0,0.8v3.2h-1.4v-3.1c0-0.5,0-0.8,0-0.9
		c0-0.1-0.1-0.1-0.2-0.1c-0.1,0-0.1,0-0.2,0.1c0,0.1-0.1,0.1-0.1,0.2c0,0.1,0,0.2,0,0.5v3.4h-1.4v-4.9H37.7z"/>
	<path class="st2" d="M19.1,25.3v10.3h-2.3l-1.4-4.7v4.7h-2.2V25.3h2.2l1.5,4.6v-4.6H19.1z"/>
	<path class="st2" d="M22.7,25.3v1.3h-2.6v-1.3H22.7z M22.7,27.1v8.4h-2.6v-8.4H22.7z"/>
	<path class="st2" d="M29.5,27.1v6.5c0,0.9,0,1.4-0.1,1.7c0,0.3-0.2,0.5-0.4,0.8c-0.2,0.3-0.6,0.5-1,0.7c-0.4,0.1-1,0.2-1.7,0.2
		c-0.8,0-1.5-0.1-2-0.4c-0.5-0.3-0.7-0.8-0.8-1.6h2.5c0,0.4,0.1,0.6,0.4,0.6c0.2,0,0.3-0.1,0.4-0.2c0.1-0.1,0.1-0.4,0.1-0.7V34
		c-0.2,0.2-0.5,0.3-0.7,0.5c-0.2,0.1-0.5,0.2-0.8,0.2c-0.5,0-0.8-0.1-1.1-0.3c-0.3-0.2-0.5-0.4-0.6-0.7c-0.1-0.3-0.2-0.7-0.2-1.3
		v-3.1c0-0.8,0.1-1.4,0.4-1.7c0.3-0.4,0.7-0.5,1.3-0.5c0.3,0,0.6,0.1,0.9,0.2c0.3,0.1,0.5,0.3,0.7,0.6l0.2-0.6H29.5z M26.9,29.4
		c0-0.4,0-0.6-0.1-0.7s-0.1-0.2-0.3-0.2c-0.1,0-0.3,0.1-0.3,0.2c-0.1,0.1-0.1,0.4-0.1,0.7v2.8c0,0.4,0,0.6,0.1,0.7
		c0,0.1,0.1,0.2,0.3,0.2c0.2,0,0.3-0.1,0.3-0.2c0.1-0.1,0.1-0.4,0.1-0.9V29.4z"/>
	<path class="st2" d="M36.2,27.1v6.5c0,0.9,0,1.4-0.1,1.7c0,0.3-0.2,0.5-0.4,0.8c-0.2,0.3-0.6,0.5-1,0.7c-0.4,0.1-1,0.2-1.7,0.2
		c-0.8,0-1.5-0.1-2-0.4c-0.5-0.3-0.7-0.8-0.8-1.6h2.5c0,0.4,0.1,0.6,0.4,0.6c0.2,0,0.3-0.1,0.4-0.2c0.1-0.1,0.1-0.4,0.1-0.7V34
		c-0.2,0.2-0.5,0.3-0.7,0.5c-0.2,0.1-0.5,0.2-0.8,0.2c-0.5,0-0.8-0.1-1.1-0.3c-0.3-0.2-0.5-0.4-0.6-0.7c-0.1-0.3-0.2-0.7-0.2-1.3
		v-3.1c0-0.8,0.1-1.4,0.4-1.7C31,27.2,31.5,27,32,27c0.3,0,0.6,0.1,0.9,0.2c0.3,0.1,0.5,0.3,0.7,0.6l0.2-0.6H36.2z M33.6,29.4
		c0-0.4,0-0.6-0.1-0.7c0-0.1-0.1-0.2-0.3-0.2c-0.1,0-0.3,0.1-0.3,0.2c-0.1,0.1-0.1,0.4-0.1,0.7v2.8c0,0.4,0,0.6,0.1,0.7
		s0.1,0.2,0.3,0.2c0.2,0,0.3-0.1,0.3-0.2s0.1-0.4,0.1-0.9V29.4z"/>
</g>
</svg>
