<?xml version="1.0" encoding="utf-8"?>
<!-- Generator: Adobe Illustrator 22.1.0, SVG Export Plug-In . SVG Version: 6.00 Build 0)  -->
<svg version="1.1" id="Layer_1" xmlns="http://www.w3.org/2000/svg" xmlns:xlink="http://www.w3.org/1999/xlink" x="0px" y="0px"
	 viewBox="0 0 50 50" style="enable-background:new 0 0 50 50;" xml:space="preserve">
<style type="text/css">
	.st0{fill:#7966FF;}
	.st1{fill:#DFDFDF;}
	.st2{fill:#CE9CFF;}
</style>
<g>
	<polygon class="st0" points="37.5,4 12.5,4 0,25.5 12.5,47 37.5,47 50,25.5 	"/>
</g>
<g>
	<path class="st1" d="M7.4,15.8h1.4c0.4,0,0.7,0,0.9,0.1c0.2,0.1,0.4,0.2,0.5,0.3c0.1,0.1,0.2,0.3,0.2,0.4c0,0.2,0.1,0.4,0.1,0.8
		v0.5c0,0.4,0,0.6-0.1,0.8S10.2,18.9,10,19c-0.2,0.1-0.4,0.1-0.8,0.1H8.8v2.2H7.4V15.8z M8.8,16.7v1.4c0,0,0.1,0,0.1,0
		c0.1,0,0.2,0,0.3-0.1c0.1-0.1,0.1-0.2,0.1-0.4v-0.5c0-0.2,0-0.3-0.1-0.4S9,16.7,8.8,16.7z"/>
	<path class="st1" d="M12.3,16.8l0,0.4c0.1-0.2,0.2-0.3,0.4-0.4c0.1-0.1,0.3-0.1,0.5-0.1c0.2,0,0.4,0.1,0.6,0.2s0.2,0.3,0.3,0.4
		c0,0.2,0.1,0.5,0.1,0.8v3.2h-1.4v-3.1c0-0.3,0-0.5,0-0.6s-0.1-0.1-0.2-0.1c-0.1,0-0.2,0-0.2,0.1c0,0.1,0,0.3,0,0.6v3.1h-1.4v-4.5
		H12.3z"/>
	<path class="st1" d="M17.6,19.1h-1.8v1c0,0.2,0,0.3,0,0.4c0,0.1,0.1,0.1,0.2,0.1c0.1,0,0.2,0,0.2-0.1c0-0.1,0.1-0.2,0.1-0.5v-0.6
		h1.3v0.3c0,0.3,0,0.5-0.1,0.6c0,0.2-0.1,0.3-0.2,0.5s-0.3,0.3-0.5,0.4c-0.2,0.1-0.4,0.1-0.8,0.1c-0.3,0-0.5,0-0.8-0.1
		c-0.2-0.1-0.4-0.2-0.5-0.3c-0.1-0.1-0.2-0.3-0.3-0.5c0-0.2-0.1-0.4-0.1-0.8v-1.3c0-0.4,0.1-0.7,0.2-0.9c0.1-0.2,0.3-0.4,0.5-0.5
		c0.2-0.1,0.5-0.2,0.8-0.2c0.4,0,0.7,0.1,1,0.2c0.3,0.1,0.4,0.3,0.5,0.6c0.1,0.2,0.2,0.6,0.2,1V19.1z M16.3,18.4v-0.3
		c0-0.2,0-0.4,0-0.5s-0.1-0.1-0.2-0.1c-0.1,0-0.2,0-0.2,0.1c0,0.1,0,0.2,0,0.5v0.3H16.3z"/>
	<path class="st1" d="M21.3,16.8v4.5h-1.4l0-0.4c-0.1,0.2-0.2,0.3-0.4,0.3c-0.1,0.1-0.3,0.1-0.5,0.1c-0.2,0-0.4,0-0.5-0.1
		s-0.2-0.2-0.3-0.3c-0.1-0.1-0.1-0.2-0.1-0.4s0-0.4,0-0.8v-3.1h1.4v3.1c0,0.4,0,0.6,0,0.6c0,0.1,0.1,0.1,0.2,0.1
		c0.1,0,0.2,0,0.2-0.1c0-0.1,0-0.3,0-0.7v-3.1H21.3z"/>
	<path class="st1" d="M26.2,15.8v5.5H25l0-3.7l-0.5,3.7h-0.9L23,17.7l0,3.7h-1.3v-5.5h1.9c0.1,0.3,0.1,0.7,0.2,1.2l0.2,1.4l0.3-2.6
		H26.2z"/>
	<path class="st1" d="M29.9,18.4v1.1c0,0.4,0,0.7-0.1,0.9s-0.1,0.4-0.3,0.5s-0.3,0.3-0.5,0.4c-0.2,0.1-0.5,0.1-0.7,0.1
		c-0.3,0-0.6,0-0.8-0.1c-0.2-0.1-0.4-0.2-0.5-0.3c-0.1-0.1-0.2-0.3-0.2-0.5c-0.1-0.2-0.1-0.5-0.1-0.9v-1.2c0-0.4,0-0.8,0.1-1
		c0.1-0.2,0.3-0.4,0.5-0.6c0.2-0.1,0.5-0.2,0.9-0.2c0.3,0,0.6,0,0.8,0.1c0.2,0.1,0.4,0.2,0.5,0.4c0.1,0.1,0.2,0.3,0.2,0.5
		C29.9,17.8,29.9,18.1,29.9,18.4z M28.5,18c0-0.2,0-0.4,0-0.4c0-0.1-0.1-0.1-0.2-0.1s-0.1,0-0.2,0.1c0,0.1,0,0.2,0,0.4v2
		c0,0.2,0,0.4,0,0.4c0,0.1,0.1,0.1,0.2,0.1c0.1,0,0.1,0,0.2-0.1c0-0.1,0-0.2,0-0.4V18z"/>
	<path class="st1" d="M31.8,16.8l0,0.4c0.1-0.2,0.2-0.3,0.4-0.4c0.1-0.1,0.3-0.1,0.5-0.1c0.2,0,0.4,0.1,0.6,0.2s0.2,0.3,0.3,0.4
		c0,0.2,0.1,0.5,0.1,0.8v3.2h-1.4v-3.1c0-0.3,0-0.5,0-0.6c0-0.1-0.1-0.1-0.2-0.1c-0.1,0-0.2,0-0.2,0.1c0,0.1,0,0.3,0,0.6v3.1h-1.4
		v-4.5H31.8z"/>
	<path class="st1" d="M35.4,15.8v0.7H34v-0.7H35.4z M35.4,16.8v4.5H34v-4.5H35.4z"/>
	<path class="st1" d="M37.2,18.5h-1.3v-0.3c0-0.4,0-0.6,0.1-0.8c0.1-0.2,0.2-0.4,0.5-0.5s0.6-0.2,1-0.2c0.5,0,0.8,0.1,1.1,0.2
		c0.2,0.2,0.4,0.4,0.4,0.6c0,0.2,0.1,0.7,0.1,1.5v2.3h-1.3v-0.4c-0.1,0.2-0.2,0.3-0.3,0.4c-0.1,0.1-0.3,0.1-0.5,0.1
		c-0.2,0-0.5-0.1-0.7-0.2c-0.2-0.1-0.3-0.4-0.3-0.9v-0.4c0-0.3,0.1-0.6,0.2-0.7c0.1-0.1,0.4-0.3,0.8-0.4c0.5-0.2,0.7-0.3,0.7-0.4
		c0-0.1,0-0.2,0-0.4c0-0.2,0-0.4-0.1-0.5c0-0.1-0.1-0.1-0.2-0.1c-0.1,0-0.2,0-0.2,0.1c0,0.1,0,0.2,0,0.5V18.5z M37.6,19.2
		c-0.2,0.2-0.3,0.3-0.4,0.4c0,0.1-0.1,0.3-0.1,0.5c0,0.2,0,0.4,0,0.5c0,0.1,0.1,0.1,0.2,0.1c0.1,0,0.1,0,0.2-0.1c0-0.1,0-0.2,0-0.4
		V19.2z"/>
	<path class="st1" d="M42.6,19.1h-1.8v1c0,0.2,0,0.3,0,0.4c0,0.1,0.1,0.1,0.2,0.1c0.1,0,0.2,0,0.2-0.1c0-0.1,0.1-0.2,0.1-0.5v-0.6
		h1.3v0.3c0,0.3,0,0.5-0.1,0.6c0,0.2-0.1,0.3-0.2,0.5c-0.1,0.2-0.3,0.3-0.5,0.4c-0.2,0.1-0.4,0.1-0.8,0.1c-0.3,0-0.5,0-0.8-0.1
		c-0.2-0.1-0.4-0.2-0.5-0.3c-0.1-0.1-0.2-0.3-0.3-0.5c0-0.2-0.1-0.4-0.1-0.8v-1.3c0-0.4,0.1-0.7,0.2-0.9c0.1-0.2,0.3-0.4,0.5-0.5
		c0.2-0.1,0.5-0.2,0.8-0.2c0.4,0,0.7,0.1,1,0.2c0.3,0.1,0.4,0.3,0.5,0.6c0.1,0.2,0.2,0.6,0.2,1V19.1z M41.2,18.4v-0.3
		c0-0.2,0-0.4,0-0.5c0-0.1-0.1-0.1-0.2-0.1c-0.1,0-0.2,0-0.2,0.1c0,0.1,0,0.2,0,0.5v0.3H41.2z"/>
	<path class="st2" d="M11.2,29H8.8v-1.6c0-0.5,0-0.8-0.1-0.9c-0.1-0.1-0.2-0.2-0.3-0.2c-0.2,0-0.3,0.1-0.4,0.2s-0.1,0.5-0.1,0.9v4.4
		c0,0.5,0,0.8,0.1,0.9s0.2,0.2,0.4,0.2c0.2,0,0.3-0.1,0.4-0.2c0.1-0.1,0.1-0.5,0.1-1v-1.2h2.5v0.4c0,1-0.1,1.7-0.2,2.1
		c-0.1,0.4-0.4,0.8-0.9,1.1c-0.5,0.3-1.1,0.5-1.8,0.5c-0.7,0-1.3-0.1-1.8-0.4S5.8,33.5,5.6,33S5.4,31.9,5.4,31v-2.8
		c0-0.7,0-1.2,0.1-1.5s0.2-0.7,0.4-1s0.6-0.6,1-0.7s0.9-0.3,1.4-0.3c0.7,0,1.3,0.1,1.8,0.4c0.5,0.3,0.8,0.6,0.9,1.1s0.2,1.1,0.2,2
		V29z"/>
	<path class="st2" d="M21.4,24.8l-1.1,9.5h-3.1c-0.3-1.5-0.5-3.1-0.7-5c-0.1,0.8-0.3,2.5-0.7,5h-3.1l-1.1-9.5H14l0.3,3.3l0.3,3.2
		c0.1-1.7,0.3-3.8,0.7-6.5h2.6c0,0.3,0.1,1.3,0.3,3.1l0.3,3.6c0.1-2.3,0.4-4.5,0.7-6.7H21.4z"/>
	<path class="st2" d="M24.3,24.8v7.6h1.5v1.9h-4v-9.5H24.3z"/>
	<path class="st2" d="M32,28.1v3.2c0,0.7,0,1.2-0.1,1.6s-0.2,0.6-0.5,0.9s-0.5,0.5-0.9,0.6s-0.7,0.2-1.2,0.2c-0.6,0-1-0.1-1.4-0.2
		S27.2,34,27,33.7s-0.4-0.6-0.5-0.9s-0.1-0.8-0.1-1.5v-3.3c0-0.9,0.1-1.5,0.2-2s0.4-0.8,0.9-1s1-0.4,1.6-0.4c0.5,0,1,0.1,1.4,0.3
		s0.7,0.4,0.9,0.7s0.3,0.6,0.4,0.9S32,27.3,32,28.1z M29.6,27.3c0-0.5,0-0.8-0.1-0.9s-0.2-0.2-0.3-0.2c-0.2,0-0.3,0.1-0.3,0.2
		s-0.1,0.4-0.1,0.9v4.6c0,0.6,0,0.9,0.1,1s0.2,0.2,0.3,0.2s0.3-0.1,0.3-0.2s0.1-0.4,0.1-0.9V27.3z"/>
	<path class="st2" d="M37.9,32.7v1.6h-5.2l0-1.4c1.5-2.5,2.5-4.1,2.8-4.7s0.4-1.1,0.4-1.4c0-0.3,0-0.5-0.1-0.6s-0.2-0.2-0.4-0.2
		c-0.2,0-0.3,0.1-0.4,0.2c-0.1,0.1-0.1,0.4-0.1,0.8v0.9h-2.1v-0.3c0-0.5,0-1,0.1-1.3s0.2-0.6,0.4-0.9s0.5-0.5,0.8-0.7
		s0.8-0.2,1.2-0.2c0.9,0,1.7,0.2,2.1,0.7s0.7,1.1,0.7,1.8c0,0.5-0.1,1.1-0.4,1.7s-1.1,1.9-2.4,3.9H37.9z"/>
	<path class="st2" d="M38.8,31.8h2.4c0,0.4,0,0.7,0,0.8s0.1,0.2,0.1,0.3s0.2,0.1,0.3,0.1c0.1,0,0.2,0,0.3-0.1s0.1-0.2,0.1-0.3
		s0-0.4,0-0.7v-1.5c-0.1,0.3-0.3,0.4-0.5,0.6s-0.5,0.2-0.9,0.2c-0.4,0-0.8-0.1-1.1-0.4S39.1,30.3,39,30s-0.1-0.8-0.1-1.3v-0.8
		c0-0.7,0-1.2,0.1-1.5s0.2-0.6,0.4-0.9s0.5-0.5,0.9-0.6s0.8-0.2,1.3-0.2c0.6,0,1.2,0.1,1.6,0.3s0.7,0.4,0.9,0.8s0.4,0.7,0.4,1
		s0.1,1.1,0.1,2.1v1.3c0,1.1,0,1.9,0,2.3s-0.2,0.7-0.4,1.1s-0.6,0.6-1,0.8s-0.9,0.3-1.4,0.3c-0.7,0-1.2-0.1-1.6-0.3
		s-0.7-0.5-0.9-0.9S38.8,32.4,38.8,31.8z M41.2,28.8c0,0.4,0.1,0.6,0.2,0.7s0.2,0.1,0.3,0.1c0.2,0,0.3-0.1,0.4-0.2s0.1-0.4,0.1-0.7
		v-1.7c0-0.4,0-0.7-0.1-0.8s-0.2-0.2-0.4-0.2c-0.1,0-0.2,0-0.3,0.1s-0.2,0.4-0.2,0.8V28.8z"/>
</g>
</svg>
