<?xml version="1.0" encoding="utf-8"?>
<!-- Generator: Adobe Illustrator 22.1.0, SVG Export Plug-In . SVG Version: 6.00 Build 0)  -->
<svg version="1.1" id="Layer_1" xmlns="http://www.w3.org/2000/svg" xmlns:xlink="http://www.w3.org/1999/xlink" x="0px" y="0px"
	 viewBox="0 0 50 50" style="enable-background:new 0 0 50 50;" xml:space="preserve">
<style type="text/css">
	.st0{fill:#4BE0EF;}
	.st1{fill:#05B3E2;}
	.st2{fill:#282828;}
	.st3{fill:url(#SVGID_1_);}
	.st4{fill:#FFFFFF;}
</style>
<g>
	<g>
		<path class="st0" d="M48,23l-3.4-3.4c-1.9-6.7-7.2-12-13.9-13.9L27,2c-1.1-1.1-2.9-1.1-4,0l-3.8,3.8c-6.3,2-11.3,6.9-13.3,13.3
			L2,23c-1.1,1.1-1.1,2.9,0,4l3.8,3.8c1.9,6.5,7.1,11.7,13.6,13.6L23,48c1.1,1.1,2.9,1.1,4,0l3.4-3.4c7-1.9,12.4-7.3,14.3-14.3
			L48,27C49.1,25.9,49.1,24.1,48,23z"/>
		<g>
			<path class="st1" d="M48,23l-2.5-2.5c0,0.5,0.1,0.9,0.1,1.4c0,11.2-9.1,20.3-20.3,20.3C14.1,42.2,5,33.1,5,21.9
				c0-0.7,0-1.4,0.1-2L2,23c-1.1,1.1-1.1,2.9,0,4l3.8,3.8c1.9,6.5,7.1,11.7,13.6,13.6L23,48c1.1,1.1,2.9,1.1,4,0l3.4-3.4
				c7-1.9,12.4-7.3,14.3-14.3L48,27C49.1,25.9,49.1,24.1,48,23z"/>
		</g>
		<path class="st2" d="M5.9,19.1L2,23c-1.1,1.1-1.1,2.9,0,4l3.8,3.8c0.2,0.8,0.5,1.5,0.8,2.3h37c0.4-0.9,0.7-1.8,1-2.8L48,27
			c1.1-1.1,1.1-2.9,0-4l-3.4-3.4c-0.4-1.3-0.9-2.6-1.5-3.7H7.2C6.7,16.9,6.3,18,5.9,19.1z"/>
		
			<linearGradient id="SVGID_1_" gradientUnits="userSpaceOnUse" x1="25.3" y1="73.5903" x2="25.3" y2="54.5" gradientTransform="matrix(1 0 0 1 0 -48)">
			<stop  offset="0" style="stop-color:#FFFFFF;stop-opacity:0"/>
			<stop  offset="1" style="stop-color:#FFFFFF"/>
		</linearGradient>
		<ellipse class="st3" cx="25.3" cy="16" rx="15.3" ry="9.5"/>
	</g>
	<g>
		<path class="st4" d="M21.5,19.2H24c1.6,0,2.7,0.1,3.3,0.2c0.6,0.1,1,0.4,1.3,0.7s0.5,0.7,0.6,1.1c0.1,0.4,0.1,1.2,0.1,2.5v4.6
			c0,1.2-0.1,1.9-0.2,2.3c-0.1,0.4-0.3,0.7-0.6,0.9c-0.3,0.2-0.6,0.4-1,0.5c-0.4,0.1-1,0.1-1.8,0.1h-4.3V19.2z M24.9,21.5V30
			c0.5,0,0.8-0.1,0.9-0.3c0.1-0.2,0.2-0.7,0.2-1.6v-5.1c0-0.6,0-1-0.1-1.1s-0.1-0.3-0.3-0.4C25.5,21.5,25.3,21.5,24.9,21.5z"/>

	</g>
</g>
</svg>
