<?xml version="1.0" encoding="utf-8"?>
<!-- Generator: Adobe Illustrator 22.1.0, SVG Export Plug-In . SVG Version: 6.00 Build 0)  -->
<svg version="1.1" id="Layer_1" xmlns="http://www.w3.org/2000/svg" xmlns:xlink="http://www.w3.org/1999/xlink" x="0px" y="0px"
	 viewBox="0 0 50 50" style="enable-background:new 0 0 50 50;" xml:space="preserve">
<style type="text/css">
	.st0{fill:#F95584;}
	.st1{fill:#D8356B;}
	.st2{fill:#282828;}
	.st3{fill:url(#SVGID_1_);}
	.st4{fill:#FFFFFF;}
</style>
<g>
	<g>
		<path class="st0" d="M49.3,49.3c-0.4,0.4-1,0.7-1.7,0.7H2.4C1.1,50,0,48.9,0,47.6V2.4c0-0.6,0.3-1.2,0.7-1.7"/>
		<path class="st1" d="M0.7,0.7C1.1,0.3,1.7,0,2.4,0h45.3C48.9,0,50,1.1,50,2.4v45.3c0,0.6-0.3,1.2-0.7,1.6"/>
	</g>
	<rect y="15" class="st2" width="50" height="17.6"/>
	
		<linearGradient id="SVGID_1_" gradientUnits="userSpaceOnUse" x1="6.8316" y1="13.2934" x2="46.3066" y2="52.7684" gradientTransform="matrix(1 0 0 -1 0 52)">
		<stop  offset="0.5593" style="stop-color:#FFFFFF;stop-opacity:0"/>
		<stop  offset="1" style="stop-color:#FFFFFF"/>
	</linearGradient>
	<path class="st3" d="M46.9,37.2H6.3c-1.3,0-2.4-1.1-2.4-2.4V3.1c0-1.3,1.1-2.4,2.4-2.4h40.5c1.3,0,2.4,1.1,2.4,2.4v31.6
		C49.3,36.1,48.2,37.2,46.9,37.2z"/>
	<g>
		<path class="st4" d="M21.4,16.5v11.4h2.2v2.8h-6V16.5H21.4z"/>
		<path class="st4" d="M32.1,28.3v2.4h-7.8l0-2c2.3-3.8,3.7-6.1,4.1-7c0.4-0.9,0.7-1.6,0.7-2.1c0-0.4-0.1-0.7-0.2-0.9
			s-0.3-0.3-0.6-0.3s-0.5,0.1-0.6,0.3c-0.1,0.2-0.2,0.6-0.2,1.3v1.4h-3.2v-0.5c0-0.8,0-1.4,0.1-1.9s0.3-0.9,0.6-1.4s0.7-0.8,1.3-1
			c0.5-0.2,1.1-0.3,1.9-0.3c1.4,0,2.5,0.4,3.2,1.1c0.7,0.7,1.1,1.6,1.1,2.7c0,0.8-0.2,1.7-0.6,2.6c-0.4,0.9-1.6,2.8-3.6,5.8H32.1z"
			/>
	</g>
</g>
</svg>
