<?xml version="1.0" encoding="utf-8"?>
<!-- Generator: Adobe Illustrator 22.1.0, SVG Export Plug-In . SVG Version: 6.00 Build 0)  -->
<svg version="1.1" id="Layer_1" xmlns="http://www.w3.org/2000/svg" xmlns:xlink="http://www.w3.org/1999/xlink" x="0px" y="0px"
	 viewBox="0 0 25 25" style="enable-background:new 0 0 25 25;" xml:space="preserve">
<style type="text/css">
	.st0{fill:url(#SVGID_1_);}
	.st1{fill:#18C6C3;}
	.st2{fill:#02739F;}
</style>
<linearGradient id="SVGID_1_" gradientUnits="userSpaceOnUse" x1="12.5" y1="25" x2="12.5" y2="-9.094947e-13">
	<stop  offset="0" style="stop-color:#FFFFFF"/>
	<stop  offset="1" style="stop-color:#A3E8E7"/>
</linearGradient>
<rect class="st0" width="25" height="25"/>
<g id="CoU8bE.tif">
	<g>
		<path class="st1" d="M0.9,9.3C1,9.1,1.3,8.9,1.6,9.1C2,9.2,2,9.5,2,9.8c0,0.8,0,1.7,0,2.5c0,0.7,0.4,1,1,0.8
			c0.4-0.1,0.6-0.4,0.6-0.8c0-0.8,0-1.7,0-2.6C3.6,9.3,3.7,9,4.2,9s0.6,0.3,0.6,0.7c0,0.8,0,1.7,0,2.6S4.2,14,3.4,14.2
			c-1,0.3-1.7-0.1-2.1-1.1c0-0.1,0-0.1-0.1-0.3C0.9,11.7,0.9,10.5,0.9,9.3z"/>
		<path class="st2" d="M11,11.6c0-0.7,0-1.2,0-1.9C11,9.3,11.1,9,11.7,9c0.6,0,1.2-0.1,1.8,0.1c1,0.3,1.5,1.1,1.4,2.1
			s-1,1.7-1.9,1.7c-0.4,0-0.6-0.1-0.6-0.6c0-0.3,0.3-0.6,0.6-0.6c0.4,0,0.7-0.1,0.8-0.6c0.1-0.3,0-0.6-0.1-0.8
			C13.4,10,13.1,10,12.8,10c-0.7,0-0.7,0-0.7,0.7c0,1,0,1.8,0,2.8c0,0.4-0.1,0.7-0.6,0.7c-0.4,0-0.6-0.3-0.6-0.7
			C11,12.8,11,12.1,11,11.6z"/>
		<path class="st2" d="M19.6,14.2c-1.1,0-2.1-0.8-2.1-2.1c0-1.1,0.8-2.1,2.1-2.1c1.1,0,2.1,1,2.1,2.1C21.7,13.4,20.7,14.2,19.6,14.2
			z M20.6,12.1c0-0.6-0.4-1-1.1-1c-0.6,0-1,0.4-1,1s0.4,1.1,1,1.1C20.1,13.2,20.7,12.8,20.6,12.1z"/>
		<path class="st1" d="M5.2,12.8c0-0.3,0-0.6,0-0.7c0-1,0.7-1.7,1.8-1.7c1.2,0,1.9,0.7,1.9,1.9c0,0.4,0,0.8,0,1.2s-0.1,0.6-0.6,0.6
			c-0.4,0-0.6-0.3-0.6-0.6c0-0.4,0-1,0-1.4c0-0.6-0.3-0.8-0.8-0.8s-0.8,0.3-0.8,0.8c0,0.4,0,1,0,1.4S6,14.1,5.5,14.1
			c-0.4,0-0.6-0.3-0.6-0.6C5.2,13.2,5.2,13,5.2,12.8z"/>
		<path class="st2" d="M21.9,11.2c0-0.4,0-0.8,0-1.1c0-0.4,0.1-0.6,0.6-0.7c0.3,0,0.6,0.1,0.6,0.6c0,0.3,0.1,0.3,0.3,0.3
			c0.3,0,0.4,0,0.7,0c0.3,0,0.4,0.1,0.4,0.6c0,0.3-0.1,0.6-0.6,0.6c-0.1,0-0.1,0-0.3,0c-0.3,0.1-0.7-0.3-0.7,0.3
			c-0.1,1,0.1,1.5,0.7,1.5c0,0,0,0,0.1,0c0.6,0,0.8,0.3,0.8,0.6c0,0.4-0.4,0.6-1,0.4c-1-0.1-1.7-0.8-1.7-1.9
			C21.9,11.8,21.9,11.6,21.9,11.2z"/>
		<path class="st2" d="M15,12.7c0-0.1,0-0.3,0-0.6c0-1.4,0.8-2.1,2.1-2.1c0.4,0,0.6,0.1,0.6,0.6c0,0.3-0.3,0.6-0.6,0.6
			c-1,0-1.1,0.3-1.1,1.1c0,0.4,0,0.8,0,1.1c0,0.4-0.3,0.7-0.6,0.7s-0.6-0.3-0.4-0.6C15,13.2,15,13,15,12.7z"/>
		<path class="st1" d="M10.4,12.1c0,0.4,0,1,0,1.4s-0.1,0.6-0.6,0.6c-0.4,0-0.6-0.3-0.6-0.6c0-1,0-1.8,0-2.8c0-0.3,0-0.6,0.4-0.6
			s0.6,0,0.6,0.6C10.4,11.3,10.4,11.7,10.4,12.1z"/>
		<path class="st1" d="M9.9,9.9c-0.3,0-0.4-0.1-0.4-0.6c0-0.3,0.3-0.6,0.6-0.6s0.4,0.1,0.6,0.6C10.4,9.8,10.2,9.9,9.9,9.9z"/>
	</g>
</g>
</svg>
