<?xml version="1.0" encoding="utf-8"?>
<!-- Generator: Adobe Illustrator 22.1.0, SVG Export Plug-In . SVG Version: 6.00 Build 0)  -->
<svg version="1.1" id="Layer_1" xmlns="http://www.w3.org/2000/svg" xmlns:xlink="http://www.w3.org/1999/xlink" x="0px" y="0px"
	 viewBox="0 0 599 599" style="enable-background:new 0 0 599 599;" xml:space="preserve">
<style type="text/css">
	.st0{fill:#FFFFFF;}
	.st1{enable-background:new    ;}
	.st2{fill:#2AA1D1;}
	.st3{fill:#8FE0F9;}
	.st4{clip-path:url(#SVGID_2_);fill:#8FE0F9;}
	.st5{clip-path:url(#SVGID_4_);fill:#8FE0F9;}
	.st6{fill:url(#SVGID_5_);}
	.st7{fill:url(#SVGID_6_);}
	.st8{fill:#03436B;}
	.st9{fill:#9E9998;}
	.st10{fill:#A39D9D;}
	.st11{fill:url(#SVGID_7_);}
	.st12{clip-path:url(#SVGID_9_);}
	.st13{fill:url(#SVGID_10_);}
	.st14{fill:url(#SVGID_11_);}
</style>
<g>
	<path class="st0" d="M24.8,502l14.6,37.6l15.3-40.3l14.6,40.3L85,502h9.2l-25.1,59.8L54.6,522l-15.1,39.9L15.6,502H24.8z"/>
	<path class="st0" d="M99.1,508c0-1.4,0.5-2.7,1.6-3.7c1-1,2.3-1.6,3.8-1.6c1.5,0,2.7,0.5,3.8,1.6c1,1,1.6,2.3,1.6,3.8
		c0,1.5-0.5,2.7-1.6,3.8c-1,1-2.3,1.6-3.8,1.6c-1.5,0-2.7-0.5-3.8-1.6C99.6,510.8,99.1,509.5,99.1,508z M108.5,522.8v35.5h-8.2
		v-35.5H108.5z"/>
	<path class="st0" d="M127.1,496.7v37.5l11.5-11.5h11l-15.4,14.9l16.5,20.6h-10.6l-11.7-15l-1.3,1.3v13.7h-8.2v-61.5H127.1z"/>
	<path class="st0" d="M154.8,508c0-1.4,0.5-2.7,1.6-3.7c1-1,2.3-1.6,3.8-1.6c1.5,0,2.7,0.5,3.8,1.6c1,1,1.6,2.3,1.6,3.8
		c0,1.5-0.5,2.7-1.6,3.8c-1,1-2.3,1.6-3.8,1.6c-1.5,0-2.7-0.5-3.8-1.6C155.3,510.8,154.8,509.5,154.8,508z M164.2,522.8v35.5h-8.2
		v-35.5H164.2z"/>
	<path class="st0" d="M205.1,528.9h23.2v1.9c0,4.2-0.5,8-1.5,11.2c-1,3-2.6,5.8-4.9,8.4c-5.2,5.9-11.9,8.8-19.9,8.8
		c-7.9,0-14.6-2.8-20.2-8.5c-5.6-5.7-8.4-12.6-8.4-20.5c0-8.2,2.9-15.1,8.6-20.8c5.7-5.7,12.6-8.6,20.8-8.6c4.4,0,8.5,0.9,12.3,2.7
		c3.6,1.8,7.2,4.7,10.7,8.7l-6,5.8c-4.6-6.1-10.2-9.2-16.9-9.2c-5.9,0-10.9,2.1-15,6.2c-4,4-6,9.1-6,15.1c0,6.3,2.2,11.4,6.7,15.5
		c4.2,3.8,8.8,5.6,13.7,5.6c4.2,0,7.9-1.4,11.3-4.2c3.3-2.8,5.2-6.2,5.6-10.2h-14V528.9z"/>
	<path class="st0" d="M269.8,542.4h-25.4c0.2,2.9,1.2,5.2,2.8,7c1.7,1.7,3.8,2.5,6.4,2.5c2,0,3.7-0.5,5.1-1.5c1.3-1,2.8-2.8,4.5-5.4
		l6.9,3.9c-1.1,1.8-2.2,3.4-3.4,4.7c-1.2,1.3-2.5,2.4-3.8,3.2c-1.4,0.8-2.8,1.5-4.4,1.8c-1.6,0.4-3.3,0.6-5.1,0.6
		c-5.3,0-9.5-1.7-12.7-5.1c-3.2-3.4-4.8-8-4.8-13.6c0-5.6,1.6-10.1,4.7-13.6c3.1-3.4,7.3-5.1,12.5-5.1c5.2,0,9.3,1.7,12.4,5
		c3,3.3,4.5,7.9,4.5,13.7L269.8,542.4z M261.3,535.7c-1.1-4.4-3.9-6.6-8.3-6.6c-1,0-1.9,0.2-2.8,0.5c-0.9,0.3-1.7,0.7-2.4,1.3
		c-0.7,0.6-1.3,1.3-1.8,2.1c-0.5,0.8-0.9,1.7-1.2,2.7H261.3z"/>
	<path class="st0" d="M278.7,522.8h8.2v3.3c2.9-2.8,6.1-4.3,9.7-4.3c4.1,0,7.3,1.3,9.7,3.9c2,2.2,3,5.8,3,10.8v21.7H301v-19.8
		c0-3.5-0.5-5.9-1.5-7.2c-0.9-1.4-2.7-2-5.2-2c-2.7,0-4.6,0.9-5.8,2.7c-1.1,1.8-1.7,4.9-1.7,9.3v17.1h-8.2V522.8z"/>
	<path class="st0" d="M317.9,540.2c0-5.1,1.8-9.5,5.5-13.1c3.7-3.6,8.1-5.4,13.4-5.4c5.3,0,9.8,1.8,13.5,5.4
		c3.6,3.6,5.5,8.1,5.5,13.3c0,5.3-1.8,9.8-5.5,13.4c-3.7,3.6-8.2,5.4-13.6,5.4c-5.3,0-9.8-1.8-13.4-5.5
		C319.7,550.2,317.9,545.7,317.9,540.2z M326.3,540.4c0,3.5,0.9,6.3,2.8,8.4c1.9,2.1,4.5,3.1,7.7,3.1c3.2,0,5.8-1,7.7-3.1
		c1.9-2.1,2.9-4.8,2.9-8.3c0-3.4-1-6.2-2.9-8.3c-1.9-2.1-4.5-3.1-7.7-3.1c-3.1,0-5.7,1-7.6,3.1C327.3,534.4,326.3,537.1,326.3,540.4
		z"/>
	<path class="st0" d="M364.4,522.8h8.2v3.3c1.6-1.7,2.9-2.8,4-3.4c1.2-0.6,2.7-0.9,4.5-0.9c4,0,7.2,1.7,9.5,5.2
		c2.6-3.5,6.1-5.2,10.5-5.2c8,0,12,4.8,12,14.5v21.9h-8.2v-19.7c0-3.4-0.4-5.8-1.2-7.2c-0.9-1.4-2.2-2.1-4.2-2.1
		c-2.3,0-3.9,0.9-4.9,2.5c-1,1.7-1.5,4.4-1.5,8.2v18.3h-8.2v-19.6c0-6.3-1.8-9.5-5.5-9.5c-2.3,0-4,0.9-5,2.6
		c-1.1,1.7-1.6,4.4-1.6,8.2v18.3h-8.2V522.8z"/>
	<path class="st0" d="M455.7,542.4h-25.4c0.2,2.9,1.2,5.2,2.8,7c1.7,1.7,3.8,2.5,6.4,2.5c2,0,3.7-0.5,5.1-1.5c1.3-1,2.8-2.8,4.5-5.4
		l6.9,3.9c-1.1,1.8-2.2,3.4-3.4,4.7c-1.2,1.3-2.5,2.4-3.8,3.2c-1.4,0.8-2.8,1.5-4.4,1.8c-1.6,0.4-3.3,0.6-5.1,0.6
		c-5.3,0-9.5-1.7-12.7-5.1c-3.2-3.4-4.8-8-4.8-13.6c0-5.6,1.6-10.1,4.7-13.6c3.1-3.4,7.3-5.1,12.5-5.1c5.2,0,9.3,1.7,12.4,5
		c3,3.3,4.5,7.9,4.5,13.7L455.7,542.4z M447.3,535.7c-1.1-4.4-3.9-6.6-8.3-6.6c-1,0-1.9,0.2-2.8,0.5c-0.9,0.3-1.7,0.7-2.4,1.3
		c-0.7,0.6-1.3,1.3-1.8,2.1s-0.9,1.7-1.2,2.7H447.3z"/>
	<path class="st0" d="M485.3,528.8l-6.8,3.6c-1.1-2.2-2.4-3.3-4-3.3c-0.8,0-1.4,0.2-1.9,0.7c-0.5,0.5-0.8,1.1-0.8,1.9
		c0,1.4,1.6,2.7,4.7,4c4.3,1.9,7.3,3.6,8.8,5.2c1.5,1.6,2.3,3.7,2.3,6.4c0,3.4-1.3,6.3-3.8,8.6c-2.5,2.2-5.4,3.3-8.9,3.3
		c-5.9,0-10.2-2.9-12.6-8.7l7-3.2c1,1.7,1.7,2.8,2.2,3.2c1,0.9,2.2,1.4,3.6,1.4c2.8,0,4.2-1.3,4.2-3.8c0-1.5-1.1-2.8-3.2-4.1
		c-0.8-0.4-1.7-0.8-2.5-1.2c-0.8-0.4-1.7-0.8-2.5-1.2c-2.4-1.2-4.1-2.3-5-3.5c-1.2-1.5-1.9-3.4-1.9-5.7c0-3.1,1.1-5.6,3.2-7.6
		c2.2-2,4.8-3,7.9-3C479.7,521.8,483.1,524.1,485.3,528.8z"/>
	<path class="st0" d="M496.5,558.2V502h11.8c5.7,0,10.1,0.6,13.4,1.7c3.5,1.1,6.7,2.9,9.6,5.6c5.8,5.3,8.7,12.2,8.7,20.9
		c0,8.6-3,15.6-9.1,21c-3,2.7-6.2,4.5-9.5,5.6c-3.1,1-7.5,1.6-13.2,1.6H496.5z M505,550.3h3.8c3.8,0,7-0.4,9.5-1.2
		c2.5-0.8,4.8-2.2,6.8-4c4.2-3.8,6.3-8.8,6.3-14.9c0-6.2-2.1-11.2-6.2-15c-3.7-3.4-9.2-5.1-16.4-5.1H505V550.3z"/>
	<path class="st0" d="M550.7,558.2V502h8.4c3.8,0,6.8,0.3,9,0.9c2.3,0.6,4.2,1.6,5.7,2.9c1.6,1.4,2.8,3.2,3.8,5.4
		c0.9,2.2,1.4,4.3,1.4,6.6c0,4-1.5,7.4-4.6,10.2c3,1,5.3,2.8,7.1,5.4c1.7,2.5,2.6,5.5,2.6,8.8c0,4.4-1.6,8.1-4.7,11.1
		c-1.9,1.9-4,3.2-6.3,3.9c-2.5,0.7-5.7,1.1-9.6,1.1H550.7z M559.2,526.1h2.7c3.2,0,5.5-0.7,6.9-2.1c1.5-1.4,2.2-3.5,2.2-6.2
		c0-2.6-0.8-4.7-2.3-6c-1.5-1.4-3.7-2.1-6.6-2.1h-3V526.1z M559.2,550.3h5.2c3.8,0,6.7-0.8,8.4-2.3c1.9-1.6,2.8-3.7,2.8-6.2
		c0-2.4-0.9-4.5-2.7-6.1c-1.8-1.6-4.9-2.4-9.5-2.4h-4.3V550.3z"/>
</g>
<g>
	<g>
		<g class="st1">
			<g>
				<polygon class="st2" points="88.4,67.9 402.5,29.2 433.4,51.6 119.3,90.4 				"/>
			</g>
			<polygon class="st3" points="438.8,169.5 433.4,51.6 119.3,90.4 124.7,208.3 130,322.3 444.1,283.5 			"/>
			<g class="st1">
				<defs>
					<path id="SVGID_1_" class="st1" d="M153.8,270.8l314.1-38.7c-0.8,26.9-2.7,82.6-5.8,167.1L148,437.9
						C151.1,353.4,153,297.7,153.8,270.8z"/>
				</defs>
				<clipPath id="SVGID_2_">
					<use xlink:href="#SVGID_1_"  style="overflow:visible;"/>
				</clipPath>
				<path class="st4" d="M153.8,270.8c-0.1,4.5-0.3,9.8-0.5,16c-1,30.4-2.7,80.8-5.3,151.1l314.1-38.7c2.6-70.3,4.3-120.7,5.3-151.1
					c0.2-6.1,0.4-11.5,0.5-16L153.8,270.8z"/>
			</g>
			<g class="st1">
				<defs>
					<path id="SVGID_3_" class="st1" d="M167.8,125.6l314.1-38.7c0.6,10,2.4,47.2,5.4,111.7l-314.1,38.7
						C170.2,172.8,168.4,135.6,167.8,125.6z"/>
				</defs>
				<clipPath id="SVGID_4_">
					<use xlink:href="#SVGID_3_"  style="overflow:visible;"/>
				</clipPath>
				<path class="st5" d="M487.3,198.5c-2.1-45.4-3.6-77.3-4.6-95.7c-0.3-6-0.5-10.6-0.7-13.7c-0.1-0.9-0.1-1.7-0.1-2.3l-314.1,38.7
					c0,0.7,0.1,1.4,0.1,2.3c0.2,3.1,0.4,7.7,0.7,13.7c0.9,18.4,2.4,50.3,4.6,95.7l5.8,128.5L493,327L487.3,198.5z"/>
			</g>
			<g>
				<polygon class="st2" points="134.7,101.6 448.8,62.8 481.9,86.8 167.8,125.6 				"/>
			</g>
			<g>
				<polygon class="st2" points="183.6,137.1 497.7,98.3 528.6,120.8 214.5,159.5 				"/>
			</g>
			<g>
				<linearGradient id="SVGID_5_" gradientUnits="userSpaceOnUse" x1="367.4514" y1="480.218" x2="367.4514" y2="120.7951">
					<stop  offset="8.814103e-04" style="stop-color:#2AA1D1"/>
					<stop  offset="3.273030e-02" style="stop-color:#39AAD7"/>
					<stop  offset="0.1021" style="stop-color:#54BBE1"/>
					<stop  offset="0.1818" style="stop-color:#6AC9EA"/>
					<stop  offset="0.2749" style="stop-color:#7BD3F1"/>
					<stop  offset="0.39" style="stop-color:#86DBF6"/>
					<stop  offset="0.5516" style="stop-color:#8DDFF8"/>
					<stop  offset="1" style="stop-color:#8FE0F9"/>
				</linearGradient>
				<polygon class="st6" points="214.5,159.5 528.6,120.8 520.4,441.5 206.3,480.2 				"/>
			</g>
			<g>
				<linearGradient id="SVGID_6_" gradientUnits="userSpaceOnUse" x1="151.4603" y1="480.218" x2="151.4603" y2="67.9043">
					<stop  offset="0" style="stop-color:#2AA1D1"/>
					<stop  offset="1" style="stop-color:#03436B"/>
				</linearGradient>
				<path class="st7" d="M214.5,159.5l-8.3,320.7l-39.7-28.9c-4.5-53.5-8.8-113.7-12.7-180.6c-0.8,26.9-2.7,82.6-5.8,167.1
					l-39.5-28.7L88.4,67.9l30.9,22.5l5.4,117.9l5.2,114c0.1-56.9,1.7-130.5,4.7-220.7l33,24c0.6,10,2.4,47.2,5.4,111.7l5.8,128.5
					c0.4-78.8,1.9-155,4.7-228.6L214.5,159.5z"/>
			</g>
		</g>
	</g>
	<g>
		<g class="st1">
			<g>
				<polygon class="st8" points="439.6,461 406.4,442.9 399.7,422.1 432.8,440.1 				"/>
			</g>
			<g class="st1">
				<path class="st9" d="M394.8,420.5l-33.2-18c0.1,0,0.2,0.1,0.3,0.1l33.2,18C394.9,420.6,394.9,420.6,394.8,420.5"/>
				<path class="st10" d="M395,420.7l-33.2-18c0.4,0.2,0.9,0.4,1.4,0.5l33.2,18C396,421.1,395.5,420.9,395,420.7"/>
			</g>
			<linearGradient id="SVGID_7_" gradientUnits="userSpaceOnUse" x1="388.2268" y1="421.4789" x2="388.2268" y2="329.4249">
				<stop  offset="0" style="stop-color:#03436B"/>
				<stop  offset="1" style="stop-color:#2AA1D1"/>
			</linearGradient>
			<path class="st11" d="M412.4,410.8c0.1-0.2,0.1-0.4,0.2-0.5c0.1-0.2,0.1-0.4,0.2-0.6c0-0.2,0.1-0.4,0.1-0.6
				c0.1-0.2,0.1-0.5,0.1-0.7c0-0.2,0.1-0.4,0.1-0.6c0-0.2,0.1-0.5,0.1-0.7c0-0.2,0.1-0.5,0.1-0.7c0-0.3,0.1-0.5,0.1-0.8
				c0-0.2,0.1-0.5,0.1-0.7c0-0.3,0.1-0.6,0.1-0.9c0-0.3,0.1-0.5,0.1-0.8c0-0.3,0.1-0.6,0.1-0.9c0-0.3,0.1-0.5,0.1-0.8
				c0-0.3,0.1-0.7,0.1-1c0-0.3,0.1-0.6,0.1-0.9c0-0.4,0.1-0.7,0.1-1.1c0-0.3,0-0.6,0.1-0.9c0-0.4,0-0.7,0.1-1.1c0-0.3,0-0.6,0.1-1
				c0-0.4,0-0.8,0.1-1.2c0-0.3,0-0.7,0-1c0-0.4,0-0.9,0-1.4c0-0.3,0-0.6,0-0.9c0-0.5,0-0.9,0-1.4c0-0.3,0-0.7,0-1c0-0.6,0-1.2,0-1.8
				c0-0.2,0-0.5,0-0.7c0-0.8,0-1.7,0-2.6l0.1-36.1l-33.2-18l-0.1,36.1c0,0.9,0,1.7,0,2.6c0,0.2,0,0.5,0,0.7c0,0.6,0,1.2,0,1.8
				c0,0.3,0,0.7,0,1c0,0.5,0,0.9,0,1.4c0,0.3,0,0.6,0,0.9c0,0.5,0,0.9,0,1.4c0,0.3,0,0.7,0,1c0,0.4,0,0.8-0.1,1.2c0,0.3,0,0.6-0.1,1
				c0,0.4,0,0.8-0.1,1.1c0,0.3,0,0.6-0.1,0.9c0,0.4-0.1,0.7-0.1,1.1c0,0.3-0.1,0.6-0.1,0.9c0,0.3-0.1,0.7-0.1,1
				c0,0.3-0.1,0.6-0.1,0.8c0,0.3-0.1,0.6-0.1,0.9c0,0.3-0.1,0.5-0.1,0.8c0,0.3-0.1,0.6-0.1,0.9c0,0.3-0.1,0.5-0.1,0.7
				c0,0.3-0.1,0.5-0.1,0.8c0,0.2-0.1,0.5-0.1,0.7c0,0.2-0.1,0.5-0.1,0.7c0,0.2-0.1,0.4-0.1,0.6c0,0.2-0.1,0.5-0.1,0.7
				c0,0.2-0.1,0.4-0.1,0.6c-0.1,0.2-0.1,0.4-0.2,0.6c-0.1,0.2-0.1,0.4-0.2,0.6c-0.1,0.2-0.1,0.4-0.2,0.6c-0.1,0.2-0.1,0.3-0.2,0.5
				c-0.1,0.2-0.1,0.4-0.2,0.6c-0.2,0.6-0.5,1.1-0.7,1.7c0,0.1-0.1,0.2-0.1,0.3c-0.2,0.4-0.4,0.7-0.7,1.1c-0.1,0.2-0.2,0.3-0.3,0.5
				c-0.3,0.5-0.7,0.9-1,1.3c-0.1,0.1-0.2,0.2-0.3,0.3c-0.3,0.3-0.6,0.6-0.9,0.8c-0.2,0.1-0.3,0.3-0.5,0.4c-0.3,0.3-0.7,0.5-1,0.7
				c0,0-0.1,0.1-0.1,0.1c-0.4,0.3-0.9,0.5-1.4,0.7c-0.1,0-0.2,0.1-0.3,0.1c-0.5,0.2-1,0.4-1.5,0.5c-0.1,0-0.2,0-0.3,0.1
				c-0.6,0.1-1.1,0.3-1.7,0.3c-0.4,0.1-0.7,0.1-1.1,0.1c-0.1,0-0.2,0-0.3,0c-0.3,0-0.5,0-0.8,0c-0.1,0-0.2,0-0.3,0
				c-0.3,0-0.7,0-1-0.1c0,0-0.1,0-0.1,0c-0.3,0-0.5-0.1-0.8-0.2c-0.7-0.2-1.3-0.4-1.8-0.7l33.2,18c0.5,0.3,1.1,0.5,1.7,0.6l0,0
				c0,0,0.1,0,0.1,0c0.3,0.1,0.5,0.1,0.8,0.2c0,0,0.1,0,0.1,0c0.3,0,0.6,0.1,1,0.1c0.1,0,0.2,0,0.3,0c0.3,0,0.5,0,0.8,0
				c0.1,0,0.2,0,0.3,0c0.4,0,0.7-0.1,1.1-0.1c0.6-0.1,1.2-0.2,1.7-0.3c0.1,0,0.2,0,0.3-0.1c0.5-0.1,1-0.3,1.5-0.5
				c0.1,0,0.2-0.1,0.3-0.1c0.1-0.1,0.3-0.1,0.4-0.2c0.3-0.2,0.7-0.3,1-0.5c0.1,0,0.1-0.1,0.1-0.1c0.2-0.1,0.4-0.2,0.6-0.4
				c0.1-0.1,0.3-0.2,0.4-0.3c0.2-0.1,0.3-0.3,0.5-0.4c0.1-0.1,0.2-0.1,0.3-0.2c0.2-0.2,0.4-0.4,0.6-0.6c0.1-0.1,0.2-0.2,0.3-0.3
				c0,0,0.1-0.1,0.1-0.1c0.3-0.4,0.6-0.7,0.9-1.1c0,0,0,0,0-0.1c0.1-0.1,0.2-0.3,0.3-0.5c0.2-0.3,0.4-0.6,0.6-0.9
				c0-0.1,0.1-0.1,0.1-0.2c0-0.1,0.1-0.2,0.1-0.3c0.3-0.5,0.5-1.1,0.7-1.7c0,0,0-0.1,0-0.1c0.1-0.2,0.1-0.3,0.2-0.5
				c0.1-0.2,0.1-0.3,0.2-0.5C412.3,411.2,412.3,411,412.4,410.8z"/>
			<g>
				<polygon class="st2" points="400.1,303.3 367,285.3 452.8,273.2 485.9,291.3 				"/>
			</g>
			<g>
				<polygon class="st2" points="400,349.5 366.9,331.5 367,285.3 400.1,303.3 				"/>
			</g>
			<g>
				<polygon class="st2" points="412.7,272.6 379.6,254.6 379.6,227 412.8,245 				"/>
			</g>
			<g class="st1">
				<defs>
					<path id="SVGID_8_" class="st1" d="M374.2,190.2l33.2,18c1.6,0.9,2.7,2.3,3.4,4.4c1.4,4.2,2.1,15,2,32.4l-33.2-18
						c0-17.4-0.6-28.2-2-32.4C376.9,192.5,375.8,191.1,374.2,190.2z"/>
				</defs>
				<clipPath id="SVGID_9_">
					<use xlink:href="#SVGID_8_"  style="overflow:visible;"/>
				</clipPath>
				<g class="st12">
					<path class="st2" d="M412.8,245l-33.2-18c0-17.4-0.6-28.2-2-32.4c-0.7-2.1-1.8-3.5-3.4-4.4l33.2,18c1.6,0.9,2.7,2.3,3.4,4.4
						C412.1,216.8,412.8,227.6,412.8,245"/>
				</g>
			</g>
			<linearGradient id="SVGID_10_" gradientUnits="userSpaceOnUse" x1="367.5804" y1="467.8363" x2="367.5804" y2="136.9783">
				<stop  offset="0" style="stop-color:#03436B"/>
				<stop  offset="1" style="stop-color:#2AA1D1"/>
			</linearGradient>
			<path class="st13" d="M406.2,155.5c0.2,0,0.3,0,0.5,0c1.1-0.1,2.3-0.2,3.4-0.2c0.3,0,0.6,0,0.8,0c0.9,0,1.8-0.1,2.7-0.1
				c0.2,0,0.5,0,0.7,0c1.1,0,2.1,0,3.2,0c0.2,0,0.5,0,0.7,0c0.9,0,1.7,0,2.6,0.1c0.3,0,0.5,0,0.8,0c1,0.1,2,0.1,3.1,0.2
				c0.2,0,0.4,0,0.5,0.1c0.9,0.1,1.7,0.2,2.5,0.3c0.3,0,0.5,0.1,0.8,0.1c1,0.1,2,0.3,2.9,0.4c0.1,0,0.2,0,0.2,0
				c0.9,0.2,1.8,0.3,2.6,0.5c0.3,0.1,0.5,0.1,0.8,0.2c0.9,0.2,1.7,0.4,2.6,0.6c0.1,0,0.2,0,0.2,0.1c0.3,0.1,0.5,0.1,0.7,0.2
				c0.8,0.2,1.6,0.4,2.4,0.7c0.4,0.1,0.7,0.2,1.1,0.4c0.7,0.2,1.3,0.4,1.9,0.7c0.4,0.2,0.8,0.3,1.2,0.5c0.6,0.2,1.2,0.5,1.7,0.7
				c0.4,0.2,0.8,0.4,1.2,0.5c0.6,0.2,1.1,0.5,1.6,0.8c0.7,0.4,1.5,0.7,2.2,1.1c0.2,0.1,0.4,0.2,0.7,0.4l-33.2-18
				c-0.2-0.1-0.4-0.2-0.7-0.4c-0.6-0.3-1.2-0.6-1.7-0.9c-0.1-0.1-0.3-0.1-0.5-0.2c-0.5-0.3-1.1-0.5-1.6-0.8
				c-0.4-0.2-0.8-0.4-1.2-0.5c-0.6-0.2-1.2-0.5-1.7-0.7c-0.4-0.2-0.8-0.3-1.2-0.5c-0.6-0.2-1.3-0.4-1.9-0.7
				c-0.4-0.1-0.8-0.3-1.1-0.4c-0.8-0.2-1.6-0.5-2.4-0.7c-0.2-0.1-0.5-0.1-0.7-0.2c0,0,0,0-0.1,0c-0.1,0-0.2,0-0.2-0.1
				c-0.8-0.2-1.7-0.4-2.6-0.6c-0.3-0.1-0.5-0.1-0.8-0.2c-0.9-0.2-1.7-0.3-2.6-0.5c-0.1,0-0.2,0-0.2,0c-1-0.2-1.9-0.3-2.9-0.4
				c-0.3,0-0.5-0.1-0.8-0.1c-0.8-0.1-1.7-0.2-2.5-0.3c-0.2,0-0.4,0-0.5-0.1c-1-0.1-2-0.2-3.1-0.2c-0.3,0-0.5,0-0.8,0
				c-0.9,0-1.7-0.1-2.6-0.1c-0.2,0-0.5,0-0.7,0c-1.1,0-2.1,0-3.2,0c-0.2,0-0.5,0-0.7,0c-0.9,0-1.8,0.1-2.7,0.1c-0.3,0-0.6,0-0.8,0
				c-1.1,0.1-2.2,0.1-3.4,0.2c-0.2,0-0.3,0-0.5,0c-1,0.1-2,0.2-3,0.3c-0.3,0-0.6,0.1-0.9,0.1c-1.2,0.1-2.3,0.3-3.5,0.4
				c-1.4,0.2-2.8,0.4-4.1,0.6c-0.5,0.1-0.9,0.2-1.4,0.3c-0.9,0.2-1.7,0.3-2.6,0.5c-0.6,0.1-1.2,0.3-1.7,0.4
				c-0.7,0.2-1.4,0.3-2.2,0.5c-0.6,0.2-1.3,0.3-1.9,0.5c-0.6,0.2-1.3,0.3-1.9,0.5c-0.7,0.2-1.3,0.4-2,0.6c-0.6,0.2-1.1,0.3-1.7,0.5
				c-0.7,0.2-1.4,0.4-2.1,0.7c-0.5,0.2-1,0.3-1.5,0.5c-0.7,0.3-1.4,0.5-2.2,0.8c-0.4,0.2-0.8,0.3-1.2,0.5c-0.8,0.3-1.5,0.6-2.3,0.9
				c-0.3,0.1-0.6,0.3-1,0.4c-0.6,0.3-1.2,0.5-1.7,0.8c-0.2,0.1-0.5,0.2-0.7,0.4c-0.1,0.1-0.3,0.1-0.4,0.2c-1,0.5-1.9,0.9-2.8,1.4
				c0,0,0,0,0,0c-2.9,1.6-5.8,3.3-8.5,5.2c-2.9,2-5.7,4.2-8.4,6.6c-0.4,0.4-0.8,0.7-1.2,1.1c-0.8,0.7-1.6,1.5-2.3,2.2
				c-0.2,0.2-0.5,0.5-0.7,0.7c-0.5,0.5-1,1-1.5,1.5c-0.3,0.3-0.5,0.6-0.8,0.8c-0.5,0.5-0.9,1-1.4,1.5c-0.3,0.3-0.5,0.6-0.8,0.8
				c-0.1,0.2-0.3,0.3-0.4,0.5c-0.3,0.4-0.6,0.7-0.9,1.1c-0.2,0.2-0.4,0.5-0.6,0.7c-0.6,0.7-1.2,1.4-1.8,2.1c0,0-0.1,0.1-0.1,0.1
				c-0.6,0.8-1.2,1.5-1.7,2.3c-0.2,0.2-0.3,0.5-0.5,0.7c-0.3,0.4-0.6,0.8-0.8,1.1c-0.1,0.2-0.2,0.3-0.3,0.5
				c-0.2,0.2-0.3,0.5-0.5,0.7c-0.4,0.5-0.7,1.1-1.1,1.6c-0.1,0.2-0.3,0.4-0.4,0.7c-0.5,0.7-0.9,1.5-1.4,2.2c0,0,0,0.1,0,0.1
				c-0.3,0.6-0.7,1.2-1,1.8c-0.1,0.1-0.1,0.2-0.2,0.3c-0.1,0.3-0.3,0.5-0.4,0.8c-0.3,0.5-0.5,1-0.8,1.5c-0.1,0.3-0.3,0.6-0.4,0.8
				c-0.2,0.5-0.5,1-0.7,1.6c-0.1,0.3-0.2,0.5-0.3,0.8c-0.3,0.7-0.5,1.4-0.8,2c0,0.1-0.1,0.2-0.1,0.3c0,0,0,0,0,0
				c-0.3,0.7-0.5,1.5-0.8,2.2c-0.1,0.2-0.1,0.4-0.2,0.6c-0.2,0.6-0.3,1.1-0.5,1.7c-0.1,0.2-0.1,0.4-0.2,0.7
				c-0.2,0.8-0.4,1.5-0.5,2.3c-2.9,13.6-4.4,34.9-4.5,63.9l-0.2,90.4c0,20.9,0.6,36.5,2,46.8c1.4,10.3,4.8,19.8,10.4,28.5
				c3.6,5.7,8.3,10.5,14.1,14.6c1.9,1.4,4,2.6,6.1,3.8l33.2,18c-8.7-4.7-15.4-10.9-20.2-18.4c-5.6-8.7-9-18.2-10.4-28.5
				c-1.4-10.3-2-25.9-2-46.8l0.2-90.4c0.1-29.1,1.5-50.4,4.5-63.9c0.2-0.8,0.4-1.5,0.5-2.3c0.1-0.2,0.1-0.4,0.2-0.7
				c0.2-0.6,0.3-1.1,0.5-1.7c0.1-0.2,0.1-0.4,0.2-0.6c0.2-0.8,0.5-1.5,0.8-2.3c0-0.1,0.1-0.2,0.1-0.3c0.3-0.7,0.5-1.4,0.8-2
				c0.1-0.3,0.2-0.5,0.3-0.8c0.2-0.5,0.5-1,0.7-1.6c0.1-0.3,0.3-0.6,0.4-0.8c0.2-0.5,0.5-1,0.8-1.5c0.1-0.3,0.3-0.5,0.4-0.8
				c0.4-0.7,0.8-1.4,1.2-2.2c0,0,0-0.1,0-0.1c0.4-0.8,0.9-1.5,1.4-2.2c0.1-0.2,0.3-0.4,0.4-0.7c0.3-0.5,0.7-1.1,1.1-1.6
				c0.2-0.2,0.3-0.5,0.5-0.7c0.4-0.5,0.8-1.1,1.1-1.6c0.2-0.2,0.3-0.5,0.5-0.7c0.6-0.8,1.1-1.5,1.7-2.3c0,0,0.1-0.1,0.1-0.1
				c0.6-0.7,1.2-1.4,1.8-2.1c0.2-0.2,0.4-0.5,0.6-0.7c0.4-0.5,0.9-1,1.3-1.5c0.3-0.3,0.5-0.6,0.8-0.8c0.4-0.5,0.9-1,1.4-1.5
				c0.3-0.3,0.5-0.6,0.8-0.8c0.5-0.5,1-1,1.5-1.5c0.2-0.2,0.5-0.5,0.7-0.7c0.8-0.7,1.5-1.5,2.3-2.2c0.7-0.7,1.4-1.3,2.2-2
				c0.2-0.2,0.5-0.4,0.7-0.6c0.8-0.7,1.6-1.4,2.5-2c0,0,0.1-0.1,0.1-0.1c0.8-0.6,1.6-1.2,2.4-1.8c0.3-0.2,0.5-0.4,0.8-0.6
				c0.6-0.4,1.1-0.8,1.7-1.2c0.5-0.3,1-0.7,1.5-1c0.5-0.3,1-0.6,1.5-0.9c0.5-0.3,1-0.6,1.5-0.9c0.5-0.3,1-0.6,1.5-0.9
				c0.5-0.3,1.1-0.6,1.6-0.9c0.5-0.3,1.1-0.6,1.6-0.8c0.5-0.3,1.1-0.5,1.6-0.8c0.5-0.3,1.1-0.5,1.6-0.8c0.6-0.3,1.2-0.6,1.9-0.8
				c0.5-0.2,1.1-0.5,1.6-0.7c0.6-0.3,1.3-0.5,1.9-0.8c0.5-0.2,1.1-0.4,1.6-0.6c0.7-0.2,1.3-0.5,2-0.7c0.5-0.2,1.1-0.4,1.7-0.6
				c0.7-0.2,1.4-0.4,2.1-0.6c0.6-0.2,1.1-0.3,1.7-0.5c0.7-0.2,1.5-0.4,2.2-0.6c0.6-0.1,1.1-0.3,1.7-0.4c0.8-0.2,1.6-0.4,2.4-0.5
				c0.5-0.1,1.1-0.2,1.6-0.4c0.9-0.2,1.8-0.4,2.7-0.5c0.5-0.1,0.9-0.2,1.3-0.3c1.4-0.2,2.8-0.5,4.2-0.7c1.2-0.2,2.4-0.3,3.5-0.4
				c0.3,0,0.6-0.1,0.9-0.1C404.2,155.6,405.2,155.5,406.2,155.5z"/>
			<g>
				<linearGradient id="SVGID_11_" gradientUnits="userSpaceOnUse" x1="315.5984" y1="315.2216" x2="486.0052" y2="315.2216">
					<stop  offset="0" style="stop-color:#8FE0F9"/>
					<stop  offset="0.9991" style="stop-color:#57BDE3"/>
				</linearGradient>
				<path class="st14" d="M398.7,156.3c21.5-3,39.3-0.8,53.4,6.8c14.1,7.5,23.3,17.5,27.6,30c4.3,12.5,6.4,31.2,6.3,56.1l0,13.2
					l-73.3,10.3l0.1-27.6c0-17.4-0.6-28.2-2-32.4c-1.4-4.2-4.7-5.9-9.9-5.2c-4.5,0.6-7.6,3-9.2,6.9c-1.6,4-2.5,13.7-2.5,29.3
					l-0.3,146c0,13.7,0.8,22.5,2.4,26.6c1.6,4.1,4.9,5.8,9.7,5.1c5.3-0.7,9-3.7,10.9-8.8c1.9-5.2,2.9-14.8,2.9-29l0.1-36.1
					l-14.8,2.1l0.1-46.2l85.8-12.1l-0.3,163.2l-46,6.5l-6.7-20.8c-5,10.1-11.3,18-18.9,23.8c-7.6,5.8-16.6,9.4-26.9,10.8
					c-12.3,1.7-23.8,0.1-34.6-4.8c-10.7-4.9-18.9-11.8-24.4-20.5c-5.6-8.7-9-18.2-10.4-28.5c-1.4-10.3-2-25.9-2-46.8l0.2-90.4
					c0.1-29.1,1.5-50.4,4.5-63.9c2.9-13.6,11.3-26.8,25-39.7C359,167.3,376.8,159.4,398.7,156.3z"/>
			</g>
		</g>
	</g>
</g>
</svg>
