<?xml version="1.0" encoding="utf-8"?>
<!-- Generator: Adobe Illustrator 22.1.0, SVG Export Plug-In . SVG Version: 6.00 Build 0)  -->
<svg version="1.1" id="Layer_1" xmlns="http://www.w3.org/2000/svg" xmlns:xlink="http://www.w3.org/1999/xlink" x="0px" y="0px"
	 viewBox="0 0 25 25" style="enable-background:new 0 0 25 25;" xml:space="preserve">
<style type="text/css">
	.st0{fill:#FFFFFF;}
	.st1{fill:#484949;}
	.st2{fill:#B30000;}
	.st3{fill:#00699B;}
	.st4{fill:#009D65;}
</style>
<rect class="st0" width="25" height="25"/>
<g id="gUvIlC.tif">
	<g>
		<path class="st1" d="M1.5,19.1c0.2,0,0.5,0,0.7,0c0.1,0,0.1,0,0.1,0.1c0.2,0.5,0.4,1,0.6,1.4c0,0,0,0,0,0.1
			C3,20.6,3,20.4,3.1,20.3c0.2-0.4,0.4-0.8,0.5-1.1c0,0,0-0.1,0.1-0.1s0.3,0,0.4,0c0.1,0,0.1,0,0.1,0.1c0.2,0.5,0.4,1,0.7,1.4
			c0,0,0,0,0,0.1C5,20.6,5,20.5,5.1,20.3c0.2-0.4,0.3-0.8,0.5-1.2c0,0,0-0.1,0.1-0.1c0.2,0,0.4,0,0.6,0c0,0,0,0,0.1,0
			c-0.1,0.1-0.1,0.3-0.2,0.4c-0.3,0.8-0.7,1.6-1,2.4c0,0.1,0,0.1-0.1,0.1s-0.2,0-0.2,0c-0.1,0-0.1-0.1-0.1-0.2
			c-0.3-0.5-0.5-1.1-0.8-1.6c0,0,0,0,0-0.1c-0.1,0.2-0.2,0.5-0.4,0.7c-0.2,0.3-0.3,0.7-0.5,1c0,0,0,0.1-0.1,0.1s-0.2,0-0.2,0
			c-0.1,0-0.1-0.1-0.1-0.2C2.3,20.9,1.9,20,1.5,19.1C1.6,19.2,1.6,19.1,1.5,19.1L1.5,19.1z"/>
		<path class="st2" d="M3.2,10.7c0-2.3,0-4.5,0-6.8c0-0.1,0-0.1,0.1-0.1c0.8,0,1.5,0,2.3,0c0.1,0,0.1,0,0.1,0.1c0,4.6,0,9.1,0,13.7
			c0,0.1,0,0.1-0.1,0.1c-0.8,0-1.5,0-2.3,0c-0.1,0-0.1,0-0.1-0.1C3.2,15.2,3.2,12.9,3.2,10.7z"/>
		<path class="st2" d="M9,10.7c0,2.3,0,4.5,0,6.8c0,0.1,0,0.1-0.1,0.1c-0.8,0-1.5,0-2.3,0c-0.1,0-0.1,0-0.1-0.1c0-4.6,0-9.1,0-13.7
			c0-0.1,0-0.1,0.1-0.1c0.8,0,1.5,0,2.3,0C9,3.7,9,3.8,9,3.8C9,6.1,9,8.4,9,10.7z"/>
		<path class="st3" d="M13.1,10.7c0-2.3,0-4.5,0-6.8c0-0.1,0-0.1,0.1-0.1c0.8,0,1.5,0,2.3,0c0.1,0,0.1,0,0.1,0.1c0,4.6,0,9.1,0,13.7
			c0,0.1,0,0.1-0.1,0.1c-0.8,0-1.5,0-2.3,0c-0.1,0-0.1,0-0.1-0.1C13.1,15.2,13.1,12.9,13.1,10.7z"/>
		<path class="st3" d="M18.1,10.7c0-2.3,0-4.5,0-6.8c0-0.1,0-0.1,0.1-0.1c0.8,0,1.5,0,2.3,0c0.1,0,0.1,0,0.1,0.1c0,4.6,0,9.1,0,13.7
			c0,0.1,0,0.1-0.1,0.1c-0.8,0-1.5,0-2.3,0c-0.1,0-0.1,0-0.1-0.1C18.1,15.2,18.1,12.9,18.1,10.7z"/>
		<path class="st3" d="M16.4,10.7c0-2.3,0-4.5,0-6.8c0-0.1,0-0.1,0.1-0.1c0.2,0,0.5,0,0.7,0c0,0,0.1,0,0.1,0.1l0,0
			c0,4.5,0,9.1,0,13.6c0,0.1,0,0.1-0.1,0.1c-0.2,0-0.5,0-0.7,0c-0.1,0-0.1,0-0.1-0.1c0-1.2,0-2.3,0-3.5
			C16.4,12.9,16.4,11.8,16.4,10.7z"/>
		<path class="st4" d="M10.6,10.7c0,2.3,0,4.5,0,6.8c0,0.1,0,0.1-0.1,0.1c-0.2,0-0.4,0-0.7,0c0,0-0.1,0-0.1-0.1l0,0
			c0-4.5,0-9.1,0-13.6c0-0.1,0-0.1,0.1-0.1c0.2,0,0.4,0,0.6,0c0.1,0,0.1,0,0.1,0.1c0,1.2,0,2.4,0,3.7C10.6,8.5,10.6,9.6,10.6,10.7z"
			/>
		<path class="st2" d="M1.6,10.7c0-2.3,0-4.6,0-6.8c0-0.1,0-0.1,0.1-0.1c0.2,0,0.4,0,0.7,0c0.1,0,0.1,0,0.1,0.1l0,0
			c0,4.5,0,9.1,0,13.6c0,0.1,0,0.1-0.1,0.1c-0.2,0-0.4,0-0.6,0c-0.1,0-0.1,0-0.1-0.1C1.6,15.2,1.6,12.9,1.6,10.7z"/>
		<path class="st4" d="M23.2,10.7c0-2.3,0-4.5,0-6.8c0-0.1,0-0.1,0.1-0.1c0.2,0,0.4,0,0.7,0c0.1,0,0.1,0,0.1,0.1l0,0
			c0,4.5,0,9.1,0,13.6c0,0.1,0,0.1-0.1,0.1c-0.2,0-0.4,0-0.6,0c-0.1,0-0.1,0-0.1-0.1C23.2,15.2,23.2,12.9,23.2,10.7z"/>
		<path class="st4" d="M22.3,10.7c0,2.3,0,4.5,0,6.8c0,0.1,0,0.1-0.1,0.1c-0.2,0-0.4,0-0.6,0c-0.1,0-0.1,0-0.1-0.1
			c0-1.7,0-3.5,0-5.2c0-2.8,0-5.6,0-8.4c0-0.1,0-0.1,0.1-0.1c0.2,0,0.4,0,0.6,0c0.1,0,0.1,0,0.1,0.1c0,0.7,0,1.4,0,2.1
			C22.3,7.5,22.3,9.1,22.3,10.7z"/>
		<path class="st4" d="M12.3,10.7c0,2.3,0,4.5,0,6.8c0,0.1,0,0.1-0.1,0.1c-0.2,0-0.4,0-0.7,0c0,0-0.1,0-0.1-0.1l0,0
			c0-4.5,0-9.1,0-13.6c0-0.1,0-0.1,0.1-0.1c0.2,0,0.4,0,0.6,0c0.1,0,0.1,0,0.1,0.1c0,1.9,0,3.8,0,5.7C12.3,9.9,12.3,10.3,12.3,10.7z
			"/>
		<path class="st1" d="M12.6,20.5c0-0.5,0-0.9,0-1.4c0-0.1,0-0.1,0.1-0.1c0.4,0,0.9,0,1.3,0c0.3,0,0.5,0.1,0.8,0.2
			c0.4,0.3,0.6,0.6,0.7,1.1c0,0.3,0,0.7-0.2,0.9c-0.2,0.3-0.6,0.5-0.9,0.6c-0.1,0-0.3,0-0.4,0c-0.4,0-0.8,0-1.2,0
			c-0.1,0-0.1,0-0.1-0.1C12.6,21.4,12.6,21,12.6,20.5z M13.3,20.5c0,0.3,0,0.6,0,0.9c0,0,0,0.1,0.1,0.1c0.2,0,0.4,0,0.6,0
			c0.4,0,0.7-0.3,0.7-0.6c0-0.1,0-0.3,0-0.4c0-0.4-0.3-0.7-0.7-0.8c-0.2,0-0.4,0-0.6,0c-0.1,0-0.1,0-0.1,0.1
			C13.3,20,13.3,20.2,13.3,20.5z"/>
		<path class="st1" d="M17,19.1c0.1,0,0.2,0,0.3,0c0.1,0,0.1,0,0.1,0.1c0.4,0.8,0.7,1.6,1.1,2.5c0,0.1,0.1,0.2,0.1,0.3l0,0
			c-0.2,0-0.4,0-0.7,0c0,0-0.1,0-0.1-0.1c-0.1-0.2-0.1-0.3-0.2-0.5c0,0,0-0.1-0.1-0.1c-0.4,0-0.8,0-1.2,0c0,0-0.1,0-0.1,0.1
			c-0.1,0.2-0.1,0.3-0.2,0.5c0,0,0,0.1-0.1,0.1c-0.2,0-0.4,0-0.6,0c-0.1,0-0.1,0,0-0.1c0.4-0.9,0.7-1.8,1.1-2.8c0,0,0-0.1,0.1-0.1
			C16.8,19.1,16.9,19.1,17,19.1z M17,19.8L17,19.8c-0.1,0.4-0.3,0.7-0.4,1.1l0,0c0.3,0,0.5,0,0.8,0c0,0,0.1,0,0-0.1
			C17.3,20.5,17.2,20.1,17,19.8z"/>
		<path class="st1" d="M24,22c-0.2,0-0.5,0-0.7,0c0,0,0,0-0.1,0c-0.1-0.2-0.1-0.3-0.2-0.5c0,0,0-0.1-0.1-0.1c-0.4,0-0.8,0-1.2,0
			c0,0-0.1,0-0.1,0.1c-0.1,0.2-0.1,0.3-0.2,0.4c0,0,0,0.1-0.1,0.1c-0.2,0-0.4,0-0.6,0c-0.1,0-0.1,0,0-0.1c0.4-0.9,0.7-1.8,1.1-2.8
			c0,0,0-0.1,0.1-0.1c0.2,0,0.5,0,0.7,0c0.1,0,0.1,0,0.1,0.1c0.4,0.9,0.8,1.7,1.2,2.6C23.9,21.8,24,21.9,24,22z M22.3,19.8
			c-0.1,0.4-0.3,0.7-0.4,1.1c0.3,0,0.6,0,0.9,0C22.6,20.5,22.5,20.2,22.3,19.8z"/>
		<path class="st1" d="M8.9,20.4C9,20.2,9.1,20,9.3,19.9c0.2-0.2,0.3-0.5,0.5-0.7c0,0,0,0,0.1,0c0.2,0,0.5,0,0.7,0v0.1
			c-0.3,0.4-0.6,0.8-0.8,1.2v0.1c0.4,0.5,0.8,0.9,1.2,1.4l0,0c0,0,0,0-0.1,0c-0.3,0-0.5,0-0.8,0C10,22,10,22,10,21.9
			c-0.3-0.4-0.7-0.8-1-1.2l0,0c0,0,0,0,0,0.1c0,0.4,0,0.8,0,1.2c0,0.1,0,0.1-0.1,0.1c-0.2,0-0.4,0-0.6,0c0,0-0.1,0-0.1-0.1
			c0-0.9,0-1.8,0-2.8c0,0,0-0.1,0.1-0.1c0.2,0,0.4,0,0.6,0c0.1,0,0.1,0,0.1,0.1C8.9,19.6,8.9,20,8.9,20.4L8.9,20.4z"/>
		<path class="st1" d="M19.7,19.1c0.4,0,0.9,0,1.3,0c0.1,0,0.1,0,0.1,0.1s0,0.3,0,0.4s0,0.1-0.1,0.1c-0.3,0-0.6,0-0.9,0
			c-0.1,0-0.1,0-0.1,0.1c0,0.7,0,1.5,0,2.2c0,0.1,0,0.1-0.1,0.1c-0.2,0-0.4,0-0.5,0s-0.1,0-0.1-0.1c0-0.7,0-1.5,0-2.2
			c0-0.1,0-0.1-0.1-0.1c-0.3,0-0.6,0-0.9,0c0,0-0.1,0-0.1-0.1s0-0.3,0-0.4s0-0.1,0.1-0.1C18.8,19.1,19.3,19.1,19.7,19.1z"/>
		<path class="st1" d="M6.8,20.5c0-0.5,0-0.9,0-1.4c0-0.1,0-0.1,0.1-0.1c0.2,0,0.4,0,0.6,0c0.1,0,0.1,0,0.1,0.1c0,0.9,0,1.8,0,2.7
			c0,0.1,0,0.1-0.1,0.1c-0.2,0-0.4,0-0.6,0c-0.1,0-0.1,0-0.1-0.1C6.8,21.4,6.8,21,6.8,20.5z"/>
		<path class="st1" d="M11.9,20.5c0,0.5,0,0.9,0,1.4c0,0.1,0,0.1-0.1,0.1c-0.2,0-0.4,0-0.6,0c0,0-0.1,0-0.1-0.1c0-0.9,0-1.8,0-2.7
			c0,0,0-0.1,0.1-0.1c0.2,0,0.4,0,0.6,0c0.1,0,0.1,0,0.1,0.1C11.9,19.6,11.9,20.1,11.9,20.5z"/>
	</g>
</g>
</svg>
